999
Inkscape export via "Better DXF Output" (bob@bobcookdev.com)
  0
SECTION
  2
HEADER
  9
$ACADVER
  1
AC1014
  9
$HANDSEED
  5
FFFF
  0
ENDSEC
  0
SECTION
  2
TABLES
  0
TABLE
  2
VPORT
  5
8
330
0
100
AcDbSymbolTable
 70
     4
  0
VPORT
  5
2E
330
8
100
AcDbSymbolTableRecord
100
AcDbViewportTableRecord
  2
*ACTIVE
 70
     0
 10
0.0
 20
0.0
 11
1.0
 21
1.0
 12
4.25
 22
5.5
 13
0.0
 23
0.0
 14
10.0
 24
10.0
 15
10.0
 25
10.0
 16
0.0
 26
0.0
 36
1.0
 17
0.0
 27
0.0
 37
0.0
 40
11
 41
1.24
 42
50.0
 43
0.0
 44
0.0
 50
0.0
 51
0.0
 71
     0
 72
   100
 73
     1
 74
     3
 75
     0
 76
     0
 77
     0
 78
     0
  0
ENDTAB
  0
TABLE
  2
LTYPE
  5
5
330
0
100
AcDbSymbolTable
 70
     1
  0
LTYPE
  5
14
330
5
100
AcDbSymbolTableRecord
100
AcDbLinetypeTableRecord
  2
BYBLOCK
 70
     0
  3

 72
    65
 73
     0
 40
0.0
  0
LTYPE
  5
15
330
5
100
AcDbSymbolTableRecord
100
AcDbLinetypeTableRecord
  2
BYLAYER
 70
     0
  3

 72
    65
 73
     0
 40
0.0
  0
LTYPE
  5
16
330
5
100
AcDbSymbolTableRecord
100
AcDbLinetypeTableRecord
  2
CONTINUOUS
 70
     0
  3
Solid line
 72
    65
 73
     0
 40
0.0
  0
ENDTAB
  0
TABLE
  2
LAYER
  5
2
330
0
100
AcDbSymbolTable
 70
1
  0
LAYER
  5
10
330
2
100
AcDbSymbolTableRecord
100
AcDbLayerTableRecord
  2
0
 70
     0
 62
     7
  6
CONTINUOUS
  0
ENDTAB
  0
TABLE
  2
STYLE
  5
3
330
0
100
AcDbSymbolTable
 70
     1
  0
STYLE
  5
11
330
3
100
AcDbSymbolTableRecord
100
AcDbTextStyleTableRecord
  2
STANDARD
 70
     0
 40
0.0
 41
1.0
 50
0.0
 71
     0
 42
2.5
  3
txt
  4

  0
ENDTAB
  0
TABLE
  2
VIEW
  5
6
330
0
100
AcDbSymbolTable
 70
     0
  0
ENDTAB
  0
TABLE
  2
UCS
  5
7
330
0
100
AcDbSymbolTable
 70
     0
  0
ENDTAB
  0
TABLE
  2
APPID
  5
9
330
0
100
AcDbSymbolTable
 70
     2
  0
APPID
  5
12
330
9
100
AcDbSymbolTableRecord
100
AcDbRegAppTableRecord
  2
ACAD
 70
     0
  0
ENDTAB
  0
TABLE
  2
DIMSTYLE
  5
A
330
0
100
AcDbSymbolTable
 70
     1
  0
DIMSTYLE
105
27
330
A
100
AcDbSymbolTableRecord
100
AcDbDimStyleTableRecord
  2
ISO-25
 70
     0
  3

  4

  5

  6

  7

 40
1.0
 41
2.5
 42
0.625
 43
3.75
 44
1.25
 45
0.0
 46
0.0
 47
0.0
 48
0.0
140
2.5
141
2.5
142
0.0
143
0.03937007874016
144
1.0
145
0.0
146
1.0
147
0.625
 71
     0
 72
     0
 73
     0
 74
     0
 75
     0
 76
     0
 77
     1
 78
     8
170
     0
171
     3
172
     1
173
     0
174
     0
175
     0
176
     0
177
     0
178
     0
270
     2
271
     2
272
     2
273
     2
274
     3
340
11
275
     0
280
     0
281
     0
282
     0
283
     0
284
     8
285
     0
286
     0
287
     3
288
     0
  0
ENDTAB
  0
TABLE
  2
BLOCK_RECORD
  5
1
330
0
100
AcDbSymbolTable
 70
     1
  0
BLOCK_RECORD
  5
1F
330
1
100
AcDbSymbolTableRecord
100
AcDbBlockTableRecord
  2
*MODEL_SPACE
  0
BLOCK_RECORD
  5
1B
330
1
100
AcDbSymbolTableRecord
100
AcDbBlockTableRecord
  2
*PAPER_SPACE
  0
ENDTAB
  0
ENDSEC
  0
SECTION
  2
BLOCKS
  0
BLOCK
  5
20
330
1F
100
AcDbEntity
  8
0
100
AcDbBlockBegin
  2
*MODEL_SPACE
 70
     0
 10
0.0
 20
0.0
 30
0.0
  3
*MODEL_SPACE
  1

  0
ENDBLK
  5
21
330
1F
100
AcDbEntity
  8
0
100
AcDbBlockEnd
  0
BLOCK
  5
1C
330
1B
100
AcDbEntity
 67
     1
  8
0
100
AcDbBlockBegin
  2
*PAPER_SPACE
  1

  0
ENDBLK
  5
1D
330
1B
100
AcDbEntity
 67
     1
  8
0
100
AcDbBlockEnd
  0
ENDSEC
  0
SECTION
  2
ENTITIES
0
LINE
8
Layer 1
62
4
5
100
100
AcDbEntity
100
AcDbLine
10
19.140377
20
18.063628
30
0.0
11
19.031834
21
24.511442
31
0.0
0
LINE
8
Layer 1
62
4
5
101
100
AcDbEntity
100
AcDbLine
10
19.031834
20
24.511442
30
0.0
11
18.774918
21
30.776211
31
0.0
0
LINE
8
Layer 1
62
4
5
102
100
AcDbEntity
100
AcDbLine
10
18.774918
20
30.776211
30
0.0
11
17.855785
21
42.750933
31
0.0
0
LINE
8
Layer 1
62
4
5
103
100
AcDbEntity
100
AcDbLine
10
17.855785
20
42.750933
30
0.0
11
16.462631
21
53.976437
31
0.0
0
LINE
8
Layer 1
62
4
5
104
100
AcDbEntity
100
AcDbLine
10
16.462631
20
53.976437
30
0.0
11
14.675103
21
64.441366
31
0.0
0
LINE
8
Layer 1
62
4
5
105
100
AcDbEntity
100
AcDbLine
10
14.675103
20
64.441366
30
0.0
11
12.572854
21
74.134365
31
0.0
0
LINE
8
Layer 1
62
4
5
106
100
AcDbEntity
100
AcDbLine
10
12.572854
20
74.134365
30
0.0
11
10.235533
21
83.044075
31
0.0
0
LINE
8
Layer 1
62
4
5
107
100
AcDbEntity
100
AcDbLine
10
10.235533
20
83.044075
30
0.0
11
7.742791
21
91.159141
31
0.0
0
LINE
8
Layer 1
62
4
5
108
100
AcDbEntity
100
AcDbLine
10
7.742791
20
91.159141
30
0.0
11
5.174278
21
98.468205
31
0.0
0
LINE
8
Layer 1
62
4
5
109
100
AcDbEntity
100
AcDbLine
10
5.174278
20
98.468205
30
0.0
11
2.609645
21
104.959911
31
0.0
0
LINE
8
Layer 1
62
4
5
10a
100
AcDbEntity
100
AcDbLine
10
2.609645
20
104.959911
30
0.0
11
0.128541
21
110.622903
31
0.0
0
LINE
8
Layer 1
62
4
5
10b
100
AcDbEntity
100
AcDbLine
10
0.128541
20
110.622903
30
0.0
11
-2.189382
21
115.445823
31
0.0
0
LINE
8
Layer 1
62
4
5
10c
100
AcDbEntity
100
AcDbLine
10
-2.189382
20
115.445823
30
0.0
11
-4.264474
21
119.417316
31
0.0
0
LINE
8
Layer 1
62
4
5
10d
100
AcDbEntity
100
AcDbLine
10
-4.264474
20
119.417316
30
0.0
11
-7.367566
21
124.760589
31
0.0
0
LINE
8
Layer 1
62
4
5
10e
100
AcDbEntity
100
AcDbLine
10
-7.367566
20
124.760589
30
0.0
11
-8.543531
21
126.561870
31
0.0
0
LINE
8
Layer 1
62
4
5
10f
100
AcDbEntity
100
AcDbLine
10
-8.543531
20
126.561870
30
0.0
11
-8.717328
21
127.336677
31
0.0
0
LINE
8
Layer 1
62
4
5
110
100
AcDbEntity
100
AcDbLine
10
-8.717328
20
127.336677
30
0.0
11
-8.678789
21
128.120513
31
0.0
0
LINE
8
Layer 1
62
4
5
111
100
AcDbEntity
100
AcDbLine
10
-8.678789
20
128.120513
30
0.0
11
-8.081618
21
130.236262
31
0.0
0
LINE
8
Layer 1
62
4
5
112
100
AcDbEntity
100
AcDbLine
10
-8.081618
20
130.236262
30
0.0
11
-7.589644
21
131.935685
31
0.0
0
LINE
8
Layer 1
62
4
5
113
100
AcDbEntity
100
AcDbLine
10
-7.589644
20
131.935685
30
0.0
11
-7.324366
21
133.656912
31
0.0
0
LINE
8
Layer 1
62
4
5
114
100
AcDbEntity
100
AcDbLine
10
-7.324366
20
133.656912
30
0.0
11
-7.204612
21
140.227606
31
0.0
0
LINE
8
Layer 1
62
4
5
115
100
AcDbEntity
100
AcDbLine
10
-7.204612
20
140.227606
30
0.0
11
-7.116490
21
144.909564
31
0.0
0
LINE
8
Layer 1
62
4
5
116
100
AcDbEntity
100
AcDbLine
10
-7.116490
20
144.909564
30
0.0
11
-6.693233
21
149.666423
31
0.0
0
LINE
8
Layer 1
62
4
5
117
100
AcDbEntity
100
AcDbLine
10
-6.693233
20
149.666423
30
0.0
11
-6.018808
21
154.466257
31
0.0
0
LINE
8
Layer 1
62
4
5
118
100
AcDbEntity
100
AcDbLine
10
-6.018808
20
154.466257
30
0.0
11
-5.177184
21
159.277139
31
0.0
0
LINE
8
Layer 1
62
4
5
119
100
AcDbEntity
100
AcDbLine
10
-5.177184
20
159.277139
30
0.0
11
-3.328209
21
168.804343
31
0.0
0
LINE
8
Layer 1
62
4
5
11a
100
AcDbEntity
100
AcDbLine
10
-3.328209
20
168.804343
30
0.0
11
-2.488794
21
173.456812
31
0.0
0
LINE
8
Layer 1
62
4
5
11b
100
AcDbEntity
100
AcDbLine
10
-2.488794
20
173.456812
30
0.0
11
-1.818052
21
177.992622
31
0.0
0
LINE
8
Layer 1
62
4
5
11c
100
AcDbEntity
100
AcDbLine
10
-1.818052
20
177.992622
30
0.0
11
-1.429443
21
180.318733
31
0.0
0
LINE
8
Layer 1
62
4
5
11d
100
AcDbEntity
100
AcDbLine
10
-1.429443
20
180.318733
30
0.0
11
-1.295545
21
182.059663
31
0.0
0
LINE
8
Layer 1
62
4
5
11e
100
AcDbEntity
100
AcDbLine
10
-1.295545
20
182.059663
30
0.0
11
-1.522601
21
183.308636
31
0.0
0
LINE
8
Layer 1
62
4
5
11f
100
AcDbEntity
100
AcDbLine
10
-1.522601
20
183.308636
30
0.0
11
-1.804688
21
183.777772
31
0.0
0
LINE
8
Layer 1
62
4
5
120
100
AcDbEntity
100
AcDbLine
10
-1.804688
20
183.777772
30
0.0
11
-2.216855
21
184.158879
31
0.0
0
LINE
8
Layer 1
62
4
5
121
100
AcDbEntity
100
AcDbLine
10
-2.216855
20
184.158879
30
0.0
11
-2.824908
21
184.238899
31
0.0
0
LINE
8
Layer 1
62
4
5
122
100
AcDbEntity
100
AcDbLine
10
-2.824908
20
184.238899
30
0.0
11
-3.649713
21
183.867181
31
0.0
0
LINE
8
Layer 1
62
4
5
123
100
AcDbEntity
100
AcDbLine
10
-3.649713
20
183.867181
30
0.0
11
-5.733035
21
182.189571
31
0.0
0
LINE
8
Layer 1
62
4
5
124
100
AcDbEntity
100
AcDbLine
10
-5.733035
20
182.189571
30
0.0
11
-8.033747
21
179.968132
31
0.0
0
LINE
8
Layer 1
62
4
5
125
100
AcDbEntity
100
AcDbLine
10
-8.033747
20
179.968132
30
0.0
11
-10.118772
21
178.044946
31
0.0
0
LINE
8
Layer 1
62
4
5
126
100
AcDbEntity
100
AcDbLine
10
-10.118772
20
178.044946
30
0.0
11
-13.553228
21
175.318609
31
0.0
0
LINE
8
Layer 1
62
4
5
127
100
AcDbEntity
100
AcDbLine
10
-13.553228
20
175.318609
30
0.0
11
-19.414690
21
170.884378
31
0.0
0
LINE
8
Layer 1
62
4
5
128
100
AcDbEntity
100
AcDbLine
10
-19.414690
20
170.884378
30
0.0
11
-26.538769
21
165.879336
31
0.0
0
LINE
8
Layer 1
62
4
5
129
100
AcDbEntity
100
AcDbLine
10
-26.538769
20
165.879336
30
0.0
11
-30.210417
21
163.518099
31
0.0
0
LINE
8
Layer 1
62
4
5
12a
100
AcDbEntity
100
AcDbLine
10
-30.210417
20
163.518099
30
0.0
11
-33.761073
21
161.440566
31
0.0
0
LINE
8
Layer 1
62
4
5
12b
100
AcDbEntity
100
AcDbLine
10
-33.761073
20
161.440566
30
0.0
11
-36.463690
21
159.968269
31
0.0
0
LINE
8
Layer 1
62
4
5
12c
100
AcDbEntity
100
AcDbLine
10
-36.463690
20
159.968269
30
0.0
11
-43.455869
21
166.035686
31
0.0
0
LINE
8
Layer 1
62
4
5
12d
100
AcDbEntity
100
AcDbLine
10
-43.455869
20
166.035686
30
0.0
11
-50.669154
21
171.759786
31
0.0
0
LINE
8
Layer 1
62
4
5
12e
100
AcDbEntity
100
AcDbLine
10
-50.669154
20
171.759786
30
0.0
11
-58.092583
21
177.134805
31
0.0
0
LINE
8
Layer 1
62
4
5
12f
100
AcDbEntity
100
AcDbLine
10
-58.092583
20
177.134805
30
0.0
11
-65.715196
21
182.154980
31
0.0
0
LINE
8
Layer 1
62
4
5
130
100
AcDbEntity
100
AcDbLine
10
-65.715196
20
182.154980
30
0.0
11
-73.526032
21
186.814547
31
0.0
0
LINE
8
Layer 1
62
4
5
131
100
AcDbEntity
100
AcDbLine
10
-73.526032
20
186.814547
30
0.0
11
-81.514132
21
191.107743
31
0.0
0
LINE
8
Layer 1
62
4
5
132
100
AcDbEntity
100
AcDbLine
10
-81.514132
20
191.107743
30
0.0
11
-89.668533
21
195.028805
31
0.0
0
LINE
8
Layer 1
62
4
5
133
100
AcDbEntity
100
AcDbLine
10
-89.668533
20
195.028805
30
0.0
11
-97.978276
21
198.571969
31
0.0
0
LINE
8
Layer 1
62
4
5
134
100
AcDbEntity
100
AcDbLine
10
-97.978276
20
198.571969
30
0.0
11
-106.432401
21
201.731472
31
0.0
0
LINE
8
Layer 1
62
4
5
135
100
AcDbEntity
100
AcDbLine
10
-106.432401
20
201.731472
30
0.0
11
-115.019946
21
204.501552
31
0.0
0
LINE
8
Layer 1
62
4
5
136
100
AcDbEntity
100
AcDbLine
10
-115.019946
20
204.501552
30
0.0
11
-123.729951
21
206.876443
31
0.0
0
LINE
8
Layer 1
62
4
5
137
100
AcDbEntity
100
AcDbLine
10
-123.729951
20
206.876443
30
0.0
11
-132.551456
21
208.850384
31
0.0
0
LINE
8
Layer 1
62
4
5
138
100
AcDbEntity
100
AcDbLine
10
-132.551456
20
208.850384
30
0.0
11
-141.473499
21
210.417610
31
0.0
0
LINE
8
Layer 1
62
4
5
139
100
AcDbEntity
100
AcDbLine
10
-141.473499
20
210.417610
30
0.0
11
-150.485121
21
211.572359
31
0.0
0
LINE
8
Layer 1
62
4
5
13a
100
AcDbEntity
100
AcDbLine
10
-150.485121
20
211.572359
30
0.0
11
-159.575361
21
212.308867
31
0.0
0
LINE
8
Layer 1
62
4
5
13b
100
AcDbEntity
100
AcDbLine
10
-159.575361
20
212.308867
30
0.0
11
-168.733258
21
212.621371
31
0.0
0
LINE
8
Layer 1
62
4
5
13c
100
AcDbEntity
100
AcDbLine
10
-168.733258
20
212.621371
30
0.0
11
-177.559248
21
212.405554
31
0.0
0
LINE
8
Layer 1
62
4
5
13d
100
AcDbEntity
100
AcDbLine
10
-177.559248
20
212.405554
30
0.0
11
-186.333365
21
211.788164
31
0.0
0
LINE
8
Layer 1
62
4
5
13e
100
AcDbEntity
100
AcDbLine
10
-186.333365
20
211.788164
30
0.0
11
-195.042931
21
210.774051
31
0.0
0
LINE
8
Layer 1
62
4
5
13f
100
AcDbEntity
100
AcDbLine
10
-195.042931
20
210.774051
30
0.0
11
-203.675264
21
209.368067
31
0.0
0
LINE
8
Layer 1
62
4
5
140
100
AcDbEntity
100
AcDbLine
10
-203.675264
20
209.368067
30
0.0
11
-212.217684
21
207.575062
31
0.0
0
LINE
8
Layer 1
62
4
5
141
100
AcDbEntity
100
AcDbLine
10
-212.217684
20
207.575062
30
0.0
11
-220.657511
21
205.399889
31
0.0
0
LINE
8
Layer 1
62
4
5
142
100
AcDbEntity
100
AcDbLine
10
-220.657511
20
205.399889
30
0.0
11
-228.982065
21
202.847396
31
0.0
0
LINE
8
Layer 1
62
4
5
143
100
AcDbEntity
100
AcDbLine
10
-228.982065
20
202.847396
30
0.0
11
-237.178665
21
199.922437
31
0.0
0
LINE
8
Layer 1
62
4
5
144
100
AcDbEntity
100
AcDbLine
10
-237.178665
20
199.922437
30
0.0
11
-245.234631
21
196.629861
31
0.0
0
LINE
8
Layer 1
62
4
5
145
100
AcDbEntity
100
AcDbLine
10
-245.234631
20
196.629861
30
0.0
11
-253.137282
21
192.974520
31
0.0
0
LINE
8
Layer 1
62
4
5
146
100
AcDbEntity
100
AcDbLine
10
-253.137282
20
192.974520
30
0.0
11
-260.873938
21
188.961264
31
0.0
0
LINE
8
Layer 1
62
4
5
147
100
AcDbEntity
100
AcDbLine
10
-260.873938
20
188.961264
30
0.0
11
-268.431920
21
184.594945
31
0.0
0
LINE
8
Layer 1
62
4
5
148
100
AcDbEntity
100
AcDbLine
10
-268.431920
20
184.594945
30
0.0
11
-275.798545
21
179.880413
31
0.0
0
LINE
8
Layer 1
62
4
5
149
100
AcDbEntity
100
AcDbLine
10
-275.798545
20
179.880413
30
0.0
11
-282.961135
21
174.822521
31
0.0
0
LINE
8
Layer 1
62
4
5
14a
100
AcDbEntity
100
AcDbLine
10
-282.961135
20
174.822521
30
0.0
11
-289.907009
21
169.426117
31
0.0
0
LINE
8
Layer 1
62
4
5
14b
100
AcDbEntity
100
AcDbLine
10
-289.907009
20
169.426117
30
0.0
11
-296.623486
21
163.696055
31
0.0
0
LINE
8
Layer 1
62
4
5
14c
100
AcDbEntity
100
AcDbLine
10
-296.623486
20
163.696055
30
0.0
11
-298.210986
21
164.303493
31
0.0
0
LINE
8
Layer 1
62
4
5
14d
100
AcDbEntity
100
AcDbLine
10
-298.210986
20
164.303493
30
0.0
11
-300.392925
21
165.371286
31
0.0
0
LINE
8
Layer 1
62
4
5
14e
100
AcDbEntity
100
AcDbLine
10
-300.392925
20
165.371286
30
0.0
11
-302.562112
21
166.708266
31
0.0
0
LINE
8
Layer 1
62
4
5
14f
100
AcDbEntity
100
AcDbLine
10
-302.562112
20
166.708266
30
0.0
11
-304.911903
21
168.445931
31
0.0
0
LINE
8
Layer 1
62
4
5
150
100
AcDbEntity
100
AcDbLine
10
-304.911903
20
168.445931
30
0.0
11
-307.635656
21
170.715779
31
0.0
0
LINE
8
Layer 1
62
4
5
151
100
AcDbEntity
100
AcDbLine
10
-307.635656
20
170.715779
30
0.0
11
-312.722044
21
175.801382
31
0.0
0
LINE
8
Layer 1
62
4
5
152
100
AcDbEntity
100
AcDbLine
10
-312.722044
20
175.801382
30
0.0
11
-316.391199
21
179.336189
31
0.0
0
LINE
8
Layer 1
62
4
5
153
100
AcDbEntity
100
AcDbLine
10
-316.391199
20
179.336189
30
0.0
11
-318.859415
21
181.298254
31
0.0
0
LINE
8
Layer 1
62
4
5
154
100
AcDbEntity
100
AcDbLine
10
-318.859415
20
181.298254
30
0.0
11
-319.710765
21
181.682649
31
0.0
0
LINE
8
Layer 1
62
4
5
155
100
AcDbEntity
100
AcDbLine
10
-319.710765
20
181.682649
30
0.0
11
-320.342990
21
181.665627
31
0.0
0
LINE
8
Layer 1
62
4
5
156
100
AcDbEntity
100
AcDbLine
10
-320.342990
20
181.665627
30
0.0
11
-320.783129
21
181.244445
31
0.0
0
LINE
8
Layer 1
62
4
5
157
100
AcDbEntity
100
AcDbLine
10
-320.783129
20
181.244445
30
0.0
11
-321.058219
21
180.416360
31
0.0
0
LINE
8
Layer 1
62
4
5
158
100
AcDbEntity
100
AcDbLine
10
-321.058219
20
180.416360
30
0.0
11
-321.221398
21
177.528504
31
0.0
0
LINE
8
Layer 1
62
4
5
159
100
AcDbEntity
100
AcDbLine
10
-321.221398
20
177.528504
30
0.0
11
-320.756788
21
166.749236
31
0.0
0
LINE
8
Layer 1
62
4
5
15a
100
AcDbEntity
100
AcDbLine
10
-320.756788
20
166.749236
30
0.0
11
-321.402258
21
152.278179
31
0.0
0
LINE
8
Layer 1
62
4
5
15b
100
AcDbEntity
100
AcDbLine
10
-321.402258
20
152.278179
30
0.0
11
-322.042353
21
146.768008
31
0.0
0
LINE
8
Layer 1
62
4
5
15c
100
AcDbEntity
100
AcDbLine
10
-322.042353
20
146.768008
30
0.0
11
-322.454977
21
144.915595
31
0.0
0
LINE
8
Layer 1
62
4
5
15d
100
AcDbEntity
100
AcDbLine
10
-322.454977
20
144.915595
30
0.0
11
-323.025601
21
143.121942
31
0.0
0
LINE
8
Layer 1
62
4
5
15e
100
AcDbEntity
100
AcDbLine
10
-323.025601
20
143.121942
30
0.0
11
-324.615986
21
138.321626
31
0.0
0
LINE
8
Layer 1
62
4
5
15f
100
AcDbEntity
100
AcDbLine
10
-324.615986
20
138.321626
30
0.0
11
-324.688007
21
137.340674
31
0.0
0
LINE
8
Layer 1
62
4
5
160
100
AcDbEntity
100
AcDbLine
10
-324.688007
20
137.340674
30
0.0
11
-324.464821
21
136.437362
31
0.0
0
LINE
8
Layer 1
62
4
5
161
100
AcDbEntity
100
AcDbLine
10
-324.464821
20
136.437362
30
0.0
11
-324.272597
21
135.546573
31
0.0
0
LINE
8
Layer 1
62
4
5
162
100
AcDbEntity
100
AcDbLine
10
-324.272597
20
135.546573
30
0.0
11
-324.232676
21
134.618531
31
0.0
0
LINE
8
Layer 1
62
4
5
163
100
AcDbEntity
100
AcDbLine
10
-324.232676
20
134.618531
30
0.0
11
-324.356367
21
133.620121
31
0.0
0
LINE
8
Layer 1
62
4
5
164
100
AcDbEntity
100
AcDbLine
10
-324.356367
20
133.620121
30
0.0
11
-324.654982
21
132.518226
31
0.0
0
LINE
8
Layer 1
62
4
5
165
100
AcDbEntity
100
AcDbLine
10
-324.654982
20
132.518226
30
0.0
11
-326.161523
21
130.724037
31
0.0
0
LINE
8
Layer 1
62
4
5
166
100
AcDbEntity
100
AcDbLine
10
-326.161523
20
130.724037
30
0.0
11
-330.145762
21
125.364275
31
0.0
0
LINE
8
Layer 1
62
4
5
167
100
AcDbEntity
100
AcDbLine
10
-330.145762
20
125.364275
30
0.0
11
-332.816057
21
121.357995
31
0.0
0
LINE
8
Layer 1
62
4
5
168
100
AcDbEntity
100
AcDbLine
10
-332.816057
20
121.357995
30
0.0
11
-335.804624
21
116.473152
31
0.0
0
LINE
8
Layer 1
62
4
5
169
100
AcDbEntity
100
AcDbLine
10
-335.804624
20
116.473152
30
0.0
11
-339.011079
21
110.714020
31
0.0
0
LINE
8
Layer 1
62
4
5
16a
100
AcDbEntity
100
AcDbLine
10
-339.011079
20
110.714020
30
0.0
11
-342.335037
21
104.084877
31
0.0
0
LINE
8
Layer 1
62
4
5
16b
100
AcDbEntity
100
AcDbLine
10
-342.335037
20
104.084877
30
0.0
11
-345.676114
21
96.589998
31
0.0
0
LINE
8
Layer 1
62
4
5
16c
100
AcDbEntity
100
AcDbLine
10
-345.676114
20
96.589998
30
0.0
11
-348.933925
21
88.233661
31
0.0
0
LINE
8
Layer 1
62
4
5
16d
100
AcDbEntity
100
AcDbLine
10
-348.933925
20
88.233661
30
0.0
11
-352.008087
21
79.020140
31
0.0
0
LINE
8
Layer 1
62
4
5
16e
100
AcDbEntity
100
AcDbLine
10
-352.008087
20
79.020140
30
0.0
11
-354.798214
21
68.953714
31
0.0
0
LINE
8
Layer 1
62
4
5
16f
100
AcDbEntity
100
AcDbLine
10
-354.798214
20
68.953714
30
0.0
11
-356.055395
21
63.601997
31
0.0
0
LINE
8
Layer 1
62
4
5
170
100
AcDbEntity
100
AcDbLine
10
-356.055395
20
63.601997
30
0.0
11
-357.203924
21
58.038657
31
0.0
0
LINE
8
Layer 1
62
4
5
171
100
AcDbEntity
100
AcDbLine
10
-357.203924
20
58.038657
30
0.0
11
-358.231251
21
52.264229
31
0.0
0
LINE
8
Layer 1
62
4
5
172
100
AcDbEntity
100
AcDbLine
10
-358.231251
20
52.264229
30
0.0
11
-359.124830
21
46.279246
31
0.0
0
LINE
8
Layer 1
62
4
5
173
100
AcDbEntity
100
AcDbLine
10
-359.124830
20
46.279246
30
0.0
11
-359.872113
21
40.084245
31
0.0
0
LINE
8
Layer 1
62
4
5
174
100
AcDbEntity
100
AcDbLine
10
-359.872113
20
40.084245
30
0.0
11
-360.460550
21
33.679758
31
0.0
0
LINE
8
Layer 1
62
4
5
175
100
AcDbEntity
100
AcDbLine
10
-360.460550
20
33.679758
30
0.0
11
-360.877595
21
27.066321
31
0.0
0
LINE
8
Layer 1
62
4
5
176
100
AcDbEntity
100
AcDbLine
10
-360.877595
20
27.066321
30
0.0
11
-361.110699
21
20.244469
31
0.0
0
LINE
8
Layer 1
62
4
5
177
100
AcDbEntity
100
AcDbLine
10
-361.110699
20
20.244469
30
0.0
11
-361.079325
21
13.204219
31
0.0
0
LINE
8
Layer 1
62
4
5
178
100
AcDbEntity
100
AcDbLine
10
-361.079325
20
13.204219
30
0.0
11
-360.708548
21
5.954259
31
0.0
0
LINE
8
Layer 1
62
4
5
179
100
AcDbEntity
100
AcDbLine
10
-360.708548
20
5.954259
30
0.0
11
-359.994242
21
-1.476871
31
0.0
0
LINE
8
Layer 1
62
4
5
17a
100
AcDbEntity
100
AcDbLine
10
-359.994242
20
-1.476871
30
0.0
11
-358.932280
21
-9.060629
31
0.0
0
LINE
8
Layer 1
62
4
5
17b
100
AcDbEntity
100
AcDbLine
10
-358.932280
20
-9.060629
30
0.0
11
-357.518537
21
-16.768477
31
0.0
0
LINE
8
Layer 1
62
4
5
17c
100
AcDbEntity
100
AcDbLine
10
-357.518537
20
-16.768477
30
0.0
11
-355.748885
21
-24.571875
31
0.0
0
LINE
8
Layer 1
62
4
5
17d
100
AcDbEntity
100
AcDbLine
10
-355.748885
20
-24.571875
30
0.0
11
-353.619199
21
-32.442282
31
0.0
0
LINE
8
Layer 1
62
4
5
17e
100
AcDbEntity
100
AcDbLine
10
-353.619199
20
-32.442282
30
0.0
11
-351.125351
21
-40.351158
31
0.0
0
LINE
8
Layer 1
62
4
5
17f
100
AcDbEntity
100
AcDbLine
10
-351.125351
20
-40.351158
30
0.0
11
-348.263215
21
-48.269964
31
0.0
0
LINE
8
Layer 1
62
4
5
180
100
AcDbEntity
100
AcDbLine
10
-348.263215
20
-48.269964
30
0.0
11
-345.028665
21
-56.170159
31
0.0
0
LINE
8
Layer 1
62
4
5
181
100
AcDbEntity
100
AcDbLine
10
-345.028665
20
-56.170159
30
0.0
11
-341.417574
21
-64.023204
31
0.0
0
LINE
8
Layer 1
62
4
5
182
100
AcDbEntity
100
AcDbLine
10
-341.417574
20
-64.023204
30
0.0
11
-337.425815
21
-71.800558
31
0.0
0
LINE
8
Layer 1
62
4
5
183
100
AcDbEntity
100
AcDbLine
10
-337.425815
20
-71.800558
30
0.0
11
-333.049263
21
-79.473681
31
0.0
0
LINE
8
Layer 1
62
4
5
184
100
AcDbEntity
100
AcDbLine
10
-333.049263
20
-79.473681
30
0.0
11
-328.283790
21
-87.014034
31
0.0
0
LINE
8
Layer 1
62
4
5
185
100
AcDbEntity
100
AcDbLine
10
-328.283790
20
-87.014034
30
0.0
11
-323.125270
21
-94.393076
31
0.0
0
LINE
8
Layer 1
62
4
5
186
100
AcDbEntity
100
AcDbLine
10
-323.125270
20
-94.393076
30
0.0
11
-317.569577
21
-101.582267
31
0.0
0
LINE
8
Layer 1
62
4
5
187
100
AcDbEntity
100
AcDbLine
10
-317.569577
20
-101.582267
30
0.0
11
-311.612584
21
-108.553068
31
0.0
0
LINE
8
Layer 1
62
4
5
188
100
AcDbEntity
100
AcDbLine
10
-311.612584
20
-108.553068
30
0.0
11
-305.250164
21
-115.276938
31
0.0
0
LINE
8
Layer 1
62
4
5
189
100
AcDbEntity
100
AcDbLine
10
-305.250164
20
-115.276938
30
0.0
11
-298.478192
21
-121.725337
31
0.0
0
LINE
8
Layer 1
62
4
5
18a
100
AcDbEntity
100
AcDbLine
10
-298.478192
20
-121.725337
30
0.0
11
-291.292539
21
-127.869726
31
0.0
0
LINE
8
Layer 1
62
4
5
18b
100
AcDbEntity
100
AcDbLine
10
-291.292539
20
-127.869726
30
0.0
11
-283.689081
21
-133.681564
31
0.0
0
LINE
8
Layer 1
62
4
5
18c
100
AcDbEntity
100
AcDbLine
10
-283.689081
20
-133.681564
30
0.0
11
-275.663691
21
-139.132311
31
0.0
0
LINE
8
Layer 1
62
4
5
18d
100
AcDbEntity
100
AcDbLine
10
-275.663691
20
-139.132311
30
0.0
11
-267.212242
21
-144.193427
31
0.0
0
LINE
8
Layer 1
62
4
5
18e
100
AcDbEntity
100
AcDbLine
10
-267.212242
20
-144.193427
30
0.0
11
-258.330607
21
-148.836373
31
0.0
0
LINE
8
Layer 1
62
4
5
18f
100
AcDbEntity
100
AcDbLine
10
-258.330607
20
-148.836373
30
0.0
11
-253.727180
21
-150.992113
31
0.0
0
LINE
8
Layer 1
62
4
5
190
100
AcDbEntity
100
AcDbLine
10
-253.727180
20
-150.992113
30
0.0
11
-249.014660
21
-153.032608
31
0.0
0
LINE
8
Layer 1
62
4
5
191
100
AcDbEntity
100
AcDbLine
10
-249.014660
20
-153.032608
30
0.0
11
-244.192530
21
-154.954290
31
0.0
0
LINE
8
Layer 1
62
4
5
192
100
AcDbEntity
100
AcDbLine
10
-244.192530
20
-154.954290
30
0.0
11
-239.260274
21
-156.753592
31
0.0
0
LINE
8
Layer 1
62
4
5
193
100
AcDbEntity
100
AcDbLine
10
-239.260274
20
-156.753592
30
0.0
11
-234.217378
21
-158.426947
31
0.0
0
LINE
8
Layer 1
62
4
5
194
100
AcDbEntity
100
AcDbLine
10
-234.217378
20
-158.426947
30
0.0
11
-229.063324
21
-159.970786
31
0.0
0
LINE
8
Layer 1
62
4
5
195
100
AcDbEntity
100
AcDbLine
10
-229.063324
20
-159.970786
30
0.0
11
-223.797597
21
-161.381542
31
0.0
0
LINE
8
Layer 1
62
4
5
196
100
AcDbEntity
100
AcDbLine
10
-223.797597
20
-161.381542
30
0.0
11
-218.419682
21
-162.655648
31
0.0
0
LINE
8
Layer 1
62
4
5
197
100
AcDbEntity
100
AcDbLine
10
-218.419682
20
-162.655648
30
0.0
11
-212.929062
21
-163.789537
31
0.0
0
LINE
8
Layer 1
62
4
5
198
100
AcDbEntity
100
AcDbLine
10
-212.929062
20
-163.789537
30
0.0
11
-207.325222
21
-164.779640
31
0.0
0
LINE
8
Layer 1
62
4
5
199
100
AcDbEntity
100
AcDbLine
10
-207.325222
20
-164.779640
30
0.0
11
-201.607646
21
-165.622391
31
0.0
0
LINE
8
Layer 1
62
4
5
19a
100
AcDbEntity
100
AcDbLine
10
-201.607646
20
-165.622391
30
0.0
11
-195.775818
21
-166.314222
31
0.0
0
LINE
8
Layer 1
62
4
5
19b
100
AcDbEntity
100
AcDbLine
10
-195.775818
20
-166.314222
30
0.0
11
-189.829222
21
-166.851564
31
0.0
0
LINE
8
Layer 1
62
4
5
19c
100
AcDbEntity
100
AcDbLine
10
-189.829222
20
-166.851564
30
0.0
11
-183.767342
21
-167.230852
31
0.0
0
LINE
8
Layer 1
62
4
5
19d
100
AcDbEntity
100
AcDbLine
10
-183.767342
20
-167.230852
30
0.0
11
-177.589664
21
-167.448517
31
0.0
0
LINE
8
Layer 1
62
4
5
19e
100
AcDbEntity
100
AcDbLine
10
-177.589664
20
-167.448517
30
0.0
11
-171.295670
21
-167.500991
31
0.0
0
LINE
8
Layer 1
62
4
5
19f
100
AcDbEntity
100
AcDbLine
10
-171.295670
20
-167.500991
30
0.0
11
-165.002040
21
-167.386443
31
0.0
0
LINE
8
Layer 1
62
4
5
1a0
100
AcDbEntity
100
AcDbLine
10
-165.002040
20
-167.386443
30
0.0
11
-158.825423
21
-167.107858
31
0.0
0
LINE
8
Layer 1
62
4
5
1a1
100
AcDbEntity
100
AcDbLine
10
-158.825423
20
-167.107858
30
0.0
11
-152.765251
21
-166.668895
31
0.0
0
LINE
8
Layer 1
62
4
5
1a2
100
AcDbEntity
100
AcDbLine
10
-152.765251
20
-166.668895
30
0.0
11
-146.820961
21
-166.073214
31
0.0
0
LINE
8
Layer 1
62
4
5
1a3
100
AcDbEntity
100
AcDbLine
10
-146.820961
20
-166.073214
30
0.0
11
-140.991987
21
-165.324473
31
0.0
0
LINE
8
Layer 1
62
4
5
1a4
100
AcDbEntity
100
AcDbLine
10
-140.991987
20
-165.324473
30
0.0
11
-135.277764
21
-164.426333
31
0.0
0
LINE
8
Layer 1
62
4
5
1a5
100
AcDbEntity
100
AcDbLine
10
-135.277764
20
-164.426333
30
0.0
11
-129.677728
21
-163.382453
31
0.0
0
LINE
8
Layer 1
62
4
5
1a6
100
AcDbEntity
100
AcDbLine
10
-129.677728
20
-163.382453
30
0.0
11
-124.191314
21
-162.196493
31
0.0
0
LINE
8
Layer 1
62
4
5
1a7
100
AcDbEntity
100
AcDbLine
10
-124.191314
20
-162.196493
30
0.0
11
-118.817956
21
-160.872111
31
0.0
0
LINE
8
Layer 1
62
4
5
1a8
100
AcDbEntity
100
AcDbLine
10
-118.817956
20
-160.872111
30
0.0
11
-113.557089
21
-159.412966
31
0.0
0
LINE
8
Layer 1
62
4
5
1a9
100
AcDbEntity
100
AcDbLine
10
-113.557089
20
-159.412966
30
0.0
11
-108.408149
21
-157.822720
31
0.0
0
LINE
8
Layer 1
62
4
5
1aa
100
AcDbEntity
100
AcDbLine
10
-108.408149
20
-157.822720
30
0.0
11
-103.370571
21
-156.105030
31
0.0
0
LINE
8
Layer 1
62
4
5
1ab
100
AcDbEntity
100
AcDbLine
10
-103.370571
20
-156.105030
30
0.0
11
-98.443790
21
-154.263557
31
0.0
0
LINE
8
Layer 1
62
4
5
1ac
100
AcDbEntity
100
AcDbLine
10
-98.443790
20
-154.263557
30
0.0
11
-93.627240
21
-152.301959
31
0.0
0
LINE
8
Layer 1
62
4
5
1ad
100
AcDbEntity
100
AcDbLine
10
-93.627240
20
-152.301959
30
0.0
11
-84.322576
21
-148.033028
31
0.0
0
LINE
8
Layer 1
62
4
5
1ae
100
AcDbEntity
100
AcDbLine
10
-84.322576
20
-148.033028
30
0.0
11
-75.452059
21
-143.327513
31
0.0
0
LINE
8
Layer 1
62
4
5
1af
100
AcDbEntity
100
AcDbLine
10
-75.452059
20
-143.327513
30
0.0
11
-67.011170
21
-138.214688
31
0.0
0
LINE
8
Layer 1
62
4
5
1b0
100
AcDbEntity
100
AcDbLine
10
-67.011170
20
-138.214688
30
0.0
11
-58.995389
21
-132.723830
31
0.0
0
LINE
8
Layer 1
62
4
5
1b1
100
AcDbEntity
100
AcDbLine
10
-58.995389
20
-132.723830
30
0.0
11
-51.400197
21
-126.884213
31
0.0
0
LINE
8
Layer 1
62
4
5
1b2
100
AcDbEntity
100
AcDbLine
10
-51.400197
20
-126.884213
30
0.0
11
-44.221073
21
-120.725112
31
0.0
0
LINE
8
Layer 1
62
4
5
1b3
100
AcDbEntity
100
AcDbLine
10
-44.221073
20
-120.725112
30
0.0
11
-37.453498
21
-114.275803
31
0.0
0
LINE
8
Layer 1
62
4
5
1b4
100
AcDbEntity
100
AcDbLine
10
-37.453498
20
-114.275803
30
0.0
11
-31.092953
21
-107.565560
31
0.0
0
LINE
8
Layer 1
62
4
5
1b5
100
AcDbEntity
100
AcDbLine
10
-31.092953
20
-107.565560
30
0.0
11
-25.134917
21
-100.623660
31
0.0
0
LINE
8
Layer 1
62
4
5
1b6
100
AcDbEntity
100
AcDbLine
10
-25.134917
20
-100.623660
30
0.0
11
-19.574872
21
-93.479378
31
0.0
0
LINE
8
Layer 1
62
4
5
1b7
100
AcDbEntity
100
AcDbLine
10
-19.574872
20
-93.479378
30
0.0
11
-14.408297
21
-86.161987
31
0.0
0
LINE
8
Layer 1
62
4
5
1b8
100
AcDbEntity
100
AcDbLine
10
-14.408297
20
-86.161987
30
0.0
11
-9.630673
21
-78.700765
31
0.0
0
LINE
8
Layer 1
62
4
5
1b9
100
AcDbEntity
100
AcDbLine
10
-9.630673
20
-78.700765
30
0.0
11
-5.237479
21
-71.124986
31
0.0
0
LINE
8
Layer 1
62
4
5
1ba
100
AcDbEntity
100
AcDbLine
10
-5.237479
20
-71.124986
30
0.0
11
-1.224198
21
-63.463925
31
0.0
0
LINE
8
Layer 1
62
4
5
1bb
100
AcDbEntity
100
AcDbLine
10
-1.224198
20
-63.463925
30
0.0
11
2.413693
21
-55.746857
31
0.0
0
LINE
8
Layer 1
62
4
5
1bc
100
AcDbEntity
100
AcDbLine
10
2.413693
20
-55.746857
30
0.0
11
5.680711
21
-48.003058
31
0.0
0
LINE
8
Layer 1
62
4
5
1bd
100
AcDbEntity
100
AcDbLine
10
5.680711
20
-48.003058
30
0.0
11
8.581376
21
-40.261803
31
0.0
0
LINE
8
Layer 1
62
4
5
1be
100
AcDbEntity
100
AcDbLine
10
8.581376
20
-40.261803
30
0.0
11
11.120209
21
-32.552367
31
0.0
0
LINE
8
Layer 1
62
4
5
1bf
100
AcDbEntity
100
AcDbLine
10
11.120209
20
-32.552367
30
0.0
11
13.301729
21
-24.904026
31
0.0
0
LINE
8
Layer 1
62
4
5
1c0
100
AcDbEntity
100
AcDbLine
10
13.301729
20
-24.904026
30
0.0
11
15.130456
21
-17.346054
31
0.0
0
LINE
8
Layer 1
62
4
5
1c1
100
AcDbEntity
100
AcDbLine
10
15.130456
20
-17.346054
30
0.0
11
16.610909
21
-9.907727
31
0.0
0
LINE
8
Layer 1
62
4
5
1c2
100
AcDbEntity
100
AcDbLine
10
16.610909
20
-9.907727
30
0.0
11
17.747608
21
-2.618320
31
0.0
0
LINE
8
Layer 1
62
4
5
1c3
100
AcDbEntity
100
AcDbLine
10
17.747608
20
-2.618320
30
0.0
11
18.545072
21
4.492891
31
0.0
0
LINE
8
Layer 1
62
4
5
1c4
100
AcDbEntity
100
AcDbLine
10
18.545072
20
4.492891
30
0.0
11
19.007822
21
11.396632
31
0.0
0
LINE
8
Layer 1
62
4
5
1c5
100
AcDbEntity
100
AcDbLine
10
19.007822
20
11.396632
30
0.0
11
19.140377
21
18.063628
31
0.0
0
LINE
8
Layer 1
62
4
5
1c6
100
AcDbEntity
100
AcDbLine
10
19.140377
20
18.063628
30
0.0
11
19.140377
21
18.063628
31
0.0
0
LINE
8
Layer 1
62
4
5
1c7
100
AcDbEntity
100
AcDbLine
10
-171.526835
20
181.489833
30
0.0
11
-163.995753
21
181.287634
31
0.0
0
LINE
8
Layer 1
62
4
5
1c8
100
AcDbEntity
100
AcDbLine
10
-163.995753
20
181.287634
30
0.0
11
-156.481963
21
180.742387
31
0.0
0
LINE
8
Layer 1
62
4
5
1c9
100
AcDbEntity
100
AcDbLine
10
-156.481963
20
180.742387
30
0.0
11
-156.479141
21
180.742387
31
0.0
0
LINE
8
Layer 1
62
4
5
1ca
100
AcDbEntity
100
AcDbLine
10
-156.479141
20
180.742387
30
0.0
11
-150.858435
21
180.063734
31
0.0
0
LINE
8
Layer 1
62
4
5
1cb
100
AcDbEntity
100
AcDbLine
10
-150.858435
20
180.063734
30
0.0
11
-145.264674
21
179.192919
31
0.0
0
LINE
8
Layer 1
62
4
5
1cc
100
AcDbEntity
100
AcDbLine
10
-145.264674
20
179.192919
30
0.0
11
-138.407549
21
178.109231
31
0.0
0
LINE
8
Layer 1
62
4
5
1cd
100
AcDbEntity
100
AcDbLine
10
-138.407549
20
178.109231
30
0.0
11
-131.698704
21
176.408732
31
0.0
0
LINE
8
Layer 1
62
4
5
1ce
100
AcDbEntity
100
AcDbLine
10
-131.698704
20
176.408732
30
0.0
11
-122.294590
21
173.779104
31
0.0
0
LINE
8
Layer 1
62
4
5
1cf
100
AcDbEntity
100
AcDbLine
10
-122.294590
20
173.779104
30
0.0
11
-113.064869
21
170.598372
31
0.0
0
LINE
8
Layer 1
62
4
5
1d0
100
AcDbEntity
100
AcDbLine
10
-113.064869
20
170.598372
30
0.0
11
-111.955848
21
170.196535
31
0.0
0
LINE
8
Layer 1
62
4
5
1d1
100
AcDbEntity
100
AcDbLine
10
-111.955848
20
170.196535
30
0.0
11
-109.287409
21
169.229704
31
0.0
0
LINE
8
Layer 1
62
4
5
1d2
100
AcDbEntity
100
AcDbLine
10
-109.287409
20
169.229704
30
0.0
11
-100.922162
21
165.587639
31
0.0
0
LINE
8
Layer 1
62
4
5
1d3
100
AcDbEntity
100
AcDbLine
10
-100.922162
20
165.587639
30
0.0
11
-92.774107
21
161.488986
31
0.0
0
LINE
8
Layer 1
62
4
5
1d4
100
AcDbEntity
100
AcDbLine
10
-92.774107
20
161.488986
30
0.0
11
-91.155167
21
160.503416
31
0.0
0
LINE
8
Layer 1
62
4
5
1d5
100
AcDbEntity
100
AcDbLine
10
-91.155167
20
160.503416
30
0.0
11
-87.136803
21
158.057672
31
0.0
0
LINE
8
Layer 1
62
4
5
1d6
100
AcDbEntity
100
AcDbLine
10
-87.136803
20
158.057672
30
0.0
11
-84.140957
21
156.234251
31
0.0
0
LINE
8
Layer 1
62
4
5
1d7
100
AcDbEntity
100
AcDbLine
10
-84.140957
20
156.234251
30
0.0
11
-83.029171
21
155.557911
31
0.0
0
LINE
8
Layer 1
62
4
5
1d8
100
AcDbEntity
100
AcDbLine
10
-83.029171
20
155.557911
30
0.0
11
-80.083477
21
153.764807
31
0.0
0
LINE
8
Layer 1
62
4
5
1d9
100
AcDbEntity
100
AcDbLine
10
-80.083477
20
153.764807
30
0.0
11
-77.357718
21
151.880203
31
0.0
0
LINE
8
Layer 1
62
4
5
1da
100
AcDbEntity
100
AcDbLine
10
-77.357718
20
151.880203
30
0.0
11
-71.023658
21
147.256847
31
0.0
0
LINE
8
Layer 1
62
4
5
1db
100
AcDbEntity
100
AcDbLine
10
-71.023658
20
147.256847
30
0.0
11
-64.923458
21
142.340430
31
0.0
0
LINE
8
Layer 1
62
4
5
1dc
100
AcDbEntity
100
AcDbLine
10
-64.923458
20
142.340430
30
0.0
11
-59.067416
21
137.139670
31
0.0
0
LINE
8
Layer 1
62
4
5
1dd
100
AcDbEntity
100
AcDbLine
10
-59.067416
20
137.139670
30
0.0
11
-53.465829
21
131.663290
31
0.0
0
LINE
8
Layer 1
62
4
5
1de
100
AcDbEntity
100
AcDbLine
10
-53.465829
20
131.663290
30
0.0
11
-52.588287
21
130.671646
31
0.0
0
LINE
8
Layer 1
62
4
5
1df
100
AcDbEntity
100
AcDbLine
10
-52.588287
20
130.671646
30
0.0
11
-46.665212
21
124.092686
31
0.0
0
LINE
8
Layer 1
62
4
5
1e0
100
AcDbEntity
100
AcDbLine
10
-46.665212
20
124.092686
30
0.0
11
-41.109801
21
117.204905
31
0.0
0
LINE
8
Layer 1
62
4
5
1e1
100
AcDbEntity
100
AcDbLine
10
-41.109801
20
117.204905
30
0.0
11
-40.697475
21
116.632728
31
0.0
0
LINE
8
Layer 1
62
4
5
1e2
100
AcDbEntity
100
AcDbLine
10
-40.697475
20
116.632728
30
0.0
11
-35.866084
21
109.925547
31
0.0
0
LINE
8
Layer 1
62
4
5
1e3
100
AcDbEntity
100
AcDbLine
10
-35.866084
20
109.925547
30
0.0
11
-31.671800
21
103.440292
31
0.0
0
LINE
8
Layer 1
62
4
5
1e4
100
AcDbEntity
100
AcDbLine
10
-31.671800
20
103.440292
30
0.0
11
-27.791312
21
96.765299
31
0.0
0
LINE
8
Layer 1
62
4
5
1e5
100
AcDbEntity
100
AcDbLine
10
-27.791312
20
96.765299
30
0.0
11
-27.202089
21
95.744981
31
0.0
0
LINE
8
Layer 1
62
4
5
1e6
100
AcDbEntity
100
AcDbLine
10
-27.202089
20
95.744981
30
0.0
11
-23.980504
21
89.430626
31
0.0
0
LINE
8
Layer 1
62
4
5
1e7
100
AcDbEntity
100
AcDbLine
10
-23.980504
20
89.430626
30
0.0
11
-21.038383
21
82.983259
31
0.0
0
LINE
8
Layer 1
62
4
5
1e8
100
AcDbEntity
100
AcDbLine
10
-21.038383
20
82.983259
30
0.0
11
-19.609633
21
79.814862
31
0.0
0
LINE
8
Layer 1
62
4
5
1e9
100
AcDbEntity
100
AcDbLine
10
-19.609633
20
79.814862
30
0.0
11
-18.630689
21
77.638110
31
0.0
0
LINE
8
Layer 1
62
4
5
1ea
100
AcDbEntity
100
AcDbLine
10
-18.630689
20
77.638110
30
0.0
11
-16.418633
21
71.492874
31
0.0
0
LINE
8
Layer 1
62
4
5
1eb
100
AcDbEntity
100
AcDbLine
10
-16.418633
20
71.492874
30
0.0
11
-14.457116
21
65.267103
31
0.0
0
LINE
8
Layer 1
62
4
5
1ec
100
AcDbEntity
100
AcDbLine
10
-14.457116
20
65.267103
30
0.0
11
-12.748351
21
58.968340
31
0.0
0
LINE
8
Layer 1
62
4
5
1ed
100
AcDbEntity
100
AcDbLine
10
-12.748351
20
58.968340
30
0.0
11
-11.294548
21
52.604124
31
0.0
0
LINE
8
Layer 1
62
4
5
1ee
100
AcDbEntity
100
AcDbLine
10
-11.294548
20
52.604124
30
0.0
11
-9.854167
21
45.010734
31
0.0
0
LINE
8
Layer 1
62
4
5
1ef
100
AcDbEntity
100
AcDbLine
10
-9.854167
20
45.010734
30
0.0
11
-8.778255
21
37.358056
31
0.0
0
LINE
8
Layer 1
62
4
5
1f0
100
AcDbEntity
100
AcDbLine
10
-8.778255
20
37.358056
30
0.0
11
-7.883074
21
29.718216
31
0.0
0
LINE
8
Layer 1
62
4
5
1f1
100
AcDbEntity
100
AcDbLine
10
-7.883074
20
29.718216
30
0.0
11
-7.590614
21
24.186523
31
0.0
0
LINE
8
Layer 1
62
4
5
1f2
100
AcDbEntity
100
AcDbLine
10
-7.590614
20
24.186523
30
0.0
11
-7.487850
21
18.648164
31
0.0
0
LINE
8
Layer 1
62
4
5
1f3
100
AcDbEntity
100
AcDbLine
10
-7.487850
20
18.648164
30
0.0
11
-7.897411
21
10.973582
31
0.0
0
LINE
8
Layer 1
62
4
5
1f4
100
AcDbEntity
100
AcDbLine
10
-7.897411
20
10.973582
30
0.0
11
-12.388724
21
10.917928
31
0.0
0
LINE
8
Layer 1
62
4
5
1f5
100
AcDbEntity
100
AcDbLine
10
-12.388724
20
10.917928
30
0.0
11
-12.348479
21
13.583601
31
0.0
0
LINE
8
Layer 1
62
4
5
1f6
100
AcDbEntity
100
AcDbLine
10
-12.348479
20
13.583601
30
0.0
11
-12.605779
21
23.938677
31
0.0
0
LINE
8
Layer 1
62
4
5
1f7
100
AcDbEntity
100
AcDbLine
10
-12.605779
20
23.938677
30
0.0
11
-13.348190
21
33.921819
31
0.0
0
LINE
8
Layer 1
62
4
5
1f8
100
AcDbEntity
100
AcDbLine
10
-13.348190
20
33.921819
30
0.0
11
-14.557694
21
43.536164
31
0.0
0
LINE
8
Layer 1
62
4
5
1f9
100
AcDbEntity
100
AcDbLine
10
-14.557694
20
43.536164
30
0.0
11
-16.216268
21
52.784847
31
0.0
0
LINE
8
Layer 1
62
4
5
1fa
100
AcDbEntity
100
AcDbLine
10
-16.216268
20
52.784847
30
0.0
11
-18.305893
21
61.671006
31
0.0
0
LINE
8
Layer 1
62
4
5
1fb
100
AcDbEntity
100
AcDbLine
10
-18.305893
20
61.671006
30
0.0
11
-20.808547
21
70.197775
31
0.0
0
LINE
8
Layer 1
62
4
5
1fc
100
AcDbEntity
100
AcDbLine
10
-20.808547
20
70.197775
30
0.0
11
-23.706209
21
78.368291
31
0.0
0
LINE
8
Layer 1
62
4
5
1fd
100
AcDbEntity
100
AcDbLine
10
-23.706209
20
78.368291
30
0.0
11
-26.980860
21
86.185690
31
0.0
0
LINE
8
Layer 1
62
4
5
1fe
100
AcDbEntity
100
AcDbLine
10
-26.980860
20
86.185690
30
0.0
11
-30.614478
21
93.653108
31
0.0
0
LINE
8
Layer 1
62
4
5
1ff
100
AcDbEntity
100
AcDbLine
10
-30.614478
20
93.653108
30
0.0
11
-34.589043
21
100.773681
31
0.0
0
LINE
8
Layer 1
62
4
5
200
100
AcDbEntity
100
AcDbLine
10
-34.589043
20
100.773681
30
0.0
11
-38.886534
21
107.550544
31
0.0
0
LINE
8
Layer 1
62
4
5
201
100
AcDbEntity
100
AcDbLine
10
-38.886534
20
107.550544
30
0.0
11
-43.488930
21
113.986835
31
0.0
0
LINE
8
Layer 1
62
4
5
202
100
AcDbEntity
100
AcDbLine
10
-43.488930
20
113.986835
30
0.0
11
-48.378210
21
120.085689
31
0.0
0
LINE
8
Layer 1
62
4
5
203
100
AcDbEntity
100
AcDbLine
10
-48.378210
20
120.085689
30
0.0
11
-53.536355
21
125.850241
31
0.0
0
LINE
8
Layer 1
62
4
5
204
100
AcDbEntity
100
AcDbLine
10
-53.536355
20
125.850241
30
0.0
11
-58.945342
21
131.283629
31
0.0
0
LINE
8
Layer 1
62
4
5
205
100
AcDbEntity
100
AcDbLine
10
-58.945342
20
131.283629
30
0.0
11
-64.587152
21
136.388987
31
0.0
0
LINE
8
Layer 1
62
4
5
206
100
AcDbEntity
100
AcDbLine
10
-64.587152
20
136.388987
30
0.0
11
-70.443764
21
141.169453
31
0.0
0
LINE
8
Layer 1
62
4
5
207
100
AcDbEntity
100
AcDbLine
10
-70.443764
20
141.169453
30
0.0
11
-76.497157
21
145.628162
31
0.0
0
LINE
8
Layer 1
62
4
5
208
100
AcDbEntity
100
AcDbLine
10
-76.497157
20
145.628162
30
0.0
11
-82.729310
21
149.768249
31
0.0
0
LINE
8
Layer 1
62
4
5
209
100
AcDbEntity
100
AcDbLine
10
-82.729310
20
149.768249
30
0.0
11
-89.122202
21
153.592852
31
0.0
0
LINE
8
Layer 1
62
4
5
20a
100
AcDbEntity
100
AcDbLine
10
-89.122202
20
153.592852
30
0.0
11
-95.657814
21
157.105106
31
0.0
0
LINE
8
Layer 1
62
4
5
20b
100
AcDbEntity
100
AcDbLine
10
-95.657814
20
157.105106
30
0.0
11
-102.318124
21
160.308147
31
0.0
0
LINE
8
Layer 1
62
4
5
20c
100
AcDbEntity
100
AcDbLine
10
-102.318124
20
160.308147
30
0.0
11
-109.085111
21
163.205112
31
0.0
0
LINE
8
Layer 1
62
4
5
20d
100
AcDbEntity
100
AcDbLine
10
-109.085111
20
163.205112
30
0.0
11
-115.940755
21
165.799135
31
0.0
0
LINE
8
Layer 1
62
4
5
20e
100
AcDbEntity
100
AcDbLine
10
-115.940755
20
165.799135
30
0.0
11
-122.867035
21
168.093354
31
0.0
0
LINE
8
Layer 1
62
4
5
20f
100
AcDbEntity
100
AcDbLine
10
-122.867035
20
168.093354
30
0.0
11
-129.845931
21
170.090904
31
0.0
0
LINE
8
Layer 1
62
4
5
210
100
AcDbEntity
100
AcDbLine
10
-129.845931
20
170.090904
30
0.0
11
-136.859421
21
171.794921
31
0.0
0
LINE
8
Layer 1
62
4
5
211
100
AcDbEntity
100
AcDbLine
10
-136.859421
20
171.794921
30
0.0
11
-143.889485
21
173.208542
31
0.0
0
LINE
8
Layer 1
62
4
5
212
100
AcDbEntity
100
AcDbLine
10
-143.889485
20
173.208542
30
0.0
11
-150.918103
21
174.334902
31
0.0
0
LINE
8
Layer 1
62
4
5
213
100
AcDbEntity
100
AcDbLine
10
-150.918103
20
174.334902
30
0.0
11
-157.927253
21
175.177137
31
0.0
0
LINE
8
Layer 1
62
4
5
214
100
AcDbEntity
100
AcDbLine
10
-157.927253
20
175.177137
30
0.0
11
-164.898915
21
175.738383
31
0.0
0
LINE
8
Layer 1
62
4
5
215
100
AcDbEntity
100
AcDbLine
10
-164.898915
20
175.738383
30
0.0
11
-171.815069
21
176.021777
31
0.0
0
LINE
8
Layer 1
62
4
5
216
100
AcDbEntity
100
AcDbLine
10
-171.815069
20
176.021777
30
0.0
11
-171.747251
21
181.483220
31
0.0
0
LINE
8
Layer 1
62
4
5
217
100
AcDbEntity
100
AcDbLine
10
-171.747251
20
181.483220
30
0.0
11
-171.526779
21
181.486522
31
0.0
0
LINE
8
Layer 1
62
4
5
218
100
AcDbEntity
100
AcDbLine
10
-171.526779
20
181.486522
30
0.0
11
-171.526779
21
181.489824
31
0.0
0
LINE
8
Layer 1
62
4
5
219
100
AcDbEntity
100
AcDbLine
10
-171.526779
20
181.489824
30
0.0
11
-171.526835
21
181.489833
31
0.0
0
LINE
8
Layer 1
62
4
5
21a
100
AcDbEntity
100
AcDbLine
10
-178.371825
20
181.092407
30
0.0
11
-178.616003
21
176.022881
31
0.0
0
LINE
8
Layer 1
62
4
5
21b
100
AcDbEntity
100
AcDbLine
10
-178.616003
20
176.022881
30
0.0
11
-185.363617
21
175.689008
31
0.0
0
LINE
8
Layer 1
62
4
5
21c
100
AcDbEntity
100
AcDbLine
10
-185.363617
20
175.689008
30
0.0
11
-192.125519
21
175.013581
31
0.0
0
LINE
8
Layer 1
62
4
5
21d
100
AcDbEntity
100
AcDbLine
10
-192.125519
20
175.013581
30
0.0
11
-198.887166
21
174.002142
31
0.0
0
LINE
8
Layer 1
62
4
5
21e
100
AcDbEntity
100
AcDbLine
10
-198.887166
20
174.002142
30
0.0
11
-205.634015
21
172.660236
31
0.0
0
LINE
8
Layer 1
62
4
5
21f
100
AcDbEntity
100
AcDbLine
10
-205.634015
20
172.660236
30
0.0
11
-212.351523
21
170.993405
31
0.0
0
LINE
8
Layer 1
62
4
5
220
100
AcDbEntity
100
AcDbLine
10
-212.351523
20
170.993405
30
0.0
11
-219.025148
21
169.007193
31
0.0
0
LINE
8
Layer 1
62
4
5
221
100
AcDbEntity
100
AcDbLine
10
-219.025148
20
169.007193
30
0.0
11
-225.640345
21
166.707143
31
0.0
0
LINE
8
Layer 1
62
4
5
222
100
AcDbEntity
100
AcDbLine
10
-225.640345
20
166.707143
30
0.0
11
-232.182573
21
164.098798
31
0.0
0
LINE
8
Layer 1
62
4
5
223
100
AcDbEntity
100
AcDbLine
10
-232.182573
20
164.098798
30
0.0
11
-238.637289
21
161.187702
31
0.0
0
LINE
8
Layer 1
62
4
5
224
100
AcDbEntity
100
AcDbLine
10
-238.637289
20
161.187702
30
0.0
11
-244.989949
21
157.979398
31
0.0
0
LINE
8
Layer 1
62
4
5
225
100
AcDbEntity
100
AcDbLine
10
-244.989949
20
157.979398
30
0.0
11
-251.226011
21
154.479430
31
0.0
0
LINE
8
Layer 1
62
4
5
226
100
AcDbEntity
100
AcDbLine
10
-251.226011
20
154.479430
30
0.0
11
-257.330931
21
150.693340
31
0.0
0
LINE
8
Layer 1
62
4
5
227
100
AcDbEntity
100
AcDbLine
10
-257.330931
20
150.693340
30
0.0
11
-263.290167
21
146.626673
31
0.0
0
LINE
8
Layer 1
62
4
5
228
100
AcDbEntity
100
AcDbLine
10
-263.290167
20
146.626673
30
0.0
11
-269.089176
21
142.284970
31
0.0
0
LINE
8
Layer 1
62
4
5
229
100
AcDbEntity
100
AcDbLine
10
-269.089176
20
142.284970
30
0.0
11
-274.713415
21
137.673777
31
0.0
0
LINE
8
Layer 1
62
4
5
22a
100
AcDbEntity
100
AcDbLine
10
-274.713415
20
137.673777
30
0.0
11
-280.148340
21
132.798635
31
0.0
0
LINE
8
Layer 1
62
4
5
22b
100
AcDbEntity
100
AcDbLine
10
-280.148340
20
132.798635
30
0.0
11
-285.379410
21
127.665089
31
0.0
0
LINE
8
Layer 1
62
4
5
22c
100
AcDbEntity
100
AcDbLine
10
-285.379410
20
127.665089
30
0.0
11
-290.392081
21
122.278681
31
0.0
0
LINE
8
Layer 1
62
4
5
22d
100
AcDbEntity
100
AcDbLine
10
-290.392081
20
122.278681
30
0.0
11
-295.171810
21
116.644956
31
0.0
0
LINE
8
Layer 1
62
4
5
22e
100
AcDbEntity
100
AcDbLine
10
-295.171810
20
116.644956
30
0.0
11
-299.704054
21
110.769456
31
0.0
0
LINE
8
Layer 1
62
4
5
22f
100
AcDbEntity
100
AcDbLine
10
-299.704054
20
110.769456
30
0.0
11
-303.974270
21
104.657724
31
0.0
0
LINE
8
Layer 1
62
4
5
230
100
AcDbEntity
100
AcDbLine
10
-303.974270
20
104.657724
30
0.0
11
-307.967916
21
98.315305
31
0.0
0
LINE
8
Layer 1
62
4
5
231
100
AcDbEntity
100
AcDbLine
10
-307.967916
20
98.315305
30
0.0
11
-311.670448
21
91.747740
31
0.0
0
LINE
8
Layer 1
62
4
5
232
100
AcDbEntity
100
AcDbLine
10
-311.670448
20
91.747740
30
0.0
11
-315.067323
21
84.960575
31
0.0
0
LINE
8
Layer 1
62
4
5
233
100
AcDbEntity
100
AcDbLine
10
-315.067323
20
84.960575
30
0.0
11
-318.143999
21
77.959351
31
0.0
0
LINE
8
Layer 1
62
4
5
234
100
AcDbEntity
100
AcDbLine
10
-318.143999
20
77.959351
30
0.0
11
-320.885933
21
70.749612
31
0.0
0
LINE
8
Layer 1
62
4
5
235
100
AcDbEntity
100
AcDbLine
10
-320.885933
20
70.749612
30
0.0
11
-323.278582
21
63.336903
31
0.0
0
LINE
8
Layer 1
62
4
5
236
100
AcDbEntity
100
AcDbLine
10
-323.278582
20
63.336903
30
0.0
11
-325.307402
21
55.726765
31
0.0
0
LINE
8
Layer 1
62
4
5
237
100
AcDbEntity
100
AcDbLine
10
-325.307402
20
55.726765
30
0.0
11
-326.957851
21
47.924742
31
0.0
0
LINE
8
Layer 1
62
4
5
238
100
AcDbEntity
100
AcDbLine
10
-326.957851
20
47.924742
30
0.0
11
-328.215386
21
39.936378
31
0.0
0
LINE
8
Layer 1
62
4
5
239
100
AcDbEntity
100
AcDbLine
10
-328.215386
20
39.936378
30
0.0
11
-329.065463
21
31.767216
31
0.0
0
LINE
8
Layer 1
62
4
5
23a
100
AcDbEntity
100
AcDbLine
10
-329.065463
20
31.767216
30
0.0
11
-329.493541
21
23.422799
31
0.0
0
LINE
8
Layer 1
62
4
5
23b
100
AcDbEntity
100
AcDbLine
10
-329.493541
20
23.422799
30
0.0
11
-335.316604
21
23.504360
31
0.0
0
LINE
8
Layer 1
62
4
5
23c
100
AcDbEntity
100
AcDbLine
10
-335.316604
20
23.504360
30
0.0
11
-334.917513
21
30.916686
31
0.0
0
LINE
8
Layer 1
62
4
5
23d
100
AcDbEntity
100
AcDbLine
10
-334.917513
20
30.916686
30
0.0
11
-334.188550
21
38.242789
31
0.0
0
LINE
8
Layer 1
62
4
5
23e
100
AcDbEntity
100
AcDbLine
10
-334.188550
20
38.242789
30
0.0
11
-333.136687
21
45.474988
31
0.0
0
LINE
8
Layer 1
62
4
5
23f
100
AcDbEntity
100
AcDbLine
10
-333.136687
20
45.474988
30
0.0
11
-331.768890
21
52.605601
31
0.0
0
LINE
8
Layer 1
62
4
5
240
100
AcDbEntity
100
AcDbLine
10
-331.768890
20
52.605601
30
0.0
11
-330.092131
21
59.626946
31
0.0
0
LINE
8
Layer 1
62
4
5
241
100
AcDbEntity
100
AcDbLine
10
-330.092131
20
59.626946
30
0.0
11
-328.113377
21
66.531341
31
0.0
0
LINE
8
Layer 1
62
4
5
242
100
AcDbEntity
100
AcDbLine
10
-328.113377
20
66.531341
30
0.0
11
-325.839598
21
73.311104
31
0.0
0
LINE
8
Layer 1
62
4
5
243
100
AcDbEntity
100
AcDbLine
10
-325.839598
20
73.311104
30
0.0
11
-323.277763
21
79.958554
31
0.0
0
LINE
8
Layer 1
62
4
5
244
100
AcDbEntity
100
AcDbLine
10
-323.277763
20
79.958554
30
0.0
11
-320.434841
21
86.466007
31
0.0
0
LINE
8
Layer 1
62
4
5
245
100
AcDbEntity
100
AcDbLine
10
-320.434841
20
86.466007
30
0.0
11
-317.317801
21
92.825783
31
0.0
0
LINE
8
Layer 1
62
4
5
246
100
AcDbEntity
100
AcDbLine
10
-317.317801
20
92.825783
30
0.0
11
-313.933613
21
99.030199
31
0.0
0
LINE
8
Layer 1
62
4
5
247
100
AcDbEntity
100
AcDbLine
10
-313.933613
20
99.030199
30
0.0
11
-310.289245
21
105.071573
31
0.0
0
LINE
8
Layer 1
62
4
5
248
100
AcDbEntity
100
AcDbLine
10
-310.289245
20
105.071573
30
0.0
11
-306.391667
21
110.942224
31
0.0
0
LINE
8
Layer 1
62
4
5
249
100
AcDbEntity
100
AcDbLine
10
-306.391667
20
110.942224
30
0.0
11
-302.247847
21
116.634469
31
0.0
0
LINE
8
Layer 1
62
4
5
24a
100
AcDbEntity
100
AcDbLine
10
-302.247847
20
116.634469
30
0.0
11
-297.864755
21
122.140627
31
0.0
0
LINE
8
Layer 1
62
4
5
24b
100
AcDbEntity
100
AcDbLine
10
-297.864755
20
122.140627
30
0.0
11
-293.249361
21
127.453015
31
0.0
0
LINE
8
Layer 1
62
4
5
24c
100
AcDbEntity
100
AcDbLine
10
-293.249361
20
127.453015
30
0.0
11
-288.408632
21
132.563952
31
0.0
0
LINE
8
Layer 1
62
4
5
24d
100
AcDbEntity
100
AcDbLine
10
-288.408632
20
132.563952
30
0.0
11
-283.349538
21
137.465756
31
0.0
0
LINE
8
Layer 1
62
4
5
24e
100
AcDbEntity
100
AcDbLine
10
-283.349538
20
137.465756
30
0.0
11
-278.079049
21
142.150744
31
0.0
0
LINE
8
Layer 1
62
4
5
24f
100
AcDbEntity
100
AcDbLine
10
-278.079049
20
142.150744
30
0.0
11
-272.604133
21
146.611236
31
0.0
0
LINE
8
Layer 1
62
4
5
250
100
AcDbEntity
100
AcDbLine
10
-272.604133
20
146.611236
30
0.0
11
-266.931759
21
150.839548
31
0.0
0
LINE
8
Layer 1
62
4
5
251
100
AcDbEntity
100
AcDbLine
10
-266.931759
20
150.839548
30
0.0
11
-261.068897
21
154.827999
31
0.0
0
LINE
8
Layer 1
62
4
5
252
100
AcDbEntity
100
AcDbLine
10
-261.068897
20
154.827999
30
0.0
11
-255.022516
21
158.568907
31
0.0
0
LINE
8
Layer 1
62
4
5
253
100
AcDbEntity
100
AcDbLine
10
-255.022516
20
158.568907
30
0.0
11
-248.799585
21
162.054590
31
0.0
0
LINE
8
Layer 1
62
4
5
254
100
AcDbEntity
100
AcDbLine
10
-248.799585
20
162.054590
30
0.0
11
-242.407072
21
165.277366
31
0.0
0
LINE
8
Layer 1
62
4
5
255
100
AcDbEntity
100
AcDbLine
10
-242.407072
20
165.277366
30
0.0
11
-235.851948
21
168.229553
31
0.0
0
LINE
8
Layer 1
62
4
5
256
100
AcDbEntity
100
AcDbLine
10
-235.851948
20
168.229553
30
0.0
11
-229.141181
21
170.903470
31
0.0
0
LINE
8
Layer 1
62
4
5
257
100
AcDbEntity
100
AcDbLine
10
-229.141181
20
170.903470
30
0.0
11
-222.281740
21
173.291434
31
0.0
0
LINE
8
Layer 1
62
4
5
258
100
AcDbEntity
100
AcDbLine
10
-222.281740
20
173.291434
30
0.0
11
-215.280594
21
175.385763
31
0.0
0
LINE
8
Layer 1
62
4
5
259
100
AcDbEntity
100
AcDbLine
10
-215.280594
20
175.385763
30
0.0
11
-208.144713
21
177.178776
31
0.0
0
LINE
8
Layer 1
62
4
5
25a
100
AcDbEntity
100
AcDbLine
10
-208.144713
20
177.178776
30
0.0
11
-200.881066
21
178.662790
31
0.0
0
LINE
8
Layer 1
62
4
5
25b
100
AcDbEntity
100
AcDbLine
10
-200.881066
20
178.662790
30
0.0
11
-193.496621
21
179.830123
31
0.0
0
LINE
8
Layer 1
62
4
5
25c
100
AcDbEntity
100
AcDbLine
10
-193.496621
20
179.830123
30
0.0
11
-193.493799
21
179.830123
31
0.0
0
LINE
8
Layer 1
62
4
5
25d
100
AcDbEntity
100
AcDbLine
10
-193.493799
20
179.830123
30
0.0
11
-189.434653
21
180.319053
31
0.0
0
LINE
8
Layer 1
62
4
5
25e
100
AcDbEntity
100
AcDbLine
10
-189.434653
20
180.319053
30
0.0
11
-183.909794
21
180.798566
31
0.0
0
LINE
8
Layer 1
62
4
5
25f
100
AcDbEntity
100
AcDbLine
10
-183.909794
20
180.798566
30
0.0
11
-178.371768
21
181.092407
31
0.0
0
LINE
8
Layer 1
62
4
5
260
100
AcDbEntity
100
AcDbLine
10
-178.371768
20
181.092407
30
0.0
11
-178.371825
21
181.092407
31
0.0
0
LINE
8
Layer 1
62
4
5
261
100
AcDbEntity
100
AcDbLine
10
-275.171281
20
120.472502
30
0.0
11
-274.200041
21
118.594511
31
0.0
0
LINE
8
Layer 1
62
4
5
262
100
AcDbEntity
100
AcDbLine
10
-274.200041
20
118.594511
30
0.0
11
-272.497986
21
115.630702
31
0.0
0
LINE
8
Layer 1
62
4
5
263
100
AcDbEntity
100
AcDbLine
10
-272.497986
20
115.630702
30
0.0
11
-270.038474
21
112.202992
31
0.0
0
LINE
8
Layer 1
62
4
5
264
100
AcDbEntity
100
AcDbLine
10
-270.038474
20
112.202992
30
0.0
11
-267.051398
21
108.607806
31
0.0
0
LINE
8
Layer 1
62
4
5
265
100
AcDbEntity
100
AcDbLine
10
-267.051398
20
108.607806
30
0.0
11
-263.766653
21
105.141570
31
0.0
0
LINE
8
Layer 1
62
4
5
266
100
AcDbEntity
100
AcDbLine
10
-263.766653
20
105.141570
30
0.0
11
-260.639620
21
102.184762
31
0.0
0
LINE
8
Layer 1
62
4
5
267
100
AcDbEntity
100
AcDbLine
10
-260.639620
20
102.184762
30
0.0
11
-257.608977
21
99.514204
31
0.0
0
LINE
8
Layer 1
62
4
5
268
100
AcDbEntity
100
AcDbLine
10
-257.608977
20
99.514204
30
0.0
11
-255.207158
21
97.581034
31
0.0
0
LINE
8
Layer 1
62
4
5
269
100
AcDbEntity
100
AcDbLine
10
-255.207158
20
97.581034
30
0.0
11
-253.966599
21
96.836391
31
0.0
0
LINE
8
Layer 1
62
4
5
26a
100
AcDbEntity
100
AcDbLine
10
-253.966599
20
96.836391
30
0.0
11
-253.461629
21
96.644014
31
0.0
0
LINE
8
Layer 1
62
4
5
26b
100
AcDbEntity
100
AcDbLine
10
-253.461629
20
96.644014
30
0.0
11
-252.882894
21
96.181551
31
0.0
0
LINE
8
Layer 1
62
4
5
26c
100
AcDbEntity
100
AcDbLine
10
-252.882894
20
96.181551
30
0.0
11
-251.945203
21
95.534690
31
0.0
0
LINE
8
Layer 1
62
4
5
26d
100
AcDbEntity
100
AcDbLine
10
-251.945203
20
95.534690
30
0.0
11
-250.576602
21
94.898879
31
0.0
0
LINE
8
Layer 1
62
4
5
26e
100
AcDbEntity
100
AcDbLine
10
-250.576602
20
94.898879
30
0.0
11
-249.393146
21
94.388484
31
0.0
0
LINE
8
Layer 1
62
4
5
26f
100
AcDbEntity
100
AcDbLine
10
-249.393146
20
94.388484
30
0.0
11
-248.900908
21
94.043379
31
0.0
0
LINE
8
Layer 1
62
4
5
270
100
AcDbEntity
100
AcDbLine
10
-248.900908
20
94.043379
30
0.0
11
-248.382765
21
93.682120
31
0.0
0
LINE
8
Layer 1
62
4
5
271
100
AcDbEntity
100
AcDbLine
10
-248.382765
20
93.682120
30
0.0
11
-247.137019
21
93.132224
31
0.0
0
LINE
8
Layer 1
62
4
5
272
100
AcDbEntity
100
AcDbLine
10
-247.137019
20
93.132224
30
0.0
11
-246.099420
21
92.623094
31
0.0
0
LINE
8
Layer 1
62
4
5
273
100
AcDbEntity
100
AcDbLine
10
-246.099420
20
92.623094
30
0.0
11
-245.471467
21
92.110887
31
0.0
0
LINE
8
Layer 1
62
4
5
274
100
AcDbEntity
100
AcDbLine
10
-245.471467
20
92.110887
30
0.0
11
-245.345561
21
91.707788
31
0.0
0
LINE
8
Layer 1
62
4
5
275
100
AcDbEntity
100
AcDbLine
10
-245.345561
20
91.707788
30
0.0
11
-245.814102
21
91.525985
31
0.0
0
LINE
8
Layer 1
62
4
5
276
100
AcDbEntity
100
AcDbLine
10
-245.814102
20
91.525985
30
0.0
11
-251.499299
21
90.366111
31
0.0
0
LINE
8
Layer 1
62
4
5
277
100
AcDbEntity
100
AcDbLine
10
-251.499299
20
90.366111
30
0.0
11
-256.920870
21
88.730133
31
0.0
0
LINE
8
Layer 1
62
4
5
278
100
AcDbEntity
100
AcDbLine
10
-256.920870
20
88.730133
30
0.0
11
-262.064992
21
86.648191
31
0.0
0
LINE
8
Layer 1
62
4
5
279
100
AcDbEntity
100
AcDbLine
10
-262.064992
20
86.648191
30
0.0
11
-266.917846
21
84.150424
31
0.0
0
LINE
8
Layer 1
62
4
5
27a
100
AcDbEntity
100
AcDbLine
10
-266.917846
20
84.150424
30
0.0
11
-271.465609
21
81.266973
31
0.0
0
LINE
8
Layer 1
62
4
5
27b
100
AcDbEntity
100
AcDbLine
10
-271.465609
20
81.266973
30
0.0
11
-275.694463
21
78.027978
31
0.0
0
LINE
8
Layer 1
62
4
5
27c
100
AcDbEntity
100
AcDbLine
10
-275.694463
20
78.027978
30
0.0
11
-279.590584
21
74.463577
31
0.0
0
LINE
8
Layer 1
62
4
5
27d
100
AcDbEntity
100
AcDbLine
10
-279.590584
20
74.463577
30
0.0
11
-283.140154
21
70.603912
31
0.0
0
LINE
8
Layer 1
62
4
5
27e
100
AcDbEntity
100
AcDbLine
10
-283.140154
20
70.603912
30
0.0
11
-286.329349
21
66.479122
31
0.0
0
LINE
8
Layer 1
62
4
5
27f
100
AcDbEntity
100
AcDbLine
10
-286.329349
20
66.479122
30
0.0
11
-289.144351
21
62.119346
31
0.0
0
LINE
8
Layer 1
62
4
5
280
100
AcDbEntity
100
AcDbLine
10
-289.144351
20
62.119346
30
0.0
11
-291.571337
21
57.554726
31
0.0
0
LINE
8
Layer 1
62
4
5
281
100
AcDbEntity
100
AcDbLine
10
-291.571337
20
57.554726
30
0.0
11
-293.596487
21
52.815399
31
0.0
0
LINE
8
Layer 1
62
4
5
282
100
AcDbEntity
100
AcDbLine
10
-293.596487
20
52.815399
30
0.0
11
-295.205980
21
47.931507
31
0.0
0
LINE
8
Layer 1
62
4
5
283
100
AcDbEntity
100
AcDbLine
10
-295.205980
20
47.931507
30
0.0
11
-296.385995
21
42.933189
31
0.0
0
LINE
8
Layer 1
62
4
5
284
100
AcDbEntity
100
AcDbLine
10
-296.385995
20
42.933189
30
0.0
11
-297.122710
21
37.850585
31
0.0
0
LINE
8
Layer 1
62
4
5
285
100
AcDbEntity
100
AcDbLine
10
-297.122710
20
37.850585
30
0.0
11
-297.402306
21
32.713835
31
0.0
0
LINE
8
Layer 1
62
4
5
286
100
AcDbEntity
100
AcDbLine
10
-297.402306
20
32.713835
30
0.0
11
-297.190541
21
27.549582
31
0.0
0
LINE
8
Layer 1
62
4
5
287
100
AcDbEntity
100
AcDbLine
10
-297.190541
20
27.549582
30
0.0
11
-296.469411
21
22.394977
31
0.0
0
LINE
8
Layer 1
62
4
5
288
100
AcDbEntity
100
AcDbLine
10
-296.469411
20
22.394977
30
0.0
11
-295.249450
21
17.295924
31
0.0
0
LINE
8
Layer 1
62
4
5
289
100
AcDbEntity
100
AcDbLine
10
-295.249450
20
17.295924
30
0.0
11
-293.541193
21
12.298327
31
0.0
0
LINE
8
Layer 1
62
4
5
28a
100
AcDbEntity
100
AcDbLine
10
-293.541193
20
12.298327
30
0.0
11
-291.355175
21
7.448091
31
0.0
0
LINE
8
Layer 1
62
4
5
28b
100
AcDbEntity
100
AcDbLine
10
-291.355175
20
7.448091
30
0.0
11
-288.701930
21
2.791120
31
0.0
0
LINE
8
Layer 1
62
4
5
28c
100
AcDbEntity
100
AcDbLine
10
-288.701930
20
2.791120
30
0.0
11
-285.591993
21
-1.626683
31
0.0
0
LINE
8
Layer 1
62
4
5
28d
100
AcDbEntity
100
AcDbLine
10
-285.591993
20
-1.626683
30
0.0
11
-282.035899
21
-5.759413
31
0.0
0
LINE
8
Layer 1
62
4
5
28e
100
AcDbEntity
100
AcDbLine
10
-282.035899
20
-5.759413
30
0.0
11
-278.044183
21
-9.561166
31
0.0
0
LINE
8
Layer 1
62
4
5
28f
100
AcDbEntity
100
AcDbLine
10
-278.044183
20
-9.561166
30
0.0
11
-273.627378
21
-12.986038
31
0.0
0
LINE
8
Layer 1
62
4
5
290
100
AcDbEntity
100
AcDbLine
10
-273.627378
20
-12.986038
30
0.0
11
-271.262860
21
-14.542799
31
0.0
0
LINE
8
Layer 1
62
4
5
291
100
AcDbEntity
100
AcDbLine
10
-271.262860
20
-14.542799
30
0.0
11
-268.796020
21
-15.988125
31
0.0
0
LINE
8
Layer 1
62
4
5
292
100
AcDbEntity
100
AcDbLine
10
-268.796020
20
-15.988125
30
0.0
11
-266.228176
21
-17.316279
31
0.0
0
LINE
8
Layer 1
62
4
5
293
100
AcDbEntity
100
AcDbLine
10
-266.228176
20
-17.316279
30
0.0
11
-263.560644
21
-18.521523
31
0.0
0
LINE
8
Layer 1
62
4
5
294
100
AcDbEntity
100
AcDbLine
10
-263.560644
20
-18.521523
30
0.0
11
-260.794741
21
-19.598119
31
0.0
0
LINE
8
Layer 1
62
4
5
295
100
AcDbEntity
100
AcDbLine
10
-260.794741
20
-19.598119
30
0.0
11
-257.931784
21
-20.540328
31
0.0
0
LINE
8
Layer 1
62
4
5
296
100
AcDbEntity
100
AcDbLine
10
-257.931784
20
-20.540328
30
0.0
11
-254.973090
21
-21.342413
31
0.0
0
LINE
8
Layer 1
62
4
5
297
100
AcDbEntity
100
AcDbLine
10
-254.973090
20
-21.342413
30
0.0
11
-251.919975
21
-21.998635
31
0.0
0
LINE
8
Layer 1
62
4
5
298
100
AcDbEntity
100
AcDbLine
10
-251.919975
20
-21.998635
30
0.0
11
-248.773756
21
-22.503257
31
0.0
0
LINE
8
Layer 1
62
4
5
299
100
AcDbEntity
100
AcDbLine
10
-248.773756
20
-22.503257
30
0.0
11
-245.535751
21
-22.850541
31
0.0
0
LINE
8
Layer 1
62
4
5
29a
100
AcDbEntity
100
AcDbLine
10
-245.535751
20
-22.850541
30
0.0
11
-242.207276
21
-23.034749
31
0.0
0
LINE
8
Layer 1
62
4
5
29b
100
AcDbEntity
100
AcDbLine
10
-242.207276
20
-23.034749
30
0.0
11
-238.789647
21
-23.050142
31
0.0
0
LINE
8
Layer 1
62
4
5
29c
100
AcDbEntity
100
AcDbLine
10
-238.789647
20
-23.050142
30
0.0
11
-235.389613
21
-22.894182
31
0.0
0
LINE
8
Layer 1
62
4
5
29d
100
AcDbEntity
100
AcDbLine
10
-235.389613
20
-22.894182
30
0.0
11
-232.111962
21
-22.573511
31
0.0
0
LINE
8
Layer 1
62
4
5
29e
100
AcDbEntity
100
AcDbLine
10
-232.111962
20
-22.573511
30
0.0
11
-228.955075
21
-22.096162
31
0.0
0
LINE
8
Layer 1
62
4
5
29f
100
AcDbEntity
100
AcDbLine
10
-228.955075
20
-22.096162
30
0.0
11
-225.917331
21
-21.470166
31
0.0
0
LINE
8
Layer 1
62
4
5
2a0
100
AcDbEntity
100
AcDbLine
10
-225.917331
20
-21.470166
30
0.0
11
-222.997110
21
-20.703558
31
0.0
0
LINE
8
Layer 1
62
4
5
2a1
100
AcDbEntity
100
AcDbLine
10
-222.997110
20
-20.703558
30
0.0
11
-220.192792
21
-19.804368
31
0.0
0
LINE
8
Layer 1
62
4
5
2a2
100
AcDbEntity
100
AcDbLine
10
-220.192792
20
-19.804368
30
0.0
11
-217.502757
21
-18.780631
31
0.0
0
LINE
8
Layer 1
62
4
5
2a3
100
AcDbEntity
100
AcDbLine
10
-217.502757
20
-18.780631
30
0.0
11
-214.925385
21
-17.640377
31
0.0
0
LINE
8
Layer 1
62
4
5
2a4
100
AcDbEntity
100
AcDbLine
10
-214.925385
20
-17.640377
30
0.0
11
-210.102148
21
-15.042452
31
0.0
0
LINE
8
Layer 1
62
4
5
2a5
100
AcDbEntity
100
AcDbLine
10
-210.102148
20
-15.042452
30
0.0
11
-205.710122
21
-12.074854
31
0.0
0
LINE
8
Layer 1
62
4
5
2a6
100
AcDbEntity
100
AcDbLine
10
-205.710122
20
-12.074854
30
0.0
11
-201.736344
21
-8.801842
31
0.0
0
LINE
8
Layer 1
62
4
5
2a7
100
AcDbEntity
100
AcDbLine
10
-201.736344
20
-8.801842
30
0.0
11
-198.167854
21
-5.287678
31
0.0
0
LINE
8
Layer 1
62
4
5
2a8
100
AcDbEntity
100
AcDbLine
10
-198.167854
20
-5.287678
30
0.0
11
-194.991692
21
-1.596621
31
0.0
0
LINE
8
Layer 1
62
4
5
2a9
100
AcDbEntity
100
AcDbLine
10
-194.991692
20
-1.596621
30
0.0
11
-192.194896
21
2.207068
31
0.0
0
LINE
8
Layer 1
62
4
5
2aa
100
AcDbEntity
100
AcDbLine
10
-192.194896
20
2.207068
30
0.0
11
-189.764505
21
6.059130
31
0.0
0
LINE
8
Layer 1
62
4
5
2ab
100
AcDbEntity
100
AcDbLine
10
-189.764505
20
6.059130
30
0.0
11
-187.687558
21
9.895305
31
0.0
0
LINE
8
Layer 1
62
4
5
2ac
100
AcDbEntity
100
AcDbLine
10
-187.687558
20
9.895305
30
0.0
11
-185.951095
21
13.651332
31
0.0
0
LINE
8
Layer 1
62
4
5
2ad
100
AcDbEntity
100
AcDbLine
10
-185.951095
20
13.651332
30
0.0
11
-184.542155
21
17.262950
31
0.0
0
LINE
8
Layer 1
62
4
5
2ae
100
AcDbEntity
100
AcDbLine
10
-184.542155
20
17.262950
30
0.0
11
-183.447776
21
20.665901
31
0.0
0
LINE
8
Layer 1
62
4
5
2af
100
AcDbEntity
100
AcDbLine
10
-183.447776
20
20.665901
30
0.0
11
-182.654998
21
23.795924
31
0.0
0
LINE
8
Layer 1
62
4
5
2b0
100
AcDbEntity
100
AcDbLine
10
-182.654998
20
23.795924
30
0.0
11
-180.835983
21
21.934811
31
0.0
0
LINE
8
Layer 1
62
4
5
2b1
100
AcDbEntity
100
AcDbLine
10
-180.835983
20
21.934811
30
0.0
11
-179.082789
21
19.522774
31
0.0
0
LINE
8
Layer 1
62
4
5
2b2
100
AcDbEntity
100
AcDbLine
10
-179.082789
20
19.522774
30
0.0
11
-177.428826
21
16.757465
31
0.0
0
LINE
8
Layer 1
62
4
5
2b3
100
AcDbEntity
100
AcDbLine
10
-177.428826
20
16.757465
30
0.0
11
-175.907502
21
13.836539
31
0.0
0
LINE
8
Layer 1
62
4
5
2b4
100
AcDbEntity
100
AcDbLine
10
-175.907502
20
13.836539
30
0.0
11
-173.396405
21
8.318447
31
0.0
0
LINE
8
Layer 1
62
4
5
2b5
100
AcDbEntity
100
AcDbLine
10
-173.396405
20
8.318447
30
0.0
11
-171.816762
21
4.549724
31
0.0
0
LINE
8
Layer 1
62
4
5
2b6
100
AcDbEntity
100
AcDbLine
10
-171.816762
20
4.549724
30
0.0
11
-176.360810
21
0.120130
31
0.0
0
LINE
8
Layer 1
62
4
5
2b7
100
AcDbEntity
100
AcDbLine
10
-176.360810
20
0.120130
30
0.0
11
-180.561187
21
-4.459712
31
0.0
0
LINE
8
Layer 1
62
4
5
2b8
100
AcDbEntity
100
AcDbLine
10
-180.561187
20
-4.459712
30
0.0
11
-184.408138
21
-9.169481
31
0.0
0
LINE
8
Layer 1
62
4
5
2b9
100
AcDbEntity
100
AcDbLine
10
-184.408138
20
-9.169481
30
0.0
11
-187.891907
21
-13.988854
31
0.0
0
LINE
8
Layer 1
62
4
5
2ba
100
AcDbEntity
100
AcDbLine
10
-187.891907
20
-13.988854
30
0.0
11
-191.002737
21
-18.897511
31
0.0
0
LINE
8
Layer 1
62
4
5
2bb
100
AcDbEntity
100
AcDbLine
10
-191.002737
20
-18.897511
30
0.0
11
-193.730874
21
-23.875130
31
0.0
0
LINE
8
Layer 1
62
4
5
2bc
100
AcDbEntity
100
AcDbLine
10
-193.730874
20
-23.875130
30
0.0
11
-196.066560
21
-28.901390
31
0.0
0
LINE
8
Layer 1
62
4
5
2bd
100
AcDbEntity
100
AcDbLine
10
-196.066560
20
-28.901390
30
0.0
11
-198.000041
21
-33.955970
31
0.0
0
LINE
8
Layer 1
62
4
5
2be
100
AcDbEntity
100
AcDbLine
10
-198.000041
20
-33.955970
30
0.0
11
-198.765439
21
-35.264007
31
0.0
0
LINE
8
Layer 1
62
4
5
2bf
100
AcDbEntity
100
AcDbLine
10
-198.765439
20
-35.264007
30
0.0
11
-199.355470
21
-35.808054
31
0.0
0
LINE
8
Layer 1
62
4
5
2c0
100
AcDbEntity
100
AcDbLine
10
-199.355470
20
-35.808054
30
0.0
11
-202.400369
21
-35.201816
31
0.0
0
LINE
8
Layer 1
62
4
5
2c1
100
AcDbEntity
100
AcDbLine
10
-202.400369
20
-35.201816
30
0.0
11
-204.121403
21
-34.710404
31
0.0
0
LINE
8
Layer 1
62
4
5
2c2
100
AcDbEntity
100
AcDbLine
10
-204.121403
20
-34.710404
30
0.0
11
-205.060564
21
-34.330253
31
0.0
0
LINE
8
Layer 1
62
4
5
2c3
100
AcDbEntity
100
AcDbLine
10
-205.060564
20
-34.330253
30
0.0
11
-205.527875
21
-34.132849
31
0.0
0
LINE
8
Layer 1
62
4
5
2c4
100
AcDbEntity
100
AcDbLine
10
-205.527875
20
-34.132849
30
0.0
11
-206.034005
21
-34.170374
31
0.0
0
LINE
8
Layer 1
62
4
5
2c5
100
AcDbEntity
100
AcDbLine
10
-206.034005
20
-34.170374
30
0.0
11
-206.410856
21
-34.214475
31
0.0
0
LINE
8
Layer 1
62
4
5
2c6
100
AcDbEntity
100
AcDbLine
10
-206.410856
20
-34.214475
30
0.0
11
-206.567574
21
-34.033130
31
0.0
0
LINE
8
Layer 1
62
4
5
2c7
100
AcDbEntity
100
AcDbLine
10
-206.567574
20
-34.033130
30
0.0
11
-206.982088
21
-33.791784
31
0.0
0
LINE
8
Layer 1
62
4
5
2c8
100
AcDbEntity
100
AcDbLine
10
-206.982088
20
-33.791784
30
0.0
11
-207.978685
21
-33.691387
31
0.0
0
LINE
8
Layer 1
62
4
5
2c9
100
AcDbEntity
100
AcDbLine
10
-207.978685
20
-33.691387
30
0.0
11
-208.975283
21
-33.801200
31
0.0
0
LINE
8
Layer 1
62
4
5
2ca
100
AcDbEntity
100
AcDbLine
10
-208.975283
20
-33.801200
30
0.0
11
-209.389797
21
-34.065106
31
0.0
0
LINE
8
Layer 1
62
4
5
2cb
100
AcDbEntity
100
AcDbLine
10
-209.389797
20
-34.065106
30
0.0
11
-209.499888
21
-34.261063
31
0.0
0
LINE
8
Layer 1
62
4
5
2cc
100
AcDbEntity
100
AcDbLine
10
-209.499888
20
-34.261063
30
0.0
11
-209.764644
21
-34.207317
31
0.0
0
LINE
8
Layer 1
62
4
5
2cd
100
AcDbEntity
100
AcDbLine
10
-209.764644
20
-34.207317
30
0.0
11
-210.204332
21
-34.199387
31
0.0
0
LINE
8
Layer 1
62
4
5
2ce
100
AcDbEntity
100
AcDbLine
10
-210.204332
20
-34.199387
30
0.0
11
-210.734783
21
-34.506078
31
0.0
0
LINE
8
Layer 1
62
4
5
2cf
100
AcDbEntity
100
AcDbLine
10
-210.734783
20
-34.506078
30
0.0
11
-211.612117
21
-35.002778
31
0.0
0
LINE
8
Layer 1
62
4
5
2d0
100
AcDbEntity
100
AcDbLine
10
-211.612117
20
-35.002778
30
0.0
11
-212.885627
21
-35.451409
31
0.0
0
LINE
8
Layer 1
62
4
5
2d1
100
AcDbEntity
100
AcDbLine
10
-212.885627
20
-35.451409
30
0.0
11
-215.178682
21
-36.338321
31
0.0
0
LINE
8
Layer 1
62
4
5
2d2
100
AcDbEntity
100
AcDbLine
10
-215.178682
20
-36.338321
30
0.0
11
-216.580364
21
-36.855578
31
0.0
0
LINE
8
Layer 1
62
4
5
2d3
100
AcDbEntity
100
AcDbLine
10
-216.580364
20
-36.855578
30
0.0
11
-218.914797
21
-37.436335
31
0.0
0
LINE
8
Layer 1
62
4
5
2d4
100
AcDbEntity
100
AcDbLine
10
-218.914797
20
-37.436335
30
0.0
11
-222.089797
21
-38.276397
31
0.0
0
LINE
8
Layer 1
62
4
5
2d5
100
AcDbEntity
100
AcDbLine
10
-222.089797
20
-38.276397
30
0.0
11
-222.920268
21
-38.621221
31
0.0
0
LINE
8
Layer 1
62
4
5
2d6
100
AcDbEntity
100
AcDbLine
10
-222.920268
20
-38.621221
30
0.0
11
-224.734275
21
-39.016490
31
0.0
0
LINE
8
Layer 1
62
4
5
2d7
100
AcDbEntity
100
AcDbLine
10
-224.734275
20
-39.016490
30
0.0
11
-230.256066
21
-39.765769
31
0.0
0
LINE
8
Layer 1
62
4
5
2d8
100
AcDbEntity
100
AcDbLine
10
-230.256066
20
-39.765769
30
0.0
11
-233.208788
21
-40.143936
31
0.0
0
LINE
8
Layer 1
62
4
5
2d9
100
AcDbEntity
100
AcDbLine
10
-233.208788
20
-40.143936
30
0.0
11
-234.437019
21
-40.465821
31
0.0
0
LINE
8
Layer 1
62
4
5
2da
100
AcDbEntity
100
AcDbLine
10
-234.437019
20
-40.465821
30
0.0
11
-235.473303
21
-40.664474
31
0.0
0
LINE
8
Layer 1
62
4
5
2db
100
AcDbEntity
100
AcDbLine
10
-235.473303
20
-40.664474
30
0.0
11
-237.964797
21
-40.746942
31
0.0
0
LINE
8
Layer 1
62
4
5
2dc
100
AcDbEntity
100
AcDbLine
10
-237.964797
20
-40.746942
30
0.0
11
-240.456290
21
-40.658483
31
0.0
0
LINE
8
Layer 1
62
4
5
2dd
100
AcDbEntity
100
AcDbLine
10
-240.456290
20
-40.658483
30
0.0
11
-241.492574
21
-40.445416
31
0.0
0
LINE
8
Layer 1
62
4
5
2de
100
AcDbEntity
100
AcDbLine
10
-241.492574
20
-40.445416
30
0.0
11
-242.297790
21
-40.164870
31
0.0
0
LINE
8
Layer 1
62
4
5
2df
100
AcDbEntity
100
AcDbLine
10
-242.297790
20
-40.164870
30
0.0
11
-244.233771
21
-39.914613
31
0.0
0
LINE
8
Layer 1
62
4
5
2e0
100
AcDbEntity
100
AcDbLine
10
-244.233771
20
-39.914613
30
0.0
11
-249.607098
21
-39.182394
31
0.0
0
LINE
8
Layer 1
62
4
5
2e1
100
AcDbEntity
100
AcDbLine
10
-249.607098
20
-39.182394
30
0.0
11
-251.923692
21
-38.708002
31
0.0
0
LINE
8
Layer 1
62
4
5
2e2
100
AcDbEntity
100
AcDbLine
10
-251.923692
20
-38.708002
30
0.0
11
-253.310630
21
-38.284102
31
0.0
0
LINE
8
Layer 1
62
4
5
2e3
100
AcDbEntity
100
AcDbLine
10
-253.310630
20
-38.284102
30
0.0
11
-257.367574
21
-37.223031
31
0.0
0
LINE
8
Layer 1
62
4
5
2e4
100
AcDbEntity
100
AcDbLine
10
-257.367574
20
-37.223031
30
0.0
11
-259.768954
21
-36.615047
31
0.0
0
LINE
8
Layer 1
62
4
5
2e5
100
AcDbEntity
100
AcDbLine
10
-259.768954
20
-36.615047
30
0.0
11
-260.836368
21
-36.158066
31
0.0
0
LINE
8
Layer 1
62
4
5
2e6
100
AcDbEntity
100
AcDbLine
10
-260.836368
20
-36.158066
30
0.0
11
-261.077467
21
-35.910955
31
0.0
0
LINE
8
Layer 1
62
4
5
2e7
100
AcDbEntity
100
AcDbLine
10
-261.077467
20
-35.910955
30
0.0
11
-261.491772
21
-35.808054
31
0.0
0
LINE
8
Layer 1
62
4
5
2e8
100
AcDbEntity
100
AcDbLine
10
-261.491772
20
-35.808054
30
0.0
11
-263.826113
21
-34.961246
31
0.0
0
LINE
8
Layer 1
62
4
5
2e9
100
AcDbEntity
100
AcDbLine
10
-263.826113
20
-34.961246
30
0.0
11
-269.362019
21
-32.347529
31
0.0
0
LINE
8
Layer 1
62
4
5
2ea
100
AcDbEntity
100
AcDbLine
10
-269.362019
20
-32.347529
30
0.0
11
-273.653063
21
-29.910590
31
0.0
0
LINE
8
Layer 1
62
4
5
2eb
100
AcDbEntity
100
AcDbLine
10
-273.653063
20
-29.910590
30
0.0
11
-275.585824
21
-28.598243
31
0.0
0
LINE
8
Layer 1
62
4
5
2ec
100
AcDbEntity
100
AcDbLine
10
-275.585824
20
-28.598243
30
0.0
11
-277.054239
21
-27.429581
31
0.0
0
LINE
8
Layer 1
62
4
5
2ed
100
AcDbEntity
100
AcDbLine
10
-277.054239
20
-27.429581
30
0.0
11
-277.813403
21
-26.868993
31
0.0
0
LINE
8
Layer 1
62
4
5
2ee
100
AcDbEntity
100
AcDbLine
10
-277.813403
20
-26.868993
30
0.0
11
-278.406366
21
-26.635831
31
0.0
0
LINE
8
Layer 1
62
4
5
2ef
100
AcDbEntity
100
AcDbLine
10
-278.406366
20
-26.635831
30
0.0
11
-278.870914
21
-26.428574
31
0.0
0
LINE
8
Layer 1
62
4
5
2f0
100
AcDbEntity
100
AcDbLine
10
-278.870914
20
-26.428574
30
0.0
11
-279.321387
21
-25.930276
31
0.0
0
LINE
8
Layer 1
62
4
5
2f1
100
AcDbEntity
100
AcDbLine
10
-279.321387
20
-25.930276
30
0.0
11
-279.758080
21
-25.431977
31
0.0
0
LINE
8
Layer 1
62
4
5
2f2
100
AcDbEntity
100
AcDbLine
10
-279.758080
20
-25.431977
30
0.0
11
-280.188995
21
-25.224720
31
0.0
0
LINE
8
Layer 1
62
4
5
2f3
100
AcDbEntity
100
AcDbLine
10
-280.188995
20
-25.224720
30
0.0
11
-282.157816
21
-23.569962
31
0.0
0
LINE
8
Layer 1
62
4
5
2f4
100
AcDbEntity
100
AcDbLine
10
-282.157816
20
-23.569962
30
0.0
11
-285.969844
21
-19.837712
31
0.0
0
LINE
8
Layer 1
62
4
5
2f5
100
AcDbEntity
100
AcDbLine
10
-285.969844
20
-19.837712
30
0.0
11
-289.791524
21
-15.876004
31
0.0
0
LINE
8
Layer 1
62
4
5
2f6
100
AcDbEntity
100
AcDbLine
10
-289.791524
20
-15.876004
30
0.0
11
-291.789302
21
-13.532874
31
0.0
0
LINE
8
Layer 1
62
4
5
2f7
100
AcDbEntity
100
AcDbLine
10
-291.789302
20
-13.532874
30
0.0
11
-293.087975
21
-11.688524
31
0.0
0
LINE
8
Layer 1
62
4
5
2f8
100
AcDbEntity
100
AcDbLine
10
-293.087975
20
-11.688524
30
0.0
11
-295.939415
21
-8.013363
31
0.0
0
LINE
8
Layer 1
62
4
5
2f9
100
AcDbEntity
100
AcDbLine
10
-295.939415
20
-8.013363
30
0.0
11
-297.107930
21
-6.236112
31
0.0
0
LINE
8
Layer 1
62
4
5
2fa
100
AcDbEntity
100
AcDbLine
10
-297.107930
20
-6.236112
30
0.0
11
-297.584227
21
-5.245362
31
0.0
0
LINE
8
Layer 1
62
4
5
2fb
100
AcDbEntity
100
AcDbLine
10
-297.584227
20
-5.245362
30
0.0
11
-297.946921
21
-4.434009
31
0.0
0
LINE
8
Layer 1
62
4
5
2fc
100
AcDbEntity
100
AcDbLine
10
-297.946921
20
-4.434009
30
0.0
11
-298.818949
21
-3.048234
31
0.0
0
LINE
8
Layer 1
62
4
5
2fd
100
AcDbEntity
100
AcDbLine
10
-298.818949
20
-3.048234
30
0.0
11
-300.053671
21
-1.023600
31
0.0
0
LINE
8
Layer 1
62
4
5
2fe
100
AcDbEntity
100
AcDbLine
10
-300.053671
20
-1.023600
30
0.0
11
-301.053585
21
1.189530
31
0.0
0
LINE
8
Layer 1
62
4
5
2ff
100
AcDbEntity
100
AcDbLine
10
-301.053585
20
1.189530
30
0.0
11
-302.541884
21
4.849585
31
0.0
0
LINE
8
Layer 1
62
4
5
300
100
AcDbEntity
100
AcDbLine
10
-302.541884
20
4.849585
30
0.0
11
-302.955459
21
6.033042
31
0.0
0
LINE
8
Layer 1
62
4
5
301
100
AcDbEntity
100
AcDbLine
10
-302.955459
20
6.033042
30
0.0
11
-303.264514
21
6.525280
31
0.0
0
LINE
8
Layer 1
62
4
5
302
100
AcDbEntity
100
AcDbLine
10
-303.264514
20
6.525280
30
0.0
11
-303.485695
21
6.758441
31
0.0
0
LINE
8
Layer 1
62
4
5
303
100
AcDbEntity
100
AcDbLine
10
-303.485695
20
6.758441
30
0.0
11
-303.687847
21
7.319030
31
0.0
0
LINE
8
Layer 1
62
4
5
304
100
AcDbEntity
100
AcDbLine
10
-303.687847
20
7.319030
30
0.0
11
-305.332130
21
11.993335
31
0.0
0
LINE
8
Layer 1
62
4
5
305
100
AcDbEntity
100
AcDbLine
10
-305.332130
20
11.993335
30
0.0
11
-306.130702
21
14.782527
31
0.0
0
LINE
8
Layer 1
62
4
5
306
100
AcDbEntity
100
AcDbLine
10
-306.130702
20
14.782527
30
0.0
11
-306.959310
21
18.696113
31
0.0
0
LINE
8
Layer 1
62
4
5
307
100
AcDbEntity
100
AcDbLine
10
-306.959310
20
18.696113
30
0.0
11
-307.463134
21
20.460002
31
0.0
0
LINE
8
Layer 1
62
4
5
308
100
AcDbEntity
100
AcDbLine
10
-307.463134
20
20.460002
30
0.0
11
-307.782678
21
21.579341
31
0.0
0
LINE
8
Layer 1
62
4
5
309
100
AcDbEntity
100
AcDbLine
10
-307.782678
20
21.579341
30
0.0
11
-308.153985
21
24.011073
31
0.0
0
LINE
8
Layer 1
62
4
5
30a
100
AcDbEntity
100
AcDbLine
10
-308.153985
20
24.011073
30
0.0
11
-308.924932
21
31.825513
31
0.0
0
LINE
8
Layer 1
62
4
5
30b
100
AcDbEntity
100
AcDbLine
10
-308.924932
20
31.825513
30
0.0
11
-309.168151
21
37.125304
31
0.0
0
LINE
8
Layer 1
62
4
5
30c
100
AcDbEntity
100
AcDbLine
10
-309.168151
20
37.125304
30
0.0
11
-308.918441
21
42.232457
31
0.0
0
LINE
8
Layer 1
62
4
5
30d
100
AcDbEntity
100
AcDbLine
10
-308.918441
20
42.232457
30
0.0
11
-308.108865
21
50.089654
31
0.0
0
LINE
8
Layer 1
62
4
5
30e
100
AcDbEntity
100
AcDbLine
10
-308.108865
20
50.089654
30
0.0
11
-307.745929
21
52.471400
31
0.0
0
LINE
8
Layer 1
62
4
5
30f
100
AcDbEntity
100
AcDbLine
10
-307.745929
20
52.471400
30
0.0
11
-307.459944
21
53.444723
31
0.0
0
LINE
8
Layer 1
62
4
5
310
100
AcDbEntity
100
AcDbLine
10
-307.459944
20
53.444723
30
0.0
11
-307.168183
21
54.242893
31
0.0
0
LINE
8
Layer 1
62
4
5
311
100
AcDbEntity
100
AcDbLine
10
-307.168183
20
54.242893
30
0.0
11
-306.800137
21
55.914167
31
0.0
0
LINE
8
Layer 1
62
4
5
312
100
AcDbEntity
100
AcDbLine
10
-306.800137
20
55.914167
30
0.0
11
-305.905214
21
60.096147
31
0.0
0
LINE
8
Layer 1
62
4
5
313
100
AcDbEntity
100
AcDbLine
10
-305.905214
20
60.096147
30
0.0
11
-305.553271
21
61.186576
31
0.0
0
LINE
8
Layer 1
62
4
5
314
100
AcDbEntity
100
AcDbLine
10
-305.553271
20
61.186576
30
0.0
11
-305.278790
21
61.558612
31
0.0
0
LINE
8
Layer 1
62
4
5
315
100
AcDbEntity
100
AcDbLine
10
-305.278790
20
61.558612
30
0.0
11
-305.076744
21
61.726054
31
0.0
0
LINE
8
Layer 1
62
4
5
316
100
AcDbEntity
100
AcDbLine
10
-305.076744
20
61.726054
30
0.0
11
-304.992701
21
62.129124
31
0.0
0
LINE
8
Layer 1
62
4
5
317
100
AcDbEntity
100
AcDbLine
10
-304.992701
20
62.129124
30
0.0
11
-304.212442
21
65.004086
31
0.0
0
LINE
8
Layer 1
62
4
5
318
100
AcDbEntity
100
AcDbLine
10
-304.212442
20
65.004086
30
0.0
11
-303.200703
21
67.555834
31
0.0
0
LINE
8
Layer 1
62
4
5
319
100
AcDbEntity
100
AcDbLine
10
-303.200703
20
67.555834
30
0.0
11
-302.341901
21
69.794336
31
0.0
0
LINE
8
Layer 1
62
4
5
31a
100
AcDbEntity
100
AcDbLine
10
-302.341901
20
69.794336
30
0.0
11
-301.759274
21
71.379730
31
0.0
0
LINE
8
Layer 1
62
4
5
31b
100
AcDbEntity
100
AcDbLine
10
-301.759274
20
71.379730
30
0.0
11
-301.260425
21
72.295728
31
0.0
0
LINE
8
Layer 1
62
4
5
31c
100
AcDbEntity
100
AcDbLine
10
-301.260425
20
72.295728
30
0.0
11
-300.389163
21
74.088656
31
0.0
0
LINE
8
Layer 1
62
4
5
31d
100
AcDbEntity
100
AcDbLine
10
-300.389163
20
74.088656
30
0.0
11
-299.077715
21
77.498834
31
0.0
0
LINE
8
Layer 1
62
4
5
31e
100
AcDbEntity
100
AcDbLine
10
-299.077715
20
77.498834
30
0.0
11
-297.591066
21
81.382277
31
0.0
0
LINE
8
Layer 1
62
4
5
31f
100
AcDbEntity
100
AcDbLine
10
-297.591066
20
81.382277
30
0.0
11
-296.194198
21
84.595002
31
0.0
0
LINE
8
Layer 1
62
4
5
320
100
AcDbEntity
100
AcDbLine
10
-296.194198
20
84.595002
30
0.0
11
-294.043058
21
88.526428
31
0.0
0
LINE
8
Layer 1
62
4
5
321
100
AcDbEntity
100
AcDbLine
10
-294.043058
20
88.526428
30
0.0
11
-292.837306
21
90.216304
31
0.0
0
LINE
8
Layer 1
62
4
5
322
100
AcDbEntity
100
AcDbLine
10
-292.837306
20
90.216304
30
0.0
11
-292.659587
21
90.409937
31
0.0
0
LINE
8
Layer 1
62
4
5
323
100
AcDbEntity
100
AcDbLine
10
-292.659587
20
90.409937
30
0.0
11
-292.821783
21
90.486391
31
0.0
0
LINE
8
Layer 1
62
4
5
324
100
AcDbEntity
100
AcDbLine
10
-292.821783
20
90.486391
30
0.0
11
-292.953108
21
90.569826
31
0.0
0
LINE
8
Layer 1
62
4
5
325
100
AcDbEntity
100
AcDbLine
10
-292.953108
20
90.569826
30
0.0
11
-292.772733
21
90.755941
31
0.0
0
LINE
8
Layer 1
62
4
5
326
100
AcDbEntity
100
AcDbLine
10
-292.772733
20
90.755941
30
0.0
11
-292.315448
21
91.301921
31
0.0
0
LINE
8
Layer 1
62
4
5
327
100
AcDbEntity
100
AcDbLine
10
-292.315448
20
91.301921
30
0.0
11
-291.779424
21
92.250280
31
0.0
0
LINE
8
Layer 1
62
4
5
328
100
AcDbEntity
100
AcDbLine
10
-291.779424
20
92.250280
30
0.0
11
-290.229600
21
95.218531
31
0.0
0
LINE
8
Layer 1
62
4
5
329
100
AcDbEntity
100
AcDbLine
10
-290.229600
20
95.218531
30
0.0
11
-288.448976
21
98.189618
31
0.0
0
LINE
8
Layer 1
62
4
5
32a
100
AcDbEntity
100
AcDbLine
10
-288.448976
20
98.189618
30
0.0
11
-287.353728
21
100.289210
31
0.0
0
LINE
8
Layer 1
62
4
5
32b
100
AcDbEntity
100
AcDbLine
10
-287.353728
20
100.289210
30
0.0
11
-287.219005
21
100.649326
31
0.0
0
LINE
8
Layer 1
62
4
5
32c
100
AcDbEntity
100
AcDbLine
10
-287.219005
20
100.649326
30
0.0
11
-286.895117
21
100.963891
31
0.0
0
LINE
8
Layer 1
62
4
5
32d
100
AcDbEntity
100
AcDbLine
10
-286.895117
20
100.963891
30
0.0
11
-286.010978
21
102.085311
31
0.0
0
LINE
8
Layer 1
62
4
5
32e
100
AcDbEntity
100
AcDbLine
10
-286.010978
20
102.085311
30
0.0
11
-284.516732
21
104.448831
31
0.0
0
LINE
8
Layer 1
62
4
5
32f
100
AcDbEntity
100
AcDbLine
10
-284.516732
20
104.448831
30
0.0
11
-281.354846
21
110.153752
31
0.0
0
LINE
8
Layer 1
62
4
5
330
100
AcDbEntity
100
AcDbLine
10
-281.354846
20
110.153752
30
0.0
11
-280.749706
21
111.212639
31
0.0
0
LINE
8
Layer 1
62
4
5
331
100
AcDbEntity
100
AcDbLine
10
-280.749706
20
111.212639
30
0.0
11
-280.329598
21
111.653058
31
0.0
0
LINE
8
Layer 1
62
4
5
332
100
AcDbEntity
100
AcDbLine
10
-280.329598
20
111.653058
30
0.0
11
-279.941274
21
112.145295
31
0.0
0
LINE
8
Layer 1
62
4
5
333
100
AcDbEntity
100
AcDbLine
10
-279.941274
20
112.145295
30
0.0
11
-279.412912
21
113.328752
31
0.0
0
LINE
8
Layer 1
62
4
5
334
100
AcDbEntity
100
AcDbLine
10
-279.412912
20
113.328752
30
0.0
11
-278.777121
21
114.697332
31
0.0
0
LINE
8
Layer 1
62
4
5
335
100
AcDbEntity
100
AcDbLine
10
-278.777121
20
114.697332
30
0.0
11
-278.130240
21
115.635044
31
0.0
0
LINE
8
Layer 1
62
4
5
336
100
AcDbEntity
100
AcDbLine
10
-278.130240
20
115.635044
30
0.0
11
-277.475936
21
116.582040
31
0.0
0
LINE
8
Layer 1
62
4
5
337
100
AcDbEntity
100
AcDbLine
10
-277.475936
20
116.582040
30
0.0
11
-276.389737
21
118.638872
31
0.0
0
LINE
8
Layer 1
62
4
5
338
100
AcDbEntity
100
AcDbLine
10
-276.389737
20
118.638872
30
0.0
11
-275.171309
21
120.472502
31
0.0
0
LINE
8
Layer 1
62
4
5
339
100
AcDbEntity
100
AcDbLine
10
-275.171309
20
120.472502
30
0.0
11
-275.171281
21
120.472502
31
0.0
0
LINE
8
Layer 1
62
4
5
33a
100
AcDbEntity
100
AcDbLine
10
-65.660961
20
118.035598
30
0.0
11
-65.016055
21
117.225310
31
0.0
0
LINE
8
Layer 1
62
4
5
33b
100
AcDbEntity
100
AcDbLine
10
-65.016055
20
117.225310
30
0.0
11
-63.640222
21
114.916252
31
0.0
0
LINE
8
Layer 1
62
4
5
33c
100
AcDbEntity
100
AcDbLine
10
-63.640222
20
114.916252
30
0.0
11
-63.031663
21
113.857365
31
0.0
0
LINE
8
Layer 1
62
4
5
33d
100
AcDbEntity
100
AcDbLine
10
-63.031663
20
113.857365
30
0.0
11
-62.595125
21
113.416946
31
0.0
0
LINE
8
Layer 1
62
4
5
33e
100
AcDbEntity
100
AcDbLine
10
-62.595125
20
113.416946
30
0.0
11
-62.373545
21
113.270674
31
0.0
0
LINE
8
Layer 1
62
4
5
33f
100
AcDbEntity
100
AcDbLine
10
-62.373545
20
113.270674
30
0.0
11
-62.281463
21
112.919191
31
0.0
0
LINE
8
Layer 1
62
4
5
340
100
AcDbEntity
100
AcDbLine
10
-62.281463
20
112.919191
30
0.0
11
-61.338418
21
111.548184
31
0.0
0
LINE
8
Layer 1
62
4
5
341
100
AcDbEntity
100
AcDbLine
10
-61.338418
20
111.548184
30
0.0
11
-59.071185
21
108.950441
31
0.0
0
LINE
8
Layer 1
62
4
5
342
100
AcDbEntity
100
AcDbLine
10
-59.071185
20
108.950441
30
0.0
11
-56.639845
21
106.162202
31
0.0
0
LINE
8
Layer 1
62
4
5
343
100
AcDbEntity
100
AcDbLine
10
-56.639845
20
106.162202
30
0.0
11
-55.301995
21
104.332919
31
0.0
0
LINE
8
Layer 1
62
4
5
344
100
AcDbEntity
100
AcDbLine
10
-55.301995
20
104.332919
30
0.0
11
-54.831798
21
103.523181
31
0.0
0
LINE
8
Layer 1
62
4
5
345
100
AcDbEntity
100
AcDbLine
10
-54.831798
20
103.523181
30
0.0
11
-54.486739
21
103.186391
31
0.0
0
LINE
8
Layer 1
62
4
5
346
100
AcDbEntity
100
AcDbLine
10
-54.486739
20
103.186391
30
0.0
11
-54.070518
21
102.694153
31
0.0
0
LINE
8
Layer 1
62
4
5
347
100
AcDbEntity
100
AcDbLine
10
-54.070518
20
102.694153
30
0.0
11
-53.429507
21
101.510696
31
0.0
0
LINE
8
Layer 1
62
4
5
348
100
AcDbEntity
100
AcDbLine
10
-53.429507
20
101.510696
30
0.0
11
-52.367307
21
99.654210
31
0.0
0
LINE
8
Layer 1
62
4
5
349
100
AcDbEntity
100
AcDbLine
10
-52.367307
20
99.654210
30
0.0
11
-51.071036
21
97.549768
31
0.0
0
LINE
8
Layer 1
62
4
5
34a
100
AcDbEntity
100
AcDbLine
10
-51.071036
20
97.549768
30
0.0
11
-48.185253
21
91.985696
31
0.0
0
LINE
8
Layer 1
62
4
5
34b
100
AcDbEntity
100
AcDbLine
10
-48.185253
20
91.985696
30
0.0
11
-46.824283
21
89.431913
31
0.0
0
LINE
8
Layer 1
62
4
5
34c
100
AcDbEntity
100
AcDbLine
10
-46.824283
20
89.431913
30
0.0
11
-46.113234
21
88.369724
31
0.0
0
LINE
8
Layer 1
62
4
5
34d
100
AcDbEntity
100
AcDbLine
10
-46.113234
20
88.369724
30
0.0
11
-45.683904
21
87.722049
31
0.0
0
LINE
8
Layer 1
62
4
5
34e
100
AcDbEntity
100
AcDbLine
10
-45.683904
20
87.722049
30
0.0
11
-45.000319
21
86.164863
31
0.0
0
LINE
8
Layer 1
62
4
5
34f
100
AcDbEntity
100
AcDbLine
10
-45.000319
20
86.164863
30
0.0
11
-43.537392
21
82.901669
31
0.0
0
LINE
8
Layer 1
62
4
5
350
100
AcDbEntity
100
AcDbLine
10
-43.537392
20
82.901669
30
0.0
11
-42.773228
21
80.868410
31
0.0
0
LINE
8
Layer 1
62
4
5
351
100
AcDbEntity
100
AcDbLine
10
-42.773228
20
80.868410
30
0.0
11
-41.879834
21
78.929854
31
0.0
0
LINE
8
Layer 1
62
4
5
352
100
AcDbEntity
100
AcDbLine
10
-41.879834
20
78.929854
30
0.0
11
-39.897540
21
75.232074
31
0.0
0
LINE
8
Layer 1
62
4
5
353
100
AcDbEntity
100
AcDbLine
10
-39.897540
20
75.232074
30
0.0
11
-37.974868
21
71.598778
31
0.0
0
LINE
8
Layer 1
62
4
5
354
100
AcDbEntity
100
AcDbLine
10
-37.974868
20
71.598778
30
0.0
11
-37.156001
21
69.740828
31
0.0
0
LINE
8
Layer 1
62
4
5
355
100
AcDbEntity
100
AcDbLine
10
-37.156001
20
69.740828
30
0.0
11
-36.496173
21
67.820417
31
0.0
0
LINE
8
Layer 1
62
4
5
356
100
AcDbEntity
100
AcDbLine
10
-36.496173
20
67.820417
30
0.0
11
-36.073994
21
66.636961
31
0.0
0
LINE
8
Layer 1
62
4
5
357
100
AcDbEntity
100
AcDbLine
10
-36.073994
20
66.636961
30
0.0
11
-35.725029
21
66.144723
31
0.0
0
LINE
8
Layer 1
62
4
5
358
100
AcDbEntity
100
AcDbLine
10
-35.725029
20
66.144723
30
0.0
11
-35.579745
21
66.041094
31
0.0
0
LINE
8
Layer 1
62
4
5
359
100
AcDbEntity
100
AcDbLine
10
-35.579745
20
66.041094
30
0.0
11
-35.646741
21
65.791945
31
0.0
0
LINE
8
Layer 1
62
4
5
35a
100
AcDbEntity
100
AcDbLine
10
-35.646741
20
65.791945
30
0.0
11
-35.702519
21
65.542796
31
0.0
0
LINE
8
Layer 1
62
4
5
35b
100
AcDbEntity
100
AcDbLine
10
-35.702519
20
65.542796
30
0.0
11
-35.530437
21
65.439167
31
0.0
0
LINE
8
Layer 1
62
4
5
35c
100
AcDbEntity
100
AcDbLine
10
-35.530437
20
65.439167
30
0.0
11
-35.299441
21
65.195984
31
0.0
0
LINE
8
Layer 1
62
4
5
35d
100
AcDbEntity
100
AcDbLine
10
-35.299441
20
65.195984
30
0.0
11
-35.044609
21
64.540794
31
0.0
0
LINE
8
Layer 1
62
4
5
35e
100
AcDbEntity
100
AcDbLine
10
-35.044609
20
64.540794
30
0.0
11
-34.601644
21
62.440556
31
0.0
0
LINE
8
Layer 1
62
4
5
35f
100
AcDbEntity
100
AcDbLine
10
-34.601644
20
62.440556
30
0.0
11
-34.149485
21
60.368925
31
0.0
0
LINE
8
Layer 1
62
4
5
360
100
AcDbEntity
100
AcDbLine
10
-34.149485
20
60.368925
30
0.0
11
-33.883114
21
59.695856
31
0.0
0
LINE
8
Layer 1
62
4
5
361
100
AcDbEntity
100
AcDbLine
10
-33.883114
20
59.695856
30
0.0
11
-33.646378
21
59.441945
31
0.0
0
LINE
8
Layer 1
62
4
5
362
100
AcDbEntity
100
AcDbLine
10
-33.646378
20
59.441945
30
0.0
11
-33.480495
21
59.328181
31
0.0
0
LINE
8
Layer 1
62
4
5
363
100
AcDbEntity
100
AcDbLine
10
-33.480495
20
59.328181
30
0.0
11
-33.551043
21
59.054990
31
0.0
0
LINE
8
Layer 1
62
4
5
364
100
AcDbEntity
100
AcDbLine
10
-33.551043
20
59.054990
30
0.0
11
-33.609075
21
58.558815
31
0.0
0
LINE
8
Layer 1
62
4
5
365
100
AcDbEntity
100
AcDbLine
10
-33.609075
20
58.558815
30
0.0
11
-33.413234
21
57.908462
31
0.0
0
LINE
8
Layer 1
62
4
5
366
100
AcDbEntity
100
AcDbLine
10
-33.413234
20
57.908462
30
0.0
11
-33.016947
21
56.485005
31
0.0
0
LINE
8
Layer 1
62
4
5
367
100
AcDbEntity
100
AcDbLine
10
-33.016947
20
56.485005
30
0.0
11
-32.529907
21
54.024199
31
0.0
0
LINE
8
Layer 1
62
4
5
368
100
AcDbEntity
100
AcDbLine
10
-32.529907
20
54.024199
30
0.0
11
-31.942574
21
49.678270
31
0.0
0
LINE
8
Layer 1
62
4
5
369
100
AcDbEntity
100
AcDbLine
10
-31.942574
20
49.678270
30
0.0
11
-31.854514
21
49.099361
31
0.0
0
LINE
8
Layer 1
62
4
5
36a
100
AcDbEntity
100
AcDbLine
10
-31.854514
20
49.099361
30
0.0
11
-31.642713
21
48.858612
31
0.0
0
LINE
8
Layer 1
62
4
5
36b
100
AcDbEntity
100
AcDbLine
10
-31.642713
20
48.858612
30
0.0
11
-31.302773
21
47.154695
31
0.0
0
LINE
8
Layer 1
62
4
5
36c
100
AcDbEntity
100
AcDbLine
10
-31.302773
20
47.154695
30
0.0
11
-30.906847
21
43.058183
31
0.0
0
LINE
8
Layer 1
62
4
5
36d
100
AcDbEntity
100
AcDbLine
10
-30.906847
20
43.058183
30
0.0
11
-30.647732
21
37.340160
31
0.0
0
LINE
8
Layer 1
62
4
5
36e
100
AcDbEntity
100
AcDbLine
10
-30.647732
20
37.340160
30
0.0
11
-30.894711
21
31.857489
31
0.0
0
LINE
8
Layer 1
62
4
5
36f
100
AcDbEntity
100
AcDbLine
10
-30.894711
20
31.857489
30
0.0
11
-31.272868
21
27.939884
31
0.0
0
LINE
8
Layer 1
62
4
5
370
100
AcDbEntity
100
AcDbLine
10
-31.272868
20
27.939884
30
0.0
11
-31.587059
21
26.104445
31
0.0
0
LINE
8
Layer 1
62
4
5
371
100
AcDbEntity
100
AcDbLine
10
-31.587059
20
26.104445
30
0.0
11
-31.850207
21
25.233525
31
0.0
0
LINE
8
Layer 1
62
4
5
372
100
AcDbEntity
100
AcDbLine
10
-31.850207
20
25.233525
30
0.0
11
-32.105755
21
23.635001
31
0.0
0
LINE
8
Layer 1
62
4
5
373
100
AcDbEntity
100
AcDbLine
10
-32.105755
20
23.635001
30
0.0
11
-32.817548
21
19.470640
31
0.0
0
LINE
8
Layer 1
62
4
5
374
100
AcDbEntity
100
AcDbLine
10
-32.817548
20
19.470640
30
0.0
11
-34.009655
21
14.878945
31
0.0
0
LINE
8
Layer 1
62
4
5
375
100
AcDbEntity
100
AcDbLine
10
-34.009655
20
14.878945
30
0.0
11
-34.931279
21
11.201250
31
0.0
0
LINE
8
Layer 1
62
4
5
376
100
AcDbEntity
100
AcDbLine
10
-34.931279
20
11.201250
30
0.0
11
-35.174481
21
10.182245
31
0.0
0
LINE
8
Layer 1
62
4
5
377
100
AcDbEntity
100
AcDbLine
10
-35.174481
20
10.182245
30
0.0
11
-35.475319
21
9.517823
31
0.0
0
LINE
8
Layer 1
62
4
5
378
100
AcDbEntity
100
AcDbLine
10
-35.475319
20
9.517823
30
0.0
11
-35.648554
21
9.158847
31
0.0
0
LINE
8
Layer 1
62
4
5
379
100
AcDbEntity
100
AcDbLine
10
-35.648554
20
9.158847
30
0.0
11
-35.585019
21
8.874018
31
0.0
0
LINE
8
Layer 1
62
4
5
37a
100
AcDbEntity
100
AcDbLine
10
-35.585019
20
8.874018
30
0.0
11
-35.541835
21
8.710103
31
0.0
0
LINE
8
Layer 1
62
4
5
37b
100
AcDbEntity
100
AcDbLine
10
-35.541835
20
8.710103
30
0.0
11
-35.764145
21
8.641946
31
0.0
0
LINE
8
Layer 1
62
4
5
37c
100
AcDbEntity
100
AcDbLine
10
-35.764145
20
8.641946
30
0.0
11
-36.054937
21
8.489839
31
0.0
0
LINE
8
Layer 1
62
4
5
37d
100
AcDbEntity
100
AcDbLine
10
-36.054937
20
8.489839
30
0.0
11
-36.175908
21
8.124351
31
0.0
0
LINE
8
Layer 1
62
4
5
37e
100
AcDbEntity
100
AcDbLine
10
-36.175908
20
8.124351
30
0.0
11
-36.497697
21
6.924832
31
0.0
0
LINE
8
Layer 1
62
4
5
37f
100
AcDbEntity
100
AcDbLine
10
-36.497697
20
6.924832
30
0.0
11
-38.094144
21
3.283591
31
0.0
0
LINE
8
Layer 1
62
4
5
380
100
AcDbEntity
100
AcDbLine
10
-38.094144
20
3.283591
30
0.0
11
-38.998130
21
0.989434
31
0.0
0
LINE
8
Layer 1
62
4
5
381
100
AcDbEntity
100
AcDbLine
10
-38.998130
20
0.989434
30
0.0
11
-40.232852
21
-1.034635
31
0.0
0
LINE
8
Layer 1
62
4
5
382
100
AcDbEntity
100
AcDbLine
10
-40.232852
20
-1.034635
30
0.0
11
-41.104869
21
-2.398368
31
0.0
0
LINE
8
Layer 1
62
4
5
383
100
AcDbEntity
100
AcDbLine
10
-41.104869
20
-2.398368
30
0.0
11
-41.467574
21
-3.238396
31
0.0
0
LINE
8
Layer 1
62
4
5
384
100
AcDbEntity
100
AcDbLine
10
-41.467574
20
-3.238396
30
0.0
11
-41.564271
21
-3.568165
31
0.0
0
LINE
8
Layer 1
62
4
5
385
100
AcDbEntity
100
AcDbLine
10
-41.564271
20
-3.568165
30
0.0
11
-41.796645
21
-3.705276
31
0.0
0
LINE
8
Layer 1
62
4
5
386
100
AcDbEntity
100
AcDbLine
10
-41.796645
20
-3.705276
30
0.0
11
-42.100945
21
-3.938437
31
0.0
0
LINE
8
Layer 1
62
4
5
387
100
AcDbEntity
100
AcDbLine
10
-42.100945
20
-3.938437
30
0.0
11
-42.370488
21
-4.499026
31
0.0
0
LINE
8
Layer 1
62
4
5
388
100
AcDbEntity
100
AcDbLine
10
-42.370488
20
-4.499026
30
0.0
11
-42.892917
21
-5.539893
31
0.0
0
LINE
8
Layer 1
62
4
5
389
100
AcDbEntity
100
AcDbLine
10
-42.892917
20
-5.539893
30
0.0
11
-43.805277
21
-6.927661
31
0.0
0
LINE
8
Layer 1
62
4
5
38a
100
AcDbEntity
100
AcDbLine
10
-43.805277
20
-6.927661
30
0.0
11
-44.645774
21
-8.192062
31
0.0
0
LINE
8
Layer 1
62
4
5
38b
100
AcDbEntity
100
AcDbLine
10
-44.645774
20
-8.192062
30
0.0
11
-44.995352
21
-8.936293
31
0.0
0
LINE
8
Layer 1
62
4
5
38c
100
AcDbEntity
100
AcDbLine
10
-44.995352
20
-8.936293
30
0.0
11
-45.187270
21
-9.335570
31
0.0
0
LINE
8
Layer 1
62
4
5
38d
100
AcDbEntity
100
AcDbLine
10
-45.187270
20
-9.335570
30
0.0
11
-45.648555
21
-9.770852
31
0.0
0
LINE
8
Layer 1
62
4
5
38e
100
AcDbEntity
100
AcDbLine
10
-45.648555
20
-9.770852
30
0.0
11
-46.273589
21
-10.407225
31
0.0
0
LINE
8
Layer 1
62
4
5
38f
100
AcDbEntity
100
AcDbLine
10
-46.273589
20
-10.407225
30
0.0
11
-46.859571
21
-11.289998
31
0.0
0
LINE
8
Layer 1
62
4
5
390
100
AcDbEntity
100
AcDbLine
10
-46.859571
20
-11.289998
30
0.0
11
-47.882747
21
-12.727917
31
0.0
0
LINE
8
Layer 1
62
4
5
391
100
AcDbEntity
100
AcDbLine
10
-47.882747
20
-12.727917
30
0.0
11
-49.558321
21
-14.698706
31
0.0
0
LINE
8
Layer 1
62
4
5
392
100
AcDbEntity
100
AcDbLine
10
-49.558321
20
-14.698706
30
0.0
11
-51.720736
21
-17.344540
31
0.0
0
LINE
8
Layer 1
62
4
5
393
100
AcDbEntity
100
AcDbLine
10
-51.720736
20
-17.344540
30
0.0
11
-52.170478
21
-17.936578
31
0.0
0
LINE
8
Layer 1
62
4
5
394
100
AcDbEntity
100
AcDbLine
10
-52.170478
20
-17.936578
30
0.0
11
-53.220041
21
-18.944711
31
0.0
0
LINE
8
Layer 1
62
4
5
395
100
AcDbEntity
100
AcDbLine
10
-53.220041
20
-18.944711
30
0.0
11
-57.451738
21
-22.737072
31
0.0
0
LINE
8
Layer 1
62
4
5
396
100
AcDbEntity
100
AcDbLine
10
-57.451738
20
-22.737072
30
0.0
11
-59.505931
21
-24.494029
31
0.0
0
LINE
8
Layer 1
62
4
5
397
100
AcDbEntity
100
AcDbLine
10
-59.505931
20
-24.494029
30
0.0
11
-60.576023
21
-25.224720
31
0.0
0
LINE
8
Layer 1
62
4
5
398
100
AcDbEntity
100
AcDbLine
10
-60.576023
20
-25.224720
30
0.0
11
-61.040462
21
-25.483797
31
0.0
0
LINE
8
Layer 1
62
4
5
399
100
AcDbEntity
100
AcDbLine
10
-61.040462
20
-25.483797
30
0.0
11
-61.638759
21
-26.106665
31
0.0
0
LINE
8
Layer 1
62
4
5
39a
100
AcDbEntity
100
AcDbLine
10
-61.638759
20
-26.106665
30
0.0
11
-62.275822
21
-26.729543
31
0.0
0
LINE
8
Layer 1
62
4
5
39b
100
AcDbEntity
100
AcDbLine
10
-62.275822
20
-26.729543
30
0.0
11
-62.833236
21
-26.988609
31
0.0
0
LINE
8
Layer 1
62
4
5
39c
100
AcDbEntity
100
AcDbLine
10
-62.833236
20
-26.988609
30
0.0
11
-63.316083
21
-27.195866
31
0.0
0
LINE
8
Layer 1
62
4
5
39d
100
AcDbEntity
100
AcDbLine
10
-63.316083
20
-27.195866
30
0.0
11
-63.774165
21
-27.694165
31
0.0
0
LINE
8
Layer 1
62
4
5
39e
100
AcDbEntity
100
AcDbLine
10
-63.774165
20
-27.694165
30
0.0
11
-64.205443
21
-28.192463
31
0.0
0
LINE
8
Layer 1
62
4
5
39f
100
AcDbEntity
100
AcDbLine
10
-64.205443
20
-28.192463
30
0.0
11
-64.623597
21
-28.399720
31
0.0
0
LINE
8
Layer 1
62
4
5
3a0
100
AcDbEntity
100
AcDbLine
10
-64.623597
20
-28.399720
30
0.0
11
-65.464090
21
-28.814234
31
0.0
0
LINE
8
Layer 1
62
4
5
3a1
100
AcDbEntity
100
AcDbLine
10
-65.464090
20
-28.814234
30
0.0
11
-66.910585
21
-29.810831
31
0.0
0
LINE
8
Layer 1
62
4
5
3a2
100
AcDbEntity
100
AcDbLine
10
-66.910585
20
-29.810831
30
0.0
11
-68.361952
21
-30.807429
31
0.0
0
LINE
8
Layer 1
62
4
5
3a3
100
AcDbEntity
100
AcDbLine
10
-68.361952
20
-30.807429
30
0.0
11
-69.214111
21
-31.221942
31
0.0
0
LINE
8
Layer 1
62
4
5
3a4
100
AcDbEntity
100
AcDbLine
10
-69.214111
20
-31.221942
30
0.0
11
-69.677248
21
-31.384855
31
0.0
0
LINE
8
Layer 1
62
4
5
3a5
100
AcDbEntity
100
AcDbLine
10
-69.677248
20
-31.384855
30
0.0
11
-70.193620
21
-31.776453
31
0.0
0
LINE
8
Layer 1
62
4
5
3a6
100
AcDbEntity
100
AcDbLine
10
-70.193620
20
-31.776453
30
0.0
11
-70.585217
21
-32.096239
31
0.0
0
LINE
8
Layer 1
62
4
5
3a7
100
AcDbEntity
100
AcDbLine
10
-70.585217
20
-32.096239
30
0.0
11
-70.748130
21
-32.086248
31
0.0
0
LINE
8
Layer 1
62
4
5
3a8
100
AcDbEntity
100
AcDbLine
10
-70.748130
20
-32.086248
30
0.0
11
-70.880019
21
-32.023023
31
0.0
0
LINE
8
Layer 1
62
4
5
3a9
100
AcDbEntity
100
AcDbLine
10
-70.880019
20
-32.023023
30
0.0
11
-71.197371
21
-32.214687
31
0.0
0
LINE
8
Layer 1
62
4
5
3aa
100
AcDbEntity
100
AcDbLine
10
-71.197371
20
-32.214687
30
0.0
11
-73.375788
21
-33.174328
31
0.0
0
LINE
8
Layer 1
62
4
5
3ab
100
AcDbEntity
100
AcDbLine
10
-73.375788
20
-33.174328
30
0.0
11
-74.863346
21
-33.773806
31
0.0
0
LINE
8
Layer 1
62
4
5
3ac
100
AcDbEntity
100
AcDbLine
10
-74.863346
20
-33.773806
30
0.0
11
-76.012788
21
-34.390875
31
0.0
0
LINE
8
Layer 1
62
4
5
3ad
100
AcDbEntity
100
AcDbLine
10
-76.012788
20
-34.390875
30
0.0
11
-77.172827
21
-34.969663
31
0.0
0
LINE
8
Layer 1
62
4
5
3ae
100
AcDbEntity
100
AcDbLine
10
-77.172827
20
-34.969663
30
0.0
11
-78.685630
21
-35.476781
31
0.0
0
LINE
8
Layer 1
62
4
5
3af
100
AcDbEntity
100
AcDbLine
10
-78.685630
20
-35.476781
30
0.0
11
-80.625908
21
-36.165798
31
0.0
0
LINE
8
Layer 1
62
4
5
3b0
100
AcDbEntity
100
AcDbLine
10
-80.625908
20
-36.165798
30
0.0
11
-81.732116
21
-36.562764
31
0.0
0
LINE
8
Layer 1
62
4
5
3b1
100
AcDbEntity
100
AcDbLine
10
-81.732116
20
-36.562764
30
0.0
11
-84.026975
21
-37.153823
31
0.0
0
LINE
8
Layer 1
62
4
5
3b2
100
AcDbEntity
100
AcDbLine
10
-84.026975
20
-37.153823
30
0.0
11
-88.011099
21
-37.924720
31
0.0
0
LINE
8
Layer 1
62
4
5
3b3
100
AcDbEntity
100
AcDbLine
10
-88.011099
20
-37.924720
30
0.0
11
-88.525773
21
-38.015151
31
0.0
0
LINE
8
Layer 1
62
4
5
3b4
100
AcDbEntity
100
AcDbLine
10
-88.525773
20
-38.015151
30
0.0
11
-88.739797
21
-38.232286
31
0.0
0
LINE
8
Layer 1
62
4
5
3b5
100
AcDbEntity
100
AcDbLine
10
-88.739797
20
-38.232286
30
0.0
11
-89.118250
21
-38.448810
31
0.0
0
LINE
8
Layer 1
62
4
5
3b6
100
AcDbEntity
100
AcDbLine
10
-89.118250
20
-38.448810
30
0.0
11
-90.189978
21
-38.690756
31
0.0
0
LINE
8
Layer 1
62
4
5
3b7
100
AcDbEntity
100
AcDbLine
10
-90.189978
20
-38.690756
30
0.0
11
-94.031463
21
-39.182585
31
0.0
0
LINE
8
Layer 1
62
4
5
3b8
100
AcDbEntity
100
AcDbLine
10
-94.031463
20
-39.182585
30
0.0
11
-97.902649
21
-39.654968
31
0.0
0
LINE
8
Layer 1
62
4
5
3b9
100
AcDbEntity
100
AcDbLine
10
-97.902649
20
-39.654968
30
0.0
11
-102.267371
21
-39.977957
31
0.0
0
LINE
8
Layer 1
62
4
5
3ba
100
AcDbEntity
100
AcDbLine
10
-102.267371
20
-39.977957
30
0.0
11
-106.554538
21
-39.669926
31
0.0
0
LINE
8
Layer 1
62
4
5
3bb
100
AcDbEntity
100
AcDbLine
10
-106.554538
20
-39.669926
30
0.0
11
-110.126399
21
-39.217383
31
0.0
0
LINE
8
Layer 1
62
4
5
3bc
100
AcDbEntity
100
AcDbLine
10
-110.126399
20
-39.217383
30
0.0
11
-114.099234
21
-38.679178
31
0.0
0
LINE
8
Layer 1
62
4
5
3bd
100
AcDbEntity
100
AcDbLine
10
-114.099234
20
-38.679178
30
0.0
11
-115.726760
21
-38.269285
31
0.0
0
LINE
8
Layer 1
62
4
5
3be
100
AcDbEntity
100
AcDbLine
10
-115.726760
20
-38.269285
30
0.0
11
-119.950724
21
-37.217020
31
0.0
0
LINE
8
Layer 1
62
4
5
3bf
100
AcDbEntity
100
AcDbLine
10
-119.950724
20
-37.217020
30
0.0
11
-122.490131
21
-36.618215
31
0.0
0
LINE
8
Layer 1
62
4
5
3c0
100
AcDbEntity
100
AcDbLine
10
-122.490131
20
-36.618215
30
0.0
11
-123.654891
21
-36.217106
31
0.0
0
LINE
8
Layer 1
62
4
5
3c1
100
AcDbEntity
100
AcDbLine
10
-123.654891
20
-36.217106
30
0.0
11
-124.455160
21
-35.711503
31
0.0
0
LINE
8
Layer 1
62
4
5
3c2
100
AcDbEntity
100
AcDbLine
10
-124.455160
20
-35.711503
30
0.0
11
-126.003039
21
-35.430038
31
0.0
0
LINE
8
Layer 1
62
4
5
3c3
100
AcDbEntity
100
AcDbLine
10
-126.003039
20
-35.430038
30
0.0
11
-128.344822
21
-35.368612
31
0.0
0
LINE
8
Layer 1
62
4
5
3c4
100
AcDbEntity
100
AcDbLine
10
-128.344822
20
-35.368612
30
0.0
11
-131.526802
21
-35.523122
31
0.0
0
LINE
8
Layer 1
62
4
5
3c5
100
AcDbEntity
100
AcDbLine
10
-131.526802
20
-35.523122
30
0.0
11
-135.119674
21
-35.855855
31
0.0
0
LINE
8
Layer 1
62
4
5
3c6
100
AcDbEntity
100
AcDbLine
10
-135.119674
20
-35.855855
30
0.0
11
-136.717038
21
-36.147652
31
0.0
0
LINE
8
Layer 1
62
4
5
3c7
100
AcDbEntity
100
AcDbLine
10
-136.717038
20
-36.147652
30
0.0
11
-137.386977
21
-36.403998
31
0.0
0
LINE
8
Layer 1
62
4
5
3c8
100
AcDbEntity
100
AcDbLine
10
-137.386977
20
-36.403998
30
0.0
11
-138.749913
21
-36.651475
31
0.0
0
LINE
8
Layer 1
62
4
5
3c9
100
AcDbEntity
100
AcDbLine
10
-138.749913
20
-36.651475
30
0.0
11
-141.046271
21
-37.061007
31
0.0
0
LINE
8
Layer 1
62
4
5
3ca
100
AcDbEntity
100
AcDbLine
10
-141.046271
20
-37.061007
30
0.0
11
-142.854894
21
-30.882742
31
0.0
0
LINE
8
Layer 1
62
4
5
3cb
100
AcDbEntity
100
AcDbLine
10
-142.854894
20
-30.882742
30
0.0
11
-145.144862
21
-24.932070
31
0.0
0
LINE
8
Layer 1
62
4
5
3cc
100
AcDbEntity
100
AcDbLine
10
-145.144862
20
-24.932070
30
0.0
11
-147.817467
21
-19.225868
31
0.0
0
LINE
8
Layer 1
62
4
5
3cd
100
AcDbEntity
100
AcDbLine
10
-147.817467
20
-19.225868
30
0.0
11
-150.774001
21
-13.781011
31
0.0
0
LINE
8
Layer 1
62
4
5
3ce
100
AcDbEntity
100
AcDbLine
10
-150.774001
20
-13.781011
30
0.0
11
-153.915759
21
-8.614378
31
0.0
0
LINE
8
Layer 1
62
4
5
3cf
100
AcDbEntity
100
AcDbLine
10
-153.915759
20
-8.614378
30
0.0
11
-157.144033
21
-3.742843
31
0.0
0
LINE
8
Layer 1
62
4
5
3d0
100
AcDbEntity
100
AcDbLine
10
-157.144033
20
-3.742843
30
0.0
11
-163.465298
21
5.047423
31
0.0
0
LINE
8
Layer 1
62
4
5
3d1
100
AcDbEntity
100
AcDbLine
10
-163.465298
20
5.047423
30
0.0
11
-162.477728
21
7.597444
31
0.0
0
LINE
8
Layer 1
62
4
5
3d2
100
AcDbEntity
100
AcDbLine
10
-162.477728
20
7.597444
30
0.0
11
-161.334828
21
9.955933
31
0.0
0
LINE
8
Layer 1
62
4
5
3d3
100
AcDbEntity
100
AcDbLine
10
-161.334828
20
9.955933
30
0.0
11
-158.748053
21
14.330276
31
0.0
0
LINE
8
Layer 1
62
4
5
3d4
100
AcDbEntity
100
AcDbLine
10
-158.748053
20
14.330276
30
0.0
11
-156.034997
21
18.634367
31
0.0
0
LINE
8
Layer 1
62
4
5
3d5
100
AcDbEntity
100
AcDbLine
10
-156.034997
20
18.634367
30
0.0
11
-154.734246
21
20.905042
31
0.0
0
LINE
8
Layer 1
62
4
5
3d6
100
AcDbEntity
100
AcDbLine
10
-154.734246
20
20.905042
30
0.0
11
-153.525686
21
23.332121
31
0.0
0
LINE
8
Layer 1
62
4
5
3d7
100
AcDbEntity
100
AcDbLine
10
-153.525686
20
23.332121
30
0.0
11
-151.835881
21
17.555999
31
0.0
0
LINE
8
Layer 1
62
4
5
3d8
100
AcDbEntity
100
AcDbLine
10
-151.835881
20
17.555999
30
0.0
11
-149.806442
21
12.165361
31
0.0
0
LINE
8
Layer 1
62
4
5
3d9
100
AcDbEntity
100
AcDbLine
10
-149.806442
20
12.165361
30
0.0
11
-147.455021
21
7.159166
31
0.0
0
LINE
8
Layer 1
62
4
5
3da
100
AcDbEntity
100
AcDbLine
10
-147.455021
20
7.159166
30
0.0
11
-144.799267
21
2.536370
31
0.0
0
LINE
8
Layer 1
62
4
5
3db
100
AcDbEntity
100
AcDbLine
10
-144.799267
20
2.536370
30
0.0
11
-141.856830
21
-1.704067
31
0.0
0
LINE
8
Layer 1
62
4
5
3dc
100
AcDbEntity
100
AcDbLine
10
-141.856830
20
-1.704067
30
0.0
11
-138.645362
21
-5.563189
31
0.0
0
LINE
8
Layer 1
62
4
5
3dd
100
AcDbEntity
100
AcDbLine
10
-138.645362
20
-5.563189
30
0.0
11
-135.182513
21
-9.042037
31
0.0
0
LINE
8
Layer 1
62
4
5
3de
100
AcDbEntity
100
AcDbLine
10
-135.182513
20
-9.042037
30
0.0
11
-131.485933
21
-12.141653
31
0.0
0
LINE
8
Layer 1
62
4
5
3df
100
AcDbEntity
100
AcDbLine
10
-131.485933
20
-12.141653
30
0.0
11
-127.573273
21
-14.863080
31
0.0
0
LINE
8
Layer 1
62
4
5
3e0
100
AcDbEntity
100
AcDbLine
10
-127.573273
20
-14.863080
30
0.0
11
-123.462183
21
-17.207359
31
0.0
0
LINE
8
Layer 1
62
4
5
3e1
100
AcDbEntity
100
AcDbLine
10
-123.462183
20
-17.207359
30
0.0
11
-119.170313
21
-19.175534
31
0.0
0
LINE
8
Layer 1
62
4
5
3e2
100
AcDbEntity
100
AcDbLine
10
-119.170313
20
-19.175534
30
0.0
11
-114.715315
21
-20.768645
31
0.0
0
LINE
8
Layer 1
62
4
5
3e3
100
AcDbEntity
100
AcDbLine
10
-114.715315
20
-20.768645
30
0.0
11
-110.114839
21
-21.987735
31
0.0
0
LINE
8
Layer 1
62
4
5
3e4
100
AcDbEntity
100
AcDbLine
10
-110.114839
20
-21.987735
30
0.0
11
-105.386534
21
-22.833846
31
0.0
0
LINE
8
Layer 1
62
4
5
3e5
100
AcDbEntity
100
AcDbLine
10
-105.386534
20
-22.833846
30
0.0
11
-100.548053
21
-23.308021
31
0.0
0
LINE
8
Layer 1
62
4
5
3e6
100
AcDbEntity
100
AcDbLine
10
-100.548053
20
-23.308021
30
0.0
11
-95.617044
21
-23.411301
31
0.0
0
LINE
8
Layer 1
62
4
5
3e7
100
AcDbEntity
100
AcDbLine
10
-95.617044
20
-23.411301
30
0.0
11
-90.683720
21
-23.102867
31
0.0
0
LINE
8
Layer 1
62
4
5
3e8
100
AcDbEntity
100
AcDbLine
10
-90.683720
20
-23.102867
30
0.0
11
-85.846344
21
-22.343111
31
0.0
0
LINE
8
Layer 1
62
4
5
3e9
100
AcDbEntity
100
AcDbLine
10
-85.846344
20
-22.343111
30
0.0
11
-81.134631
21
-21.134907
31
0.0
0
LINE
8
Layer 1
62
4
5
3ea
100
AcDbEntity
100
AcDbLine
10
-81.134631
20
-21.134907
30
0.0
11
-76.578297
21
-19.481131
31
0.0
0
LINE
8
Layer 1
62
4
5
3eb
100
AcDbEntity
100
AcDbLine
10
-76.578297
20
-19.481131
30
0.0
11
-72.207056
21
-17.384658
31
0.0
0
LINE
8
Layer 1
62
4
5
3ec
100
AcDbEntity
100
AcDbLine
10
-72.207056
20
-17.384658
30
0.0
11
-68.050623
21
-14.848364
31
0.0
0
LINE
8
Layer 1
62
4
5
3ed
100
AcDbEntity
100
AcDbLine
10
-68.050623
20
-14.848364
30
0.0
11
-64.138713
21
-11.875123
31
0.0
0
LINE
8
Layer 1
62
4
5
3ee
100
AcDbEntity
100
AcDbLine
10
-64.138713
20
-11.875123
30
0.0
11
-60.501040
21
-8.467811
31
0.0
0
LINE
8
Layer 1
62
4
5
3ef
100
AcDbEntity
100
AcDbLine
10
-60.501040
20
-8.467811
30
0.0
11
-57.167319
21
-4.629303
31
0.0
0
LINE
8
Layer 1
62
4
5
3f0
100
AcDbEntity
100
AcDbLine
10
-57.167319
20
-4.629303
30
0.0
11
-54.167266
21
-0.362474
31
0.0
0
LINE
8
Layer 1
62
4
5
3f1
100
AcDbEntity
100
AcDbLine
10
-54.167266
20
-0.362474
30
0.0
11
-51.530594
21
4.329801
31
0.0
0
LINE
8
Layer 1
62
4
5
3f2
100
AcDbEntity
100
AcDbLine
10
-51.530594
20
4.329801
30
0.0
11
-49.287019
21
9.444646
31
0.0
0
LINE
8
Layer 1
62
4
5
3f3
100
AcDbEntity
100
AcDbLine
10
-49.287019
20
9.444646
30
0.0
11
-47.466256
21
14.979186
31
0.0
0
LINE
8
Layer 1
62
4
5
3f4
100
AcDbEntity
100
AcDbLine
10
-47.466256
20
14.979186
30
0.0
11
-46.098020
21
20.930547
31
0.0
0
LINE
8
Layer 1
62
4
5
3f5
100
AcDbEntity
100
AcDbLine
10
-46.098020
20
20.930547
30
0.0
11
-45.212024
21
27.295852
31
0.0
0
LINE
8
Layer 1
62
4
5
3f6
100
AcDbEntity
100
AcDbLine
10
-45.212024
20
27.295852
30
0.0
11
-44.837985
21
34.072227
31
0.0
0
LINE
8
Layer 1
62
4
5
3f7
100
AcDbEntity
100
AcDbLine
10
-44.837985
20
34.072227
30
0.0
11
-44.882015
21
37.506886
31
0.0
0
LINE
8
Layer 1
62
4
5
3f8
100
AcDbEntity
100
AcDbLine
10
-44.882015
20
37.506886
30
0.0
11
-45.115652
21
40.830032
31
0.0
0
LINE
8
Layer 1
62
4
5
3f9
100
AcDbEntity
100
AcDbLine
10
-45.115652
20
40.830032
30
0.0
11
-45.528980
21
44.041846
31
0.0
0
LINE
8
Layer 1
62
4
5
3fa
100
AcDbEntity
100
AcDbLine
10
-45.528980
20
44.041846
30
0.0
11
-46.112087
21
47.142512
31
0.0
0
LINE
8
Layer 1
62
4
5
3fb
100
AcDbEntity
100
AcDbLine
10
-46.112087
20
47.142512
30
0.0
11
-46.855056
21
50.132210
31
0.0
0
LINE
8
Layer 1
62
4
5
3fc
100
AcDbEntity
100
AcDbLine
10
-46.855056
20
50.132210
30
0.0
11
-47.747974
21
53.011123
31
0.0
0
LINE
8
Layer 1
62
4
5
3fd
100
AcDbEntity
100
AcDbLine
10
-47.747974
20
53.011123
30
0.0
11
-48.780927
21
55.779432
31
0.0
0
LINE
8
Layer 1
62
4
5
3fe
100
AcDbEntity
100
AcDbLine
10
-48.780927
20
55.779432
30
0.0
11
-49.943998
21
58.437320
31
0.0
0
LINE
8
Layer 1
62
4
5
3ff
100
AcDbEntity
100
AcDbLine
10
-49.943998
20
58.437320
30
0.0
11
-51.227275
21
60.984969
31
0.0
0
LINE
8
Layer 1
62
4
5
400
100
AcDbEntity
100
AcDbLine
10
-51.227275
20
60.984969
30
0.0
11
-52.620843
21
63.422559
31
0.0
0
LINE
8
Layer 1
62
4
5
401
100
AcDbEntity
100
AcDbLine
10
-52.620843
20
63.422559
30
0.0
11
-55.699192
21
67.968296
31
0.0
0
LINE
8
Layer 1
62
4
5
402
100
AcDbEntity
100
AcDbLine
10
-55.699192
20
67.968296
30
0.0
11
-59.099730
21
72.075986
31
0.0
0
LINE
8
Layer 1
62
4
5
403
100
AcDbEntity
100
AcDbLine
10
-59.099730
20
72.075986
30
0.0
11
-62.743140
21
75.747084
31
0.0
0
LINE
8
Layer 1
62
4
5
404
100
AcDbEntity
100
AcDbLine
10
-62.743140
20
75.747084
30
0.0
11
-66.550107
21
78.983046
31
0.0
0
LINE
8
Layer 1
62
4
5
405
100
AcDbEntity
100
AcDbLine
10
-66.550107
20
78.983046
30
0.0
11
-70.441314
21
81.785328
31
0.0
0
LINE
8
Layer 1
62
4
5
406
100
AcDbEntity
100
AcDbLine
10
-70.441314
20
81.785328
30
0.0
11
-74.337445
21
84.155384
31
0.0
0
LINE
8
Layer 1
62
4
5
407
100
AcDbEntity
100
AcDbLine
10
-74.337445
20
84.155384
30
0.0
11
-78.159185
21
86.094671
31
0.0
0
LINE
8
Layer 1
62
4
5
408
100
AcDbEntity
100
AcDbLine
10
-78.159185
20
86.094671
30
0.0
11
-81.827218
21
87.604644
31
0.0
0
LINE
8
Layer 1
62
4
5
409
100
AcDbEntity
100
AcDbLine
10
-81.827218
20
87.604644
30
0.0
11
-85.262227
21
88.686758
31
0.0
0
LINE
8
Layer 1
62
4
5
40a
100
AcDbEntity
100
AcDbLine
10
-85.262227
20
88.686758
30
0.0
11
-88.384896
21
89.342469
31
0.0
0
LINE
8
Layer 1
62
4
5
40b
100
AcDbEntity
100
AcDbLine
10
-88.384896
20
89.342469
30
0.0
11
-91.115910
21
89.573233
31
0.0
0
LINE
8
Layer 1
62
4
5
40c
100
AcDbEntity
100
AcDbLine
10
-91.115910
20
89.573233
30
0.0
11
-89.194178
21
92.335483
31
0.0
0
LINE
8
Layer 1
62
4
5
40d
100
AcDbEntity
100
AcDbLine
10
-89.194178
20
92.335483
30
0.0
11
-88.444215
21
93.094712
31
0.0
0
LINE
8
Layer 1
62
4
5
40e
100
AcDbEntity
100
AcDbLine
10
-88.444215
20
93.094712
30
0.0
11
-87.586665
21
93.777102
31
0.0
0
LINE
8
Layer 1
62
4
5
40f
100
AcDbEntity
100
AcDbLine
10
-87.586665
20
93.777102
30
0.0
11
-84.856503
21
95.937316
31
0.0
0
LINE
8
Layer 1
62
4
5
410
100
AcDbEntity
100
AcDbLine
10
-84.856503
20
95.937316
30
0.0
11
-81.731090
21
98.406760
31
0.0
0
LINE
8
Layer 1
62
4
5
411
100
AcDbEntity
100
AcDbLine
10
-81.731090
20
98.406760
30
0.0
11
-79.492221
21
100.542159
31
0.0
0
LINE
8
Layer 1
62
4
5
412
100
AcDbEntity
100
AcDbLine
10
-79.492221
20
100.542159
30
0.0
11
-76.773169
21
103.385456
31
0.0
0
LINE
8
Layer 1
62
4
5
413
100
AcDbEntity
100
AcDbLine
10
-76.773169
20
103.385456
30
0.0
11
-74.359641
21
106.087720
31
0.0
0
LINE
8
Layer 1
62
4
5
414
100
AcDbEntity
100
AcDbLine
10
-74.359641
20
106.087720
30
0.0
11
-73.037347
21
107.800019
31
0.0
0
LINE
8
Layer 1
62
4
5
415
100
AcDbEntity
100
AcDbLine
10
-73.037347
20
107.800019
30
0.0
11
-71.260758
21
109.962434
31
0.0
0
LINE
8
Layer 1
62
4
5
416
100
AcDbEntity
100
AcDbLine
10
-71.260758
20
109.962434
30
0.0
11
-68.693545
21
113.108657
31
0.0
0
LINE
8
Layer 1
62
4
5
417
100
AcDbEntity
100
AcDbLine
10
-68.693545
20
113.108657
30
0.0
11
-66.496621
21
116.518597
31
0.0
0
LINE
8
Layer 1
62
4
5
418
100
AcDbEntity
100
AcDbLine
10
-66.496621
20
116.518597
30
0.0
11
-65.662090
21
118.034412
31
0.0
0
LINE
8
Layer 1
62
4
5
419
100
AcDbEntity
100
AcDbLine
10
-65.662090
20
118.034412
30
0.0
11
-65.662090
21
118.034412
31
0.0
0
LINE
8
Layer 1
62
4
5
41a
100
AcDbEntity
100
AcDbLine
10
-65.662090
20
118.034412
30
0.0
11
-65.660961
21
118.035598
31
0.0
0
LINE
8
Layer 1
62
4
5
41b
100
AcDbEntity
100
AcDbLine
10
-188.078999
20
33.333483
30
0.0
11
-188.305170
21
29.207852
31
0.0
0
LINE
8
Layer 1
62
4
5
41c
100
AcDbEntity
100
AcDbLine
10
-188.305170
20
29.207852
30
0.0
11
-188.917420
21
24.974554
31
0.0
0
LINE
8
Layer 1
62
4
5
41d
100
AcDbEntity
100
AcDbLine
10
-188.917420
20
24.974554
30
0.0
11
-189.917065
21
20.685474
31
0.0
0
LINE
8
Layer 1
62
4
5
41e
100
AcDbEntity
100
AcDbLine
10
-189.917065
20
20.685474
30
0.0
11
-191.305422
21
16.392501
31
0.0
0
LINE
8
Layer 1
62
4
5
41f
100
AcDbEntity
100
AcDbLine
10
-191.305422
20
16.392501
30
0.0
11
-193.083808
21
12.147519
31
0.0
0
LINE
8
Layer 1
62
4
5
420
100
AcDbEntity
100
AcDbLine
10
-193.083808
20
12.147519
30
0.0
11
-195.253538
21
8.002416
31
0.0
0
LINE
8
Layer 1
62
4
5
421
100
AcDbEntity
100
AcDbLine
10
-195.253538
20
8.002416
30
0.0
11
-197.815930
21
4.009079
31
0.0
0
LINE
8
Layer 1
62
4
5
422
100
AcDbEntity
100
AcDbLine
10
-197.815930
20
4.009079
30
0.0
11
-200.772300
21
0.219394
31
0.0
0
LINE
8
Layer 1
62
4
5
423
100
AcDbEntity
100
AcDbLine
10
-200.772300
20
0.219394
30
0.0
11
-204.123964
21
-3.314752
31
0.0
0
LINE
8
Layer 1
62
4
5
424
100
AcDbEntity
100
AcDbLine
10
-204.123964
20
-3.314752
30
0.0
11
-207.872239
21
-6.541472
31
0.0
0
LINE
8
Layer 1
62
4
5
425
100
AcDbEntity
100
AcDbLine
10
-207.872239
20
-6.541472
30
0.0
11
-212.018442
21
-9.408880
31
0.0
0
LINE
8
Layer 1
62
4
5
426
100
AcDbEntity
100
AcDbLine
10
-212.018442
20
-9.408880
30
0.0
11
-216.563889
21
-11.865090
31
0.0
0
LINE
8
Layer 1
62
4
5
427
100
AcDbEntity
100
AcDbLine
10
-216.563889
20
-11.865090
30
0.0
11
-218.986740
21
-12.922780
31
0.0
0
LINE
8
Layer 1
62
4
5
428
100
AcDbEntity
100
AcDbLine
10
-218.986740
20
-12.922780
30
0.0
11
-221.509896
21
-13.858214
31
0.0
0
LINE
8
Layer 1
62
4
5
429
100
AcDbEntity
100
AcDbLine
10
-221.509896
20
-13.858214
30
0.0
11
-224.133521
21
-14.664904
31
0.0
0
LINE
8
Layer 1
62
4
5
42a
100
AcDbEntity
100
AcDbLine
10
-224.133521
20
-14.664904
30
0.0
11
-226.857780
21
-15.336366
31
0.0
0
LINE
8
Layer 1
62
4
5
42b
100
AcDbEntity
100
AcDbLine
10
-226.857780
20
-15.336366
30
0.0
11
-229.682837
21
-15.866112
31
0.0
0
LINE
8
Layer 1
62
4
5
42c
100
AcDbEntity
100
AcDbLine
10
-229.682837
20
-15.866112
30
0.0
11
-232.608857
21
-16.247659
31
0.0
0
LINE
8
Layer 1
62
4
5
42d
100
AcDbEntity
100
AcDbLine
10
-232.608857
20
-16.247659
30
0.0
11
-235.636005
21
-16.474519
31
0.0
0
LINE
8
Layer 1
62
4
5
42e
100
AcDbEntity
100
AcDbLine
10
-235.636005
20
-16.474519
30
0.0
11
-238.764445
21
-16.540206
31
0.0
0
LINE
8
Layer 1
62
4
5
42f
100
AcDbEntity
100
AcDbLine
10
-238.764445
20
-16.540206
30
0.0
11
-244.928889
21
-16.245333
31
0.0
0
LINE
8
Layer 1
62
4
5
430
100
AcDbEntity
100
AcDbLine
10
-244.928889
20
-16.245333
30
0.0
11
-250.704451
21
-15.447288
31
0.0
0
LINE
8
Layer 1
62
4
5
431
100
AcDbEntity
100
AcDbLine
10
-250.704451
20
-15.447288
30
0.0
11
-256.089322
21
-14.173575
31
0.0
0
LINE
8
Layer 1
62
4
5
432
100
AcDbEntity
100
AcDbLine
10
-256.089322
20
-14.173575
30
0.0
11
-261.081692
21
-12.451695
31
0.0
0
LINE
8
Layer 1
62
4
5
433
100
AcDbEntity
100
AcDbLine
10
-261.081692
20
-12.451695
30
0.0
11
-265.679750
21
-10.309152
31
0.0
0
LINE
8
Layer 1
62
4
5
434
100
AcDbEntity
100
AcDbLine
10
-265.679750
20
-10.309152
30
0.0
11
-269.881688
21
-7.773448
31
0.0
0
LINE
8
Layer 1
62
4
5
435
100
AcDbEntity
100
AcDbLine
10
-269.881688
20
-7.773448
30
0.0
11
-273.685695
21
-4.872085
31
0.0
0
LINE
8
Layer 1
62
4
5
436
100
AcDbEntity
100
AcDbLine
10
-273.685695
20
-4.872085
30
0.0
11
-277.089962
21
-1.632565
31
0.0
0
LINE
8
Layer 1
62
4
5
437
100
AcDbEntity
100
AcDbLine
10
-277.089962
20
-1.632565
30
0.0
11
-280.092678
21
1.917608
31
0.0
0
LINE
8
Layer 1
62
4
5
438
100
AcDbEntity
100
AcDbLine
10
-280.092678
20
1.917608
30
0.0
11
-282.692035
21
5.750933
31
0.0
0
LINE
8
Layer 1
62
4
5
439
100
AcDbEntity
100
AcDbLine
10
-282.692035
20
5.750933
30
0.0
11
-284.886222
21
9.839906
31
0.0
0
LINE
8
Layer 1
62
4
5
43a
100
AcDbEntity
100
AcDbLine
10
-284.886222
20
9.839906
30
0.0
11
-286.673429
21
14.157027
31
0.0
0
LINE
8
Layer 1
62
4
5
43b
100
AcDbEntity
100
AcDbLine
10
-286.673429
20
14.157027
30
0.0
11
-288.051847
21
18.674791
31
0.0
0
LINE
8
Layer 1
62
4
5
43c
100
AcDbEntity
100
AcDbLine
10
-288.051847
20
18.674791
30
0.0
11
-289.019666
21
23.365697
31
0.0
0
LINE
8
Layer 1
62
4
5
43d
100
AcDbEntity
100
AcDbLine
10
-289.019666
20
23.365697
30
0.0
11
-289.575075
21
28.202242
31
0.0
0
LINE
8
Layer 1
62
4
5
43e
100
AcDbEntity
100
AcDbLine
10
-289.575075
20
28.202242
30
0.0
11
-289.716266
21
33.156924
31
0.0
0
LINE
8
Layer 1
62
4
5
43f
100
AcDbEntity
100
AcDbLine
10
-289.716266
20
33.156924
30
0.0
11
-289.408579
21
38.105711
31
0.0
0
LINE
8
Layer 1
62
4
5
440
100
AcDbEntity
100
AcDbLine
10
-289.408579
20
38.105711
30
0.0
11
-288.629965
21
42.925624
31
0.0
0
LINE
8
Layer 1
62
4
5
441
100
AcDbEntity
100
AcDbLine
10
-288.629965
20
42.925624
30
0.0
11
-287.397528
21
47.590738
31
0.0
0
LINE
8
Layer 1
62
4
5
442
100
AcDbEntity
100
AcDbLine
10
-287.397528
20
47.590738
30
0.0
11
-285.728373
21
52.075131
31
0.0
0
LINE
8
Layer 1
62
4
5
443
100
AcDbEntity
100
AcDbLine
10
-285.728373
20
52.075131
30
0.0
11
-283.639607
21
56.352880
31
0.0
0
LINE
8
Layer 1
62
4
5
444
100
AcDbEntity
100
AcDbLine
10
-283.639607
20
56.352880
30
0.0
11
-281.148335
21
60.398061
31
0.0
0
LINE
8
Layer 1
62
4
5
445
100
AcDbEntity
100
AcDbLine
10
-281.148335
20
60.398061
30
0.0
11
-278.271661
21
64.184750
31
0.0
0
LINE
8
Layer 1
62
4
5
446
100
AcDbEntity
100
AcDbLine
10
-278.271661
20
64.184750
30
0.0
11
-275.026691
21
67.687026
31
0.0
0
LINE
8
Layer 1
62
4
5
447
100
AcDbEntity
100
AcDbLine
10
-275.026691
20
67.687026
30
0.0
11
-271.430531
21
70.878963
31
0.0
0
LINE
8
Layer 1
62
4
5
448
100
AcDbEntity
100
AcDbLine
10
-271.430531
20
70.878963
30
0.0
11
-267.500285
21
73.734640
31
0.0
0
LINE
8
Layer 1
62
4
5
449
100
AcDbEntity
100
AcDbLine
10
-267.500285
20
73.734640
30
0.0
11
-263.253059
21
76.228132
31
0.0
0
LINE
8
Layer 1
62
4
5
44a
100
AcDbEntity
100
AcDbLine
10
-263.253059
20
76.228132
30
0.0
11
-258.705958
21
78.333516
31
0.0
0
LINE
8
Layer 1
62
4
5
44b
100
AcDbEntity
100
AcDbLine
10
-258.705958
20
78.333516
30
0.0
11
-253.876087
21
80.024870
31
0.0
0
LINE
8
Layer 1
62
4
5
44c
100
AcDbEntity
100
AcDbLine
10
-253.876087
20
80.024870
30
0.0
11
-248.780553
21
81.276269
31
0.0
0
LINE
8
Layer 1
62
4
5
44d
100
AcDbEntity
100
AcDbLine
10
-248.780553
20
81.276269
30
0.0
11
-243.436458
21
82.061791
31
0.0
0
LINE
8
Layer 1
62
4
5
44e
100
AcDbEntity
100
AcDbLine
10
-243.436458
20
82.061791
30
0.0
11
-237.860911
21
82.355512
31
0.0
0
LINE
8
Layer 1
62
4
5
44f
100
AcDbEntity
100
AcDbLine
10
-237.860911
20
82.355512
30
0.0
11
-235.049707
21
82.294641
31
0.0
0
LINE
8
Layer 1
62
4
5
450
100
AcDbEntity
100
AcDbLine
10
-235.049707
20
82.294641
30
0.0
11
-232.302784
21
82.076975
31
0.0
0
LINE
8
Layer 1
62
4
5
451
100
AcDbEntity
100
AcDbLine
10
-232.302784
20
82.076975
30
0.0
11
-229.621813
21
81.708702
31
0.0
0
LINE
8
Layer 1
62
4
5
452
100
AcDbEntity
100
AcDbLine
10
-229.621813
20
81.708702
30
0.0
11
-227.008467
21
81.196012
31
0.0
0
LINE
8
Layer 1
62
4
5
453
100
AcDbEntity
100
AcDbLine
10
-227.008467
20
81.196012
30
0.0
11
-221.991337
21
79.762132
31
0.0
0
LINE
8
Layer 1
62
4
5
454
100
AcDbEntity
100
AcDbLine
10
-221.991337
20
79.762132
30
0.0
11
-217.264770
21
77.824846
31
0.0
0
LINE
8
Layer 1
62
4
5
455
100
AcDbEntity
100
AcDbLine
10
-217.264770
20
77.824846
30
0.0
11
-212.842143
21
75.433665
31
0.0
0
LINE
8
Layer 1
62
4
5
456
100
AcDbEntity
100
AcDbLine
10
-212.842143
20
75.433665
30
0.0
11
-208.736833
21
72.638098
31
0.0
0
LINE
8
Layer 1
62
4
5
457
100
AcDbEntity
100
AcDbLine
10
-208.736833
20
72.638098
30
0.0
11
-204.962215
21
69.487656
31
0.0
0
LINE
8
Layer 1
62
4
5
458
100
AcDbEntity
100
AcDbLine
10
-204.962215
20
69.487656
30
0.0
11
-201.531668
21
66.031849
31
0.0
0
LINE
8
Layer 1
62
4
5
459
100
AcDbEntity
100
AcDbLine
10
-201.531668
20
66.031849
30
0.0
11
-198.458567
21
62.320187
31
0.0
0
LINE
8
Layer 1
62
4
5
45a
100
AcDbEntity
100
AcDbLine
10
-198.458567
20
62.320187
30
0.0
11
-195.756289
21
58.402181
31
0.0
0
LINE
8
Layer 1
62
4
5
45b
100
AcDbEntity
100
AcDbLine
10
-195.756289
20
58.402181
30
0.0
11
-193.438211
21
54.327340
31
0.0
0
LINE
8
Layer 1
62
4
5
45c
100
AcDbEntity
100
AcDbLine
10
-193.438211
20
54.327340
30
0.0
11
-191.517710
21
50.145176
31
0.0
0
LINE
8
Layer 1
62
4
5
45d
100
AcDbEntity
100
AcDbLine
10
-191.517710
20
50.145176
30
0.0
11
-190.008161
21
45.905197
31
0.0
0
LINE
8
Layer 1
62
4
5
45e
100
AcDbEntity
100
AcDbLine
10
-190.008161
20
45.905197
30
0.0
11
-188.922942
21
41.656916
31
0.0
0
LINE
8
Layer 1
62
4
5
45f
100
AcDbEntity
100
AcDbLine
10
-188.922942
20
41.656916
30
0.0
11
-188.275429
21
37.449841
31
0.0
0
LINE
8
Layer 1
62
4
5
460
100
AcDbEntity
100
AcDbLine
10
-188.275429
20
37.449841
30
0.0
11
-188.078999
21
33.333483
31
0.0
0
LINE
8
Layer 1
62
4
5
461
100
AcDbEntity
100
AcDbLine
10
-188.078999
20
33.333483
30
0.0
11
-188.078999
21
33.333483
31
0.0
0
LINE
8
Layer 1
62
4
5
462
100
AcDbEntity
100
AcDbLine
10
-147.058338
20
33.023490
30
0.0
11
-146.927835
21
35.488100
31
0.0
0
LINE
8
Layer 1
62
4
5
463
100
AcDbEntity
100
AcDbLine
10
-146.927835
20
35.488100
30
0.0
11
-146.645985
21
37.937155
31
0.0
0
LINE
8
Layer 1
62
4
5
464
100
AcDbEntity
100
AcDbLine
10
-146.645985
20
37.937155
30
0.0
11
-145.651184
21
42.772061
31
0.0
0
LINE
8
Layer 1
62
4
5
465
100
AcDbEntity
100
AcDbLine
10
-145.651184
20
42.772061
30
0.0
11
-144.119818
21
47.495136
31
0.0
0
LINE
8
Layer 1
62
4
5
466
100
AcDbEntity
100
AcDbLine
10
-144.119818
20
47.495136
30
0.0
11
-142.097771
21
52.073306
31
0.0
0
LINE
8
Layer 1
62
4
5
467
100
AcDbEntity
100
AcDbLine
10
-142.097771
20
52.073306
30
0.0
11
-139.630927
21
56.473500
31
0.0
0
LINE
8
Layer 1
62
4
5
468
100
AcDbEntity
100
AcDbLine
10
-139.630927
20
56.473500
30
0.0
11
-136.765169
21
60.662643
31
0.0
0
LINE
8
Layer 1
62
4
5
469
100
AcDbEntity
100
AcDbLine
10
-136.765169
20
60.662643
30
0.0
11
-133.546382
21
64.607663
31
0.0
0
LINE
8
Layer 1
62
4
5
46a
100
AcDbEntity
100
AcDbLine
10
-133.546382
20
64.607663
30
0.0
11
-130.020448
21
68.275487
31
0.0
0
LINE
8
Layer 1
62
4
5
46b
100
AcDbEntity
100
AcDbLine
10
-130.020448
20
68.275487
30
0.0
11
-126.233252
21
71.633042
31
0.0
0
LINE
8
Layer 1
62
4
5
46c
100
AcDbEntity
100
AcDbLine
10
-126.233252
20
71.633042
30
0.0
11
-122.230678
21
74.647256
31
0.0
0
LINE
8
Layer 1
62
4
5
46d
100
AcDbEntity
100
AcDbLine
10
-122.230678
20
74.647256
30
0.0
11
-118.058610
21
77.285054
31
0.0
0
LINE
8
Layer 1
62
4
5
46e
100
AcDbEntity
100
AcDbLine
10
-118.058610
20
77.285054
30
0.0
11
-113.762930
21
79.513365
31
0.0
0
LINE
8
Layer 1
62
4
5
46f
100
AcDbEntity
100
AcDbLine
10
-113.762930
20
79.513365
30
0.0
11
-109.389524
21
81.299115
31
0.0
0
LINE
8
Layer 1
62
4
5
470
100
AcDbEntity
100
AcDbLine
10
-109.389524
20
81.299115
30
0.0
11
-104.984274
21
82.609232
31
0.0
0
LINE
8
Layer 1
62
4
5
471
100
AcDbEntity
100
AcDbLine
10
-104.984274
20
82.609232
30
0.0
11
-100.593065
21
83.410642
31
0.0
0
LINE
8
Layer 1
62
4
5
472
100
AcDbEntity
100
AcDbLine
10
-100.593065
20
83.410642
30
0.0
11
-96.261781
21
83.670273
31
0.0
0
LINE
8
Layer 1
62
4
5
473
100
AcDbEntity
100
AcDbLine
10
-96.261781
20
83.670273
30
0.0
11
-91.967928
21
83.377146
31
0.0
0
LINE
8
Layer 1
62
4
5
474
100
AcDbEntity
100
AcDbLine
10
-91.967928
20
83.377146
30
0.0
11
-87.683079
21
82.563149
31
0.0
0
LINE
8
Layer 1
62
4
5
475
100
AcDbEntity
100
AcDbLine
10
-87.683079
20
82.563149
30
0.0
11
-83.444216
21
81.259511
31
0.0
0
LINE
8
Layer 1
62
4
5
476
100
AcDbEntity
100
AcDbLine
10
-83.444216
20
81.259511
30
0.0
11
-79.288321
21
79.497458
31
0.0
0
LINE
8
Layer 1
62
4
5
477
100
AcDbEntity
100
AcDbLine
10
-79.288321
20
79.497458
30
0.0
11
-75.252375
21
77.308218
31
0.0
0
LINE
8
Layer 1
62
4
5
478
100
AcDbEntity
100
AcDbLine
10
-75.252375
20
77.308218
30
0.0
11
-71.373361
21
74.723018
31
0.0
0
LINE
8
Layer 1
62
4
5
479
100
AcDbEntity
100
AcDbLine
10
-71.373361
20
74.723018
30
0.0
11
-67.688259
21
71.773085
31
0.0
0
LINE
8
Layer 1
62
4
5
47a
100
AcDbEntity
100
AcDbLine
10
-67.688259
20
71.773085
30
0.0
11
-64.234053
21
68.489648
31
0.0
0
LINE
8
Layer 1
62
4
5
47b
100
AcDbEntity
100
AcDbLine
10
-64.234053
20
68.489648
30
0.0
11
-61.047723
21
64.903933
31
0.0
0
LINE
8
Layer 1
62
4
5
47c
100
AcDbEntity
100
AcDbLine
10
-61.047723
20
64.903933
30
0.0
11
-58.166252
21
61.047168
31
0.0
0
LINE
8
Layer 1
62
4
5
47d
100
AcDbEntity
100
AcDbLine
10
-58.166252
20
61.047168
30
0.0
11
-55.626621
21
56.950581
31
0.0
0
LINE
8
Layer 1
62
4
5
47e
100
AcDbEntity
100
AcDbLine
10
-55.626621
20
56.950581
30
0.0
11
-53.465813
21
52.645398
31
0.0
0
LINE
8
Layer 1
62
4
5
47f
100
AcDbEntity
100
AcDbLine
10
-53.465813
20
52.645398
30
0.0
11
-51.720808
21
48.162847
31
0.0
0
LINE
8
Layer 1
62
4
5
480
100
AcDbEntity
100
AcDbLine
10
-51.720808
20
48.162847
30
0.0
11
-50.428589
21
43.534156
31
0.0
0
LINE
8
Layer 1
62
4
5
481
100
AcDbEntity
100
AcDbLine
10
-50.428589
20
43.534156
30
0.0
11
-49.626138
21
38.790551
31
0.0
0
LINE
8
Layer 1
62
4
5
482
100
AcDbEntity
100
AcDbLine
10
-49.626138
20
38.790551
30
0.0
11
-49.350436
21
33.963261
31
0.0
0
LINE
8
Layer 1
62
4
5
483
100
AcDbEntity
100
AcDbLine
10
-49.350436
20
33.963261
30
0.0
11
-49.561492
21
29.123690
31
0.0
0
LINE
8
Layer 1
62
4
5
484
100
AcDbEntity
100
AcDbLine
10
-49.561492
20
29.123690
30
0.0
11
-50.187340
21
24.345497
31
0.0
0
LINE
8
Layer 1
62
4
5
485
100
AcDbEntity
100
AcDbLine
10
-50.187340
20
24.345497
30
0.0
11
-51.217001
21
19.663296
31
0.0
0
LINE
8
Layer 1
62
4
5
486
100
AcDbEntity
100
AcDbLine
10
-51.217001
20
19.663296
30
0.0
11
-52.639493
21
15.111701
31
0.0
0
LINE
8
Layer 1
62
4
5
487
100
AcDbEntity
100
AcDbLine
10
-52.639493
20
15.111701
30
0.0
11
-54.443837
21
10.725323
31
0.0
0
LINE
8
Layer 1
62
4
5
488
100
AcDbEntity
100
AcDbLine
10
-54.443837
20
10.725323
30
0.0
11
-56.619053
21
6.538776
31
0.0
0
LINE
8
Layer 1
62
4
5
489
100
AcDbEntity
100
AcDbLine
10
-56.619053
20
6.538776
30
0.0
11
-59.154161
21
2.586674
31
0.0
0
LINE
8
Layer 1
62
4
5
48a
100
AcDbEntity
100
AcDbLine
10
-59.154161
20
2.586674
30
0.0
11
-62.038181
21
-1.096371
31
0.0
0
LINE
8
Layer 1
62
4
5
48b
100
AcDbEntity
100
AcDbLine
10
-62.038181
20
-1.096371
30
0.0
11
-65.260132
21
-4.475746
31
0.0
0
LINE
8
Layer 1
62
4
5
48c
100
AcDbEntity
100
AcDbLine
10
-65.260132
20
-4.475746
30
0.0
11
-68.809035
21
-7.516838
31
0.0
0
LINE
8
Layer 1
62
4
5
48d
100
AcDbEntity
100
AcDbLine
10
-68.809035
20
-7.516838
30
0.0
11
-72.673910
21
-10.185034
31
0.0
0
LINE
8
Layer 1
62
4
5
48e
100
AcDbEntity
100
AcDbLine
10
-72.673910
20
-10.185034
30
0.0
11
-76.843777
21
-12.445720
31
0.0
0
LINE
8
Layer 1
62
4
5
48f
100
AcDbEntity
100
AcDbLine
10
-76.843777
20
-12.445720
30
0.0
11
-81.307655
21
-14.264284
31
0.0
0
LINE
8
Layer 1
62
4
5
490
100
AcDbEntity
100
AcDbLine
10
-81.307655
20
-14.264284
30
0.0
11
-86.054565
21
-15.606112
31
0.0
0
LINE
8
Layer 1
62
4
5
491
100
AcDbEntity
100
AcDbLine
10
-86.054565
20
-15.606112
30
0.0
11
-91.073527
21
-16.436592
31
0.0
0
LINE
8
Layer 1
62
4
5
492
100
AcDbEntity
100
AcDbLine
10
-91.073527
20
-16.436592
30
0.0
11
-96.353559
21
-16.721111
31
0.0
0
LINE
8
Layer 1
62
4
5
493
100
AcDbEntity
100
AcDbLine
10
-96.353559
20
-16.721111
30
0.0
11
-101.681365
21
-16.452027
31
0.0
0
LINE
8
Layer 1
62
4
5
494
100
AcDbEntity
100
AcDbLine
10
-101.681365
20
-16.452027
30
0.0
11
-106.834760
21
-15.664714
31
0.0
0
LINE
8
Layer 1
62
4
5
495
100
AcDbEntity
100
AcDbLine
10
-106.834760
20
-15.664714
30
0.0
11
-111.789440
21
-14.389080
31
0.0
0
LINE
8
Layer 1
62
4
5
496
100
AcDbEntity
100
AcDbLine
10
-111.789440
20
-14.389080
30
0.0
11
-116.521100
21
-12.655032
31
0.0
0
LINE
8
Layer 1
62
4
5
497
100
AcDbEntity
100
AcDbLine
10
-116.521100
20
-12.655032
30
0.0
11
-121.005435
21
-10.492477
31
0.0
0
LINE
8
Layer 1
62
4
5
498
100
AcDbEntity
100
AcDbLine
10
-121.005435
20
-10.492477
30
0.0
11
-125.218138
21
-7.931323
31
0.0
0
LINE
8
Layer 1
62
4
5
499
100
AcDbEntity
100
AcDbLine
10
-125.218138
20
-7.931323
30
0.0
11
-129.134906
21
-5.001478
31
0.0
0
LINE
8
Layer 1
62
4
5
49a
100
AcDbEntity
100
AcDbLine
10
-129.134906
20
-5.001478
30
0.0
11
-132.731432
21
-1.732850
31
0.0
0
LINE
8
Layer 1
62
4
5
49b
100
AcDbEntity
100
AcDbLine
10
-132.731432
20
-1.732850
30
0.0
11
-135.983412
21
1.844655
31
0.0
0
LINE
8
Layer 1
62
4
5
49c
100
AcDbEntity
100
AcDbLine
10
-135.983412
20
1.844655
30
0.0
11
-138.866541
21
5.701129
31
0.0
0
LINE
8
Layer 1
62
4
5
49d
100
AcDbEntity
100
AcDbLine
10
-138.866541
20
5.701129
30
0.0
11
-141.356513
21
9.806664
31
0.0
0
LINE
8
Layer 1
62
4
5
49e
100
AcDbEntity
100
AcDbLine
10
-141.356513
20
9.806664
30
0.0
11
-143.429023
21
14.131352
31
0.0
0
LINE
8
Layer 1
62
4
5
49f
100
AcDbEntity
100
AcDbLine
10
-143.429023
20
14.131352
30
0.0
11
-145.059765
21
18.645286
31
0.0
0
LINE
8
Layer 1
62
4
5
4a0
100
AcDbEntity
100
AcDbLine
10
-145.059765
20
18.645286
30
0.0
11
-146.224435
21
23.318559
31
0.0
0
LINE
8
Layer 1
62
4
5
4a1
100
AcDbEntity
100
AcDbLine
10
-146.224435
20
23.318559
30
0.0
11
-146.898728
21
28.121263
31
0.0
0
LINE
8
Layer 1
62
4
5
4a2
100
AcDbEntity
100
AcDbLine
10
-146.898728
20
28.121263
30
0.0
11
-147.058338
21
33.023490
31
0.0
0
LINE
8
Layer 1
62
4
5
4a3
100
AcDbEntity
100
AcDbLine
10
-147.058338
20
33.023490
30
0.0
11
-147.058338
21
33.023490
31
0.0
0
LINE
8
Layer 1
62
4
5
4a4
100
AcDbEntity
100
AcDbLine
10
-335.496831
20
17.264795
30
0.0
11
-329.535451
21
17.181003
31
0.0
0
LINE
8
Layer 1
62
4
5
4a5
100
AcDbEntity
100
AcDbLine
10
-329.535451
20
17.181003
30
0.0
11
-329.208460
21
8.512063
31
0.0
0
LINE
8
Layer 1
62
4
5
4a6
100
AcDbEntity
100
AcDbLine
10
-329.208460
20
8.512063
30
0.0
11
-328.426540
21
0.035776
31
0.0
0
LINE
8
Layer 1
62
4
5
4a7
100
AcDbEntity
100
AcDbLine
10
-328.426540
20
0.035776
30
0.0
11
-327.206001
21
-8.242802
31
0.0
0
LINE
8
Layer 1
62
4
5
4a8
100
AcDbEntity
100
AcDbLine
10
-327.206001
20
-8.242802
30
0.0
11
-325.563154
21
-16.318616
31
0.0
0
LINE
8
Layer 1
62
4
5
4a9
100
AcDbEntity
100
AcDbLine
10
-325.563154
20
-16.318616
30
0.0
11
-323.514309
21
-24.186611
31
0.0
0
LINE
8
Layer 1
62
4
5
4aa
100
AcDbEntity
100
AcDbLine
10
-323.514309
20
-24.186611
30
0.0
11
-321.075773
21
-31.841730
31
0.0
0
LINE
8
Layer 1
62
4
5
4ab
100
AcDbEntity
100
AcDbLine
10
-321.075773
20
-31.841730
30
0.0
11
-318.263859
21
-39.278920
31
0.0
0
LINE
8
Layer 1
62
4
5
4ac
100
AcDbEntity
100
AcDbLine
10
-318.263859
20
-39.278920
30
0.0
11
-315.094875
21
-46.493124
31
0.0
0
LINE
8
Layer 1
62
4
5
4ad
100
AcDbEntity
100
AcDbLine
10
-315.094875
20
-46.493124
30
0.0
11
-311.585131
21
-53.479287
31
0.0
0
LINE
8
Layer 1
62
4
5
4ae
100
AcDbEntity
100
AcDbLine
10
-311.585131
20
-53.479287
30
0.0
11
-307.750937
21
-60.232355
31
0.0
0
LINE
8
Layer 1
62
4
5
4af
100
AcDbEntity
100
AcDbLine
10
-307.750937
20
-60.232355
30
0.0
11
-303.608602
21
-66.747270
31
0.0
0
LINE
8
Layer 1
62
4
5
4b0
100
AcDbEntity
100
AcDbLine
10
-303.608602
20
-66.747270
30
0.0
11
-299.174436
21
-73.018979
31
0.0
0
LINE
8
Layer 1
62
4
5
4b1
100
AcDbEntity
100
AcDbLine
10
-299.174436
20
-73.018979
30
0.0
11
-294.464750
21
-79.042426
31
0.0
0
LINE
8
Layer 1
62
4
5
4b2
100
AcDbEntity
100
AcDbLine
10
-294.464750
20
-79.042426
30
0.0
11
-289.495852
21
-84.812556
31
0.0
0
LINE
8
Layer 1
62
4
5
4b3
100
AcDbEntity
100
AcDbLine
10
-289.495852
20
-84.812556
30
0.0
11
-284.284053
21
-90.324313
31
0.0
0
LINE
8
Layer 1
62
4
5
4b4
100
AcDbEntity
100
AcDbLine
10
-284.284053
20
-90.324313
30
0.0
11
-278.845663
21
-95.572641
31
0.0
0
LINE
8
Layer 1
62
4
5
4b5
100
AcDbEntity
100
AcDbLine
10
-278.845663
20
-95.572641
30
0.0
11
-273.196990
21
-100.552487
31
0.0
0
LINE
8
Layer 1
62
4
5
4b6
100
AcDbEntity
100
AcDbLine
10
-273.196990
20
-100.552487
30
0.0
11
-267.354345
21
-105.258793
31
0.0
0
LINE
8
Layer 1
62
4
5
4b7
100
AcDbEntity
100
AcDbLine
10
-267.354345
20
-105.258793
30
0.0
11
-261.334037
21
-109.686506
31
0.0
0
LINE
8
Layer 1
62
4
5
4b8
100
AcDbEntity
100
AcDbLine
10
-261.334037
20
-109.686506
30
0.0
11
-255.152377
21
-113.830569
31
0.0
0
LINE
8
Layer 1
62
4
5
4b9
100
AcDbEntity
100
AcDbLine
10
-255.152377
20
-113.830569
30
0.0
11
-248.825674
21
-117.685928
31
0.0
0
LINE
8
Layer 1
62
4
5
4ba
100
AcDbEntity
100
AcDbLine
10
-248.825674
20
-117.685928
30
0.0
11
-242.370237
21
-121.247527
31
0.0
0
LINE
8
Layer 1
62
4
5
4bb
100
AcDbEntity
100
AcDbLine
10
-242.370237
20
-121.247527
30
0.0
11
-235.802377
21
-124.510310
31
0.0
0
LINE
8
Layer 1
62
4
5
4bc
100
AcDbEntity
100
AcDbLine
10
-235.802377
20
-124.510310
30
0.0
11
-229.138403
21
-127.469223
31
0.0
0
LINE
8
Layer 1
62
4
5
4bd
100
AcDbEntity
100
AcDbLine
10
-229.138403
20
-127.469223
30
0.0
11
-222.394625
21
-130.119209
31
0.0
0
LINE
8
Layer 1
62
4
5
4be
100
AcDbEntity
100
AcDbLine
10
-222.394625
20
-130.119209
30
0.0
11
-215.587353
21
-132.455215
31
0.0
0
LINE
8
Layer 1
62
4
5
4bf
100
AcDbEntity
100
AcDbLine
10
-215.587353
20
-132.455215
30
0.0
11
-208.732896
21
-134.472184
31
0.0
0
LINE
8
Layer 1
62
4
5
4c0
100
AcDbEntity
100
AcDbLine
10
-208.732896
20
-134.472184
30
0.0
11
-201.847565
21
-136.165061
31
0.0
0
LINE
8
Layer 1
62
4
5
4c1
100
AcDbEntity
100
AcDbLine
10
-201.847565
20
-136.165061
30
0.0
11
-194.947668
21
-137.528790
31
0.0
0
LINE
8
Layer 1
62
4
5
4c2
100
AcDbEntity
100
AcDbLine
10
-194.947668
20
-137.528790
30
0.0
11
-188.049516
21
-138.558317
31
0.0
0
LINE
8
Layer 1
62
4
5
4c3
100
AcDbEntity
100
AcDbLine
10
-188.049516
20
-138.558317
30
0.0
11
-181.169419
21
-139.248586
31
0.0
0
LINE
8
Layer 1
62
4
5
4c4
100
AcDbEntity
100
AcDbLine
10
-181.169419
20
-139.248586
30
0.0
11
-174.323685
21
-139.594542
31
0.0
0
LINE
8
Layer 1
62
4
5
4c5
100
AcDbEntity
100
AcDbLine
10
-174.323685
20
-139.594542
30
0.0
11
-174.317759
21
-144.031837
31
0.0
0
LINE
8
Layer 1
62
4
5
4c6
100
AcDbEntity
100
AcDbLine
10
-174.317759
20
-144.031837
30
0.0
11
-179.585803
21
-143.842396
31
0.0
0
LINE
8
Layer 1
62
4
5
4c7
100
AcDbEntity
100
AcDbLine
10
-179.585803
20
-143.842396
30
0.0
11
-184.843642
21
-143.485124
31
0.0
0
LINE
8
Layer 1
62
4
5
4c8
100
AcDbEntity
100
AcDbLine
10
-184.843642
20
-143.485124
30
0.0
11
-190.087210
21
-142.960370
31
0.0
0
LINE
8
Layer 1
62
4
5
4c9
100
AcDbEntity
100
AcDbLine
10
-190.087210
20
-142.960370
30
0.0
11
-195.312439
21
-142.268485
31
0.0
0
LINE
8
Layer 1
62
4
5
4ca
100
AcDbEntity
100
AcDbLine
10
-195.312439
20
-142.268485
30
0.0
11
-195.322317
21
-142.268485
31
0.0
0
LINE
8
Layer 1
62
4
5
4cb
100
AcDbEntity
100
AcDbLine
10
-195.322317
20
-142.268485
30
0.0
11
-196.768170
21
-142.051879
31
0.0
0
LINE
8
Layer 1
62
4
5
4cc
100
AcDbEntity
100
AcDbLine
10
-196.768170
20
-142.051879
30
0.0
11
-205.380350
21
-140.628632
31
0.0
0
LINE
8
Layer 1
62
4
5
4cd
100
AcDbEntity
100
AcDbLine
10
-205.380350
20
-140.628632
30
0.0
11
-206.854312
21
-140.254914
31
0.0
0
LINE
8
Layer 1
62
4
5
4ce
100
AcDbEntity
100
AcDbLine
10
-206.854312
20
-140.254914
30
0.0
11
-208.168960
21
-139.921976
31
0.0
0
LINE
8
Layer 1
62
4
5
4cf
100
AcDbEntity
100
AcDbLine
10
-208.168960
20
-139.921976
30
0.0
11
-209.188149
21
-139.663461
31
0.0
0
LINE
8
Layer 1
62
4
5
4d0
100
AcDbEntity
100
AcDbLine
10
-209.188149
20
-139.663461
30
0.0
11
-209.198027
21
-139.660638
31
0.0
0
LINE
8
Layer 1
62
4
5
4d1
100
AcDbEntity
100
AcDbLine
10
-209.198027
20
-139.660638
30
0.0
11
-215.553054
21
-138.083792
31
0.0
0
LINE
8
Layer 1
62
4
5
4d2
100
AcDbEntity
100
AcDbLine
10
-215.553054
20
-138.083792
30
0.0
11
-221.839607
21
-136.256333
31
0.0
0
LINE
8
Layer 1
62
4
5
4d3
100
AcDbEntity
100
AcDbLine
10
-221.839607
20
-136.256333
30
0.0
11
-221.844122
21
-136.256333
31
0.0
0
LINE
8
Layer 1
62
4
5
4d4
100
AcDbEntity
100
AcDbLine
10
-221.844122
20
-136.256333
30
0.0
11
-221.848073
21
-136.253511
31
0.0
0
LINE
8
Layer 1
62
4
5
4d5
100
AcDbEntity
100
AcDbLine
10
-221.848073
20
-136.253511
30
0.0
11
-223.505593
21
-135.652688
31
0.0
0
LINE
8
Layer 1
62
4
5
4d6
100
AcDbEntity
100
AcDbLine
10
-223.505593
20
-135.652688
30
0.0
11
-223.509544
21
-135.652688
31
0.0
0
LINE
8
Layer 1
62
4
5
4d7
100
AcDbEntity
100
AcDbLine
10
-223.509544
20
-135.652688
30
0.0
11
-226.126167
21
-134.704619
31
0.0
0
LINE
8
Layer 1
62
4
5
4d8
100
AcDbEntity
100
AcDbLine
10
-226.126167
20
-134.704619
30
0.0
11
-226.133787
21
-134.700668
31
0.0
0
LINE
8
Layer 1
62
4
5
4d9
100
AcDbEntity
100
AcDbLine
10
-226.133787
20
-134.700668
30
0.0
11
-231.443893
21
-132.804198
31
0.0
0
LINE
8
Layer 1
62
4
5
4da
100
AcDbEntity
100
AcDbLine
10
-231.443893
20
-132.804198
30
0.0
11
-236.685145
21
-130.727515
31
0.0
0
LINE
8
Layer 1
62
4
5
4db
100
AcDbEntity
100
AcDbLine
10
-236.685145
20
-130.727515
30
0.0
11
-236.690789
21
-130.723564
31
0.0
0
LINE
8
Layer 1
62
4
5
4dc
100
AcDbEntity
100
AcDbLine
10
-236.690789
20
-130.723564
30
0.0
11
-238.747371
21
-129.736887
31
0.0
0
LINE
8
Layer 1
62
4
5
4dd
100
AcDbEntity
100
AcDbLine
10
-238.747371
20
-129.736887
30
0.0
11
-238.750757
21
-129.736887
31
0.0
0
LINE
8
Layer 1
62
4
5
4de
100
AcDbEntity
100
AcDbLine
10
-238.750757
20
-129.736887
30
0.0
11
-239.631601
21
-129.314654
31
0.0
0
LINE
8
Layer 1
62
4
5
4df
100
AcDbEntity
100
AcDbLine
10
-239.631601
20
-129.314654
30
0.0
11
-239.634988
21
-129.314654
31
0.0
0
LINE
8
Layer 1
62
4
5
4e0
100
AcDbEntity
100
AcDbLine
10
-239.634988
20
-129.314654
30
0.0
11
-242.058684
21
-128.152689
31
0.0
0
LINE
8
Layer 1
62
4
5
4e1
100
AcDbEntity
100
AcDbLine
10
-242.058684
20
-128.152689
30
0.0
11
-242.069691
21
-128.146480
31
0.0
0
LINE
8
Layer 1
62
4
5
4e2
100
AcDbEntity
100
AcDbLine
10
-242.069691
20
-128.146480
30
0.0
11
-243.207413
21
-127.600775
31
0.0
0
LINE
8
Layer 1
62
4
5
4e3
100
AcDbEntity
100
AcDbLine
10
-243.207413
20
-127.600775
30
0.0
11
-243.211929
21
-127.597953
31
0.0
0
LINE
8
Layer 1
62
4
5
4e4
100
AcDbEntity
100
AcDbLine
10
-243.211929
20
-127.597953
30
0.0
11
-245.948694
21
-126.285506
31
0.0
0
LINE
8
Layer 1
62
4
5
4e5
100
AcDbEntity
100
AcDbLine
10
-245.948694
20
-126.285506
30
0.0
11
-245.951516
21
-126.285506
31
0.0
0
LINE
8
Layer 1
62
4
5
4e6
100
AcDbEntity
100
AcDbLine
10
-245.951516
20
-126.285506
30
0.0
11
-250.998111
21
-123.621827
31
0.0
0
LINE
8
Layer 1
62
4
5
4e7
100
AcDbEntity
100
AcDbLine
10
-250.998111
20
-123.621827
30
0.0
11
-255.925264
21
-120.799528
31
0.0
0
LINE
8
Layer 1
62
4
5
4e8
100
AcDbEntity
100
AcDbLine
10
-255.925264
20
-120.799528
30
0.0
11
-260.730415
21
-117.822713
31
0.0
0
LINE
8
Layer 1
62
4
5
4e9
100
AcDbEntity
100
AcDbLine
10
-260.730415
20
-117.822713
30
0.0
11
-265.411001
21
-114.695488
31
0.0
0
LINE
8
Layer 1
62
4
5
4ea
100
AcDbEntity
100
AcDbLine
10
-265.411001
20
-114.695488
30
0.0
11
-269.964463
21
-111.421959
31
0.0
0
LINE
8
Layer 1
62
4
5
4eb
100
AcDbEntity
100
AcDbLine
10
-269.964463
20
-111.421959
30
0.0
11
-274.388239
21
-108.006231
31
0.0
0
LINE
8
Layer 1
62
4
5
4ec
100
AcDbEntity
100
AcDbLine
10
-274.388239
20
-108.006231
30
0.0
11
-278.679768
21
-104.452411
31
0.0
0
LINE
8
Layer 1
62
4
5
4ed
100
AcDbEntity
100
AcDbLine
10
-278.679768
20
-104.452411
30
0.0
11
-282.836490
21
-100.764602
31
0.0
0
LINE
8
Layer 1
62
4
5
4ee
100
AcDbEntity
100
AcDbLine
10
-282.836490
20
-100.764602
30
0.0
11
-286.855842
21
-96.946912
31
0.0
0
LINE
8
Layer 1
62
4
5
4ef
100
AcDbEntity
100
AcDbLine
10
-286.855842
20
-96.946912
30
0.0
11
-290.735265
21
-93.003446
31
0.0
0
LINE
8
Layer 1
62
4
5
4f0
100
AcDbEntity
100
AcDbLine
10
-290.735265
20
-93.003446
30
0.0
11
-294.472197
21
-88.938308
31
0.0
0
LINE
8
Layer 1
62
4
5
4f1
100
AcDbEntity
100
AcDbLine
10
-294.472197
20
-88.938308
30
0.0
11
-298.064077
21
-84.755606
31
0.0
0
LINE
8
Layer 1
62
4
5
4f2
100
AcDbEntity
100
AcDbLine
10
-298.064077
20
-84.755606
30
0.0
11
-301.508344
21
-80.459443
31
0.0
0
LINE
8
Layer 1
62
4
5
4f3
100
AcDbEntity
100
AcDbLine
10
-301.508344
20
-80.459443
30
0.0
11
-304.802437
21
-76.053926
31
0.0
0
LINE
8
Layer 1
62
4
5
4f4
100
AcDbEntity
100
AcDbLine
10
-304.802437
20
-76.053926
30
0.0
11
-307.943795
21
-71.543161
31
0.0
0
LINE
8
Layer 1
62
4
5
4f5
100
AcDbEntity
100
AcDbLine
10
-307.943795
20
-71.543161
30
0.0
11
-310.929858
21
-66.931252
31
0.0
0
LINE
8
Layer 1
62
4
5
4f6
100
AcDbEntity
100
AcDbLine
10
-310.929858
20
-66.931252
30
0.0
11
-313.758063
21
-62.222306
31
0.0
0
LINE
8
Layer 1
62
4
5
4f7
100
AcDbEntity
100
AcDbLine
10
-313.758063
20
-62.222306
30
0.0
11
-316.425851
21
-57.420428
31
0.0
0
LINE
8
Layer 1
62
4
5
4f8
100
AcDbEntity
100
AcDbLine
10
-316.425851
20
-57.420428
30
0.0
11
-318.930660
21
-52.529723
31
0.0
0
LINE
8
Layer 1
62
4
5
4f9
100
AcDbEntity
100
AcDbLine
10
-318.930660
20
-52.529723
30
0.0
11
-321.269928
21
-47.554297
31
0.0
0
LINE
8
Layer 1
62
4
5
4fa
100
AcDbEntity
100
AcDbLine
10
-321.269928
20
-47.554297
30
0.0
11
-323.441096
21
-42.498256
31
0.0
0
LINE
8
Layer 1
62
4
5
4fb
100
AcDbEntity
100
AcDbLine
10
-323.441096
20
-42.498256
30
0.0
11
-325.441602
21
-37.365705
31
0.0
0
LINE
8
Layer 1
62
4
5
4fc
100
AcDbEntity
100
AcDbLine
10
-325.441602
20
-37.365705
30
0.0
11
-327.268885
21
-32.160750
31
0.0
0
LINE
8
Layer 1
62
4
5
4fd
100
AcDbEntity
100
AcDbLine
10
-327.268885
20
-32.160750
30
0.0
11
-328.920384
21
-26.887496
31
0.0
0
LINE
8
Layer 1
62
4
5
4fe
100
AcDbEntity
100
AcDbLine
10
-328.920384
20
-26.887496
30
0.0
11
-330.393538
21
-21.550049
31
0.0
0
LINE
8
Layer 1
62
4
5
4ff
100
AcDbEntity
100
AcDbLine
10
-330.393538
20
-21.550049
30
0.0
11
-331.685786
21
-16.152514
31
0.0
0
LINE
8
Layer 1
62
4
5
500
100
AcDbEntity
100
AcDbLine
10
-331.685786
20
-16.152514
30
0.0
11
-332.794567
21
-10.698997
31
0.0
0
LINE
8
Layer 1
62
4
5
501
100
AcDbEntity
100
AcDbLine
10
-332.794567
20
-10.698997
30
0.0
11
-333.717320
21
-5.193603
31
0.0
0
LINE
8
Layer 1
62
4
5
502
100
AcDbEntity
100
AcDbLine
10
-333.717320
20
-5.193603
30
0.0
11
-334.451484
21
0.359561
31
0.0
0
LINE
8
Layer 1
62
4
5
503
100
AcDbEntity
100
AcDbLine
10
-334.451484
20
0.359561
30
0.0
11
-334.994498
21
5.956391
31
0.0
0
LINE
8
Layer 1
62
4
5
504
100
AcDbEntity
100
AcDbLine
10
-334.994498
20
5.956391
30
0.0
11
-335.343800
21
11.592781
31
0.0
0
LINE
8
Layer 1
62
4
5
505
100
AcDbEntity
100
AcDbLine
10
-335.343800
20
11.592781
30
0.0
11
-335.496831
21
17.264626
31
0.0
0
LINE
8
Layer 1
62
4
5
506
100
AcDbEntity
100
AcDbLine
10
-335.496831
20
17.264626
30
0.0
11
-335.496831
21
17.264795
31
0.0
0
LINE
8
Layer 1
62
4
5
507
100
AcDbEntity
100
AcDbLine
10
-12.612583
20
6.529682
30
0.0
11
-8.149407
21
6.819722
31
0.0
0
LINE
8
Layer 1
62
4
5
508
100
AcDbEntity
100
AcDbLine
10
-8.149407
20
6.819722
30
0.0
11
-8.616044
21
0.959282
31
0.0
0
LINE
8
Layer 1
62
4
5
509
100
AcDbEntity
100
AcDbLine
10
-8.616044
20
0.959282
30
0.0
11
-9.291423
21
-4.633741
31
0.0
0
LINE
8
Layer 1
62
4
5
50a
100
AcDbEntity
100
AcDbLine
10
-9.291423
20
-4.633741
30
0.0
11
-10.193397
21
-10.196258
31
0.0
0
LINE
8
Layer 1
62
4
5
50b
100
AcDbEntity
100
AcDbLine
10
-10.193397
20
-10.196258
30
0.0
11
-11.339817
21
-15.965178
31
0.0
0
LINE
8
Layer 1
62
4
5
50c
100
AcDbEntity
100
AcDbLine
10
-11.339817
20
-15.965178
30
0.0
11
-12.565125
21
-21.042126
31
0.0
0
LINE
8
Layer 1
62
4
5
50d
100
AcDbEntity
100
AcDbLine
10
-12.565125
20
-21.042126
30
0.0
11
-13.953364
21
-26.076188
31
0.0
0
LINE
8
Layer 1
62
4
5
50e
100
AcDbEntity
100
AcDbLine
10
-13.953364
20
-26.076188
30
0.0
11
-15.503401
21
-31.063498
31
0.0
0
LINE
8
Layer 1
62
4
5
50f
100
AcDbEntity
100
AcDbLine
10
-15.503401
20
-31.063498
30
0.0
11
-17.214103
21
-36.000190
31
0.0
0
LINE
8
Layer 1
62
4
5
510
100
AcDbEntity
100
AcDbLine
10
-17.214103
20
-36.000190
30
0.0
11
-17.295129
21
-36.220691
31
0.0
0
LINE
8
Layer 1
62
4
5
511
100
AcDbEntity
100
AcDbLine
10
-17.295129
20
-36.220691
30
0.0
11
-20.180770
21
-43.640824
31
0.0
0
LINE
8
Layer 1
62
4
5
512
100
AcDbEntity
100
AcDbLine
10
-20.180770
20
-43.640824
30
0.0
11
-23.427959
21
-50.912220
31
0.0
0
LINE
8
Layer 1
62
4
5
513
100
AcDbEntity
100
AcDbLine
10
-23.427959
20
-50.912220
30
0.0
11
-23.673267
21
-51.415479
31
0.0
0
LINE
8
Layer 1
62
4
5
514
100
AcDbEntity
100
AcDbLine
10
-23.673267
20
-51.415479
30
0.0
11
-27.212234
21
-58.349068
31
0.0
0
LINE
8
Layer 1
62
4
5
515
100
AcDbEntity
100
AcDbLine
10
-27.212234
20
-58.349068
30
0.0
11
-31.080470
21
-65.107123
31
0.0
0
LINE
8
Layer 1
62
4
5
516
100
AcDbEntity
100
AcDbLine
10
-31.080470
20
-65.107123
30
0.0
11
-31.591998
21
-65.935586
31
0.0
0
LINE
8
Layer 1
62
4
5
517
100
AcDbEntity
100
AcDbLine
10
-31.591998
20
-65.935586
30
0.0
11
-35.692454
21
-72.290973
31
0.0
0
LINE
8
Layer 1
62
4
5
518
100
AcDbEntity
100
AcDbLine
10
-35.692454
20
-72.290973
30
0.0
11
-40.085137
21
-78.450928
31
0.0
0
LINE
8
Layer 1
62
4
5
519
100
AcDbEntity
100
AcDbLine
10
-40.085137
20
-78.450928
30
0.0
11
-40.980854
21
-79.621163
31
0.0
0
LINE
8
Layer 1
62
4
5
51a
100
AcDbEntity
100
AcDbLine
10
-40.980854
20
-79.621163
30
0.0
11
-45.543844
21
-85.332903
31
0.0
0
LINE
8
Layer 1
62
4
5
51b
100
AcDbEntity
100
AcDbLine
10
-45.543844
20
-85.332903
30
0.0
11
-50.359776
21
-90.836194
31
0.0
0
LINE
8
Layer 1
62
4
5
51c
100
AcDbEntity
100
AcDbLine
10
-50.359776
20
-90.836194
30
0.0
11
-51.736738
21
-92.302988
31
0.0
0
LINE
8
Layer 1
62
4
5
51d
100
AcDbEntity
100
AcDbLine
10
-51.736738
20
-92.302988
30
0.0
11
-56.659882
21
-97.329528
31
0.0
0
LINE
8
Layer 1
62
4
5
51e
100
AcDbEntity
100
AcDbLine
10
-56.659882
20
-97.329528
30
0.0
11
-61.796408
21
-102.141057
31
0.0
0
LINE
8
Layer 1
62
4
5
51f
100
AcDbEntity
100
AcDbLine
10
-61.796408
20
-102.141057
30
0.0
11
-63.756526
21
-103.850392
31
0.0
0
LINE
8
Layer 1
62
4
5
520
100
AcDbEntity
100
AcDbLine
10
-63.756526
20
-103.850392
30
0.0
11
-68.927673
21
-108.161414
31
0.0
0
LINE
8
Layer 1
62
4
5
521
100
AcDbEntity
100
AcDbLine
10
-68.927673
20
-108.161414
30
0.0
11
-74.273170
21
-112.257510
31
0.0
0
LINE
8
Layer 1
62
4
5
522
100
AcDbEntity
100
AcDbLine
10
-74.273170
20
-112.257510
30
0.0
11
-76.932211
21
-114.144871
31
0.0
0
LINE
8
Layer 1
62
4
5
523
100
AcDbEntity
100
AcDbLine
10
-76.932211
20
-114.144871
30
0.0
11
-82.231283
21
-117.724122
31
0.0
0
LINE
8
Layer 1
62
4
5
524
100
AcDbEntity
100
AcDbLine
10
-82.231283
20
-117.724122
30
0.0
11
-87.667155
21
-121.095158
31
0.0
0
LINE
8
Layer 1
62
4
5
525
100
AcDbEntity
100
AcDbLine
10
-87.667155
20
-121.095158
30
0.0
11
-91.125477
21
-123.064645
31
0.0
0
LINE
8
Layer 1
62
4
5
526
100
AcDbEntity
100
AcDbLine
10
-91.125477
20
-123.064645
30
0.0
11
-96.438180
21
-125.920724
31
0.0
0
LINE
8
Layer 1
62
4
5
527
100
AcDbEntity
100
AcDbLine
10
-96.438180
20
-125.920724
30
0.0
11
-101.853224
21
-128.580650
31
0.0
0
LINE
8
Layer 1
62
4
5
528
100
AcDbEntity
100
AcDbLine
10
-101.853224
20
-128.580650
30
0.0
11
-106.178054
21
-130.502189
31
0.0
0
LINE
8
Layer 1
62
4
5
529
100
AcDbEntity
100
AcDbLine
10
-106.178054
20
-130.502189
30
0.0
11
-111.400361
21
-132.664533
31
0.0
0
LINE
8
Layer 1
62
4
5
52a
100
AcDbEntity
100
AcDbLine
10
-111.400361
20
-132.664533
30
0.0
11
-116.694698
21
-134.646791
31
0.0
0
LINE
8
Layer 1
62
4
5
52b
100
AcDbEntity
100
AcDbLine
10
-116.694698
20
-134.646791
30
0.0
11
-121.941717
21
-136.377604
31
0.0
0
LINE
8
Layer 1
62
4
5
52c
100
AcDbEntity
100
AcDbLine
10
-121.941717
20
-136.377604
30
0.0
11
-126.970783
21
-137.888893
31
0.0
0
LINE
8
Layer 1
62
4
5
52d
100
AcDbEntity
100
AcDbLine
10
-126.970783
20
-137.888893
30
0.0
11
-132.046035
21
-139.239506
31
0.0
0
LINE
8
Layer 1
62
4
5
52e
100
AcDbEntity
100
AcDbLine
10
-132.046035
20
-139.239506
30
0.0
11
-138.243889
21
-140.620307
31
0.0
0
LINE
8
Layer 1
62
4
5
52f
100
AcDbEntity
100
AcDbLine
10
-138.243889
20
-140.620307
30
0.0
11
-147.768889
21
-142.320809
31
0.0
0
LINE
8
Layer 1
62
4
5
530
100
AcDbEntity
100
AcDbLine
10
-147.768889
20
-142.320809
30
0.0
11
-154.902733
21
-143.180712
31
0.0
0
LINE
8
Layer 1
62
4
5
531
100
AcDbEntity
100
AcDbLine
10
-154.902733
20
-143.180712
30
0.0
11
-159.955121
21
-143.650583
31
0.0
0
LINE
8
Layer 1
62
4
5
532
100
AcDbEntity
100
AcDbLine
10
-159.955121
20
-143.650583
30
0.0
11
-165.019722
21
-143.965092
31
0.0
0
LINE
8
Layer 1
62
4
5
533
100
AcDbEntity
100
AcDbLine
10
-165.019722
20
-143.965092
30
0.0
11
-170.457467
21
-144.156354
31
0.0
0
LINE
8
Layer 1
62
4
5
534
100
AcDbEntity
100
AcDbLine
10
-170.457467
20
-144.156354
30
0.0
11
-170.424390
21
-139.634730
31
0.0
0
LINE
8
Layer 1
62
4
5
535
100
AcDbEntity
100
AcDbLine
10
-170.424390
20
-139.634730
30
0.0
11
-161.182602
21
-139.161748
31
0.0
0
LINE
8
Layer 1
62
4
5
536
100
AcDbEntity
100
AcDbLine
10
-161.182602
20
-139.161748
30
0.0
11
-152.193000
21
-138.220592
31
0.0
0
LINE
8
Layer 1
62
4
5
537
100
AcDbEntity
100
AcDbLine
10
-152.193000
20
-138.220592
30
0.0
11
-143.458172
21
-136.831663
31
0.0
0
LINE
8
Layer 1
62
4
5
538
100
AcDbEntity
100
AcDbLine
10
-143.458172
20
-136.831663
30
0.0
11
-134.980707
21
-135.015362
31
0.0
0
LINE
8
Layer 1
62
4
5
539
100
AcDbEntity
100
AcDbLine
10
-134.980707
20
-135.015362
30
0.0
11
-126.763195
21
-132.792087
31
0.0
0
LINE
8
Layer 1
62
4
5
53a
100
AcDbEntity
100
AcDbLine
10
-126.763195
20
-132.792087
30
0.0
11
-118.808224
21
-130.182240
31
0.0
0
LINE
8
Layer 1
62
4
5
53b
100
AcDbEntity
100
AcDbLine
10
-118.808224
20
-130.182240
30
0.0
11
-111.118384
21
-127.206221
31
0.0
0
LINE
8
Layer 1
62
4
5
53c
100
AcDbEntity
100
AcDbLine
10
-111.118384
20
-127.206221
30
0.0
11
-103.696263
21
-123.884429
31
0.0
0
LINE
8
Layer 1
62
4
5
53d
100
AcDbEntity
100
AcDbLine
10
-103.696263
20
-123.884429
30
0.0
11
-96.544450
21
-120.237266
31
0.0
0
LINE
8
Layer 1
62
4
5
53e
100
AcDbEntity
100
AcDbLine
10
-96.544450
20
-120.237266
30
0.0
11
-89.665535
21
-116.285131
31
0.0
0
LINE
8
Layer 1
62
4
5
53f
100
AcDbEntity
100
AcDbLine
10
-89.665535
20
-116.285131
30
0.0
11
-83.062106
21
-112.048424
31
0.0
0
LINE
8
Layer 1
62
4
5
540
100
AcDbEntity
100
AcDbLine
10
-83.062106
20
-112.048424
30
0.0
11
-76.736752
21
-107.547546
31
0.0
0
LINE
8
Layer 1
62
4
5
541
100
AcDbEntity
100
AcDbLine
10
-76.736752
20
-107.547546
30
0.0
11
-70.692063
21
-102.802897
31
0.0
0
LINE
8
Layer 1
62
4
5
542
100
AcDbEntity
100
AcDbLine
10
-70.692063
20
-102.802897
30
0.0
11
-64.930628
21
-97.834877
31
0.0
0
LINE
8
Layer 1
62
4
5
543
100
AcDbEntity
100
AcDbLine
10
-64.930628
20
-97.834877
30
0.0
11
-59.455035
21
-92.663886
31
0.0
0
LINE
8
Layer 1
62
4
5
544
100
AcDbEntity
100
AcDbLine
10
-59.455035
20
-92.663886
30
0.0
11
-54.267873
21
-87.310325
31
0.0
0
LINE
8
Layer 1
62
4
5
545
100
AcDbEntity
100
AcDbLine
10
-54.267873
20
-87.310325
30
0.0
11
-49.371732
21
-81.794593
31
0.0
0
LINE
8
Layer 1
62
4
5
546
100
AcDbEntity
100
AcDbLine
10
-49.371732
20
-81.794593
30
0.0
11
-44.769200
21
-76.137091
31
0.0
0
LINE
8
Layer 1
62
4
5
547
100
AcDbEntity
100
AcDbLine
10
-44.769200
20
-76.137091
30
0.0
11
-40.462866
21
-70.358220
31
0.0
0
LINE
8
Layer 1
62
4
5
548
100
AcDbEntity
100
AcDbLine
10
-40.462866
20
-70.358220
30
0.0
11
-36.455320
21
-64.478378
31
0.0
0
LINE
8
Layer 1
62
4
5
549
100
AcDbEntity
100
AcDbLine
10
-36.455320
20
-64.478378
30
0.0
11
-32.749150
21
-58.517968
31
0.0
0
LINE
8
Layer 1
62
4
5
54a
100
AcDbEntity
100
AcDbLine
10
-32.749150
20
-58.517968
30
0.0
11
-29.346946
21
-52.497387
31
0.0
0
LINE
8
Layer 1
62
4
5
54b
100
AcDbEntity
100
AcDbLine
10
-29.346946
20
-52.497387
30
0.0
11
-26.251296
21
-46.437038
31
0.0
0
LINE
8
Layer 1
62
4
5
54c
100
AcDbEntity
100
AcDbLine
10
-26.251296
20
-46.437038
30
0.0
11
-23.464790
21
-40.357320
31
0.0
0
LINE
8
Layer 1
62
4
5
54d
100
AcDbEntity
100
AcDbLine
10
-23.464790
20
-40.357320
30
0.0
11
-20.990016
21
-34.278633
31
0.0
0
LINE
8
Layer 1
62
4
5
54e
100
AcDbEntity
100
AcDbLine
10
-20.990016
20
-34.278633
30
0.0
11
-18.829563
21
-28.221378
31
0.0
0
LINE
8
Layer 1
62
4
5
54f
100
AcDbEntity
100
AcDbLine
10
-18.829563
20
-28.221378
30
0.0
11
-16.986021
21
-22.205954
31
0.0
0
LINE
8
Layer 1
62
4
5
550
100
AcDbEntity
100
AcDbLine
10
-16.986021
20
-22.205954
30
0.0
11
-15.461979
21
-16.252762
31
0.0
0
LINE
8
Layer 1
62
4
5
551
100
AcDbEntity
100
AcDbLine
10
-15.461979
20
-16.252762
30
0.0
11
-14.260025
21
-10.382202
31
0.0
0
LINE
8
Layer 1
62
4
5
552
100
AcDbEntity
100
AcDbLine
10
-14.260025
20
-10.382202
30
0.0
11
-13.382748
21
-4.614675
31
0.0
0
LINE
8
Layer 1
62
4
5
553
100
AcDbEntity
100
AcDbLine
10
-13.382748
20
-4.614675
30
0.0
11
-12.832737
21
1.029420
31
0.0
0
LINE
8
Layer 1
62
4
5
554
100
AcDbEntity
100
AcDbLine
10
-12.832737
20
1.029420
30
0.0
11
-12.612583
21
6.529682
31
0.0
0
LINE
8
Layer 1
62
4
5
555
100
AcDbEntity
100
AcDbLine
10
-12.612583
20
6.529682
30
0.0
11
-12.612583
21
6.529682
31
0.0
0
LINE
8
Layer 1
62
4
5
556
100
AcDbEntity
100
AcDbLine
10
-149.110912
20
-39.627423
30
0.0
11
-149.268426
21
-40.656792
31
0.0
0
LINE
8
Layer 1
62
4
5
557
100
AcDbEntity
100
AcDbLine
10
-149.268426
20
-40.656792
30
0.0
11
-149.746993
21
-42.282289
31
0.0
0
LINE
8
Layer 1
62
4
5
558
100
AcDbEntity
100
AcDbLine
10
-149.746993
20
-42.282289
30
0.0
11
-151.503287
21
-46.957354
31
0.0
0
LINE
8
Layer 1
62
4
5
559
100
AcDbEntity
100
AcDbLine
10
-151.503287
20
-46.957354
30
0.0
11
-154.051796
21
-52.923990
31
0.0
0
LINE
8
Layer 1
62
4
5
55a
100
AcDbEntity
100
AcDbLine
10
-154.051796
20
-52.923990
30
0.0
11
-157.064519
21
-59.453570
31
0.0
0
LINE
8
Layer 1
62
4
5
55b
100
AcDbEntity
100
AcDbLine
10
-157.064519
20
-59.453570
30
0.0
11
-160.213458
21
-65.817465
31
0.0
0
LINE
8
Layer 1
62
4
5
55c
100
AcDbEntity
100
AcDbLine
10
-160.213458
20
-65.817465
30
0.0
11
-163.170613
21
-71.287047
31
0.0
0
LINE
8
Layer 1
62
4
5
55d
100
AcDbEntity
100
AcDbLine
10
-163.170613
20
-71.287047
30
0.0
11
-165.607985
21
-75.133688
31
0.0
0
LINE
8
Layer 1
62
4
5
55e
100
AcDbEntity
100
AcDbLine
10
-165.607985
20
-75.133688
30
0.0
11
-166.529253
21
-76.220710
31
0.0
0
LINE
8
Layer 1
62
4
5
55f
100
AcDbEntity
100
AcDbLine
10
-166.529253
20
-76.220710
30
0.0
11
-167.197574
21
-76.628760
31
0.0
0
LINE
8
Layer 1
62
4
5
560
100
AcDbEntity
100
AcDbLine
10
-167.197574
20
-76.628760
30
0.0
11
-167.907068
21
-76.262685
31
0.0
0
LINE
8
Layer 1
62
4
5
561
100
AcDbEntity
100
AcDbLine
10
-167.907068
20
-76.262685
30
0.0
11
-168.944625
21
-75.155098
31
0.0
0
LINE
8
Layer 1
62
4
5
562
100
AcDbEntity
100
AcDbLine
10
-168.944625
20
-75.155098
30
0.0
11
-171.796566
21
-71.117678
31
0.0
0
LINE
8
Layer 1
62
4
5
563
100
AcDbEntity
100
AcDbLine
10
-171.796566
20
-71.117678
30
0.0
11
-175.338673
21
-65.321088
31
0.0
0
LINE
8
Layer 1
62
4
5
564
100
AcDbEntity
100
AcDbLine
10
-175.338673
20
-65.321088
30
0.0
11
-179.156222
21
-58.569914
31
0.0
0
LINE
8
Layer 1
62
4
5
565
100
AcDbEntity
100
AcDbLine
10
-179.156222
20
-58.569914
30
0.0
11
-182.834492
21
-51.668745
31
0.0
0
LINE
8
Layer 1
62
4
5
566
100
AcDbEntity
100
AcDbLine
10
-182.834492
20
-51.668745
30
0.0
11
-185.958756
21
-45.422166
31
0.0
0
LINE
8
Layer 1
62
4
5
567
100
AcDbEntity
100
AcDbLine
10
-185.958756
20
-45.422166
30
0.0
11
-188.114294
21
-40.634764
31
0.0
0
LINE
8
Layer 1
62
4
5
568
100
AcDbEntity
100
AcDbLine
10
-188.114294
20
-40.634764
30
0.0
11
-188.699189
21
-39.039689
31
0.0
0
LINE
8
Layer 1
62
4
5
569
100
AcDbEntity
100
AcDbLine
10
-188.699189
20
-39.039689
30
0.0
11
-188.886380
21
-38.111128
31
0.0
0
LINE
8
Layer 1
62
4
5
56a
100
AcDbEntity
100
AcDbLine
10
-188.886380
20
-38.111128
30
0.0
11
-188.181389
21
-35.809452
31
0.0
0
LINE
8
Layer 1
62
4
5
56b
100
AcDbEntity
100
AcDbLine
10
-188.181389
20
-35.809452
30
0.0
11
-186.251882
21
-31.586401
31
0.0
0
LINE
8
Layer 1
62
4
5
56c
100
AcDbEntity
100
AcDbLine
10
-186.251882
20
-31.586401
30
0.0
11
-183.197943
21
-26.006984
31
0.0
0
LINE
8
Layer 1
62
4
5
56d
100
AcDbEntity
100
AcDbLine
10
-183.197943
20
-26.006984
30
0.0
11
-179.119657
21
-19.636212
31
0.0
0
LINE
8
Layer 1
62
4
5
56e
100
AcDbEntity
100
AcDbLine
10
-179.119657
20
-19.636212
30
0.0
11
-175.015086
21
-13.385016
31
0.0
0
LINE
8
Layer 1
62
4
5
56f
100
AcDbEntity
100
AcDbLine
10
-175.015086
20
-13.385016
30
0.0
11
-171.544005
21
-7.748504
31
0.0
0
LINE
8
Layer 1
62
4
5
570
100
AcDbEntity
100
AcDbLine
10
-171.544005
20
-7.748504
30
0.0
11
-168.989371
21
-3.664462
31
0.0
0
LINE
8
Layer 1
62
4
5
571
100
AcDbEntity
100
AcDbLine
10
-168.989371
20
-3.664462
30
0.0
11
-168.144147
21
-2.497674
31
0.0
0
LINE
8
Layer 1
62
4
5
572
100
AcDbEntity
100
AcDbLine
10
-168.144147
20
-2.497674
30
0.0
11
-167.634144
21
-2.070673
31
0.0
0
LINE
8
Layer 1
62
4
5
573
100
AcDbEntity
100
AcDbLine
10
-167.634144
20
-2.070673
30
0.0
11
-167.156327
21
-2.446687
31
0.0
0
LINE
8
Layer 1
62
4
5
574
100
AcDbEntity
100
AcDbLine
10
-167.156327
20
-2.446687
30
0.0
11
-166.439943
21
-3.547501
31
0.0
0
LINE
8
Layer 1
62
4
5
575
100
AcDbEntity
100
AcDbLine
10
-166.439943
20
-3.547501
30
0.0
11
-164.344833
21
-7.528396
31
0.0
0
LINE
8
Layer 1
62
4
5
576
100
AcDbEntity
100
AcDbLine
10
-164.344833
20
-7.528396
30
0.0
11
-161.455534
21
-13.223087
31
0.0
0
LINE
8
Layer 1
62
4
5
577
100
AcDbEntity
100
AcDbLine
10
-161.455534
20
-13.223087
30
0.0
11
-157.878766
21
-19.841303
31
0.0
0
LINE
8
Layer 1
62
4
5
578
100
AcDbEntity
100
AcDbLine
10
-157.878766
20
-19.841303
30
0.0
11
-154.510809
21
-26.197618
31
0.0
0
LINE
8
Layer 1
62
4
5
579
100
AcDbEntity
100
AcDbLine
10
-154.510809
20
-26.197618
30
0.0
11
-151.729496
21
-32.189273
31
0.0
0
LINE
8
Layer 1
62
4
5
57a
100
AcDbEntity
100
AcDbLine
10
-151.729496
20
-32.189273
30
0.0
11
-149.830855
21
-36.953474
31
0.0
0
LINE
8
Layer 1
62
4
5
57b
100
AcDbEntity
100
AcDbLine
10
-149.830855
20
-36.953474
30
0.0
11
-149.305045
21
-38.605655
31
0.0
0
LINE
8
Layer 1
62
4
5
57c
100
AcDbEntity
100
AcDbLine
10
-149.305045
20
-38.605655
30
0.0
11
-149.110912
21
-39.627423
31
0.0
0
LINE
8
Layer 1
62
4
5
57d
100
AcDbEntity
100
AcDbLine
10
-149.110912
20
-39.627423
30
0.0
11
-149.110912
21
-39.627423
31
0.0
0
LINE
8
Layer 1
62
4
5
57e
100
AcDbEntity
100
AcDbLine
10
-223.076685
20
33.064681
30
0.0
11
-223.164110
21
31.333346
31
0.0
0
LINE
8
Layer 1
62
4
5
57f
100
AcDbEntity
100
AcDbLine
10
-223.164110
20
31.333346
30
0.0
11
-223.420711
21
29.652024
31
0.0
0
LINE
8
Layer 1
62
4
5
580
100
AcDbEntity
100
AcDbLine
10
-223.420711
20
29.652024
30
0.0
11
-223.837975
21
28.029226
31
0.0
0
LINE
8
Layer 1
62
4
5
581
100
AcDbEntity
100
AcDbLine
10
-223.837975
20
28.029226
30
0.0
11
-224.407391
21
26.473464
31
0.0
0
LINE
8
Layer 1
62
4
5
582
100
AcDbEntity
100
AcDbLine
10
-224.407391
20
26.473464
30
0.0
11
-225.120447
21
24.993249
31
0.0
0
LINE
8
Layer 1
62
4
5
583
100
AcDbEntity
100
AcDbLine
10
-225.120447
20
24.993249
30
0.0
11
-225.968633
21
23.597093
31
0.0
0
LINE
8
Layer 1
62
4
5
584
100
AcDbEntity
100
AcDbLine
10
-225.968633
20
23.597093
30
0.0
11
-226.943436
21
22.293509
31
0.0
0
LINE
8
Layer 1
62
4
5
585
100
AcDbEntity
100
AcDbLine
10
-226.943436
20
22.293509
30
0.0
11
-228.036344
21
21.091006
31
0.0
0
LINE
8
Layer 1
62
4
5
586
100
AcDbEntity
100
AcDbLine
10
-228.036344
20
21.091006
30
0.0
11
-229.238846
21
19.998098
31
0.0
0
LINE
8
Layer 1
62
4
5
587
100
AcDbEntity
100
AcDbLine
10
-229.238846
20
19.998098
30
0.0
11
-230.542431
21
19.023295
31
0.0
0
LINE
8
Layer 1
62
4
5
588
100
AcDbEntity
100
AcDbLine
10
-230.542431
20
19.023295
30
0.0
11
-231.938587
21
18.175110
31
0.0
0
LINE
8
Layer 1
62
4
5
589
100
AcDbEntity
100
AcDbLine
10
-231.938587
20
18.175110
30
0.0
11
-233.418801
21
17.462053
31
0.0
0
LINE
8
Layer 1
62
4
5
58a
100
AcDbEntity
100
AcDbLine
10
-233.418801
20
17.462053
30
0.0
11
-234.974563
21
16.892637
31
0.0
0
LINE
8
Layer 1
62
4
5
58b
100
AcDbEntity
100
AcDbLine
10
-234.974563
20
16.892637
30
0.0
11
-236.597361
21
16.475373
31
0.0
0
LINE
8
Layer 1
62
4
5
58c
100
AcDbEntity
100
AcDbLine
10
-236.597361
20
16.475373
30
0.0
11
-238.278684
21
16.218773
31
0.0
0
LINE
8
Layer 1
62
4
5
58d
100
AcDbEntity
100
AcDbLine
10
-238.278684
20
16.218773
30
0.0
11
-240.010019
21
16.131348
31
0.0
0
LINE
8
Layer 1
62
4
5
58e
100
AcDbEntity
100
AcDbLine
10
-240.010019
20
16.131348
30
0.0
11
-241.741354
21
16.218773
31
0.0
0
LINE
8
Layer 1
62
4
5
58f
100
AcDbEntity
100
AcDbLine
10
-241.741354
20
16.218773
30
0.0
11
-243.422676
21
16.475373
31
0.0
0
LINE
8
Layer 1
62
4
5
590
100
AcDbEntity
100
AcDbLine
10
-243.422676
20
16.475373
30
0.0
11
-245.045474
21
16.892637
31
0.0
0
LINE
8
Layer 1
62
4
5
591
100
AcDbEntity
100
AcDbLine
10
-245.045474
20
16.892637
30
0.0
11
-246.601236
21
17.462053
31
0.0
0
LINE
8
Layer 1
62
4
5
592
100
AcDbEntity
100
AcDbLine
10
-246.601236
20
17.462053
30
0.0
11
-248.081451
21
18.175110
31
0.0
0
LINE
8
Layer 1
62
4
5
593
100
AcDbEntity
100
AcDbLine
10
-248.081451
20
18.175110
30
0.0
11
-249.477606
21
19.023295
31
0.0
0
LINE
8
Layer 1
62
4
5
594
100
AcDbEntity
100
AcDbLine
10
-249.477606
20
19.023295
30
0.0
11
-250.781191
21
19.998098
31
0.0
0
LINE
8
Layer 1
62
4
5
595
100
AcDbEntity
100
AcDbLine
10
-250.781191
20
19.998098
30
0.0
11
-251.983693
21
21.091006
31
0.0
0
LINE
8
Layer 1
62
4
5
596
100
AcDbEntity
100
AcDbLine
10
-251.983693
20
21.091006
30
0.0
11
-253.076602
21
22.293509
31
0.0
0
LINE
8
Layer 1
62
4
5
597
100
AcDbEntity
100
AcDbLine
10
-253.076602
20
22.293509
30
0.0
11
-254.051404
21
23.597093
31
0.0
0
LINE
8
Layer 1
62
4
5
598
100
AcDbEntity
100
AcDbLine
10
-254.051404
20
23.597093
30
0.0
11
-254.899590
21
24.993249
31
0.0
0
LINE
8
Layer 1
62
4
5
599
100
AcDbEntity
100
AcDbLine
10
-254.899590
20
24.993249
30
0.0
11
-255.612647
21
26.473464
31
0.0
0
LINE
8
Layer 1
62
4
5
59a
100
AcDbEntity
100
AcDbLine
10
-255.612647
20
26.473464
30
0.0
11
-256.182063
21
28.029226
31
0.0
0
LINE
8
Layer 1
62
4
5
59b
100
AcDbEntity
100
AcDbLine
10
-256.182063
20
28.029226
30
0.0
11
-256.599327
21
29.652024
31
0.0
0
LINE
8
Layer 1
62
4
5
59c
100
AcDbEntity
100
AcDbLine
10
-256.599327
20
29.652024
30
0.0
11
-256.855927
21
31.333346
31
0.0
0
LINE
8
Layer 1
62
4
5
59d
100
AcDbEntity
100
AcDbLine
10
-256.855927
20
31.333346
30
0.0
11
-256.943352
21
33.064681
31
0.0
0
LINE
8
Layer 1
62
4
5
59e
100
AcDbEntity
100
AcDbLine
10
-256.943352
20
33.064681
30
0.0
11
-256.860492
21
34.738333
31
0.0
0
LINE
8
Layer 1
62
4
5
59f
100
AcDbEntity
100
AcDbLine
10
-256.860492
20
34.738333
30
0.0
11
-256.614976
21
36.383637
31
0.0
0
LINE
8
Layer 1
62
4
5
5a0
100
AcDbEntity
100
AcDbLine
10
-256.614976
20
36.383637
30
0.0
11
-256.211406
21
37.989489
31
0.0
0
LINE
8
Layer 1
62
4
5
5a1
100
AcDbEntity
100
AcDbLine
10
-256.211406
20
37.989489
30
0.0
11
-255.654379
21
39.544787
31
0.0
0
LINE
8
Layer 1
62
4
5
5a2
100
AcDbEntity
100
AcDbLine
10
-255.654379
20
39.544787
30
0.0
11
-254.948495
21
41.038426
31
0.0
0
LINE
8
Layer 1
62
4
5
5a3
100
AcDbEntity
100
AcDbLine
10
-254.948495
20
41.038426
30
0.0
11
-254.098353
21
42.459303
31
0.0
0
LINE
8
Layer 1
62
4
5
5a4
100
AcDbEntity
100
AcDbLine
10
-254.098353
20
42.459303
30
0.0
11
-253.108553
21
43.796314
31
0.0
0
LINE
8
Layer 1
62
4
5
5a5
100
AcDbEntity
100
AcDbLine
10
-253.108553
20
43.796314
30
0.0
11
-251.983693
21
45.038356
31
0.0
0
LINE
8
Layer 1
62
4
5
5a6
100
AcDbEntity
100
AcDbLine
10
-251.983693
20
45.038356
30
0.0
11
-250.741652
21
46.163215
31
0.0
0
LINE
8
Layer 1
62
4
5
5a7
100
AcDbEntity
100
AcDbLine
10
-250.741652
20
46.163215
30
0.0
11
-249.404641
21
47.153015
31
0.0
0
LINE
8
Layer 1
62
4
5
5a8
100
AcDbEntity
100
AcDbLine
10
-249.404641
20
47.153015
30
0.0
11
-247.983764
21
48.003157
31
0.0
0
LINE
8
Layer 1
62
4
5
5a9
100
AcDbEntity
100
AcDbLine
10
-247.983764
20
48.003157
30
0.0
11
-246.490125
21
48.709041
31
0.0
0
LINE
8
Layer 1
62
4
5
5aa
100
AcDbEntity
100
AcDbLine
10
-246.490125
20
48.709041
30
0.0
11
-244.934827
21
49.266068
31
0.0
0
LINE
8
Layer 1
62
4
5
5ab
100
AcDbEntity
100
AcDbLine
10
-244.934827
20
49.266068
30
0.0
11
-243.328975
21
49.669639
31
0.0
0
LINE
8
Layer 1
62
4
5
5ac
100
AcDbEntity
100
AcDbLine
10
-243.328975
20
49.669639
30
0.0
11
-241.683671
21
49.915154
31
0.0
0
LINE
8
Layer 1
62
4
5
5ad
100
AcDbEntity
100
AcDbLine
10
-241.683671
20
49.915154
30
0.0
11
-240.010019
21
49.998014
31
0.0
0
LINE
8
Layer 1
62
4
5
5ae
100
AcDbEntity
100
AcDbLine
10
-240.010019
20
49.998014
30
0.0
11
-238.336367
21
49.915154
31
0.0
0
LINE
8
Layer 1
62
4
5
5af
100
AcDbEntity
100
AcDbLine
10
-238.336367
20
49.915154
30
0.0
11
-236.691063
21
49.669639
31
0.0
0
LINE
8
Layer 1
62
4
5
5b0
100
AcDbEntity
100
AcDbLine
10
-236.691063
20
49.669639
30
0.0
11
-235.085210
21
49.266068
31
0.0
0
LINE
8
Layer 1
62
4
5
5b1
100
AcDbEntity
100
AcDbLine
10
-235.085210
20
49.266068
30
0.0
11
-233.529913
21
48.709041
31
0.0
0
LINE
8
Layer 1
62
4
5
5b2
100
AcDbEntity
100
AcDbLine
10
-233.529913
20
48.709041
30
0.0
11
-232.036274
21
48.003157
31
0.0
0
LINE
8
Layer 1
62
4
5
5b3
100
AcDbEntity
100
AcDbLine
10
-232.036274
20
48.003157
30
0.0
11
-230.615397
21
47.153015
31
0.0
0
LINE
8
Layer 1
62
4
5
5b4
100
AcDbEntity
100
AcDbLine
10
-230.615397
20
47.153015
30
0.0
11
-229.278386
21
46.163215
31
0.0
0
LINE
8
Layer 1
62
4
5
5b5
100
AcDbEntity
100
AcDbLine
10
-229.278386
20
46.163215
30
0.0
11
-228.036344
21
45.038356
31
0.0
0
LINE
8
Layer 1
62
4
5
5b6
100
AcDbEntity
100
AcDbLine
10
-228.036344
20
45.038356
30
0.0
11
-226.911484
21
43.796314
31
0.0
0
LINE
8
Layer 1
62
4
5
5b7
100
AcDbEntity
100
AcDbLine
10
-226.911484
20
43.796314
30
0.0
11
-225.921684
21
42.459303
31
0.0
0
LINE
8
Layer 1
62
4
5
5b8
100
AcDbEntity
100
AcDbLine
10
-225.921684
20
42.459303
30
0.0
11
-225.071543
21
41.038426
31
0.0
0
LINE
8
Layer 1
62
4
5
5b9
100
AcDbEntity
100
AcDbLine
10
-225.071543
20
41.038426
30
0.0
11
-224.365659
21
39.544787
31
0.0
0
LINE
8
Layer 1
62
4
5
5ba
100
AcDbEntity
100
AcDbLine
10
-224.365659
20
39.544787
30
0.0
11
-223.808632
21
37.989489
31
0.0
0
LINE
8
Layer 1
62
4
5
5bb
100
AcDbEntity
100
AcDbLine
10
-223.808632
20
37.989489
30
0.0
11
-223.405061
21
36.383637
31
0.0
0
LINE
8
Layer 1
62
4
5
5bc
100
AcDbEntity
100
AcDbLine
10
-223.405061
20
36.383637
30
0.0
11
-223.159546
21
34.738333
31
0.0
0
LINE
8
Layer 1
62
4
5
5bd
100
AcDbEntity
100
AcDbLine
10
-223.159546
20
34.738333
30
0.0
11
-223.076685
21
33.064681
31
0.0
0
LINE
8
Layer 1
62
4
5
5be
100
AcDbEntity
100
AcDbLine
10
-223.076685
20
33.064681
30
0.0
11
-223.076685
21
33.064681
31
0.0
0
LINE
8
Layer 1
62
4
5
5bf
100
AcDbEntity
100
AcDbLine
10
-77.425316
20
33.064681
30
0.0
11
-77.512741
21
31.333346
31
0.0
0
LINE
8
Layer 1
62
4
5
5c0
100
AcDbEntity
100
AcDbLine
10
-77.512741
20
31.333346
30
0.0
11
-77.769341
21
29.652024
31
0.0
0
LINE
8
Layer 1
62
4
5
5c1
100
AcDbEntity
100
AcDbLine
10
-77.769341
20
29.652024
30
0.0
11
-78.186605
21
28.029226
31
0.0
0
LINE
8
Layer 1
62
4
5
5c2
100
AcDbEntity
100
AcDbLine
10
-78.186605
20
28.029226
30
0.0
11
-78.756021
21
26.473464
31
0.0
0
LINE
8
Layer 1
62
4
5
5c3
100
AcDbEntity
100
AcDbLine
10
-78.756021
20
26.473464
30
0.0
11
-79.469078
21
24.993249
31
0.0
0
LINE
8
Layer 1
62
4
5
5c4
100
AcDbEntity
100
AcDbLine
10
-79.469078
20
24.993249
30
0.0
11
-80.317263
21
23.597093
31
0.0
0
LINE
8
Layer 1
62
4
5
5c5
100
AcDbEntity
100
AcDbLine
10
-80.317263
20
23.597093
30
0.0
11
-81.292066
21
22.293509
31
0.0
0
LINE
8
Layer 1
62
4
5
5c6
100
AcDbEntity
100
AcDbLine
10
-81.292066
20
22.293509
30
0.0
11
-82.384974
21
21.091006
31
0.0
0
LINE
8
Layer 1
62
4
5
5c7
100
AcDbEntity
100
AcDbLine
10
-82.384974
20
21.091006
30
0.0
11
-83.587477
21
19.998098
31
0.0
0
LINE
8
Layer 1
62
4
5
5c8
100
AcDbEntity
100
AcDbLine
10
-83.587477
20
19.998098
30
0.0
11
-84.891062
21
19.023295
31
0.0
0
LINE
8
Layer 1
62
4
5
5c9
100
AcDbEntity
100
AcDbLine
10
-84.891062
20
19.023295
30
0.0
11
-86.287217
21
18.175110
31
0.0
0
LINE
8
Layer 1
62
4
5
5ca
100
AcDbEntity
100
AcDbLine
10
-86.287217
20
18.175110
30
0.0
11
-87.767432
21
17.462053
31
0.0
0
LINE
8
Layer 1
62
4
5
5cb
100
AcDbEntity
100
AcDbLine
10
-87.767432
20
17.462053
30
0.0
11
-89.323194
21
16.892637
31
0.0
0
LINE
8
Layer 1
62
4
5
5cc
100
AcDbEntity
100
AcDbLine
10
-89.323194
20
16.892637
30
0.0
11
-90.945992
21
16.475373
31
0.0
0
LINE
8
Layer 1
62
4
5
5cd
100
AcDbEntity
100
AcDbLine
10
-90.945992
20
16.475373
30
0.0
11
-92.627314
21
16.218773
31
0.0
0
LINE
8
Layer 1
62
4
5
5ce
100
AcDbEntity
100
AcDbLine
10
-92.627314
20
16.218773
30
0.0
11
-94.358649
21
16.131348
31
0.0
0
LINE
8
Layer 1
62
4
5
5cf
100
AcDbEntity
100
AcDbLine
10
-94.358649
20
16.131348
30
0.0
11
-96.089984
21
16.218773
31
0.0
0
LINE
8
Layer 1
62
4
5
5d0
100
AcDbEntity
100
AcDbLine
10
-96.089984
20
16.218773
30
0.0
11
-97.771306
21
16.475373
31
0.0
0
LINE
8
Layer 1
62
4
5
5d1
100
AcDbEntity
100
AcDbLine
10
-97.771306
20
16.475373
30
0.0
11
-99.394104
21
16.892637
31
0.0
0
LINE
8
Layer 1
62
4
5
5d2
100
AcDbEntity
100
AcDbLine
10
-99.394104
20
16.892637
30
0.0
11
-100.949866
21
17.462053
31
0.0
0
LINE
8
Layer 1
62
4
5
5d3
100
AcDbEntity
100
AcDbLine
10
-100.949866
20
17.462053
30
0.0
11
-102.430081
21
18.175110
31
0.0
0
LINE
8
Layer 1
62
4
5
5d4
100
AcDbEntity
100
AcDbLine
10
-102.430081
20
18.175110
30
0.0
11
-103.826237
21
19.023295
31
0.0
0
LINE
8
Layer 1
62
4
5
5d5
100
AcDbEntity
100
AcDbLine
10
-103.826237
20
19.023295
30
0.0
11
-105.129821
21
19.998098
31
0.0
0
LINE
8
Layer 1
62
4
5
5d6
100
AcDbEntity
100
AcDbLine
10
-105.129821
20
19.998098
30
0.0
11
-106.332324
21
21.091006
31
0.0
0
LINE
8
Layer 1
62
4
5
5d7
100
AcDbEntity
100
AcDbLine
10
-106.332324
20
21.091006
30
0.0
11
-107.425232
21
22.293509
31
0.0
0
LINE
8
Layer 1
62
4
5
5d8
100
AcDbEntity
100
AcDbLine
10
-107.425232
20
22.293509
30
0.0
11
-108.400035
21
23.597093
31
0.0
0
LINE
8
Layer 1
62
4
5
5d9
100
AcDbEntity
100
AcDbLine
10
-108.400035
20
23.597093
30
0.0
11
-109.248220
21
24.993249
31
0.0
0
LINE
8
Layer 1
62
4
5
5da
100
AcDbEntity
100
AcDbLine
10
-109.248220
20
24.993249
30
0.0
11
-109.961277
21
26.473464
31
0.0
0
LINE
8
Layer 1
62
4
5
5db
100
AcDbEntity
100
AcDbLine
10
-109.961277
20
26.473464
30
0.0
11
-110.530693
21
28.029226
31
0.0
0
LINE
8
Layer 1
62
4
5
5dc
100
AcDbEntity
100
AcDbLine
10
-110.530693
20
28.029226
30
0.0
11
-110.947957
21
29.652024
31
0.0
0
LINE
8
Layer 1
62
4
5
5dd
100
AcDbEntity
100
AcDbLine
10
-110.947957
20
29.652024
30
0.0
11
-111.204557
21
31.333346
31
0.0
0
LINE
8
Layer 1
62
4
5
5de
100
AcDbEntity
100
AcDbLine
10
-111.204557
20
31.333346
30
0.0
11
-111.291982
21
33.064681
31
0.0
0
LINE
8
Layer 1
62
4
5
5df
100
AcDbEntity
100
AcDbLine
10
-111.291982
20
33.064681
30
0.0
11
-111.209122
21
34.738333
31
0.0
0
LINE
8
Layer 1
62
4
5
5e0
100
AcDbEntity
100
AcDbLine
10
-111.209122
20
34.738333
30
0.0
11
-110.963607
21
36.383637
31
0.0
0
LINE
8
Layer 1
62
4
5
5e1
100
AcDbEntity
100
AcDbLine
10
-110.963607
20
36.383637
30
0.0
11
-110.560036
21
37.989489
31
0.0
0
LINE
8
Layer 1
62
4
5
5e2
100
AcDbEntity
100
AcDbLine
10
-110.560036
20
37.989489
30
0.0
11
-110.003009
21
39.544787
31
0.0
0
LINE
8
Layer 1
62
4
5
5e3
100
AcDbEntity
100
AcDbLine
10
-110.003009
20
39.544787
30
0.0
11
-109.297125
21
41.038426
31
0.0
0
LINE
8
Layer 1
62
4
5
5e4
100
AcDbEntity
100
AcDbLine
10
-109.297125
20
41.038426
30
0.0
11
-108.446984
21
42.459303
31
0.0
0
LINE
8
Layer 1
62
4
5
5e5
100
AcDbEntity
100
AcDbLine
10
-108.446984
20
42.459303
30
0.0
11
-107.457183
21
43.796314
31
0.0
0
LINE
8
Layer 1
62
4
5
5e6
100
AcDbEntity
100
AcDbLine
10
-107.457183
20
43.796314
30
0.0
11
-106.332324
21
45.038356
31
0.0
0
LINE
8
Layer 1
62
4
5
5e7
100
AcDbEntity
100
AcDbLine
10
-106.332324
20
45.038356
30
0.0
11
-105.090282
21
46.163215
31
0.0
0
LINE
8
Layer 1
62
4
5
5e8
100
AcDbEntity
100
AcDbLine
10
-105.090282
20
46.163215
30
0.0
11
-103.753271
21
47.153015
31
0.0
0
LINE
8
Layer 1
62
4
5
5e9
100
AcDbEntity
100
AcDbLine
10
-103.753271
20
47.153015
30
0.0
11
-102.332394
21
48.003157
31
0.0
0
LINE
8
Layer 1
62
4
5
5ea
100
AcDbEntity
100
AcDbLine
10
-102.332394
20
48.003157
30
0.0
11
-100.838755
21
48.709041
31
0.0
0
LINE
8
Layer 1
62
4
5
5eb
100
AcDbEntity
100
AcDbLine
10
-100.838755
20
48.709041
30
0.0
11
-99.283458
21
49.266068
31
0.0
0
LINE
8
Layer 1
62
4
5
5ec
100
AcDbEntity
100
AcDbLine
10
-99.283458
20
49.266068
30
0.0
11
-97.677605
21
49.669639
31
0.0
0
LINE
8
Layer 1
62
4
5
5ed
100
AcDbEntity
100
AcDbLine
10
-97.677605
20
49.669639
30
0.0
11
-96.032301
21
49.915154
31
0.0
0
LINE
8
Layer 1
62
4
5
5ee
100
AcDbEntity
100
AcDbLine
10
-96.032301
20
49.915154
30
0.0
11
-94.358649
21
49.998014
31
0.0
0
LINE
8
Layer 1
62
4
5
5ef
100
AcDbEntity
100
AcDbLine
10
-94.358649
20
49.998014
30
0.0
11
-92.684997
21
49.915154
31
0.0
0
LINE
8
Layer 1
62
4
5
5f0
100
AcDbEntity
100
AcDbLine
10
-92.684997
20
49.915154
30
0.0
11
-91.039693
21
49.669639
31
0.0
0
LINE
8
Layer 1
62
4
5
5f1
100
AcDbEntity
100
AcDbLine
10
-91.039693
20
49.669639
30
0.0
11
-89.433841
21
49.266068
31
0.0
0
LINE
8
Layer 1
62
4
5
5f2
100
AcDbEntity
100
AcDbLine
10
-89.433841
20
49.266068
30
0.0
11
-87.878543
21
48.709041
31
0.0
0
LINE
8
Layer 1
62
4
5
5f3
100
AcDbEntity
100
AcDbLine
10
-87.878543
20
48.709041
30
0.0
11
-86.384904
21
48.003157
31
0.0
0
LINE
8
Layer 1
62
4
5
5f4
100
AcDbEntity
100
AcDbLine
10
-86.384904
20
48.003157
30
0.0
11
-84.964027
21
47.153015
31
0.0
0
LINE
8
Layer 1
62
4
5
5f5
100
AcDbEntity
100
AcDbLine
10
-84.964027
20
47.153015
30
0.0
11
-83.627016
21
46.163215
31
0.0
0
LINE
8
Layer 1
62
4
5
5f6
100
AcDbEntity
100
AcDbLine
10
-83.627016
20
46.163215
30
0.0
11
-82.384974
21
45.038356
31
0.0
0
LINE
8
Layer 1
62
4
5
5f7
100
AcDbEntity
100
AcDbLine
10
-82.384974
20
45.038356
30
0.0
11
-81.260115
21
43.796314
31
0.0
0
LINE
8
Layer 1
62
4
5
5f8
100
AcDbEntity
100
AcDbLine
10
-81.260115
20
43.796314
30
0.0
11
-80.270315
21
42.459303
31
0.0
0
LINE
8
Layer 1
62
4
5
5f9
100
AcDbEntity
100
AcDbLine
10
-80.270315
20
42.459303
30
0.0
11
-79.420173
21
41.038426
31
0.0
0
LINE
8
Layer 1
62
4
5
5fa
100
AcDbEntity
100
AcDbLine
10
-79.420173
20
41.038426
30
0.0
11
-78.714289
21
39.544787
31
0.0
0
LINE
8
Layer 1
62
4
5
5fb
100
AcDbEntity
100
AcDbLine
10
-78.714289
20
39.544787
30
0.0
11
-78.157262
21
37.989489
31
0.0
0
LINE
8
Layer 1
62
4
5
5fc
100
AcDbEntity
100
AcDbLine
10
-78.157262
20
37.989489
30
0.0
11
-77.753691
21
36.383637
31
0.0
0
LINE
8
Layer 1
62
4
5
5fd
100
AcDbEntity
100
AcDbLine
10
-77.753691
20
36.383637
30
0.0
11
-77.508176
21
34.738333
31
0.0
0
LINE
8
Layer 1
62
4
5
5fe
100
AcDbEntity
100
AcDbLine
10
-77.508176
20
34.738333
30
0.0
11
-77.425316
21
33.064681
31
0.0
0
LINE
8
Layer 1
62
4
5
5ff
100
AcDbEntity
100
AcDbLine
10
-77.425316
20
33.064681
30
0.0
11
-77.425316
21
33.064681
31
0.0
  0
ENDSEC
  0
SECTION
  2
OBJECTS
  0
DICTIONARY
  5
C
330
0
100
AcDbDictionary
  3
ACAD_GROUP
350
D
  3
ACAD_MLINESTYLE
350
17
  0
DICTIONARY
  5
D
330
C
100
AcDbDictionary
  0
DICTIONARY
  5
1A
330
C
100
AcDbDictionary
  0
DICTIONARY
  5
17
330
C
100
AcDbDictionary
  3
STANDARD
350
18
  0
DICTIONARY
  5
19
330
C
100
AcDbDictionary
  0
ENDSEC
  0
EOF
