999
Inkscape export via "Better DXF Output" (bob@bobcookdev.com)
  0
SECTION
  2
HEADER
  9
$ACADVER
  1
AC1014
  9
$HANDSEED
  5
FFFF
  0
ENDSEC
  0
SECTION
  2
TABLES
  0
TABLE
  2
VPORT
  5
8
330
0
100
AcDbSymbolTable
 70
     4
  0
VPORT
  5
2E
330
8
100
AcDbSymbolTableRecord
100
AcDbViewportTableRecord
  2
*ACTIVE
 70
     0
 10
0.0
 20
0.0
 11
1.0
 21
1.0
 12
4.25
 22
5.5
 13
0.0
 23
0.0
 14
10.0
 24
10.0
 15
10.0
 25
10.0
 16
0.0
 26
0.0
 36
1.0
 17
0.0
 27
0.0
 37
0.0
 40
11
 41
1.24
 42
50.0
 43
0.0
 44
0.0
 50
0.0
 51
0.0
 71
     0
 72
   100
 73
     1
 74
     3
 75
     0
 76
     0
 77
     0
 78
     0
  0
ENDTAB
  0
TABLE
  2
LTYPE
  5
5
330
0
100
AcDbSymbolTable
 70
     1
  0
LTYPE
  5
14
330
5
100
AcDbSymbolTableRecord
100
AcDbLinetypeTableRecord
  2
BYBLOCK
 70
     0
  3

 72
    65
 73
     0
 40
0.0
  0
LTYPE
  5
15
330
5
100
AcDbSymbolTableRecord
100
AcDbLinetypeTableRecord
  2
BYLAYER
 70
     0
  3

 72
    65
 73
     0
 40
0.0
  0
LTYPE
  5
16
330
5
100
AcDbSymbolTableRecord
100
AcDbLinetypeTableRecord
  2
CONTINUOUS
 70
     0
  3
Solid line
 72
    65
 73
     0
 40
0.0
  0
ENDTAB
  0
TABLE
  2
LAYER
  5
2
330
0
100
AcDbSymbolTable
 70
1
  0
LAYER
  5
10
330
2
100
AcDbSymbolTableRecord
100
AcDbLayerTableRecord
  2
0
 70
     0
 62
     7
  6
CONTINUOUS
  0
ENDTAB
  0
TABLE
  2
STYLE
  5
3
330
0
100
AcDbSymbolTable
 70
     1
  0
STYLE
  5
11
330
3
100
AcDbSymbolTableRecord
100
AcDbTextStyleTableRecord
  2
STANDARD
 70
     0
 40
0.0
 41
1.0
 50
0.0
 71
     0
 42
2.5
  3
txt
  4

  0
ENDTAB
  0
TABLE
  2
VIEW
  5
6
330
0
100
AcDbSymbolTable
 70
     0
  0
ENDTAB
  0
TABLE
  2
UCS
  5
7
330
0
100
AcDbSymbolTable
 70
     0
  0
ENDTAB
  0
TABLE
  2
APPID
  5
9
330
0
100
AcDbSymbolTable
 70
     2
  0
APPID
  5
12
330
9
100
AcDbSymbolTableRecord
100
AcDbRegAppTableRecord
  2
ACAD
 70
     0
  0
ENDTAB
  0
TABLE
  2
DIMSTYLE
  5
A
330
0
100
AcDbSymbolTable
 70
     1
  0
DIMSTYLE
105
27
330
A
100
AcDbSymbolTableRecord
100
AcDbDimStyleTableRecord
  2
ISO-25
 70
     0
  3

  4

  5

  6

  7

 40
1.0
 41
2.5
 42
0.625
 43
3.75
 44
1.25
 45
0.0
 46
0.0
 47
0.0
 48
0.0
140
2.5
141
2.5
142
0.0
143
0.03937007874016
144
1.0
145
0.0
146
1.0
147
0.625
 71
     0
 72
     0
 73
     0
 74
     0
 75
     0
 76
     0
 77
     1
 78
     8
170
     0
171
     3
172
     1
173
     0
174
     0
175
     0
176
     0
177
     0
178
     0
270
     2
271
     2
272
     2
273
     2
274
     3
340
11
275
     0
280
     0
281
     0
282
     0
283
     0
284
     8
285
     0
286
     0
287
     3
288
     0
  0
ENDTAB
  0
TABLE
  2
BLOCK_RECORD
  5
1
330
0
100
AcDbSymbolTable
 70
     1
  0
BLOCK_RECORD
  5
1F
330
1
100
AcDbSymbolTableRecord
100
AcDbBlockTableRecord
  2
*MODEL_SPACE
  0
BLOCK_RECORD
  5
1B
330
1
100
AcDbSymbolTableRecord
100
AcDbBlockTableRecord
  2
*PAPER_SPACE
  0
ENDTAB
  0
ENDSEC
  0
SECTION
  2
BLOCKS
  0
BLOCK
  5
20
330
1F
100
AcDbEntity
  8
0
100
AcDbBlockBegin
  2
*MODEL_SPACE
 70
     0
 10
0.0
 20
0.0
 30
0.0
  3
*MODEL_SPACE
  1

  0
ENDBLK
  5
21
330
1F
100
AcDbEntity
  8
0
100
AcDbBlockEnd
  0
BLOCK
  5
1C
330
1B
100
AcDbEntity
 67
     1
  8
0
100
AcDbBlockBegin
  2
*PAPER_SPACE
  1

  0
ENDBLK
  5
1D
330
1B
100
AcDbEntity
 67
     1
  8
0
100
AcDbBlockEnd
  0
ENDSEC
  0
SECTION
  2
ENTITIES
0
LINE
8
Layer 1
62
4
5
100
100
AcDbEntity
100
AcDbLine
10
161.785749
20
0.754471
30
0.0
11
161.542265
21
-1.759138
31
0.0
0
LINE
8
Layer 1
62
4
5
101
100
AcDbEntity
100
AcDbLine
10
161.542265
20
-1.759138
30
0.0
11
160.844943
21
-4.044466
31
0.0
0
LINE
8
Layer 1
62
4
5
102
100
AcDbEntity
100
AcDbLine
10
160.844943
20
-4.044466
30
0.0
11
159.743477
21
-6.068577
31
0.0
0
LINE
8
Layer 1
62
4
5
103
100
AcDbEntity
100
AcDbLine
10
159.743477
20
-6.068577
30
0.0
11
158.287561
21
-7.798530
31
0.0
0
LINE
8
Layer 1
62
4
5
104
100
AcDbEntity
100
AcDbLine
10
158.287561
20
-7.798530
30
0.0
11
156.526889
21
-9.201388
31
0.0
0
LINE
8
Layer 1
62
4
5
105
100
AcDbEntity
100
AcDbLine
10
156.526889
20
-9.201388
30
0.0
11
154.511156
21
-10.244210
31
0.0
0
LINE
8
Layer 1
62
4
5
106
100
AcDbEntity
100
AcDbLine
10
154.511156
20
-10.244210
30
0.0
11
152.290056
21
-10.894059
31
0.0
0
LINE
8
Layer 1
62
4
5
107
100
AcDbEntity
100
AcDbLine
10
152.290056
20
-10.894059
30
0.0
11
149.913284
21
-11.117995
31
0.0
0
LINE
8
Layer 1
62
4
5
108
100
AcDbEntity
100
AcDbLine
10
149.913284
20
-11.117995
30
0.0
11
65.482716
21
-11.117995
31
0.0
0
LINE
8
Layer 1
62
4
5
109
100
AcDbEntity
100
AcDbLine
10
65.482716
20
-11.117995
30
0.0
11
63.105944
21
-10.874511
31
0.0
0
LINE
8
Layer 1
62
4
5
10a
100
AcDbEntity
100
AcDbLine
10
63.105944
20
-10.874511
30
0.0
11
60.884844
21
-10.177188
31
0.0
0
LINE
8
Layer 1
62
4
5
10b
100
AcDbEntity
100
AcDbLine
10
60.884844
20
-10.177188
30
0.0
11
58.869111
21
-9.075722
31
0.0
0
LINE
8
Layer 1
62
4
5
10c
100
AcDbEntity
100
AcDbLine
10
58.869111
20
-9.075722
30
0.0
11
57.108440
21
-7.619805
31
0.0
0
LINE
8
Layer 1
62
4
5
10d
100
AcDbEntity
100
AcDbLine
10
57.108440
20
-7.619805
30
0.0
11
55.652523
21
-5.859134
31
0.0
0
LINE
8
Layer 1
62
4
5
10e
100
AcDbEntity
100
AcDbLine
10
55.652523
20
-5.859134
30
0.0
11
54.551057
21
-3.843401
31
0.0
0
LINE
8
Layer 1
62
4
5
10f
100
AcDbEntity
100
AcDbLine
10
54.551057
20
-3.843401
30
0.0
11
53.853734
21
-1.622301
31
0.0
0
LINE
8
Layer 1
62
4
5
110
100
AcDbEntity
100
AcDbLine
10
53.853734
20
-1.622301
30
0.0
11
53.610250
21
0.754471
31
0.0
0
LINE
8
Layer 1
62
4
5
111
100
AcDbEntity
100
AcDbLine
10
53.610250
20
0.754471
30
0.0
11
53.610250
21
85.185036
31
0.0
0
LINE
8
Layer 1
62
4
5
112
100
AcDbEntity
100
AcDbLine
10
53.610250
20
85.185036
30
0.0
11
53.833053
21
87.563524
31
0.0
0
LINE
8
Layer 1
62
4
5
113
100
AcDbEntity
100
AcDbLine
10
53.833053
20
87.563524
30
0.0
11
54.475851
21
89.788791
31
0.0
0
LINE
8
Layer 1
62
4
5
114
100
AcDbEntity
100
AcDbLine
10
54.475851
20
89.788791
30
0.0
11
55.500229
21
91.809672
31
0.0
0
LINE
8
Layer 1
62
4
5
115
100
AcDbEntity
100
AcDbLine
10
55.500229
20
91.809672
30
0.0
11
56.867772
21
93.575002
31
0.0
0
LINE
8
Layer 1
62
4
5
116
100
AcDbEntity
100
AcDbLine
10
56.867772
20
93.575002
30
0.0
11
58.540064
21
95.033616
31
0.0
0
LINE
8
Layer 1
62
4
5
117
100
AcDbEntity
100
AcDbLine
10
58.540064
20
95.033616
30
0.0
11
60.478690
21
96.134347
31
0.0
0
LINE
8
Layer 1
62
4
5
118
100
AcDbEntity
100
AcDbLine
10
60.478690
20
96.134347
30
0.0
11
62.645234
21
96.826031
31
0.0
0
LINE
8
Layer 1
62
4
5
119
100
AcDbEntity
100
AcDbLine
10
62.645234
20
96.826031
30
0.0
11
65.001281
21
97.057504
31
0.0
0
LINE
8
Layer 1
62
4
5
11a
100
AcDbEntity
100
AcDbLine
10
65.001281
20
97.057504
30
0.0
11
106.146524
21
96.792714
31
0.0
0
LINE
8
Layer 1
62
4
5
11b
100
AcDbEntity
100
AcDbLine
10
106.146524
20
96.792714
30
0.0
11
106.555260
21
96.781537
31
0.0
0
LINE
8
Layer 1
62
4
5
11c
100
AcDbEntity
100
AcDbLine
10
106.555260
20
96.781537
30
0.0
11
106.717299
21
96.668779
31
0.0
0
LINE
8
Layer 1
62
4
5
11d
100
AcDbEntity
100
AcDbLine
10
106.717299
20
96.668779
30
0.0
11
106.473058
21
96.209249
31
0.0
0
LINE
8
Layer 1
62
4
5
11e
100
AcDbEntity
100
AcDbLine
10
106.473058
20
96.209249
30
0.0
11
98.714348
21
88.627947
31
0.0
0
LINE
8
Layer 1
62
4
5
11f
100
AcDbEntity
100
AcDbLine
10
98.714348
20
88.627947
30
0.0
11
98.290413
21
88.292226
31
0.0
0
LINE
8
Layer 1
62
4
5
120
100
AcDbEntity
100
AcDbLine
10
98.290413
20
88.292226
30
0.0
11
97.982933
21
88.246636
31
0.0
0
LINE
8
Layer 1
62
4
5
121
100
AcDbEntity
100
AcDbLine
10
97.982933
20
88.246636
30
0.0
11
65.001281
21
88.280683
31
0.0
0
LINE
8
Layer 1
62
4
5
122
100
AcDbEntity
100
AcDbLine
10
65.001281
20
88.280683
30
0.0
11
63.760652
21
88.049651
31
0.0
0
LINE
8
Layer 1
62
4
5
123
100
AcDbEntity
100
AcDbLine
10
63.760652
20
88.049651
30
0.0
11
62.778076
21
87.405144
31
0.0
0
LINE
8
Layer 1
62
4
5
124
100
AcDbEntity
100
AcDbLine
10
62.778076
20
87.405144
30
0.0
11
62.133192
21
86.424497
31
0.0
0
LINE
8
Layer 1
62
4
5
125
100
AcDbEntity
100
AcDbLine
10
62.133192
20
86.424497
30
0.0
11
61.905639
21
85.185042
31
0.0
0
LINE
8
Layer 1
62
4
5
126
100
AcDbEntity
100
AcDbLine
10
61.905639
20
85.185042
30
0.0
11
62.387074
21
0.754473
31
0.0
0
LINE
8
Layer 1
62
4
5
127
100
AcDbEntity
100
AcDbLine
10
62.387074
20
0.754473
30
0.0
11
62.623245
21
-0.484707
31
0.0
0
LINE
8
Layer 1
62
4
5
128
100
AcDbEntity
100
AcDbLine
10
62.623245
20
-0.484707
30
0.0
11
63.267172
21
-1.464891
31
0.0
0
LINE
8
Layer 1
62
4
5
129
100
AcDbEntity
100
AcDbLine
10
63.267172
20
-1.464891
30
0.0
11
64.244960
21
-2.109303
31
0.0
0
LINE
8
Layer 1
62
4
5
12a
100
AcDbEntity
100
AcDbLine
10
64.244960
20
-2.109303
30
0.0
11
65.482716
21
-2.341168
31
0.0
0
LINE
8
Layer 1
62
4
5
12b
100
AcDbEntity
100
AcDbLine
10
65.482716
20
-2.341168
30
0.0
11
149.913284
21
-2.341168
31
0.0
0
LINE
8
Layer 1
62
4
5
12c
100
AcDbEntity
100
AcDbLine
10
149.913284
20
-2.341168
30
0.0
11
151.152473
21
-2.109307
31
0.0
0
LINE
8
Layer 1
62
4
5
12d
100
AcDbEntity
100
AcDbLine
10
151.152473
20
-2.109307
30
0.0
11
152.132656
21
-1.464901
31
0.0
0
LINE
8
Layer 1
62
4
5
12e
100
AcDbEntity
100
AcDbLine
10
152.132656
20
-1.464901
30
0.0
11
152.777063
21
-0.484719
31
0.0
0
LINE
8
Layer 1
62
4
5
12f
100
AcDbEntity
100
AcDbLine
10
152.777063
20
-0.484719
30
0.0
11
153.008925
21
0.754473
31
0.0
0
LINE
8
Layer 1
62
4
5
130
100
AcDbEntity
100
AcDbLine
10
153.008925
20
0.754473
30
0.0
11
152.940842
21
15.511718
31
0.0
0
LINE
8
Layer 1
62
4
5
131
100
AcDbEntity
100
AcDbLine
10
152.940842
20
15.511718
30
0.0
11
153.010879
21
15.935719
31
0.0
0
LINE
8
Layer 1
62
4
5
132
100
AcDbEntity
100
AcDbLine
10
153.010879
20
15.935719
30
0.0
11
153.293143
21
16.322170
31
0.0
0
LINE
8
Layer 1
62
4
5
133
100
AcDbEntity
100
AcDbLine
10
153.293143
20
16.322170
30
0.0
11
161.178567
21
24.290139
31
0.0
0
LINE
8
Layer 1
62
4
5
134
100
AcDbEntity
100
AcDbLine
10
161.178567
20
24.290139
30
0.0
11
161.589123
21
24.452199
31
0.0
0
LINE
8
Layer 1
62
4
5
135
100
AcDbEntity
100
AcDbLine
10
161.589123
20
24.452199
30
0.0
11
161.738082
21
24.321038
31
0.0
0
LINE
8
Layer 1
62
4
5
136
100
AcDbEntity
100
AcDbLine
10
161.738082
20
24.321038
30
0.0
11
161.796386
21
24.009602
31
0.0
0
LINE
8
Layer 1
62
4
5
137
100
AcDbEntity
100
AcDbLine
10
141.505229
20
78.452992
30
0.0
11
139.120378
21
78.212708
31
0.0
0
LINE
8
Layer 1
62
4
5
138
100
AcDbEntity
100
AcDbLine
10
139.120378
20
78.212708
30
0.0
11
136.888645
21
77.523739
31
0.0
0
LINE
8
Layer 1
62
4
5
139
100
AcDbEntity
100
AcDbLine
10
136.888645
20
77.523739
30
0.0
11
134.860844
21
76.433904
31
0.0
0
LINE
8
Layer 1
62
4
5
13a
100
AcDbEntity
100
AcDbLine
10
134.860844
20
76.433904
30
0.0
11
133.087789
21
74.991022
31
0.0
0
LINE
8
Layer 1
62
4
5
13b
100
AcDbEntity
100
AcDbLine
10
133.087789
20
74.991022
30
0.0
11
131.620293
21
73.242912
31
0.0
0
LINE
8
Layer 1
62
4
5
13c
100
AcDbEntity
100
AcDbLine
10
131.620293
20
73.242912
30
0.0
11
130.509169
21
71.237394
31
0.0
0
LINE
8
Layer 1
62
4
5
13d
100
AcDbEntity
100
AcDbLine
10
130.509169
20
71.237394
30
0.0
11
129.805231
21
69.022287
31
0.0
0
LINE
8
Layer 1
62
4
5
13e
100
AcDbEntity
100
AcDbLine
10
129.805231
20
69.022287
30
0.0
11
129.559293
21
66.645409
31
0.0
0
LINE
8
Layer 1
62
4
5
13f
100
AcDbEntity
100
AcDbLine
10
129.559293
20
66.645409
30
0.0
11
129.805230
21
64.268556
31
0.0
0
LINE
8
Layer 1
62
4
5
140
100
AcDbEntity
100
AcDbLine
10
129.805230
20
64.268556
30
0.0
11
130.509166
21
62.053511
31
0.0
0
LINE
8
Layer 1
62
4
5
141
100
AcDbEntity
100
AcDbLine
10
130.509166
20
62.053511
30
0.0
11
131.620290
21
60.048081
31
0.0
0
LINE
8
Layer 1
62
4
5
142
100
AcDbEntity
100
AcDbLine
10
131.620290
20
60.048081
30
0.0
11
133.087786
21
58.300073
31
0.0
0
LINE
8
Layer 1
62
4
5
143
100
AcDbEntity
100
AcDbLine
10
133.087786
20
58.300073
30
0.0
11
134.860842
21
56.857293
31
0.0
0
LINE
8
Layer 1
62
4
5
144
100
AcDbEntity
100
AcDbLine
10
134.860842
20
56.857293
30
0.0
11
136.888643
21
55.767546
31
0.0
0
LINE
8
Layer 1
62
4
5
145
100
AcDbEntity
100
AcDbLine
10
136.888643
20
55.767546
30
0.0
11
139.120377
21
55.078640
31
0.0
0
LINE
8
Layer 1
62
4
5
146
100
AcDbEntity
100
AcDbLine
10
139.120377
20
55.078640
30
0.0
11
141.505229
21
54.838380
31
0.0
0
LINE
8
Layer 1
62
4
5
147
100
AcDbEntity
100
AcDbLine
10
141.505229
20
54.838380
30
0.0
11
143.890084
21
55.078637
31
0.0
0
LINE
8
Layer 1
62
4
5
148
100
AcDbEntity
100
AcDbLine
10
143.890084
20
55.078637
30
0.0
11
146.121819
21
55.767542
31
0.0
0
LINE
8
Layer 1
62
4
5
149
100
AcDbEntity
100
AcDbLine
10
146.121819
20
55.767542
30
0.0
11
148.149621
21
56.857288
31
0.0
0
LINE
8
Layer 1
62
4
5
14a
100
AcDbEntity
100
AcDbLine
10
148.149621
20
56.857288
30
0.0
11
149.922676
21
58.300068
31
0.0
0
LINE
8
Layer 1
62
4
5
14b
100
AcDbEntity
100
AcDbLine
10
149.922676
20
58.300068
30
0.0
11
151.390172
21
60.048077
31
0.0
0
LINE
8
Layer 1
62
4
5
14c
100
AcDbEntity
100
AcDbLine
10
151.390172
20
60.048077
30
0.0
11
152.501295
21
62.053507
31
0.0
0
LINE
8
Layer 1
62
4
5
14d
100
AcDbEntity
100
AcDbLine
10
152.501295
20
62.053507
30
0.0
11
153.205231
21
64.268554
31
0.0
0
LINE
8
Layer 1
62
4
5
14e
100
AcDbEntity
100
AcDbLine
10
153.205231
20
64.268554
30
0.0
11
153.451168
21
66.645409
31
0.0
0
LINE
8
Layer 1
62
4
5
14f
100
AcDbEntity
100
AcDbLine
10
153.451168
20
66.645409
30
0.0
11
153.205229
21
69.022288
31
0.0
0
LINE
8
Layer 1
62
4
5
150
100
AcDbEntity
100
AcDbLine
10
153.205229
20
69.022288
30
0.0
11
152.501292
21
71.237397
31
0.0
0
LINE
8
Layer 1
62
4
5
151
100
AcDbEntity
100
AcDbLine
10
152.501292
20
71.237397
30
0.0
11
151.390169
21
73.242916
31
0.0
0
LINE
8
Layer 1
62
4
5
152
100
AcDbEntity
100
AcDbLine
10
151.390169
20
73.242916
30
0.0
11
149.922673
21
74.991026
31
0.0
0
LINE
8
Layer 1
62
4
5
153
100
AcDbEntity
100
AcDbLine
10
149.922673
20
74.991026
30
0.0
11
148.149618
21
76.433909
31
0.0
0
LINE
8
Layer 1
62
4
5
154
100
AcDbEntity
100
AcDbLine
10
148.149618
20
76.433909
30
0.0
11
146.121817
21
77.523743
31
0.0
0
LINE
8
Layer 1
62
4
5
155
100
AcDbEntity
100
AcDbLine
10
146.121817
20
77.523743
30
0.0
11
143.890083
21
78.212711
31
0.0
0
LINE
8
Layer 1
62
4
5
156
100
AcDbEntity
100
AcDbLine
10
143.890083
20
78.212711
30
0.0
11
141.505229
21
78.452992
31
0.0
0
LINE
8
Layer 1
62
4
5
157
100
AcDbEntity
100
AcDbLine
10
141.505229
20
78.452992
30
0.0
11
141.505229
21
78.452992
31
0.0
0
LINE
8
Layer 1
62
4
5
158
100
AcDbEntity
100
AcDbLine
10
141.545468
20
95.201118
30
0.0
11
139.252103
21
95.104206
31
0.0
0
LINE
8
Layer 1
62
4
5
159
100
AcDbEntity
100
AcDbLine
10
139.252103
20
95.104206
30
0.0
11
137.023578
21
94.821740
31
0.0
0
LINE
8
Layer 1
62
4
5
15a
100
AcDbEntity
100
AcDbLine
10
137.023578
20
94.821740
30
0.0
11
134.863663
21
94.366123
31
0.0
0
LINE
8
Layer 1
62
4
5
15b
100
AcDbEntity
100
AcDbLine
10
134.863663
20
94.366123
30
0.0
11
132.776123
21
93.749757
31
0.0
0
LINE
8
Layer 1
62
4
5
15c
100
AcDbEntity
100
AcDbLine
10
132.776123
20
93.749757
30
0.0
11
130.764728
21
92.985048
31
0.0
0
LINE
8
Layer 1
62
4
5
15d
100
AcDbEntity
100
AcDbLine
10
130.764728
20
92.985048
30
0.0
11
128.833245
21
92.084397
31
0.0
0
LINE
8
Layer 1
62
4
5
15e
100
AcDbEntity
100
AcDbLine
10
128.833245
20
92.084397
30
0.0
11
125.225088
21
89.924885
31
0.0
0
LINE
8
Layer 1
62
4
5
15f
100
AcDbEntity
100
AcDbLine
10
125.225088
20
89.924885
30
0.0
11
124.412242
21
89.208692
31
0.0
0
LINE
8
Layer 1
62
4
5
160
100
AcDbEntity
100
AcDbLine
10
124.412242
20
89.208692
30
0.0
11
123.825009
21
88.319843
31
0.0
0
LINE
8
Layer 1
62
4
5
161
100
AcDbEntity
100
AcDbLine
10
123.825009
20
88.319843
30
0.0
11
123.488129
21
87.309196
31
0.0
0
LINE
8
Layer 1
62
4
5
162
100
AcDbEntity
100
AcDbLine
10
123.488129
20
87.309196
30
0.0
11
123.426346
21
86.227608
31
0.0
0
LINE
8
Layer 1
62
4
5
163
100
AcDbEntity
100
AcDbLine
10
123.426346
20
86.227608
30
0.0
11
123.651651
21
85.167944
31
0.0
0
LINE
8
Layer 1
62
4
5
164
100
AcDbEntity
100
AcDbLine
10
123.651651
20
85.167944
30
0.0
11
124.138090
21
84.220172
31
0.0
0
LINE
8
Layer 1
62
4
5
165
100
AcDbEntity
100
AcDbLine
10
124.138090
20
84.220172
30
0.0
11
124.853485
21
83.430802
31
0.0
0
LINE
8
Layer 1
62
4
5
166
100
AcDbEntity
100
AcDbLine
10
124.853485
20
83.430802
30
0.0
11
125.765658
21
82.846344
31
0.0
0
LINE
8
Layer 1
62
4
5
167
100
AcDbEntity
100
AcDbLine
10
125.765658
20
82.846344
30
0.0
11
126.799570
21
82.522807
31
0.0
0
LINE
8
Layer 1
62
4
5
168
100
AcDbEntity
100
AcDbLine
10
126.799570
20
82.522807
30
0.0
11
127.864092
21
82.481713
31
0.0
0
LINE
8
Layer 1
62
4
5
169
100
AcDbEntity
100
AcDbLine
10
127.864092
20
82.481713
30
0.0
11
128.902908
21
82.717840
31
0.0
0
LINE
8
Layer 1
62
4
5
16a
100
AcDbEntity
100
AcDbLine
10
128.902908
20
82.717840
30
0.0
11
129.859704
21
83.225965
31
0.0
0
LINE
8
Layer 1
62
4
5
16b
100
AcDbEntity
100
AcDbLine
10
129.859704
20
83.225965
30
0.0
11
132.531801
21
84.835823
31
0.0
0
LINE
8
Layer 1
62
4
5
16c
100
AcDbEntity
100
AcDbLine
10
132.531801
20
84.835823
30
0.0
11
135.359818
21
86.039750
31
0.0
0
LINE
8
Layer 1
62
4
5
16d
100
AcDbEntity
100
AcDbLine
10
135.359818
20
86.039750
30
0.0
11
138.359220
21
86.794108
31
0.0
0
LINE
8
Layer 1
62
4
5
16e
100
AcDbEntity
100
AcDbLine
10
138.359220
20
86.794108
30
0.0
11
141.545468
21
87.055258
31
0.0
0
LINE
8
Layer 1
62
4
5
16f
100
AcDbEntity
100
AcDbLine
10
141.545468
20
87.055258
30
0.0
11
143.670600
21
86.950934
31
0.0
0
LINE
8
Layer 1
62
4
5
170
100
AcDbEntity
100
AcDbLine
10
143.670600
20
86.950934
30
0.0
11
145.731114
21
86.644712
31
0.0
0
LINE
8
Layer 1
62
4
5
171
100
AcDbEntity
100
AcDbLine
10
145.731114
20
86.644712
30
0.0
11
147.717009
21
86.146713
31
0.0
0
LINE
8
Layer 1
62
4
5
172
100
AcDbEntity
100
AcDbLine
10
147.717009
20
86.146713
30
0.0
11
149.618282
21
85.467060
31
0.0
0
LINE
8
Layer 1
62
4
5
173
100
AcDbEntity
100
AcDbLine
10
149.618282
20
85.467060
30
0.0
11
151.424932
21
84.615875
31
0.0
0
LINE
8
Layer 1
62
4
5
174
100
AcDbEntity
100
AcDbLine
10
151.424932
20
84.615875
30
0.0
11
153.126955
21
83.603281
31
0.0
0
LINE
8
Layer 1
62
4
5
175
100
AcDbEntity
100
AcDbLine
10
153.126955
20
83.603281
30
0.0
11
154.714351
21
82.439400
31
0.0
0
LINE
8
Layer 1
62
4
5
176
100
AcDbEntity
100
AcDbLine
10
154.714351
20
82.439400
30
0.0
11
156.177118
21
81.134355
31
0.0
0
LINE
8
Layer 1
62
4
5
177
100
AcDbEntity
100
AcDbLine
10
156.177118
20
81.134355
30
0.0
11
157.505253
21
79.698268
31
0.0
0
LINE
8
Layer 1
62
4
5
178
100
AcDbEntity
100
AcDbLine
10
157.505253
20
79.698268
30
0.0
11
158.688754
21
78.141261
31
0.0
0
LINE
8
Layer 1
62
4
5
179
100
AcDbEntity
100
AcDbLine
10
158.688754
20
78.141261
30
0.0
11
159.717619
21
76.473456
31
0.0
0
LINE
8
Layer 1
62
4
5
17a
100
AcDbEntity
100
AcDbLine
10
159.717619
20
76.473456
30
0.0
11
160.581847
21
74.704977
31
0.0
0
LINE
8
Layer 1
62
4
5
17b
100
AcDbEntity
100
AcDbLine
10
160.581847
20
74.704977
30
0.0
11
161.271435
21
72.845945
31
0.0
0
LINE
8
Layer 1
62
4
5
17c
100
AcDbEntity
100
AcDbLine
10
161.271435
20
72.845945
30
0.0
11
161.776381
21
70.906484
31
0.0
0
LINE
8
Layer 1
62
4
5
17d
100
AcDbEntity
100
AcDbLine
10
161.776381
20
70.906484
30
0.0
11
162.086684
21
68.896714
31
0.0
0
LINE
8
Layer 1
62
4
5
17e
100
AcDbEntity
100
AcDbLine
10
162.086684
20
68.896714
30
0.0
11
162.192341
21
66.826760
31
0.0
0
LINE
8
Layer 1
62
4
5
17f
100
AcDbEntity
100
AcDbLine
10
162.192341
20
66.826760
30
0.0
11
162.047779
21
64.267284
31
0.0
0
LINE
8
Layer 1
62
4
5
180
100
AcDbEntity
100
AcDbLine
10
162.047779
20
64.267284
30
0.0
11
161.620924
21
61.842122
31
0.0
0
LINE
8
Layer 1
62
4
5
181
100
AcDbEntity
100
AcDbLine
10
161.620924
20
61.842122
30
0.0
11
160.922019
21
59.558410
31
0.0
0
LINE
8
Layer 1
62
4
5
182
100
AcDbEntity
100
AcDbLine
10
160.922019
20
59.558410
30
0.0
11
159.961308
21
57.423283
31
0.0
0
LINE
8
Layer 1
62
4
5
183
100
AcDbEntity
100
AcDbLine
10
159.961308
20
57.423283
30
0.0
11
158.749035
21
55.443877
31
0.0
0
LINE
8
Layer 1
62
4
5
184
100
AcDbEntity
100
AcDbLine
10
158.749035
20
55.443877
30
0.0
11
157.295443
21
53.627327
31
0.0
0
LINE
8
Layer 1
62
4
5
185
100
AcDbEntity
100
AcDbLine
10
157.295443
20
53.627327
30
0.0
11
155.610776
21
51.980770
31
0.0
0
LINE
8
Layer 1
62
4
5
186
100
AcDbEntity
100
AcDbLine
10
155.610776
20
51.980770
30
0.0
11
153.705278
21
50.511341
31
0.0
0
LINE
8
Layer 1
62
4
5
187
100
AcDbEntity
100
AcDbLine
10
153.705278
20
50.511341
30
0.0
11
152.892457
21
49.798142
31
0.0
0
LINE
8
Layer 1
62
4
5
188
100
AcDbEntity
100
AcDbLine
10
152.892457
20
49.798142
30
0.0
11
152.304013
21
48.912376
31
0.0
0
LINE
8
Layer 1
62
4
5
189
100
AcDbEntity
100
AcDbLine
10
152.304013
20
48.912376
30
0.0
11
151.964694
21
47.904551
31
0.0
0
LINE
8
Layer 1
62
4
5
18a
100
AcDbEntity
100
AcDbLine
10
151.964694
20
47.904551
30
0.0
11
151.899247
21
46.825178
31
0.0
0
LINE
8
Layer 1
62
4
5
18b
100
AcDbEntity
100
AcDbLine
10
151.899247
20
46.825178
30
0.0
11
152.119911
21
45.766577
31
0.0
0
LINE
8
Layer 1
62
4
5
18c
100
AcDbEntity
100
AcDbLine
10
152.119911
20
45.766577
30
0.0
11
152.601242
21
44.818332
31
0.0
0
LINE
8
Layer 1
62
4
5
18d
100
AcDbEntity
100
AcDbLine
10
152.601242
20
44.818332
30
0.0
11
153.311454
21
44.026848
31
0.0
0
LINE
8
Layer 1
62
4
5
18e
100
AcDbEntity
100
AcDbLine
10
153.311454
20
44.026848
30
0.0
11
154.218765
21
43.438532
31
0.0
0
LINE
8
Layer 1
62
4
5
18f
100
AcDbEntity
100
AcDbLine
10
154.218765
20
43.438532
30
0.0
11
155.248841
21
43.109484
31
0.0
0
LINE
8
Layer 1
62
4
5
190
100
AcDbEntity
100
AcDbLine
10
155.248841
20
43.109484
30
0.0
11
156.311178
21
43.061656
31
0.0
0
LINE
8
Layer 1
62
4
5
191
100
AcDbEntity
100
AcDbLine
10
156.311178
20
43.061656
30
0.0
11
157.349737
21
43.290225
31
0.0
0
LINE
8
Layer 1
62
4
5
192
100
AcDbEntity
100
AcDbLine
10
157.349737
20
43.290225
30
0.0
11
158.308477
21
43.790371
31
0.0
0
LINE
8
Layer 1
62
4
5
193
100
AcDbEntity
100
AcDbLine
10
158.308477
20
43.790371
30
0.0
11
160.965370
21
45.855259
31
0.0
0
LINE
8
Layer 1
62
4
5
194
100
AcDbEntity
100
AcDbLine
10
160.965370
20
45.855259
30
0.0
11
163.332598
21
48.203869
31
0.0
0
LINE
8
Layer 1
62
4
5
195
100
AcDbEntity
100
AcDbLine
10
163.332598
20
48.203869
30
0.0
11
165.390253
21
50.810722
31
0.0
0
LINE
8
Layer 1
62
4
5
196
100
AcDbEntity
100
AcDbLine
10
165.390253
20
50.810722
30
0.0
11
167.118429
21
53.650335
31
0.0
0
LINE
8
Layer 1
62
4
5
197
100
AcDbEntity
100
AcDbLine
10
167.118429
20
53.650335
30
0.0
11
168.497218
21
56.697226
31
0.0
0
LINE
8
Layer 1
62
4
5
198
100
AcDbEntity
100
AcDbLine
10
168.497218
20
56.697226
30
0.0
11
169.506714
21
59.925915
31
0.0
0
LINE
8
Layer 1
62
4
5
199
100
AcDbEntity
100
AcDbLine
10
169.506714
20
59.925915
30
0.0
11
170.127011
21
63.310920
31
0.0
0
LINE
8
Layer 1
62
4
5
19a
100
AcDbEntity
100
AcDbLine
10
170.127011
20
63.310920
30
0.0
11
170.338200
21
66.826760
31
0.0
0
LINE
8
Layer 1
62
4
5
19b
100
AcDbEntity
100
AcDbLine
10
170.338200
20
66.826760
30
0.0
11
170.188609
21
69.726199
31
0.0
0
LINE
8
Layer 1
62
4
5
19c
100
AcDbEntity
100
AcDbLine
10
170.188609
20
69.726199
30
0.0
11
169.749737
21
72.542265
31
0.0
0
LINE
8
Layer 1
62
4
5
19d
100
AcDbEntity
100
AcDbLine
10
169.749737
20
72.542265
30
0.0
11
169.036430
21
75.260653
31
0.0
0
LINE
8
Layer 1
62
4
5
19e
100
AcDbEntity
100
AcDbLine
10
169.036430
20
75.260653
30
0.0
11
168.063535
21
77.867054
31
0.0
0
LINE
8
Layer 1
62
4
5
19f
100
AcDbEntity
100
AcDbLine
10
168.063535
20
77.867054
30
0.0
11
166.845901
21
80.347161
31
0.0
0
LINE
8
Layer 1
62
4
5
1a0
100
AcDbEntity
100
AcDbLine
10
166.845901
20
80.347161
30
0.0
11
165.398374
21
82.686668
31
0.0
0
LINE
8
Layer 1
62
4
5
1a1
100
AcDbEntity
100
AcDbLine
10
165.398374
20
82.686668
30
0.0
11
163.735802
21
84.871267
31
0.0
0
LINE
8
Layer 1
62
4
5
1a2
100
AcDbEntity
100
AcDbLine
10
163.735802
20
84.871267
30
0.0
11
161.873033
21
86.886651
31
0.0
0
LINE
8
Layer 1
62
4
5
1a3
100
AcDbEntity
100
AcDbLine
10
161.873033
20
86.886651
30
0.0
11
159.824914
21
88.718512
31
0.0
0
LINE
8
Layer 1
62
4
5
1a4
100
AcDbEntity
100
AcDbLine
10
159.824914
20
88.718512
30
0.0
11
157.606293
21
90.352544
31
0.0
0
LINE
8
Layer 1
62
4
5
1a5
100
AcDbEntity
100
AcDbLine
10
157.606293
20
90.352544
30
0.0
11
155.232016
21
91.774440
31
0.0
0
LINE
8
Layer 1
62
4
5
1a6
100
AcDbEntity
100
AcDbLine
10
155.232016
20
91.774440
30
0.0
11
152.716932
21
92.969891
31
0.0
0
LINE
8
Layer 1
62
4
5
1a7
100
AcDbEntity
100
AcDbLine
10
152.716932
20
92.969891
30
0.0
11
150.075887
21
93.924592
31
0.0
0
LINE
8
Layer 1
62
4
5
1a8
100
AcDbEntity
100
AcDbLine
10
150.075887
20
93.924592
30
0.0
11
147.323730
21
94.624235
31
0.0
0
LINE
8
Layer 1
62
4
5
1a9
100
AcDbEntity
100
AcDbLine
10
147.323730
20
94.624235
30
0.0
11
144.475308
21
95.054513
31
0.0
0
LINE
8
Layer 1
62
4
5
1aa
100
AcDbEntity
100
AcDbLine
10
144.475308
20
95.054513
30
0.0
11
141.545468
21
95.201118
31
0.0
0
LINE
8
Layer 1
62
4
5
1ab
100
AcDbEntity
100
AcDbLine
10
141.545468
20
95.201118
30
0.0
11
141.545468
21
95.201118
31
0.0
0
LINE
8
Layer 1
62
4
5
1ac
100
AcDbEntity
100
AcDbLine
10
141.288050
20
109.928488
30
0.0
11
137.808875
21
109.782116
31
0.0
0
LINE
8
Layer 1
62
4
5
1ad
100
AcDbEntity
100
AcDbLine
10
137.808875
20
109.782116
30
0.0
11
134.428987
21
109.354879
31
0.0
0
LINE
8
Layer 1
62
4
5
1ae
100
AcDbEntity
100
AcDbLine
10
134.428987
20
109.354879
30
0.0
11
131.152701
21
108.664597
31
0.0
0
LINE
8
Layer 1
62
4
5
1af
100
AcDbEntity
100
AcDbLine
10
131.152701
20
108.664597
30
0.0
11
127.984327
21
107.729090
31
0.0
0
LINE
8
Layer 1
62
4
5
1b0
100
AcDbEntity
100
AcDbLine
10
127.984327
20
107.729090
30
0.0
11
124.928177
21
106.566179
31
0.0
0
LINE
8
Layer 1
62
4
5
1b1
100
AcDbEntity
100
AcDbLine
10
124.928177
20
106.566179
30
0.0
11
121.988565
21
105.193683
31
0.0
0
LINE
8
Layer 1
62
4
5
1b2
100
AcDbEntity
100
AcDbLine
10
121.988565
20
105.193683
30
0.0
11
119.169801
21
103.629423
31
0.0
0
LINE
8
Layer 1
62
4
5
1b3
100
AcDbEntity
100
AcDbLine
10
119.169801
20
103.629423
30
0.0
11
116.476199
21
101.891218
31
0.0
0
LINE
8
Layer 1
62
4
5
1b4
100
AcDbEntity
100
AcDbLine
10
116.476199
20
101.891218
30
0.0
11
115.663349
21
101.175026
31
0.0
0
LINE
8
Layer 1
62
4
5
1b5
100
AcDbEntity
100
AcDbLine
10
115.663349
20
101.175026
30
0.0
11
115.076112
21
100.286177
31
0.0
0
LINE
8
Layer 1
62
4
5
1b6
100
AcDbEntity
100
AcDbLine
10
115.076112
20
100.286177
30
0.0
11
114.739230
21
99.275529
31
0.0
0
LINE
8
Layer 1
62
4
5
1b7
100
AcDbEntity
100
AcDbLine
10
114.739230
20
99.275529
30
0.0
11
114.677445
21
98.193938
31
0.0
0
LINE
8
Layer 1
62
4
5
1b8
100
AcDbEntity
100
AcDbLine
10
114.677445
20
98.193938
30
0.0
11
114.902750
21
97.134271
31
0.0
0
LINE
8
Layer 1
62
4
5
1b9
100
AcDbEntity
100
AcDbLine
10
114.902750
20
97.134271
30
0.0
11
115.389190
21
96.186497
31
0.0
0
LINE
8
Layer 1
62
4
5
1ba
100
AcDbEntity
100
AcDbLine
10
115.389190
20
96.186497
30
0.0
11
116.104586
21
95.397126
31
0.0
0
LINE
8
Layer 1
62
4
5
1bb
100
AcDbEntity
100
AcDbLine
10
116.104586
20
95.397126
30
0.0
11
117.016762
21
94.812667
31
0.0
0
LINE
8
Layer 1
62
4
5
1bc
100
AcDbEntity
100
AcDbLine
10
117.016762
20
94.812667
30
0.0
11
118.050677
21
94.489131
31
0.0
0
LINE
8
Layer 1
62
4
5
1bd
100
AcDbEntity
100
AcDbLine
10
118.050677
20
94.489131
30
0.0
11
119.115201
21
94.448039
31
0.0
0
LINE
8
Layer 1
62
4
5
1be
100
AcDbEntity
100
AcDbLine
10
119.115201
20
94.448039
30
0.0
11
120.154018
21
94.684169
31
0.0
0
LINE
8
Layer 1
62
4
5
1bf
100
AcDbEntity
100
AcDbLine
10
120.154018
20
94.684169
30
0.0
11
121.110815
21
95.192299
31
0.0
0
LINE
8
Layer 1
62
4
5
1c0
100
AcDbEntity
100
AcDbLine
10
121.110815
20
95.192299
30
0.0
11
123.361587
21
96.648124
31
0.0
0
LINE
8
Layer 1
62
4
5
1c1
100
AcDbEntity
100
AcDbLine
10
123.361587
20
96.648124
30
0.0
11
125.687120
21
97.945110
31
0.0
0
LINE
8
Layer 1
62
4
5
1c2
100
AcDbEntity
100
AcDbLine
10
125.687120
20
97.945110
30
0.0
11
128.088803
21
99.072388
31
0.0
0
LINE
8
Layer 1
62
4
5
1c3
100
AcDbEntity
100
AcDbLine
10
128.088803
20
99.072388
30
0.0
11
130.568023
21
100.019084
31
0.0
0
LINE
8
Layer 1
62
4
5
1c4
100
AcDbEntity
100
AcDbLine
10
130.568023
20
100.019084
30
0.0
11
133.126169
21
100.774328
31
0.0
0
LINE
8
Layer 1
62
4
5
1c5
100
AcDbEntity
100
AcDbLine
10
133.126169
20
100.774328
30
0.0
11
135.764630
21
101.327247
31
0.0
0
LINE
8
Layer 1
62
4
5
1c6
100
AcDbEntity
100
AcDbLine
10
135.764630
20
101.327247
30
0.0
11
138.484794
21
101.666971
31
0.0
0
LINE
8
Layer 1
62
4
5
1c7
100
AcDbEntity
100
AcDbLine
10
138.484794
20
101.666971
30
0.0
11
141.288050
21
101.782629
31
0.0
0
LINE
8
Layer 1
62
4
5
1c8
100
AcDbEntity
100
AcDbLine
10
141.288050
20
101.782629
30
0.0
11
144.945949
21
101.602213
31
0.0
0
LINE
8
Layer 1
62
4
5
1c9
100
AcDbEntity
100
AcDbLine
10
144.945949
20
101.602213
30
0.0
11
148.494958
21
101.072652
31
0.0
0
LINE
8
Layer 1
62
4
5
1ca
100
AcDbEntity
100
AcDbLine
10
148.494958
20
101.072652
30
0.0
11
151.917538
21
100.211479
31
0.0
0
LINE
8
Layer 1
62
4
5
1cb
100
AcDbEntity
100
AcDbLine
10
151.917538
20
100.211479
30
0.0
11
155.196152
21
99.036225
31
0.0
0
LINE
8
Layer 1
62
4
5
1cc
100
AcDbEntity
100
AcDbLine
10
155.196152
20
99.036225
30
0.0
11
158.313261
21
97.564421
31
0.0
0
LINE
8
Layer 1
62
4
5
1cd
100
AcDbEntity
100
AcDbLine
10
158.313261
20
97.564421
30
0.0
11
161.251328
21
95.813599
31
0.0
0
LINE
8
Layer 1
62
4
5
1ce
100
AcDbEntity
100
AcDbLine
10
161.251328
20
95.813599
30
0.0
11
163.992815
21
93.801290
31
0.0
0
LINE
8
Layer 1
62
4
5
1cf
100
AcDbEntity
100
AcDbLine
10
163.992815
20
93.801290
30
0.0
11
166.520184
21
91.545025
31
0.0
0
LINE
8
Layer 1
62
4
5
1d0
100
AcDbEntity
100
AcDbLine
10
166.520184
20
91.545025
30
0.0
11
168.815896
21
89.062337
31
0.0
0
LINE
8
Layer 1
62
4
5
1d1
100
AcDbEntity
100
AcDbLine
10
168.815896
20
89.062337
30
0.0
11
170.862415
21
86.370755
31
0.0
0
LINE
8
Layer 1
62
4
5
1d2
100
AcDbEntity
100
AcDbLine
10
170.862415
20
86.370755
30
0.0
11
172.642201
21
83.487813
31
0.0
0
LINE
8
Layer 1
62
4
5
1d3
100
AcDbEntity
100
AcDbLine
10
172.642201
20
83.487813
30
0.0
11
174.137718
21
80.431041
31
0.0
0
LINE
8
Layer 1
62
4
5
1d4
100
AcDbEntity
100
AcDbLine
10
174.137718
20
80.431041
30
0.0
11
175.331426
21
77.217971
31
0.0
0
LINE
8
Layer 1
62
4
5
1d5
100
AcDbEntity
100
AcDbLine
10
175.331426
20
77.217971
30
0.0
11
176.205789
21
73.866134
31
0.0
0
LINE
8
Layer 1
62
4
5
1d6
100
AcDbEntity
100
AcDbLine
10
176.205789
20
73.866134
30
0.0
11
176.743268
21
70.393062
31
0.0
0
LINE
8
Layer 1
62
4
5
1d7
100
AcDbEntity
100
AcDbLine
10
176.743268
20
70.393062
30
0.0
11
176.926325
21
66.816286
31
0.0
0
LINE
8
Layer 1
62
4
5
1d8
100
AcDbEntity
100
AcDbLine
10
176.926325
20
66.816286
30
0.0
11
176.673896
21
62.414663
31
0.0
0
LINE
8
Layer 1
62
4
5
1d9
100
AcDbEntity
100
AcDbLine
10
176.673896
20
62.414663
30
0.0
11
175.929532
21
58.227754
31
0.0
0
LINE
8
Layer 1
62
4
5
1da
100
AcDbEntity
100
AcDbLine
10
175.929532
20
58.227754
30
0.0
11
174.712618
21
54.272586
31
0.0
0
LINE
8
Layer 1
62
4
5
1db
100
AcDbEntity
100
AcDbLine
10
174.712618
20
54.272586
30
0.0
11
173.042538
21
50.566182
31
0.0
0
LINE
8
Layer 1
62
4
5
1dc
100
AcDbEntity
100
AcDbLine
10
173.042538
20
50.566182
30
0.0
11
170.938676
21
47.125568
31
0.0
0
LINE
8
Layer 1
62
4
5
1dd
100
AcDbEntity
100
AcDbLine
10
170.938676
20
47.125568
30
0.0
11
168.420418
21
43.967768
31
0.0
0
LINE
8
Layer 1
62
4
5
1de
100
AcDbEntity
100
AcDbLine
10
168.420418
20
43.967768
30
0.0
11
165.507146
21
41.109807
31
0.0
0
LINE
8
Layer 1
62
4
5
1df
100
AcDbEntity
100
AcDbLine
10
165.507146
20
41.109807
30
0.0
11
162.218246
21
38.568709
31
0.0
0
LINE
8
Layer 1
62
4
5
1e0
100
AcDbEntity
100
AcDbLine
10
162.218246
20
38.568709
30
0.0
11
161.405400
21
37.855517
31
0.0
0
LINE
8
Layer 1
62
4
5
1e1
100
AcDbEntity
100
AcDbLine
10
161.405400
20
37.855517
30
0.0
11
160.816935
21
36.969748
31
0.0
0
LINE
8
Layer 1
62
4
5
1e2
100
AcDbEntity
100
AcDbLine
10
160.816935
20
36.969748
30
0.0
11
160.477599
21
35.961914
31
0.0
0
LINE
8
Layer 1
62
4
5
1e3
100
AcDbEntity
100
AcDbLine
10
160.477599
20
35.961914
30
0.0
11
160.412141
21
34.882527
31
0.0
0
LINE
8
Layer 1
62
4
5
1e4
100
AcDbEntity
100
AcDbLine
10
160.412141
20
34.882527
30
0.0
11
160.632803
21
33.823911
31
0.0
0
LINE
8
Layer 1
62
4
5
1e5
100
AcDbEntity
100
AcDbLine
10
160.632803
20
33.823911
30
0.0
11
161.114138
21
32.875652
31
0.0
0
LINE
8
Layer 1
62
4
5
1e6
100
AcDbEntity
100
AcDbLine
10
161.114138
20
32.875652
30
0.0
11
161.824361
21
32.084159
31
0.0
0
LINE
8
Layer 1
62
4
5
1e7
100
AcDbEntity
100
AcDbLine
10
161.824361
20
32.084159
30
0.0
11
162.731688
21
31.495840
31
0.0
0
LINE
8
Layer 1
62
4
5
1e8
100
AcDbEntity
100
AcDbLine
10
162.731688
20
31.495840
30
0.0
11
163.761781
21
31.166797
31
0.0
0
LINE
8
Layer 1
62
4
5
1e9
100
AcDbEntity
100
AcDbLine
10
163.761781
20
31.166797
30
0.0
11
164.824133
21
31.118982
31
0.0
0
LINE
8
Layer 1
62
4
5
1ea
100
AcDbEntity
100
AcDbLine
10
164.824133
20
31.118982
30
0.0
11
165.862702
21
31.347571
31
0.0
0
LINE
8
Layer 1
62
4
5
1eb
100
AcDbEntity
100
AcDbLine
10
165.862702
20
31.347571
30
0.0
11
166.821445
21
31.847742
31
0.0
0
LINE
8
Layer 1
62
4
5
1ec
100
AcDbEntity
100
AcDbLine
10
166.821445
20
31.847742
30
0.0
11
168.895341
21
33.360878
31
0.0
0
LINE
8
Layer 1
62
4
5
1ed
100
AcDbEntity
100
AcDbLine
10
168.895341
20
33.360878
30
0.0
11
170.861764
21
34.984299
31
0.0
0
LINE
8
Layer 1
62
4
5
1ee
100
AcDbEntity
100
AcDbLine
10
170.861764
20
34.984299
30
0.0
11
172.717081
21
36.713584
31
0.0
0
LINE
8
Layer 1
62
4
5
1ef
100
AcDbEntity
100
AcDbLine
10
172.717081
20
36.713584
30
0.0
11
174.457658
21
38.544313
31
0.0
0
LINE
8
Layer 1
62
4
5
1f0
100
AcDbEntity
100
AcDbLine
10
174.457658
20
38.544313
30
0.0
11
176.079865
21
40.472064
31
0.0
0
LINE
8
Layer 1
62
4
5
1f1
100
AcDbEntity
100
AcDbLine
10
176.079865
20
40.472064
30
0.0
11
177.580068
21
42.492416
31
0.0
0
LINE
8
Layer 1
62
4
5
1f2
100
AcDbEntity
100
AcDbLine
10
177.580068
20
42.492416
30
0.0
11
178.954635
21
44.600947
31
0.0
0
LINE
8
Layer 1
62
4
5
1f3
100
AcDbEntity
100
AcDbLine
10
178.954635
20
44.600947
30
0.0
11
180.199933
21
46.793236
31
0.0
0
LINE
8
Layer 1
62
4
5
1f4
100
AcDbEntity
100
AcDbLine
10
180.199933
20
46.793236
30
0.0
11
181.312330
21
49.064862
31
0.0
0
LINE
8
Layer 1
62
4
5
1f5
100
AcDbEntity
100
AcDbLine
10
181.312330
20
49.064862
30
0.0
11
182.288193
21
51.411403
31
0.0
0
LINE
8
Layer 1
62
4
5
1f6
100
AcDbEntity
100
AcDbLine
10
182.288193
20
51.411403
30
0.0
11
183.123889
21
53.828439
31
0.0
0
LINE
8
Layer 1
62
4
5
1f7
100
AcDbEntity
100
AcDbLine
10
183.123889
20
53.828439
30
0.0
11
183.815787
21
56.311548
31
0.0
0
LINE
8
Layer 1
62
4
5
1f8
100
AcDbEntity
100
AcDbLine
10
183.815787
20
56.311548
30
0.0
11
184.360252
21
58.856308
31
0.0
0
LINE
8
Layer 1
62
4
5
1f9
100
AcDbEntity
100
AcDbLine
10
184.360252
20
58.856308
30
0.0
11
184.753654
21
61.458299
31
0.0
0
LINE
8
Layer 1
62
4
5
1fa
100
AcDbEntity
100
AcDbLine
10
184.753654
20
61.458299
30
0.0
11
184.992359
21
64.113099
31
0.0
0
LINE
8
Layer 1
62
4
5
1fb
100
AcDbEntity
100
AcDbLine
10
184.992359
20
64.113099
30
0.0
11
185.072734
21
66.816286
31
0.0
0
LINE
8
Layer 1
62
4
5
1fc
100
AcDbEntity
100
AcDbLine
10
185.072734
20
66.816286
30
0.0
11
184.845738
21
71.222547
31
0.0
0
LINE
8
Layer 1
62
4
5
1fd
100
AcDbEntity
100
AcDbLine
10
184.845738
20
71.222547
30
0.0
11
184.179671
21
75.501916
31
0.0
0
LINE
8
Layer 1
62
4
5
1fe
100
AcDbEntity
100
AcDbLine
10
184.179671
20
75.501916
30
0.0
11
183.096921
21
79.632679
31
0.0
0
LINE
8
Layer 1
62
4
5
1ff
100
AcDbEntity
100
AcDbLine
10
183.096921
20
79.632679
30
0.0
11
181.619871
21
83.593118
31
0.0
0
LINE
8
Layer 1
62
4
5
200
100
AcDbEntity
100
AcDbLine
10
181.619871
20
83.593118
30
0.0
11
179.770906
21
87.361518
31
0.0
0
LINE
8
Layer 1
62
4
5
201
100
AcDbEntity
100
AcDbLine
10
179.770906
20
87.361518
30
0.0
11
177.572411
21
90.916163
31
0.0
0
LINE
8
Layer 1
62
4
5
202
100
AcDbEntity
100
AcDbLine
10
177.572411
20
90.916163
30
0.0
11
175.046773
21
94.235335
31
0.0
0
LINE
8
Layer 1
62
4
5
203
100
AcDbEntity
100
AcDbLine
10
175.046773
20
94.235335
30
0.0
11
172.216374
21
97.297320
31
0.0
0
LINE
8
Layer 1
62
4
5
204
100
AcDbEntity
100
AcDbLine
10
172.216374
20
97.297320
30
0.0
11
169.103602
21
100.080401
31
0.0
0
LINE
8
Layer 1
62
4
5
205
100
AcDbEntity
100
AcDbLine
10
169.103602
20
100.080401
30
0.0
11
165.730840
21
102.562861
31
0.0
0
LINE
8
Layer 1
62
4
5
206
100
AcDbEntity
100
AcDbLine
10
165.730840
20
102.562861
30
0.0
11
162.120473
21
104.722985
31
0.0
0
LINE
8
Layer 1
62
4
5
207
100
AcDbEntity
100
AcDbLine
10
162.120473
20
104.722985
30
0.0
11
158.294887
21
106.539056
31
0.0
0
LINE
8
Layer 1
62
4
5
208
100
AcDbEntity
100
AcDbLine
10
158.294887
20
106.539056
30
0.0
11
154.276467
21
107.989358
31
0.0
0
LINE
8
Layer 1
62
4
5
209
100
AcDbEntity
100
AcDbLine
10
154.276467
20
107.989358
30
0.0
11
150.087597
21
109.052175
31
0.0
0
LINE
8
Layer 1
62
4
5
20a
100
AcDbEntity
100
AcDbLine
10
150.087597
20
109.052175
30
0.0
11
145.750663
21
109.705790
31
0.0
0
LINE
8
Layer 1
62
4
5
20b
100
AcDbEntity
100
AcDbLine
10
145.750663
20
109.705790
30
0.0
11
141.288050
21
109.928488
31
0.0
0
LINE
8
Layer 1
62
4
5
20c
100
AcDbEntity
100
AcDbLine
10
141.288050
20
109.928488
30
0.0
11
141.288050
21
109.928488
31
0.0
0
LINE
8
Layer 1
62
4
5
20d
100
AcDbEntity
100
AcDbLine
10
66.423619
20
50.768236
30
0.0
11
66.423619
21
64.909664
31
0.0
0
LINE
8
Layer 1
62
4
5
20e
100
AcDbEntity
100
AcDbLine
10
66.423619
20
64.909664
30
0.0
11
71.758006
21
64.909664
31
0.0
0
LINE
8
Layer 1
62
4
5
20f
100
AcDbEntity
100
AcDbLine
10
71.758006
20
64.909664
30
0.0
11
73.909123
21
64.774615
31
0.0
0
LINE
8
Layer 1
62
4
5
210
100
AcDbEntity
100
AcDbLine
10
73.909123
20
64.774615
30
0.0
11
74.866516
21
64.521401
31
0.0
0
LINE
8
Layer 1
62
4
5
211
100
AcDbEntity
100
AcDbLine
10
74.866516
20
64.521401
30
0.0
11
75.655097
21
64.109022
31
0.0
0
LINE
8
Layer 1
62
4
5
212
100
AcDbEntity
100
AcDbLine
10
75.655097
20
64.109022
30
0.0
11
76.289340
21
63.527835
31
0.0
0
LINE
8
Layer 1
62
4
5
213
100
AcDbEntity
100
AcDbLine
10
76.289340
20
63.527835
30
0.0
11
76.783712
21
62.748900
31
0.0
0
LINE
8
Layer 1
62
4
5
214
100
AcDbEntity
100
AcDbLine
10
76.783712
20
62.748900
30
0.0
11
77.109272
21
61.827681
31
0.0
0
LINE
8
Layer 1
62
4
5
215
100
AcDbEntity
100
AcDbLine
10
77.109272
20
61.827681
30
0.0
11
77.217792
21
60.819646
31
0.0
0
LINE
8
Layer 1
62
4
5
216
100
AcDbEntity
100
AcDbLine
10
77.217792
20
60.819646
30
0.0
11
77.146048
21
59.952085
31
0.0
0
LINE
8
Layer 1
62
4
5
217
100
AcDbEntity
100
AcDbLine
10
77.146048
20
59.952085
30
0.0
11
76.930816
21
59.153253
31
0.0
0
LINE
8
Layer 1
62
4
5
218
100
AcDbEntity
100
AcDbLine
10
76.930816
20
59.153253
30
0.0
11
76.572096
21
58.423151
31
0.0
0
LINE
8
Layer 1
62
4
5
219
100
AcDbEntity
100
AcDbLine
10
76.572096
20
58.423151
30
0.0
11
76.069887
21
57.761779
31
0.0
0
LINE
8
Layer 1
62
4
5
21a
100
AcDbEntity
100
AcDbLine
10
76.069887
20
57.761779
30
0.0
11
75.380179
21
57.217368
31
0.0
0
LINE
8
Layer 1
62
4
5
21b
100
AcDbEntity
100
AcDbLine
10
75.380179
20
57.217368
30
0.0
11
74.458961
21
56.828503
31
0.0
0
LINE
8
Layer 1
62
4
5
21c
100
AcDbEntity
100
AcDbLine
10
74.458961
20
56.828503
30
0.0
11
73.306233
21
56.595184
31
0.0
0
LINE
8
Layer 1
62
4
5
21d
100
AcDbEntity
100
AcDbLine
10
73.306233
20
56.595184
30
0.0
11
71.921994
21
56.517411
31
0.0
0
LINE
8
Layer 1
62
4
5
21e
100
AcDbEntity
100
AcDbLine
10
71.921994
20
56.517411
30
0.0
11
68.294995
21
56.517411
31
0.0
0
LINE
8
Layer 1
62
4
5
21f
100
AcDbEntity
100
AcDbLine
10
68.294995
20
56.517411
30
0.0
11
68.294995
21
50.768236
31
0.0
0
LINE
8
Layer 1
62
4
5
220
100
AcDbEntity
100
AcDbLine
10
68.294995
20
50.768236
30
0.0
11
66.423619
21
50.768236
31
0.0
0
LINE
8
Layer 1
62
4
5
221
100
AcDbEntity
100
AcDbLine
10
66.423619
20
50.768236
30
0.0
11
66.423619
21
50.768236
31
0.0
0
LINE
8
Layer 1
62
4
5
222
100
AcDbEntity
100
AcDbLine
10
68.294995
20
58.186216
30
0.0
11
71.950930
21
58.186216
31
0.0
0
LINE
8
Layer 1
62
4
5
223
100
AcDbEntity
100
AcDbLine
10
71.950930
20
58.186216
30
0.0
11
73.501569
21
58.355025
31
0.0
0
LINE
8
Layer 1
62
4
5
224
100
AcDbEntity
100
AcDbLine
10
73.501569
20
58.355025
30
0.0
11
74.526484
21
58.861452
31
0.0
0
LINE
8
Layer 1
62
4
5
225
100
AcDbEntity
100
AcDbLine
10
74.526484
20
58.861452
30
0.0
11
75.098027
21
59.674151
31
0.0
0
LINE
8
Layer 1
62
4
5
226
100
AcDbEntity
100
AcDbLine
10
75.098027
20
59.674151
30
0.0
11
75.288541
21
60.761767
31
0.0
0
LINE
8
Layer 1
62
4
5
227
100
AcDbEntity
100
AcDbLine
10
75.288541
20
60.761767
30
0.0
11
75.175197
21
61.584112
31
0.0
0
LINE
8
Layer 1
62
4
5
228
100
AcDbEntity
100
AcDbLine
10
75.175197
20
61.584112
30
0.0
11
74.835165
21
62.276231
31
0.0
0
LINE
8
Layer 1
62
4
5
229
100
AcDbEntity
100
AcDbLine
10
74.835165
20
62.276231
30
0.0
11
74.319090
21
62.804365
31
0.0
0
LINE
8
Layer 1
62
4
5
22a
100
AcDbEntity
100
AcDbLine
10
74.319090
20
62.804365
30
0.0
11
73.658321
21
63.115458
31
0.0
0
LINE
8
Layer 1
62
4
5
22b
100
AcDbEntity
100
AcDbLine
10
73.658321
20
63.115458
30
0.0
11
71.912347
21
63.240858
31
0.0
0
LINE
8
Layer 1
62
4
5
22c
100
AcDbEntity
100
AcDbLine
10
71.912347
20
63.240858
30
0.0
11
68.294995
21
63.240858
31
0.0
0
LINE
8
Layer 1
62
4
5
22d
100
AcDbEntity
100
AcDbLine
10
68.294995
20
63.240858
30
0.0
11
68.294995
21
58.186216
31
0.0
0
LINE
8
Layer 1
62
4
5
22e
100
AcDbEntity
100
AcDbLine
10
68.294995
20
58.186216
30
0.0
11
68.294995
21
58.186216
31
0.0
0
LINE
8
Layer 1
62
4
5
22f
100
AcDbEntity
100
AcDbLine
10
79.359263
20
50.768236
30
0.0
11
79.359263
21
64.909664
31
0.0
0
LINE
8
Layer 1
62
4
5
230
100
AcDbEntity
100
AcDbLine
10
79.359263
20
64.909664
30
0.0
11
81.095593
21
64.909664
31
0.0
0
LINE
8
Layer 1
62
4
5
231
100
AcDbEntity
100
AcDbLine
10
81.095593
20
64.909664
30
0.0
11
81.095593
21
50.768236
31
0.0
0
LINE
8
Layer 1
62
4
5
232
100
AcDbEntity
100
AcDbLine
10
81.095593
20
50.768236
30
0.0
11
79.359263
21
50.768236
31
0.0
0
LINE
8
Layer 1
62
4
5
233
100
AcDbEntity
100
AcDbLine
10
79.359263
20
50.768236
30
0.0
11
79.359263
21
50.768236
31
0.0
0
LINE
8
Layer 1
62
4
5
234
100
AcDbEntity
100
AcDbLine
10
90.809383
20
54.067259
30
0.0
11
92.603591
21
53.845395
31
0.0
0
LINE
8
Layer 1
62
4
5
235
100
AcDbEntity
100
AcDbLine
10
92.603591
20
53.845395
30
0.0
11
91.998287
21
52.449098
31
0.0
0
LINE
8
Layer 1
62
4
5
236
100
AcDbEntity
100
AcDbLine
10
91.998287
20
52.449098
30
0.0
11
91.031249
21
51.404890
31
0.0
0
LINE
8
Layer 1
62
4
5
237
100
AcDbEntity
100
AcDbLine
10
91.031249
20
51.404890
30
0.0
11
89.724178
21
50.753765
31
0.0
0
LINE
8
Layer 1
62
4
5
238
100
AcDbEntity
100
AcDbLine
10
89.724178
20
50.753765
30
0.0
11
88.098782
21
50.536724
31
0.0
0
LINE
8
Layer 1
62
4
5
239
100
AcDbEntity
100
AcDbLine
10
88.098782
20
50.536724
30
0.0
11
87.032870
21
50.622937
31
0.0
0
LINE
8
Layer 1
62
4
5
23a
100
AcDbEntity
100
AcDbLine
10
87.032870
20
50.622937
30
0.0
11
86.082712
21
50.881578
31
0.0
0
LINE
8
Layer 1
62
4
5
23b
100
AcDbEntity
100
AcDbLine
10
86.082712
20
50.881578
30
0.0
11
85.248311
21
51.312646
31
0.0
0
LINE
8
Layer 1
62
4
5
23c
100
AcDbEntity
100
AcDbLine
10
85.248311
20
51.312646
30
0.0
11
84.529665
21
51.916141
31
0.0
0
LINE
8
Layer 1
62
4
5
23d
100
AcDbEntity
100
AcDbLine
10
84.529665
20
51.916141
30
0.0
11
83.955711
21
52.680004
31
0.0
0
LINE
8
Layer 1
62
4
5
23e
100
AcDbEntity
100
AcDbLine
10
83.955711
20
52.680004
30
0.0
11
83.545745
21
53.582533
31
0.0
0
LINE
8
Layer 1
62
4
5
23f
100
AcDbEntity
100
AcDbLine
10
83.545745
20
53.582533
30
0.0
11
83.299765
21
54.623727
31
0.0
0
LINE
8
Layer 1
62
4
5
240
100
AcDbEntity
100
AcDbLine
10
83.299765
20
54.623727
30
0.0
11
83.217772
21
55.803586
31
0.0
0
LINE
8
Layer 1
62
4
5
241
100
AcDbEntity
100
AcDbLine
10
83.217772
20
55.803586
30
0.0
11
83.300971
21
57.023839
31
0.0
0
LINE
8
Layer 1
62
4
5
242
100
AcDbEntity
100
AcDbLine
10
83.300971
20
57.023839
30
0.0
11
83.550568
21
58.099398
31
0.0
0
LINE
8
Layer 1
62
4
5
243
100
AcDbEntity
100
AcDbLine
10
83.550568
20
58.099398
30
0.0
11
83.966564
21
59.030263
31
0.0
0
LINE
8
Layer 1
62
4
5
244
100
AcDbEntity
100
AcDbLine
10
83.966564
20
59.030263
30
0.0
11
84.548957
21
59.816433
31
0.0
0
LINE
8
Layer 1
62
4
5
245
100
AcDbEntity
100
AcDbLine
10
84.548957
20
59.816433
30
0.0
11
85.263986
21
60.441030
31
0.0
0
LINE
8
Layer 1
62
4
5
246
100
AcDbEntity
100
AcDbLine
10
85.263986
20
60.441030
30
0.0
11
86.077889
21
60.887170
31
0.0
0
LINE
8
Layer 1
62
4
5
247
100
AcDbEntity
100
AcDbLine
10
86.077889
20
60.887170
30
0.0
11
86.990667
21
61.154854
31
0.0
0
LINE
8
Layer 1
62
4
5
248
100
AcDbEntity
100
AcDbLine
10
86.990667
20
61.154854
30
0.0
11
88.002319
21
61.244082
31
0.0
0
LINE
8
Layer 1
62
4
5
249
100
AcDbEntity
100
AcDbLine
10
88.002319
20
61.244082
30
0.0
11
88.982622
21
61.156663
31
0.0
0
LINE
8
Layer 1
62
4
5
24a
100
AcDbEntity
100
AcDbLine
10
88.982622
20
61.156663
30
0.0
11
89.868873
21
60.894405
31
0.0
0
LINE
8
Layer 1
62
4
5
24b
100
AcDbEntity
100
AcDbLine
10
89.868873
20
60.894405
30
0.0
11
90.661073
21
60.457308
31
0.0
0
LINE
8
Layer 1
62
4
5
24c
100
AcDbEntity
100
AcDbLine
10
90.661073
20
60.457308
30
0.0
11
91.359222
21
59.845372
31
0.0
0
LINE
8
Layer 1
62
4
5
24d
100
AcDbEntity
100
AcDbLine
10
91.359222
20
59.845372
30
0.0
11
91.928954
21
59.074877
31
0.0
0
LINE
8
Layer 1
62
4
5
24e
100
AcDbEntity
100
AcDbLine
10
91.928954
20
59.074877
30
0.0
11
92.335905
21
58.162099
31
0.0
0
LINE
8
Layer 1
62
4
5
24f
100
AcDbEntity
100
AcDbLine
10
92.335905
20
58.162099
30
0.0
11
92.580076
21
57.107039
31
0.0
0
LINE
8
Layer 1
62
4
5
250
100
AcDbEntity
100
AcDbLine
10
92.580076
20
57.107039
30
0.0
11
92.661466
21
55.909696
31
0.0
0
LINE
8
Layer 1
62
4
5
251
100
AcDbEntity
100
AcDbLine
10
92.661466
20
55.909696
30
0.0
11
92.651814
21
55.446676
31
0.0
0
LINE
8
Layer 1
62
4
5
252
100
AcDbEntity
100
AcDbLine
10
92.651814
20
55.446676
30
0.0
11
85.011971
21
55.446676
31
0.0
0
LINE
8
Layer 1
62
4
5
253
100
AcDbEntity
100
AcDbLine
10
85.011971
20
55.446676
30
0.0
11
85.298948
21
53.956327
31
0.0
0
LINE
8
Layer 1
62
4
5
254
100
AcDbEntity
100
AcDbLine
10
85.298948
20
53.956327
30
0.0
11
85.966952
21
52.861476
31
0.0
0
LINE
8
Layer 1
62
4
5
255
100
AcDbEntity
100
AcDbLine
10
85.966952
20
52.861476
30
0.0
11
86.931578
21
52.188649
31
0.0
0
LINE
8
Layer 1
62
4
5
256
100
AcDbEntity
100
AcDbLine
10
86.931578
20
52.188649
30
0.0
11
88.108423
21
51.964373
31
0.0
0
LINE
8
Layer 1
62
4
5
257
100
AcDbEntity
100
AcDbLine
10
88.108423
20
51.964373
30
0.0
11
88.993468
21
52.089774
31
0.0
0
LINE
8
Layer 1
62
4
5
258
100
AcDbEntity
100
AcDbLine
10
88.993468
20
52.089774
30
0.0
11
89.738643
21
52.465978
31
0.0
0
LINE
8
Layer 1
62
4
5
259
100
AcDbEntity
100
AcDbLine
10
89.738643
20
52.465978
30
0.0
11
90.343946
21
53.117102
31
0.0
0
LINE
8
Layer 1
62
4
5
25a
100
AcDbEntity
100
AcDbLine
10
90.343946
20
53.117102
30
0.0
11
90.809377
21
54.067259
31
0.0
0
LINE
8
Layer 1
62
4
5
25b
100
AcDbEntity
100
AcDbLine
10
90.809377
20
54.067259
30
0.0
11
90.809383
21
54.067259
31
0.0
0
LINE
8
Layer 1
62
4
5
25c
100
AcDbEntity
100
AcDbLine
10
85.108440
20
56.874323
30
0.0
11
90.828676
21
56.874323
31
0.0
0
LINE
8
Layer 1
62
4
5
25d
100
AcDbEntity
100
AcDbLine
10
90.828676
20
56.874323
30
0.0
11
90.606812
21
58.005348
31
0.0
0
LINE
8
Layer 1
62
4
5
25e
100
AcDbEntity
100
AcDbLine
10
90.606812
20
58.005348
30
0.0
11
90.172729
21
58.813223
31
0.0
0
LINE
8
Layer 1
62
4
5
25f
100
AcDbEntity
100
AcDbLine
10
90.172729
20
58.813223
30
0.0
11
89.220161
21
59.565631
31
0.0
0
LINE
8
Layer 1
62
4
5
260
100
AcDbEntity
100
AcDbLine
10
89.220161
20
59.565631
30
0.0
11
88.021612
21
59.816433
31
0.0
0
LINE
8
Layer 1
62
4
5
261
100
AcDbEntity
100
AcDbLine
10
88.021612
20
59.816433
30
0.0
11
86.919526
21
59.616273
31
0.0
0
LINE
8
Layer 1
62
4
5
262
100
AcDbEntity
100
AcDbLine
10
86.919526
20
59.616273
30
0.0
11
86.005543
21
59.015794
31
0.0
0
LINE
8
Layer 1
62
4
5
263
100
AcDbEntity
100
AcDbLine
10
86.005543
20
59.015794
30
0.0
11
85.376125
21
58.080107
31
0.0
0
LINE
8
Layer 1
62
4
5
264
100
AcDbEntity
100
AcDbLine
10
85.376125
20
58.080107
30
0.0
11
85.108440
21
56.874323
31
0.0
0
LINE
8
Layer 1
62
4
5
265
100
AcDbEntity
100
AcDbLine
10
85.108440
20
56.874323
30
0.0
11
85.108440
21
56.874323
31
0.0
0
LINE
8
Layer 1
62
4
5
266
100
AcDbEntity
100
AcDbLine
10
101.478156
20
52.031898
30
0.0
11
100.530410
21
51.332542
31
0.0
0
LINE
8
Layer 1
62
4
5
267
100
AcDbEntity
100
AcDbLine
10
100.530410
20
51.332542
30
0.0
11
99.616427
21
50.874343
31
0.0
0
LINE
8
Layer 1
62
4
5
268
100
AcDbEntity
100
AcDbLine
10
99.616427
20
50.874343
30
0.0
11
98.695208
21
50.621129
31
0.0
0
LINE
8
Layer 1
62
4
5
269
100
AcDbEntity
100
AcDbLine
10
98.695208
20
50.621129
30
0.0
11
97.706465
21
50.536724
31
0.0
0
LINE
8
Layer 1
62
4
5
26a
100
AcDbEntity
100
AcDbLine
10
97.706465
20
50.536724
30
0.0
11
96.213704
21
50.741707
31
0.0
0
LINE
8
Layer 1
62
4
5
26b
100
AcDbEntity
100
AcDbLine
10
96.213704
20
50.741707
30
0.0
11
95.111618
21
51.356658
31
0.0
0
LINE
8
Layer 1
62
4
5
26c
100
AcDbEntity
100
AcDbLine
10
95.111618
20
51.356658
30
0.0
11
94.431556
21
52.299580
31
0.0
0
LINE
8
Layer 1
62
4
5
26d
100
AcDbEntity
100
AcDbLine
10
94.431556
20
52.299580
30
0.0
11
94.204869
21
53.469190
31
0.0
0
LINE
8
Layer 1
62
4
5
26e
100
AcDbEntity
100
AcDbLine
10
94.204869
20
53.469190
30
0.0
11
94.289274
21
54.187836
31
0.0
0
LINE
8
Layer 1
62
4
5
26f
100
AcDbEntity
100
AcDbLine
10
94.289274
20
54.187836
30
0.0
11
94.542489
21
54.838959
31
0.0
0
LINE
8
Layer 1
62
4
5
270
100
AcDbEntity
100
AcDbLine
10
94.542489
20
54.838959
30
0.0
11
94.940397
21
55.403266
31
0.0
0
LINE
8
Layer 1
62
4
5
271
100
AcDbEntity
100
AcDbLine
10
94.940397
20
55.403266
30
0.0
11
95.439591
21
55.842171
31
0.0
0
LINE
8
Layer 1
62
4
5
272
100
AcDbEntity
100
AcDbLine
10
95.439591
20
55.842171
30
0.0
11
96.693606
21
56.411301
31
0.0
0
LINE
8
Layer 1
62
4
5
273
100
AcDbEntity
100
AcDbLine
10
96.693606
20
56.411301
30
0.0
11
98.237009
21
56.671752
31
0.0
0
LINE
8
Layer 1
62
4
5
274
100
AcDbEntity
100
AcDbLine
10
98.237009
20
56.671752
30
0.0
11
100.062565
21
56.946671
31
0.0
0
LINE
8
Layer 1
62
4
5
275
100
AcDbEntity
100
AcDbLine
10
100.062565
20
56.946671
30
0.0
11
101.333461
21
57.269821
31
0.0
0
LINE
8
Layer 1
62
4
5
276
100
AcDbEntity
100
AcDbLine
10
101.333461
20
57.269821
30
0.0
11
101.343113
21
57.723194
31
0.0
0
LINE
8
Layer 1
62
4
5
277
100
AcDbEntity
100
AcDbLine
10
101.343113
20
57.723194
30
0.0
11
101.220123
21
58.627532
31
0.0
0
LINE
8
Layer 1
62
4
5
278
100
AcDbEntity
100
AcDbLine
10
101.220123
20
58.627532
30
0.0
11
100.851154
21
59.218365
31
0.0
0
LINE
8
Layer 1
62
4
5
279
100
AcDbEntity
100
AcDbLine
10
100.851154
20
59.218365
30
0.0
11
100.023986
21
59.659681
31
0.0
0
LINE
8
Layer 1
62
4
5
27a
100
AcDbEntity
100
AcDbLine
10
100.023986
20
59.659681
30
0.0
11
98.873668
21
59.806787
31
0.0
0
LINE
8
Layer 1
62
4
5
27b
100
AcDbEntity
100
AcDbLine
10
98.873668
20
59.806787
30
0.0
11
97.807756
21
59.698267
31
0.0
0
LINE
8
Layer 1
62
4
5
27c
100
AcDbEntity
100
AcDbLine
10
97.807756
20
59.698267
30
0.0
11
97.060171
21
59.372706
31
0.0
0
LINE
8
Layer 1
62
4
5
27d
100
AcDbEntity
100
AcDbLine
10
97.060171
20
59.372706
30
0.0
11
96.556153
21
58.781872
31
0.0
0
LINE
8
Layer 1
62
4
5
27e
100
AcDbEntity
100
AcDbLine
10
96.556153
20
58.781872
30
0.0
11
96.201653
21
57.858243
31
0.0
0
LINE
8
Layer 1
62
4
5
27f
100
AcDbEntity
100
AcDbLine
10
96.201653
20
57.858243
30
0.0
11
94.503909
21
58.089752
31
0.0
0
LINE
8
Layer 1
62
4
5
280
100
AcDbEntity
100
AcDbLine
10
94.503909
20
58.089752
30
0.0
11
94.810179
21
59.073671
31
0.0
0
LINE
8
Layer 1
62
4
5
281
100
AcDbEntity
100
AcDbLine
10
94.810179
20
59.073671
30
0.0
11
95.265965
21
59.845372
31
0.0
0
LINE
8
Layer 1
62
4
5
282
100
AcDbEntity
100
AcDbLine
10
95.265965
20
59.845372
30
0.0
11
95.914676
21
60.441030
31
0.0
0
LINE
8
Layer 1
62
4
5
283
100
AcDbEntity
100
AcDbLine
10
95.914676
20
60.441030
30
0.0
11
96.799722
21
60.877524
31
0.0
0
LINE
8
Layer 1
62
4
5
284
100
AcDbEntity
100
AcDbLine
10
96.799722
20
60.877524
30
0.0
11
97.882515
21
61.152443
31
0.0
0
LINE
8
Layer 1
62
4
5
285
100
AcDbEntity
100
AcDbLine
10
97.882515
20
61.152443
30
0.0
11
99.124471
21
61.244082
31
0.0
0
LINE
8
Layer 1
62
4
5
286
100
AcDbEntity
100
AcDbLine
10
99.124471
20
61.244082
30
0.0
11
100.313374
21
61.166912
31
0.0
0
LINE
8
Layer 1
62
4
5
287
100
AcDbEntity
100
AcDbLine
10
100.313374
20
61.166912
30
0.0
11
101.256298
21
60.935402
31
0.0
0
LINE
8
Layer 1
62
4
5
288
100
AcDbEntity
100
AcDbLine
10
101.256298
20
60.935402
30
0.0
11
101.967710
21
60.585724
31
0.0
0
LINE
8
Layer 1
62
4
5
289
100
AcDbEntity
100
AcDbLine
10
101.967710
20
60.585724
30
0.0
11
102.462082
21
60.154053
31
0.0
0
LINE
8
Layer 1
62
4
5
28a
100
AcDbEntity
100
AcDbLine
10
102.462082
20
60.154053
30
0.0
11
102.790053
21
59.628332
31
0.0
0
LINE
8
Layer 1
62
4
5
28b
100
AcDbEntity
100
AcDbLine
10
102.790053
20
59.628332
30
0.0
11
103.002272
21
58.977209
31
0.0
0
LINE
8
Layer 1
62
4
5
28c
100
AcDbEntity
100
AcDbLine
10
103.002272
20
58.977209
30
0.0
11
103.089089
21
57.375928
31
0.0
0
LINE
8
Layer 1
62
4
5
28d
100
AcDbEntity
100
AcDbLine
10
103.089089
20
57.375928
30
0.0
11
103.089089
21
55.060825
31
0.0
0
LINE
8
Layer 1
62
4
5
28e
100
AcDbEntity
100
AcDbLine
10
103.089089
20
55.060825
30
0.0
11
103.195196
21
51.993312
31
0.0
0
LINE
8
Layer 1
62
4
5
28f
100
AcDbEntity
100
AcDbLine
10
103.195196
20
51.993312
30
0.0
11
103.638926
21
50.768236
31
0.0
0
LINE
8
Layer 1
62
4
5
290
100
AcDbEntity
100
AcDbLine
10
103.638926
20
50.768236
30
0.0
11
101.825428
21
50.768236
31
0.0
0
LINE
8
Layer 1
62
4
5
291
100
AcDbEntity
100
AcDbLine
10
101.825428
20
50.768236
30
0.0
11
101.478162
21
52.031898
31
0.0
0
LINE
8
Layer 1
62
4
5
292
100
AcDbEntity
100
AcDbLine
10
101.478162
20
52.031898
30
0.0
11
101.478156
21
52.031898
31
0.0
0
LINE
8
Layer 1
62
4
5
293
100
AcDbEntity
100
AcDbLine
10
101.333461
20
55.909696
30
0.0
11
100.151793
21
55.552783
31
0.0
0
LINE
8
Layer 1
62
4
5
294
100
AcDbEntity
100
AcDbLine
10
100.151793
20
55.552783
30
0.0
11
98.497458
21
55.253749
31
0.0
0
LINE
8
Layer 1
62
4
5
295
100
AcDbEntity
100
AcDbLine
10
98.497458
20
55.253749
30
0.0
11
96.982994
21
54.906483
31
0.0
0
LINE
8
Layer 1
62
4
5
296
100
AcDbEntity
100
AcDbLine
10
96.982994
20
54.906483
30
0.0
11
96.298111
21
54.337354
31
0.0
0
LINE
8
Layer 1
62
4
5
297
100
AcDbEntity
100
AcDbLine
10
96.298111
20
54.337354
30
0.0
11
96.056952
21
53.517422
31
0.0
0
LINE
8
Layer 1
62
4
5
298
100
AcDbEntity
100
AcDbLine
10
96.056952
20
53.517422
30
0.0
11
96.187177
21
52.880768
31
0.0
0
LINE
8
Layer 1
62
4
5
299
100
AcDbEntity
100
AcDbLine
10
96.187177
20
52.880768
30
0.0
11
96.577853
21
52.359871
31
0.0
0
LINE
8
Layer 1
62
4
5
29a
100
AcDbEntity
100
AcDbLine
10
96.577853
20
52.359871
30
0.0
11
97.228975
21
52.012604
31
0.0
0
LINE
8
Layer 1
62
4
5
29b
100
AcDbEntity
100
AcDbLine
10
97.228975
20
52.012604
30
0.0
11
98.121256
21
51.896849
31
0.0
0
LINE
8
Layer 1
62
4
5
29c
100
AcDbEntity
100
AcDbLine
10
98.121256
20
51.896849
30
0.0
11
99.069000
21
52.005369
31
0.0
0
LINE
8
Layer 1
62
4
5
29d
100
AcDbEntity
100
AcDbLine
10
99.069000
20
52.005369
30
0.0
11
99.905814
21
52.330932
31
0.0
0
LINE
8
Layer 1
62
4
5
29e
100
AcDbEntity
100
AcDbLine
10
99.905814
20
52.330932
30
0.0
11
100.583464
21
52.854241
31
0.0
0
LINE
8
Layer 1
62
4
5
29f
100
AcDbEntity
100
AcDbLine
10
100.583464
20
52.854241
30
0.0
11
101.053719
21
53.536715
31
0.0
0
LINE
8
Layer 1
62
4
5
2a0
100
AcDbEntity
100
AcDbLine
10
101.053719
20
53.536715
30
0.0
11
101.263525
21
54.265008
31
0.0
0
LINE
8
Layer 1
62
4
5
2a1
100
AcDbEntity
100
AcDbLine
10
101.263525
20
54.265008
30
0.0
11
101.333461
21
55.273042
31
0.0
0
LINE
8
Layer 1
62
4
5
2a2
100
AcDbEntity
100
AcDbLine
10
101.333461
20
55.273042
30
0.0
11
101.333461
21
55.909696
31
0.0
0
LINE
8
Layer 1
62
4
5
2a3
100
AcDbEntity
100
AcDbLine
10
101.333461
20
55.909696
30
0.0
11
101.333461
21
55.909696
31
0.0
0
LINE
8
Layer 1
62
4
5
2a4
100
AcDbEntity
100
AcDbLine
10
105.095506
20
53.826103
30
0.0
11
106.812543
21
54.096198
31
0.0
0
LINE
8
Layer 1
62
4
5
2a5
100
AcDbEntity
100
AcDbLine
10
106.812543
20
54.096198
30
0.0
11
107.085049
21
53.184625
31
0.0
0
LINE
8
Layer 1
62
4
5
2a6
100
AcDbEntity
100
AcDbLine
10
107.085049
20
53.184625
30
0.0
11
107.613182
21
52.514210
31
0.0
0
LINE
8
Layer 1
62
4
5
2a7
100
AcDbEntity
100
AcDbLine
10
107.613182
20
52.514210
30
0.0
11
108.408999
21
52.101832
31
0.0
0
LINE
8
Layer 1
62
4
5
2a8
100
AcDbEntity
100
AcDbLine
10
108.408999
20
52.101832
30
0.0
11
109.465265
21
51.964373
31
0.0
0
LINE
8
Layer 1
62
4
5
2a9
100
AcDbEntity
100
AcDbLine
10
109.465265
20
51.964373
30
0.0
11
110.507062
21
52.084951
31
0.0
0
LINE
8
Layer 1
62
4
5
2aa
100
AcDbEntity
100
AcDbLine
10
110.507062
20
52.084951
30
0.0
11
111.240178
21
52.446685
31
0.0
0
LINE
8
Layer 1
62
4
5
2ab
100
AcDbEntity
100
AcDbLine
10
111.240178
20
52.446685
30
0.0
11
111.674259
21
52.979643
31
0.0
0
LINE
8
Layer 1
62
4
5
2ac
100
AcDbEntity
100
AcDbLine
10
111.674259
20
52.979643
30
0.0
11
111.818953
21
53.594593
31
0.0
0
LINE
8
Layer 1
62
4
5
2ad
100
AcDbEntity
100
AcDbLine
10
111.818953
20
53.594593
30
0.0
11
111.691141
21
54.120314
31
0.0
0
LINE
8
Layer 1
62
4
5
2ae
100
AcDbEntity
100
AcDbLine
10
111.691141
20
54.120314
30
0.0
11
111.307702
21
54.520635
31
0.0
0
LINE
8
Layer 1
62
4
5
2af
100
AcDbEntity
100
AcDbLine
10
111.307702
20
54.520635
30
0.0
11
109.532790
21
55.109057
31
0.0
0
LINE
8
Layer 1
62
4
5
2b0
100
AcDbEntity
100
AcDbLine
10
109.532790
20
55.109057
30
0.0
11
106.880065
21
55.938635
31
0.0
0
LINE
8
Layer 1
62
4
5
2b1
100
AcDbEntity
100
AcDbLine
10
106.880065
20
55.938635
30
0.0
11
106.233766
21
56.360659
31
0.0
0
LINE
8
Layer 1
62
4
5
2b2
100
AcDbEntity
100
AcDbLine
10
106.233766
20
56.360659
30
0.0
11
105.761099
21
56.912908
31
0.0
0
LINE
8
Layer 1
62
4
5
2b3
100
AcDbEntity
100
AcDbLine
10
105.761099
20
56.912908
30
0.0
11
105.478945
21
57.571266
31
0.0
0
LINE
8
Layer 1
62
4
5
2b4
100
AcDbEntity
100
AcDbLine
10
105.478945
20
57.571266
30
0.0
11
105.384894
21
58.292323
31
0.0
0
LINE
8
Layer 1
62
4
5
2b5
100
AcDbEntity
100
AcDbLine
10
105.384894
20
58.292323
30
0.0
11
105.462064
21
58.950681
31
0.0
0
LINE
8
Layer 1
62
4
5
2b6
100
AcDbEntity
100
AcDbLine
10
105.462064
20
58.950681
30
0.0
11
105.693574
21
59.555984
31
0.0
0
LINE
8
Layer 1
62
4
5
2b7
100
AcDbEntity
100
AcDbLine
10
105.693574
20
59.555984
30
0.0
11
106.067367
21
60.093764
31
0.0
0
LINE
8
Layer 1
62
4
5
2b8
100
AcDbEntity
100
AcDbLine
10
106.067367
20
60.093764
30
0.0
11
106.552091
21
60.530258
31
0.0
0
LINE
8
Layer 1
62
4
5
2b9
100
AcDbEntity
100
AcDbLine
10
106.552091
20
60.530258
30
0.0
11
107.651767
21
61.031863
31
0.0
0
LINE
8
Layer 1
62
4
5
2ba
100
AcDbEntity
100
AcDbLine
10
107.651767
20
61.031863
30
0.0
11
109.156585
21
61.244082
31
0.0
0
LINE
8
Layer 1
62
4
5
2bb
100
AcDbEntity
100
AcDbLine
10
109.156585
20
61.244082
30
0.0
11
110.287609
21
61.157266
31
0.0
0
LINE
8
Layer 1
62
4
5
2bc
100
AcDbEntity
100
AcDbLine
10
110.287609
20
61.157266
30
0.0
11
111.269117
21
60.896816
31
0.0
0
LINE
8
Layer 1
62
4
5
2bd
100
AcDbEntity
100
AcDbLine
10
111.269117
20
60.896816
30
0.0
11
112.064934
21
60.486850
31
0.0
0
LINE
8
Layer 1
62
4
5
2be
100
AcDbEntity
100
AcDbLine
10
112.064934
20
60.486850
30
0.0
11
112.619595
21
59.951482
31
0.0
0
LINE
8
Layer 1
62
4
5
2bf
100
AcDbEntity
100
AcDbLine
10
112.619595
20
59.951482
30
0.0
11
112.986153
21
59.261774
31
0.0
0
LINE
8
Layer 1
62
4
5
2c0
100
AcDbEntity
100
AcDbLine
10
112.986153
20
59.261774
30
0.0
11
113.217664
21
58.369494
31
0.0
0
LINE
8
Layer 1
62
4
5
2c1
100
AcDbEntity
100
AcDbLine
10
113.217664
20
58.369494
30
0.0
11
111.519919
21
58.137984
31
0.0
0
LINE
8
Layer 1
62
4
5
2c2
100
AcDbEntity
100
AcDbLine
10
111.519919
20
58.137984
30
0.0
11
111.293233
21
58.842161
31
0.0
0
LINE
8
Layer 1
62
4
5
2c3
100
AcDbEntity
100
AcDbLine
10
111.293233
20
58.842161
30
0.0
11
110.844680
21
59.372706
31
0.0
0
LINE
8
Layer 1
62
4
5
2c4
100
AcDbEntity
100
AcDbLine
10
110.844680
20
59.372706
30
0.0
11
110.179088
21
59.705501
31
0.0
0
LINE
8
Layer 1
62
4
5
2c5
100
AcDbEntity
100
AcDbLine
10
110.179088
20
59.705501
30
0.0
11
109.281987
21
59.816433
31
0.0
0
LINE
8
Layer 1
62
4
5
2c6
100
AcDbEntity
100
AcDbLine
10
109.281987
20
59.816433
30
0.0
11
108.257070
21
59.717559
31
0.0
0
LINE
8
Layer 1
62
4
5
2c7
100
AcDbEntity
100
AcDbLine
10
108.257070
20
59.717559
30
0.0
11
107.574596
21
59.420938
31
0.0
0
LINE
8
Layer 1
62
4
5
2c8
100
AcDbEntity
100
AcDbLine
10
107.574596
20
59.420938
30
0.0
11
107.191158
21
58.991679
31
0.0
0
LINE
8
Layer 1
62
4
5
2c9
100
AcDbEntity
100
AcDbLine
10
107.191158
20
58.991679
30
0.0
11
107.063345
21
58.494896
31
0.0
0
LINE
8
Layer 1
62
4
5
2ca
100
AcDbEntity
100
AcDbLine
10
107.063345
20
58.494896
30
0.0
11
107.275562
21
57.887182
31
0.0
0
LINE
8
Layer 1
62
4
5
2cb
100
AcDbEntity
100
AcDbLine
10
107.275562
20
57.887182
30
0.0
11
107.941155
21
57.424159
31
0.0
0
LINE
8
Layer 1
62
4
5
2cc
100
AcDbEntity
100
AcDbLine
10
107.941155
20
57.424159
30
0.0
11
109.474912
21
56.980433
31
0.0
0
LINE
8
Layer 1
62
4
5
2cd
100
AcDbEntity
100
AcDbLine
10
109.474912
20
56.980433
30
0.0
11
112.040820
21
56.170145
31
0.0
0
LINE
8
Layer 1
62
4
5
2ce
100
AcDbEntity
100
AcDbLine
10
112.040820
20
56.170145
30
0.0
11
112.694353
21
55.789117
31
0.0
0
LINE
8
Layer 1
62
4
5
2cf
100
AcDbEntity
100
AcDbLine
10
112.694353
20
55.789117
30
0.0
11
113.188725
21
55.263396
31
0.0
0
LINE
8
Layer 1
62
4
5
2d0
100
AcDbEntity
100
AcDbLine
10
113.188725
20
55.263396
30
0.0
11
113.499817
21
54.592980
31
0.0
0
LINE
8
Layer 1
62
4
5
2d1
100
AcDbEntity
100
AcDbLine
10
113.499817
20
54.592980
30
0.0
11
113.603515
21
53.777871
31
0.0
0
LINE
8
Layer 1
62
4
5
2d2
100
AcDbEntity
100
AcDbLine
10
113.603515
20
53.777871
30
0.0
11
113.475702
21
52.933823
31
0.0
0
LINE
8
Layer 1
62
4
5
2d3
100
AcDbEntity
100
AcDbLine
10
113.475702
20
52.933823
30
0.0
11
113.092261
21
52.138005
31
0.0
0
LINE
8
Layer 1
62
4
5
2d4
100
AcDbEntity
100
AcDbLine
10
113.092261
20
52.138005
30
0.0
11
112.477312
21
51.460355
31
0.0
0
LINE
8
Layer 1
62
4
5
2d5
100
AcDbEntity
100
AcDbLine
10
112.477312
20
51.460355
30
0.0
11
111.635675
21
50.951514
31
0.0
0
LINE
8
Layer 1
62
4
5
2d6
100
AcDbEntity
100
AcDbLine
10
111.635675
20
50.951514
30
0.0
11
110.617994
21
50.640421
31
0.0
0
LINE
8
Layer 1
62
4
5
2d7
100
AcDbEntity
100
AcDbLine
10
110.617994
20
50.640421
30
0.0
11
109.474912
21
50.536724
31
0.0
0
LINE
8
Layer 1
62
4
5
2d8
100
AcDbEntity
100
AcDbLine
10
109.474912
20
50.536724
30
0.0
11
107.714467
21
50.744119
31
0.0
0
LINE
8
Layer 1
62
4
5
2d9
100
AcDbEntity
100
AcDbLine
10
107.714467
20
50.744119
30
0.0
11
106.426691
21
51.366305
31
0.0
0
LINE
8
Layer 1
62
4
5
2da
100
AcDbEntity
100
AcDbLine
10
106.426691
20
51.366305
30
0.0
11
105.572996
21
52.396043
31
0.0
0
LINE
8
Layer 1
62
4
5
2db
100
AcDbEntity
100
AcDbLine
10
105.572996
20
52.396043
30
0.0
11
105.095506
21
53.826103
31
0.0
0
LINE
8
Layer 1
62
4
5
2dc
100
AcDbEntity
100
AcDbLine
10
105.095506
20
53.826103
30
0.0
11
105.095506
21
53.826103
31
0.0
0
LINE
8
Layer 1
62
4
5
2dd
100
AcDbEntity
100
AcDbLine
10
122.680651
20
54.067259
30
0.0
11
124.474856
21
53.845395
31
0.0
0
LINE
8
Layer 1
62
4
5
2de
100
AcDbEntity
100
AcDbLine
10
124.474856
20
53.845395
30
0.0
11
123.869554
21
52.449098
31
0.0
0
LINE
8
Layer 1
62
4
5
2df
100
AcDbEntity
100
AcDbLine
10
123.869554
20
52.449098
30
0.0
11
122.902514
21
51.404890
31
0.0
0
LINE
8
Layer 1
62
4
5
2e0
100
AcDbEntity
100
AcDbLine
10
122.902514
20
51.404890
30
0.0
11
121.595446
21
50.753765
31
0.0
0
LINE
8
Layer 1
62
4
5
2e1
100
AcDbEntity
100
AcDbLine
10
121.595446
20
50.753765
30
0.0
11
119.970050
21
50.536724
31
0.0
0
LINE
8
Layer 1
62
4
5
2e2
100
AcDbEntity
100
AcDbLine
10
119.970050
20
50.536724
30
0.0
11
118.904138
21
50.622937
31
0.0
0
LINE
8
Layer 1
62
4
5
2e3
100
AcDbEntity
100
AcDbLine
10
118.904138
20
50.622937
30
0.0
11
117.953980
21
50.881578
31
0.0
0
LINE
8
Layer 1
62
4
5
2e4
100
AcDbEntity
100
AcDbLine
10
117.953980
20
50.881578
30
0.0
11
117.119577
21
51.312646
31
0.0
0
LINE
8
Layer 1
62
4
5
2e5
100
AcDbEntity
100
AcDbLine
10
117.119577
20
51.312646
30
0.0
11
116.400930
21
51.916141
31
0.0
0
LINE
8
Layer 1
62
4
5
2e6
100
AcDbEntity
100
AcDbLine
10
116.400930
20
51.916141
30
0.0
11
115.826978
21
52.680004
31
0.0
0
LINE
8
Layer 1
62
4
5
2e7
100
AcDbEntity
100
AcDbLine
10
115.826978
20
52.680004
30
0.0
11
115.417012
21
53.582533
31
0.0
0
LINE
8
Layer 1
62
4
5
2e8
100
AcDbEntity
100
AcDbLine
10
115.417012
20
53.582533
30
0.0
11
115.171033
21
54.623727
31
0.0
0
LINE
8
Layer 1
62
4
5
2e9
100
AcDbEntity
100
AcDbLine
10
115.171033
20
54.623727
30
0.0
11
115.089040
21
55.803586
31
0.0
0
LINE
8
Layer 1
62
4
5
2ea
100
AcDbEntity
100
AcDbLine
10
115.089040
20
55.803586
30
0.0
11
115.172239
21
57.023839
31
0.0
0
LINE
8
Layer 1
62
4
5
2eb
100
AcDbEntity
100
AcDbLine
10
115.172239
20
57.023839
30
0.0
11
115.421835
21
58.099398
31
0.0
0
LINE
8
Layer 1
62
4
5
2ec
100
AcDbEntity
100
AcDbLine
10
115.421835
20
58.099398
30
0.0
11
115.837830
21
59.030263
31
0.0
0
LINE
8
Layer 1
62
4
5
2ed
100
AcDbEntity
100
AcDbLine
10
115.837830
20
59.030263
30
0.0
11
116.420223
21
59.816433
31
0.0
0
LINE
8
Layer 1
62
4
5
2ee
100
AcDbEntity
100
AcDbLine
10
116.420223
20
59.816433
30
0.0
11
117.135253
21
60.441030
31
0.0
0
LINE
8
Layer 1
62
4
5
2ef
100
AcDbEntity
100
AcDbLine
10
117.135253
20
60.441030
30
0.0
11
117.949157
21
60.887170
31
0.0
0
LINE
8
Layer 1
62
4
5
2f0
100
AcDbEntity
100
AcDbLine
10
117.949157
20
60.887170
30
0.0
11
118.861935
21
61.154854
31
0.0
0
LINE
8
Layer 1
62
4
5
2f1
100
AcDbEntity
100
AcDbLine
10
118.861935
20
61.154854
30
0.0
11
119.873587
21
61.244082
31
0.0
0
LINE
8
Layer 1
62
4
5
2f2
100
AcDbEntity
100
AcDbLine
10
119.873587
20
61.244082
30
0.0
11
120.853890
21
61.156663
31
0.0
0
LINE
8
Layer 1
62
4
5
2f3
100
AcDbEntity
100
AcDbLine
10
120.853890
20
61.156663
30
0.0
11
121.740140
21
60.894405
31
0.0
0
LINE
8
Layer 1
62
4
5
2f4
100
AcDbEntity
100
AcDbLine
10
121.740140
20
60.894405
30
0.0
11
122.532340
21
60.457308
31
0.0
0
LINE
8
Layer 1
62
4
5
2f5
100
AcDbEntity
100
AcDbLine
10
122.532340
20
60.457308
30
0.0
11
123.230488
21
59.845372
31
0.0
0
LINE
8
Layer 1
62
4
5
2f6
100
AcDbEntity
100
AcDbLine
10
123.230488
20
59.845372
30
0.0
11
123.800221
21
59.074877
31
0.0
0
LINE
8
Layer 1
62
4
5
2f7
100
AcDbEntity
100
AcDbLine
10
123.800221
20
59.074877
30
0.0
11
124.207173
21
58.162099
31
0.0
0
LINE
8
Layer 1
62
4
5
2f8
100
AcDbEntity
100
AcDbLine
10
124.207173
20
58.162099
30
0.0
11
124.451344
21
57.107039
31
0.0
0
LINE
8
Layer 1
62
4
5
2f9
100
AcDbEntity
100
AcDbLine
10
124.451344
20
57.107039
30
0.0
11
124.532734
21
55.909696
31
0.0
0
LINE
8
Layer 1
62
4
5
2fa
100
AcDbEntity
100
AcDbLine
10
124.532734
20
55.909696
30
0.0
11
124.523082
21
55.446676
31
0.0
0
LINE
8
Layer 1
62
4
5
2fb
100
AcDbEntity
100
AcDbLine
10
124.523082
20
55.446676
30
0.0
11
116.883239
21
55.446676
31
0.0
0
LINE
8
Layer 1
62
4
5
2fc
100
AcDbEntity
100
AcDbLine
10
116.883239
20
55.446676
30
0.0
11
117.170216
21
53.956327
31
0.0
0
LINE
8
Layer 1
62
4
5
2fd
100
AcDbEntity
100
AcDbLine
10
117.170216
20
53.956327
30
0.0
11
117.838220
21
52.861476
31
0.0
0
LINE
8
Layer 1
62
4
5
2fe
100
AcDbEntity
100
AcDbLine
10
117.838220
20
52.861476
30
0.0
11
118.802846
21
52.188649
31
0.0
0
LINE
8
Layer 1
62
4
5
2ff
100
AcDbEntity
100
AcDbLine
10
118.802846
20
52.188649
30
0.0
11
119.979691
21
51.964373
31
0.0
0
LINE
8
Layer 1
62
4
5
300
100
AcDbEntity
100
AcDbLine
10
119.979691
20
51.964373
30
0.0
11
120.864737
21
52.089774
31
0.0
0
LINE
8
Layer 1
62
4
5
301
100
AcDbEntity
100
AcDbLine
10
120.864737
20
52.089774
30
0.0
11
121.609911
21
52.465978
31
0.0
0
LINE
8
Layer 1
62
4
5
302
100
AcDbEntity
100
AcDbLine
10
121.609911
20
52.465978
30
0.0
11
122.215213
21
53.117102
31
0.0
0
LINE
8
Layer 1
62
4
5
303
100
AcDbEntity
100
AcDbLine
10
122.215213
20
53.117102
30
0.0
11
122.680645
21
54.067259
31
0.0
0
LINE
8
Layer 1
62
4
5
304
100
AcDbEntity
100
AcDbLine
10
122.680645
20
54.067259
30
0.0
11
122.680651
21
54.067259
31
0.0
0
LINE
8
Layer 1
62
4
5
305
100
AcDbEntity
100
AcDbLine
10
116.979708
20
56.874323
30
0.0
11
122.699944
21
56.874323
31
0.0
0
LINE
8
Layer 1
62
4
5
306
100
AcDbEntity
100
AcDbLine
10
122.699944
20
56.874323
30
0.0
11
122.478079
21
58.005348
31
0.0
0
LINE
8
Layer 1
62
4
5
307
100
AcDbEntity
100
AcDbLine
10
122.478079
20
58.005348
30
0.0
11
122.043997
21
58.813223
31
0.0
0
LINE
8
Layer 1
62
4
5
308
100
AcDbEntity
100
AcDbLine
10
122.043997
20
58.813223
30
0.0
11
121.091429
21
59.565631
31
0.0
0
LINE
8
Layer 1
62
4
5
309
100
AcDbEntity
100
AcDbLine
10
121.091429
20
59.565631
30
0.0
11
119.892880
21
59.816433
31
0.0
0
LINE
8
Layer 1
62
4
5
30a
100
AcDbEntity
100
AcDbLine
10
119.892880
20
59.816433
30
0.0
11
118.790794
21
59.616273
31
0.0
0
LINE
8
Layer 1
62
4
5
30b
100
AcDbEntity
100
AcDbLine
10
118.790794
20
59.616273
30
0.0
11
117.876811
21
59.015794
31
0.0
0
LINE
8
Layer 1
62
4
5
30c
100
AcDbEntity
100
AcDbLine
10
117.876811
20
59.015794
30
0.0
11
117.247391
21
58.080107
31
0.0
0
LINE
8
Layer 1
62
4
5
30d
100
AcDbEntity
100
AcDbLine
10
117.247391
20
58.080107
30
0.0
11
116.979708
21
56.874323
31
0.0
0
LINE
8
Layer 1
62
4
5
30e
100
AcDbEntity
100
AcDbLine
10
116.979708
20
56.874323
30
0.0
11
116.979708
21
56.874323
31
0.0
0
LINE
8
Layer 1
62
4
5
30f
100
AcDbEntity
100
AcDbLine
10
84.220984
20
29.131658
30
0.0
11
85.938019
21
29.401753
31
0.0
0
LINE
8
Layer 1
62
4
5
310
100
AcDbEntity
100
AcDbLine
10
85.938019
20
29.401753
30
0.0
11
86.210527
21
28.490181
31
0.0
0
LINE
8
Layer 1
62
4
5
311
100
AcDbEntity
100
AcDbLine
10
86.210527
20
28.490181
30
0.0
11
86.738660
21
27.819765
31
0.0
0
LINE
8
Layer 1
62
4
5
312
100
AcDbEntity
100
AcDbLine
10
86.738660
20
27.819765
30
0.0
11
87.534476
21
27.407388
31
0.0
0
LINE
8
Layer 1
62
4
5
313
100
AcDbEntity
100
AcDbLine
10
87.534476
20
27.407388
30
0.0
11
88.590744
21
27.269929
31
0.0
0
LINE
8
Layer 1
62
4
5
314
100
AcDbEntity
100
AcDbLine
10
88.590744
20
27.269929
30
0.0
11
89.632540
21
27.390507
31
0.0
0
LINE
8
Layer 1
62
4
5
315
100
AcDbEntity
100
AcDbLine
10
89.632540
20
27.390507
30
0.0
11
90.365656
21
27.752241
31
0.0
0
LINE
8
Layer 1
62
4
5
316
100
AcDbEntity
100
AcDbLine
10
90.365656
20
27.752241
30
0.0
11
90.799738
21
28.285198
31
0.0
0
LINE
8
Layer 1
62
4
5
317
100
AcDbEntity
100
AcDbLine
10
90.799738
20
28.285198
30
0.0
11
90.944432
21
28.900149
31
0.0
0
LINE
8
Layer 1
62
4
5
318
100
AcDbEntity
100
AcDbLine
10
90.944432
20
28.900149
30
0.0
11
90.816619
21
29.425870
31
0.0
0
LINE
8
Layer 1
62
4
5
319
100
AcDbEntity
100
AcDbLine
10
90.816619
20
29.425870
30
0.0
11
90.433181
21
29.826190
31
0.0
0
LINE
8
Layer 1
62
4
5
31a
100
AcDbEntity
100
AcDbLine
10
90.433181
20
29.826190
30
0.0
11
88.658265
21
30.414612
31
0.0
0
LINE
8
Layer 1
62
4
5
31b
100
AcDbEntity
100
AcDbLine
10
88.658265
20
30.414612
30
0.0
11
86.005543
21
31.244190
31
0.0
0
LINE
8
Layer 1
62
4
5
31c
100
AcDbEntity
100
AcDbLine
10
86.005543
20
31.244190
30
0.0
11
85.359243
21
31.666215
31
0.0
0
LINE
8
Layer 1
62
4
5
31d
100
AcDbEntity
100
AcDbLine
10
85.359243
20
31.666215
30
0.0
11
84.886577
21
32.218464
31
0.0
0
LINE
8
Layer 1
62
4
5
31e
100
AcDbEntity
100
AcDbLine
10
84.886577
20
32.218464
30
0.0
11
84.604423
21
32.876821
31
0.0
0
LINE
8
Layer 1
62
4
5
31f
100
AcDbEntity
100
AcDbLine
10
84.604423
20
32.876821
30
0.0
11
84.510372
21
33.597879
31
0.0
0
LINE
8
Layer 1
62
4
5
320
100
AcDbEntity
100
AcDbLine
10
84.510372
20
33.597879
30
0.0
11
84.587542
21
34.256237
31
0.0
0
LINE
8
Layer 1
62
4
5
321
100
AcDbEntity
100
AcDbLine
10
84.587542
20
34.256237
30
0.0
11
84.819053
21
34.861540
31
0.0
0
LINE
8
Layer 1
62
4
5
322
100
AcDbEntity
100
AcDbLine
10
84.819053
20
34.861540
30
0.0
11
85.192845
21
35.399319
31
0.0
0
LINE
8
Layer 1
62
4
5
323
100
AcDbEntity
100
AcDbLine
10
85.192845
20
35.399319
30
0.0
11
85.677570
21
35.835813
31
0.0
0
LINE
8
Layer 1
62
4
5
324
100
AcDbEntity
100
AcDbLine
10
85.677570
20
35.835813
30
0.0
11
86.777243
21
36.337418
31
0.0
0
LINE
8
Layer 1
62
4
5
325
100
AcDbEntity
100
AcDbLine
10
86.777243
20
36.337418
30
0.0
11
88.282063
21
36.549638
31
0.0
0
LINE
8
Layer 1
62
4
5
326
100
AcDbEntity
100
AcDbLine
10
88.282063
20
36.549638
30
0.0
11
89.413088
21
36.462821
31
0.0
0
LINE
8
Layer 1
62
4
5
327
100
AcDbEntity
100
AcDbLine
10
89.413088
20
36.462821
30
0.0
11
90.394595
21
36.202372
31
0.0
0
LINE
8
Layer 1
62
4
5
328
100
AcDbEntity
100
AcDbLine
10
90.394595
20
36.202372
30
0.0
11
91.190412
21
35.792405
31
0.0
0
LINE
8
Layer 1
62
4
5
329
100
AcDbEntity
100
AcDbLine
10
91.190412
20
35.792405
30
0.0
11
91.745071
21
35.257038
31
0.0
0
LINE
8
Layer 1
62
4
5
32a
100
AcDbEntity
100
AcDbLine
10
91.745071
20
35.257038
30
0.0
11
92.111630
21
34.567330
31
0.0
0
LINE
8
Layer 1
62
4
5
32b
100
AcDbEntity
100
AcDbLine
10
92.111630
20
34.567330
30
0.0
11
92.343139
21
33.675049
31
0.0
0
LINE
8
Layer 1
62
4
5
32c
100
AcDbEntity
100
AcDbLine
10
92.343139
20
33.675049
30
0.0
11
90.645398
21
33.443540
31
0.0
0
LINE
8
Layer 1
62
4
5
32d
100
AcDbEntity
100
AcDbLine
10
90.645398
20
33.443540
30
0.0
11
90.418710
21
34.147717
31
0.0
0
LINE
8
Layer 1
62
4
5
32e
100
AcDbEntity
100
AcDbLine
10
90.418710
20
34.147717
30
0.0
11
89.970158
21
34.678262
31
0.0
0
LINE
8
Layer 1
62
4
5
32f
100
AcDbEntity
100
AcDbLine
10
89.970158
20
34.678262
30
0.0
11
89.304566
21
35.011057
31
0.0
0
LINE
8
Layer 1
62
4
5
330
100
AcDbEntity
100
AcDbLine
10
89.304566
20
35.011057
30
0.0
11
88.407463
21
35.121989
31
0.0
0
LINE
8
Layer 1
62
4
5
331
100
AcDbEntity
100
AcDbLine
10
88.407463
20
35.121989
30
0.0
11
87.382548
21
35.023115
31
0.0
0
LINE
8
Layer 1
62
4
5
332
100
AcDbEntity
100
AcDbLine
10
87.382548
20
35.023115
30
0.0
11
86.700075
21
34.726494
31
0.0
0
LINE
8
Layer 1
62
4
5
333
100
AcDbEntity
100
AcDbLine
10
86.700075
20
34.726494
30
0.0
11
86.316634
21
34.297234
31
0.0
0
LINE
8
Layer 1
62
4
5
334
100
AcDbEntity
100
AcDbLine
10
86.316634
20
34.297234
30
0.0
11
86.188821
21
33.800452
31
0.0
0
LINE
8
Layer 1
62
4
5
335
100
AcDbEntity
100
AcDbLine
10
86.188821
20
33.800452
30
0.0
11
86.401041
21
33.192737
31
0.0
0
LINE
8
Layer 1
62
4
5
336
100
AcDbEntity
100
AcDbLine
10
86.401041
20
33.192737
30
0.0
11
87.066631
21
32.729715
31
0.0
0
LINE
8
Layer 1
62
4
5
337
100
AcDbEntity
100
AcDbLine
10
87.066631
20
32.729715
30
0.0
11
88.600390
21
32.285988
31
0.0
0
LINE
8
Layer 1
62
4
5
338
100
AcDbEntity
100
AcDbLine
10
88.600390
20
32.285988
30
0.0
11
91.166295
21
31.475700
31
0.0
0
LINE
8
Layer 1
62
4
5
339
100
AcDbEntity
100
AcDbLine
10
91.166295
20
31.475700
30
0.0
11
91.819830
21
31.094673
31
0.0
0
LINE
8
Layer 1
62
4
5
33a
100
AcDbEntity
100
AcDbLine
10
91.819830
20
31.094673
30
0.0
11
92.314200
21
30.568951
31
0.0
0
LINE
8
Layer 1
62
4
5
33b
100
AcDbEntity
100
AcDbLine
10
92.314200
20
30.568951
30
0.0
11
92.625293
21
29.898536
31
0.0
0
LINE
8
Layer 1
62
4
5
33c
100
AcDbEntity
100
AcDbLine
10
92.625293
20
29.898536
30
0.0
11
92.728991
21
29.083427
31
0.0
0
LINE
8
Layer 1
62
4
5
33d
100
AcDbEntity
100
AcDbLine
10
92.728991
20
29.083427
30
0.0
11
92.601178
21
28.239378
31
0.0
0
LINE
8
Layer 1
62
4
5
33e
100
AcDbEntity
100
AcDbLine
10
92.601178
20
28.239378
30
0.0
11
92.217740
21
27.443560
31
0.0
0
LINE
8
Layer 1
62
4
5
33f
100
AcDbEntity
100
AcDbLine
10
92.217740
20
27.443560
30
0.0
11
91.602789
21
26.765911
31
0.0
0
LINE
8
Layer 1
62
4
5
340
100
AcDbEntity
100
AcDbLine
10
91.602789
20
26.765911
30
0.0
11
90.761154
21
26.257070
31
0.0
0
LINE
8
Layer 1
62
4
5
341
100
AcDbEntity
100
AcDbLine
10
90.761154
20
26.257070
30
0.0
11
89.743473
21
25.945977
31
0.0
0
LINE
8
Layer 1
62
4
5
342
100
AcDbEntity
100
AcDbLine
10
89.743473
20
25.945977
30
0.0
11
88.600390
21
25.842279
31
0.0
0
LINE
8
Layer 1
62
4
5
343
100
AcDbEntity
100
AcDbLine
10
88.600390
20
25.842279
30
0.0
11
86.839945
21
26.049674
31
0.0
0
LINE
8
Layer 1
62
4
5
344
100
AcDbEntity
100
AcDbLine
10
86.839945
20
26.049674
30
0.0
11
85.552167
21
26.671860
31
0.0
0
LINE
8
Layer 1
62
4
5
345
100
AcDbEntity
100
AcDbLine
10
85.552167
20
26.671860
30
0.0
11
84.698474
21
27.701599
31
0.0
0
LINE
8
Layer 1
62
4
5
346
100
AcDbEntity
100
AcDbLine
10
84.698474
20
27.701599
30
0.0
11
84.220984
21
29.131658
31
0.0
0
LINE
8
Layer 1
62
4
5
347
100
AcDbEntity
100
AcDbLine
10
84.220984
20
29.131658
30
0.0
11
84.220984
21
29.131658
31
0.0
0
LINE
8
Layer 1
62
4
5
348
100
AcDbEntity
100
AcDbLine
10
101.478156
20
29.826190
30
0.0
11
103.185544
21
29.604324
31
0.0
0
LINE
8
Layer 1
62
4
5
349
100
AcDbEntity
100
AcDbLine
10
103.185544
20
29.604324
30
0.0
11
102.686350
21
28.029571
31
0.0
0
LINE
8
Layer 1
62
4
5
34a
100
AcDbEntity
100
AcDbLine
10
102.686350
20
28.029571
30
0.0
11
101.748251
21
26.835845
31
0.0
0
LINE
8
Layer 1
62
4
5
34b
100
AcDbEntity
100
AcDbLine
10
101.748251
20
26.835845
30
0.0
11
100.467710
21
26.090671
31
0.0
0
LINE
8
Layer 1
62
4
5
34c
100
AcDbEntity
100
AcDbLine
10
100.467710
20
26.090671
30
0.0
11
98.921895
21
25.842279
31
0.0
0
LINE
8
Layer 1
62
4
5
34d
100
AcDbEntity
100
AcDbLine
10
98.921895
20
25.842279
30
0.0
11
97.921697
21
25.927890
31
0.0
0
LINE
8
Layer 1
62
4
5
34e
100
AcDbEntity
100
AcDbLine
10
97.921697
20
25.927890
30
0.0
11
97.023992
21
26.184722
31
0.0
0
LINE
8
Layer 1
62
4
5
34f
100
AcDbEntity
100
AcDbLine
10
97.023992
20
26.184722
30
0.0
11
96.228778
21
26.612776
31
0.0
0
LINE
8
Layer 1
62
4
5
350
100
AcDbEntity
100
AcDbLine
10
96.228778
20
26.612776
30
0.0
11
95.536055
21
27.212050
31
0.0
0
LINE
8
Layer 1
62
4
5
351
100
AcDbEntity
100
AcDbLine
10
95.536055
20
27.212050
30
0.0
11
94.978983
21
27.975915
31
0.0
0
LINE
8
Layer 1
62
4
5
352
100
AcDbEntity
100
AcDbLine
10
94.978983
20
27.975915
30
0.0
11
94.581074
21
28.888090
31
0.0
0
LINE
8
Layer 1
62
4
5
353
100
AcDbEntity
100
AcDbLine
10
94.581074
20
28.888090
30
0.0
11
94.342329
21
29.948576
31
0.0
0
LINE
8
Layer 1
62
4
5
354
100
AcDbEntity
100
AcDbLine
10
94.342329
20
29.948576
30
0.0
11
94.262747
21
31.157373
31
0.0
0
LINE
8
Layer 1
62
4
5
355
100
AcDbEntity
100
AcDbLine
10
94.262747
20
31.157373
30
0.0
11
94.400206
21
32.712835
31
0.0
0
LINE
8
Layer 1
62
4
5
356
100
AcDbEntity
100
AcDbLine
10
94.400206
20
32.712835
30
0.0
11
94.812584
21
34.060901
31
0.0
0
LINE
8
Layer 1
62
4
5
357
100
AcDbEntity
100
AcDbLine
10
94.812584
20
34.060901
30
0.0
11
95.504705
21
35.148518
31
0.0
0
LINE
8
Layer 1
62
4
5
358
100
AcDbEntity
100
AcDbLine
10
95.504705
20
35.148518
30
0.0
11
96.481389
21
35.922631
31
0.0
0
LINE
8
Layer 1
62
4
5
359
100
AcDbEntity
100
AcDbLine
10
96.481389
20
35.922631
30
0.0
11
97.658233
21
36.392886
31
0.0
0
LINE
8
Layer 1
62
4
5
35a
100
AcDbEntity
100
AcDbLine
10
97.658233
20
36.392886
30
0.0
11
98.931541
21
36.549638
31
0.0
0
LINE
8
Layer 1
62
4
5
35b
100
AcDbEntity
100
AcDbLine
10
98.931541
20
36.549638
30
0.0
11
100.448417
21
36.337420
31
0.0
0
LINE
8
Layer 1
62
4
5
35c
100
AcDbEntity
100
AcDbLine
10
100.448417
20
36.337420
30
0.0
11
101.661434
21
35.700764
31
0.0
0
LINE
8
Layer 1
62
4
5
35d
100
AcDbEntity
100
AcDbLine
10
101.661434
20
35.700764
30
0.0
11
102.532011
21
34.683084
31
0.0
0
LINE
8
Layer 1
62
4
5
35e
100
AcDbEntity
100
AcDbLine
10
102.532011
20
34.683084
30
0.0
11
103.021559
21
33.308491
31
0.0
0
LINE
8
Layer 1
62
4
5
35f
100
AcDbEntity
100
AcDbLine
10
103.021559
20
33.308491
30
0.0
11
101.333461
21
33.048042
31
0.0
0
LINE
8
Layer 1
62
4
5
360
100
AcDbEntity
100
AcDbLine
10
101.333461
20
33.048042
30
0.0
11
100.998254
21
33.952380
31
0.0
0
LINE
8
Layer 1
62
4
5
361
100
AcDbEntity
100
AcDbLine
10
100.998254
20
33.952380
30
0.0
11
100.474944
21
34.601091
31
0.0
0
LINE
8
Layer 1
62
4
5
362
100
AcDbEntity
100
AcDbLine
10
100.474944
20
34.601091
30
0.0
11
99.802117
21
34.991764
31
0.0
0
LINE
8
Layer 1
62
4
5
363
100
AcDbEntity
100
AcDbLine
10
99.802117
20
34.991764
30
0.0
11
98.999065
21
35.121989
31
0.0
0
LINE
8
Layer 1
62
4
5
364
100
AcDbEntity
100
AcDbLine
10
98.999065
20
35.121989
30
0.0
11
97.810163
21
34.885655
31
0.0
0
LINE
8
Layer 1
62
4
5
365
100
AcDbEntity
100
AcDbLine
10
97.810163
20
34.885655
30
0.0
11
96.867241
21
34.176654
31
0.0
0
LINE
8
Layer 1
62
4
5
366
100
AcDbEntity
100
AcDbLine
10
96.867241
20
34.176654
30
0.0
11
96.508519
21
33.640081
31
0.0
0
LINE
8
Layer 1
62
4
5
367
100
AcDbEntity
100
AcDbLine
10
96.508519
20
33.640081
30
0.0
11
96.252290
21
32.966048
31
0.0
0
LINE
8
Layer 1
62
4
5
368
100
AcDbEntity
100
AcDbLine
10
96.252290
20
32.966048
30
0.0
11
96.047306
21
31.205605
31
0.0
0
LINE
8
Layer 1
62
4
5
369
100
AcDbEntity
100
AcDbLine
10
96.047306
20
31.205605
30
0.0
11
96.245055
21
29.423458
31
0.0
0
LINE
8
Layer 1
62
4
5
36a
100
AcDbEntity
100
AcDbLine
10
96.245055
20
29.423458
30
0.0
11
96.492241
21
28.743999
31
0.0
0
LINE
8
Layer 1
62
4
5
36b
100
AcDbEntity
100
AcDbLine
10
96.492241
20
28.743999
30
0.0
11
96.838302
21
28.205617
31
0.0
0
LINE
8
Layer 1
62
4
5
36c
100
AcDbEntity
100
AcDbLine
10
96.838302
20
28.205617
30
0.0
11
97.749873
21
27.503851
31
0.0
0
LINE
8
Layer 1
62
4
5
36d
100
AcDbEntity
100
AcDbLine
10
97.749873
20
27.503851
30
0.0
11
98.902602
21
27.269929
31
0.0
0
LINE
8
Layer 1
62
4
5
36e
100
AcDbEntity
100
AcDbLine
10
98.902602
20
27.269929
30
0.0
11
99.840702
21
27.426680
31
0.0
0
LINE
8
Layer 1
62
4
5
36f
100
AcDbEntity
100
AcDbLine
10
99.840702
20
27.426680
30
0.0
11
100.609993
21
27.896936
31
0.0
0
LINE
8
Layer 1
62
4
5
370
100
AcDbEntity
100
AcDbLine
10
100.609993
20
27.896936
30
0.0
11
101.169475
21
28.692753
31
0.0
0
LINE
8
Layer 1
62
4
5
371
100
AcDbEntity
100
AcDbLine
10
101.169475
20
28.692753
30
0.0
11
101.478156
21
29.826190
31
0.0
0
LINE
8
Layer 1
62
4
5
372
100
AcDbEntity
100
AcDbLine
10
101.478156
20
29.826190
30
0.0
11
101.478156
21
29.826190
31
0.0
0
LINE
8
Layer 1
62
4
5
373
100
AcDbEntity
100
AcDbLine
10
111.355934
20
27.337453
30
0.0
11
110.408188
21
26.638097
31
0.0
0
LINE
8
Layer 1
62
4
5
374
100
AcDbEntity
100
AcDbLine
10
110.408188
20
26.638097
30
0.0
11
109.494204
21
26.179899
31
0.0
0
LINE
8
Layer 1
62
4
5
375
100
AcDbEntity
100
AcDbLine
10
109.494204
20
26.179899
30
0.0
11
108.572986
21
25.926684
31
0.0
0
LINE
8
Layer 1
62
4
5
376
100
AcDbEntity
100
AcDbLine
10
108.572986
20
25.926684
30
0.0
11
107.584243
21
25.842279
31
0.0
0
LINE
8
Layer 1
62
4
5
377
100
AcDbEntity
100
AcDbLine
10
107.584243
20
25.842279
30
0.0
11
106.091482
21
26.047263
31
0.0
0
LINE
8
Layer 1
62
4
5
378
100
AcDbEntity
100
AcDbLine
10
106.091482
20
26.047263
30
0.0
11
104.989396
21
26.662214
31
0.0
0
LINE
8
Layer 1
62
4
5
379
100
AcDbEntity
100
AcDbLine
10
104.989396
20
26.662214
30
0.0
11
104.309334
21
27.605136
31
0.0
0
LINE
8
Layer 1
62
4
5
37a
100
AcDbEntity
100
AcDbLine
10
104.309334
20
27.605136
30
0.0
11
104.082647
21
28.774746
31
0.0
0
LINE
8
Layer 1
62
4
5
37b
100
AcDbEntity
100
AcDbLine
10
104.082647
20
28.774746
30
0.0
11
104.167052
21
29.493392
31
0.0
0
LINE
8
Layer 1
62
4
5
37c
100
AcDbEntity
100
AcDbLine
10
104.167052
20
29.493392
30
0.0
11
104.420266
21
30.144514
31
0.0
0
LINE
8
Layer 1
62
4
5
37d
100
AcDbEntity
100
AcDbLine
10
104.420266
20
30.144514
30
0.0
11
104.818175
21
30.708821
31
0.0
0
LINE
8
Layer 1
62
4
5
37e
100
AcDbEntity
100
AcDbLine
10
104.818175
20
30.708821
30
0.0
11
105.317369
21
31.147727
31
0.0
0
LINE
8
Layer 1
62
4
5
37f
100
AcDbEntity
100
AcDbLine
10
105.317369
20
31.147727
30
0.0
11
106.571384
21
31.716856
31
0.0
0
LINE
8
Layer 1
62
4
5
380
100
AcDbEntity
100
AcDbLine
10
106.571384
20
31.716856
30
0.0
11
108.114787
21
31.977308
31
0.0
0
LINE
8
Layer 1
62
4
5
381
100
AcDbEntity
100
AcDbLine
10
108.114787
20
31.977308
30
0.0
11
109.940343
21
32.252226
31
0.0
0
LINE
8
Layer 1
62
4
5
382
100
AcDbEntity
100
AcDbLine
10
109.940343
20
32.252226
30
0.0
11
111.211239
21
32.575376
31
0.0
0
LINE
8
Layer 1
62
4
5
383
100
AcDbEntity
100
AcDbLine
10
111.211239
20
32.575376
30
0.0
11
111.220891
21
33.028749
31
0.0
0
LINE
8
Layer 1
62
4
5
384
100
AcDbEntity
100
AcDbLine
10
111.220891
20
33.028749
30
0.0
11
111.097901
21
33.933087
31
0.0
0
LINE
8
Layer 1
62
4
5
385
100
AcDbEntity
100
AcDbLine
10
111.097901
20
33.933087
30
0.0
11
110.728932
21
34.523920
31
0.0
0
LINE
8
Layer 1
62
4
5
386
100
AcDbEntity
100
AcDbLine
10
110.728932
20
34.523920
30
0.0
11
109.901764
21
34.965237
31
0.0
0
LINE
8
Layer 1
62
4
5
387
100
AcDbEntity
100
AcDbLine
10
109.901764
20
34.965237
30
0.0
11
108.751446
21
35.112342
31
0.0
0
LINE
8
Layer 1
62
4
5
388
100
AcDbEntity
100
AcDbLine
10
108.751446
20
35.112342
30
0.0
11
107.685534
21
35.003822
31
0.0
0
LINE
8
Layer 1
62
4
5
389
100
AcDbEntity
100
AcDbLine
10
107.685534
20
35.003822
30
0.0
11
106.937948
21
34.678262
31
0.0
0
LINE
8
Layer 1
62
4
5
38a
100
AcDbEntity
100
AcDbLine
10
106.937948
20
34.678262
30
0.0
11
106.433931
21
34.087428
31
0.0
0
LINE
8
Layer 1
62
4
5
38b
100
AcDbEntity
100
AcDbLine
10
106.433931
20
34.087428
30
0.0
11
106.079431
21
33.163798
31
0.0
0
LINE
8
Layer 1
62
4
5
38c
100
AcDbEntity
100
AcDbLine
10
106.079431
20
33.163798
30
0.0
11
104.381687
21
33.395308
31
0.0
0
LINE
8
Layer 1
62
4
5
38d
100
AcDbEntity
100
AcDbLine
10
104.381687
20
33.395308
30
0.0
11
104.687957
21
34.379226
31
0.0
0
LINE
8
Layer 1
62
4
5
38e
100
AcDbEntity
100
AcDbLine
10
104.687957
20
34.379226
30
0.0
11
105.143743
21
35.150928
31
0.0
0
LINE
8
Layer 1
62
4
5
38f
100
AcDbEntity
100
AcDbLine
10
105.143743
20
35.150928
30
0.0
11
105.792454
21
35.746585
31
0.0
0
LINE
8
Layer 1
62
4
5
390
100
AcDbEntity
100
AcDbLine
10
105.792454
20
35.746585
30
0.0
11
106.677500
21
36.183079
31
0.0
0
LINE
8
Layer 1
62
4
5
391
100
AcDbEntity
100
AcDbLine
10
106.677500
20
36.183079
30
0.0
11
107.760293
21
36.457998
31
0.0
0
LINE
8
Layer 1
62
4
5
392
100
AcDbEntity
100
AcDbLine
10
107.760293
20
36.457998
30
0.0
11
109.002249
21
36.549638
31
0.0
0
LINE
8
Layer 1
62
4
5
393
100
AcDbEntity
100
AcDbLine
10
109.002249
20
36.549638
30
0.0
11
110.191152
21
36.472468
31
0.0
0
LINE
8
Layer 1
62
4
5
394
100
AcDbEntity
100
AcDbLine
10
110.191152
20
36.472468
30
0.0
11
111.134076
21
36.240957
31
0.0
0
LINE
8
Layer 1
62
4
5
395
100
AcDbEntity
100
AcDbLine
10
111.134076
20
36.240957
30
0.0
11
111.845488
21
35.891280
31
0.0
0
LINE
8
Layer 1
62
4
5
396
100
AcDbEntity
100
AcDbLine
10
111.845488
20
35.891280
30
0.0
11
112.339859
21
35.459608
31
0.0
0
LINE
8
Layer 1
62
4
5
397
100
AcDbEntity
100
AcDbLine
10
112.339859
20
35.459608
30
0.0
11
112.667831
21
34.933888
31
0.0
0
LINE
8
Layer 1
62
4
5
398
100
AcDbEntity
100
AcDbLine
10
112.667831
20
34.933888
30
0.0
11
112.880050
21
34.282764
31
0.0
0
LINE
8
Layer 1
62
4
5
399
100
AcDbEntity
100
AcDbLine
10
112.880050
20
34.282764
30
0.0
11
112.966867
21
32.681483
31
0.0
0
LINE
8
Layer 1
62
4
5
39a
100
AcDbEntity
100
AcDbLine
10
112.966867
20
32.681483
30
0.0
11
112.966867
21
30.366381
31
0.0
0
LINE
8
Layer 1
62
4
5
39b
100
AcDbEntity
100
AcDbLine
10
112.966867
20
30.366381
30
0.0
11
113.072974
21
27.298868
31
0.0
0
LINE
8
Layer 1
62
4
5
39c
100
AcDbEntity
100
AcDbLine
10
113.072974
20
27.298868
30
0.0
11
113.516704
21
26.073792
31
0.0
0
LINE
8
Layer 1
62
4
5
39d
100
AcDbEntity
100
AcDbLine
10
113.516704
20
26.073792
30
0.0
11
111.703206
21
26.073792
31
0.0
0
LINE
8
Layer 1
62
4
5
39e
100
AcDbEntity
100
AcDbLine
10
111.703206
20
26.073792
30
0.0
11
111.355940
21
27.337453
31
0.0
0
LINE
8
Layer 1
62
4
5
39f
100
AcDbEntity
100
AcDbLine
10
111.355940
20
27.337453
30
0.0
11
111.355934
21
27.337453
31
0.0
0
LINE
8
Layer 1
62
4
5
3a0
100
AcDbEntity
100
AcDbLine
10
111.211239
20
31.215251
30
0.0
11
110.029571
21
30.858339
31
0.0
0
LINE
8
Layer 1
62
4
5
3a1
100
AcDbEntity
100
AcDbLine
10
110.029571
20
30.858339
30
0.0
11
108.375236
21
30.559305
31
0.0
0
LINE
8
Layer 1
62
4
5
3a2
100
AcDbEntity
100
AcDbLine
10
108.375236
20
30.559305
30
0.0
11
106.860772
21
30.212039
31
0.0
0
LINE
8
Layer 1
62
4
5
3a3
100
AcDbEntity
100
AcDbLine
10
106.860772
20
30.212039
30
0.0
11
106.175889
21
29.642909
31
0.0
0
LINE
8
Layer 1
62
4
5
3a4
100
AcDbEntity
100
AcDbLine
10
106.175889
20
29.642909
30
0.0
11
105.934730
21
28.822978
31
0.0
0
LINE
8
Layer 1
62
4
5
3a5
100
AcDbEntity
100
AcDbLine
10
105.934730
20
28.822978
30
0.0
11
106.064955
21
28.186324
31
0.0
0
LINE
8
Layer 1
62
4
5
3a6
100
AcDbEntity
100
AcDbLine
10
106.064955
20
28.186324
30
0.0
11
106.455631
21
27.665426
31
0.0
0
LINE
8
Layer 1
62
4
5
3a7
100
AcDbEntity
100
AcDbLine
10
106.455631
20
27.665426
30
0.0
11
107.106753
21
27.318160
31
0.0
0
LINE
8
Layer 1
62
4
5
3a8
100
AcDbEntity
100
AcDbLine
10
107.106753
20
27.318160
30
0.0
11
107.999033
21
27.202404
31
0.0
0
LINE
8
Layer 1
62
4
5
3a9
100
AcDbEntity
100
AcDbLine
10
107.999033
20
27.202404
30
0.0
11
108.946778
21
27.310925
31
0.0
0
LINE
8
Layer 1
62
4
5
3aa
100
AcDbEntity
100
AcDbLine
10
108.946778
20
27.310925
30
0.0
11
109.783592
21
27.636487
31
0.0
0
LINE
8
Layer 1
62
4
5
3ab
100
AcDbEntity
100
AcDbLine
10
109.783592
20
27.636487
30
0.0
11
110.461242
21
28.159796
31
0.0
0
LINE
8
Layer 1
62
4
5
3ac
100
AcDbEntity
100
AcDbLine
10
110.461242
20
28.159796
30
0.0
11
110.931497
21
28.842270
31
0.0
0
LINE
8
Layer 1
62
4
5
3ad
100
AcDbEntity
100
AcDbLine
10
110.931497
20
28.842270
30
0.0
11
111.141303
21
29.570563
31
0.0
0
LINE
8
Layer 1
62
4
5
3ae
100
AcDbEntity
100
AcDbLine
10
111.141303
20
29.570563
30
0.0
11
111.211239
21
30.578598
31
0.0
0
LINE
8
Layer 1
62
4
5
3af
100
AcDbEntity
100
AcDbLine
10
111.211239
20
30.578598
30
0.0
11
111.211239
21
31.215251
31
0.0
0
LINE
8
Layer 1
62
4
5
3b0
100
AcDbEntity
100
AcDbLine
10
111.211239
20
31.215251
30
0.0
11
111.211239
21
31.215251
31
0.0
0
LINE
8
Layer 1
62
4
5
3b1
100
AcDbEntity
100
AcDbLine
10
115.667815
20
26.073792
30
0.0
11
115.667815
21
36.318125
31
0.0
0
LINE
8
Layer 1
62
4
5
3b2
100
AcDbEntity
100
AcDbLine
10
115.667815
20
36.318125
30
0.0
11
117.230511
21
36.318125
31
0.0
0
LINE
8
Layer 1
62
4
5
3b3
100
AcDbEntity
100
AcDbLine
10
117.230511
20
36.318125
30
0.0
11
117.230511
21
34.861540
31
0.0
0
LINE
8
Layer 1
62
4
5
3b4
100
AcDbEntity
100
AcDbLine
10
117.230511
20
34.861540
30
0.0
11
117.857518
21
35.600083
31
0.0
0
LINE
8
Layer 1
62
4
5
3b5
100
AcDbEntity
100
AcDbLine
10
117.857518
20
35.600083
30
0.0
11
118.609926
21
36.127613
31
0.0
0
LINE
8
Layer 1
62
4
5
3b6
100
AcDbEntity
100
AcDbLine
10
118.609926
20
36.127613
30
0.0
11
119.487736
21
36.444132
31
0.0
0
LINE
8
Layer 1
62
4
5
3b7
100
AcDbEntity
100
AcDbLine
10
119.487736
20
36.444132
30
0.0
11
120.490948
21
36.549638
31
0.0
0
LINE
8
Layer 1
62
4
5
3b8
100
AcDbEntity
100
AcDbLine
10
120.490948
20
36.549638
30
0.0
11
121.378405
21
36.465233
31
0.0
0
LINE
8
Layer 1
62
4
5
3b9
100
AcDbEntity
100
AcDbLine
10
121.378405
20
36.465233
30
0.0
11
122.188692
21
36.212018
31
0.0
0
LINE
8
Layer 1
62
4
5
3ba
100
AcDbEntity
100
AcDbLine
10
122.188692
20
36.212018
30
0.0
11
122.871165
21
35.830991
31
0.0
0
LINE
8
Layer 1
62
4
5
3bb
100
AcDbEntity
100
AcDbLine
10
122.871165
20
35.830991
30
0.0
11
123.355890
21
35.343855
31
0.0
0
LINE
8
Layer 1
62
4
5
3bc
100
AcDbEntity
100
AcDbLine
10
123.355890
20
35.343855
30
0.0
11
123.896080
21
34.060901
31
0.0
0
LINE
8
Layer 1
62
4
5
3bd
100
AcDbEntity
100
AcDbLine
10
123.896080
20
34.060901
30
0.0
11
123.992544
21
32.372803
31
0.0
0
LINE
8
Layer 1
62
4
5
3be
100
AcDbEntity
100
AcDbLine
10
123.992544
20
32.372803
30
0.0
11
123.992544
21
26.073792
31
0.0
0
LINE
8
Layer 1
62
4
5
3bf
100
AcDbEntity
100
AcDbLine
10
123.992544
20
26.073792
30
0.0
11
122.256214
21
26.073792
31
0.0
0
LINE
8
Layer 1
62
4
5
3c0
100
AcDbEntity
100
AcDbLine
10
122.256214
20
26.073792
30
0.0
11
122.256214
21
32.305278
31
0.0
0
LINE
8
Layer 1
62
4
5
3c1
100
AcDbEntity
100
AcDbLine
10
122.256214
20
32.305278
30
0.0
11
122.053644
21
33.887266
31
0.0
0
LINE
8
Layer 1
62
4
5
3c2
100
AcDbEntity
100
AcDbLine
10
122.053644
20
33.887266
30
0.0
11
121.771490
21
34.362347
31
0.0
0
LINE
8
Layer 1
62
4
5
3c3
100
AcDbEntity
100
AcDbLine
10
121.771490
20
34.362347
30
0.0
11
121.330172
21
34.726494
31
0.0
0
LINE
8
Layer 1
62
4
5
3c4
100
AcDbEntity
100
AcDbLine
10
121.330172
20
34.726494
30
0.0
11
120.773101
21
34.965239
31
0.0
0
LINE
8
Layer 1
62
4
5
3c5
100
AcDbEntity
100
AcDbLine
10
120.773101
20
34.965239
30
0.0
11
120.124389
21
35.044821
31
0.0
0
LINE
8
Layer 1
62
4
5
3c6
100
AcDbEntity
100
AcDbLine
10
120.124389
20
35.044821
30
0.0
11
119.089828
21
34.868776
31
0.0
0
LINE
8
Layer 1
62
4
5
3c7
100
AcDbEntity
100
AcDbLine
10
119.089828
20
34.868776
30
0.0
11
118.204784
21
34.340642
31
0.0
0
LINE
8
Layer 1
62
4
5
3c8
100
AcDbEntity
100
AcDbLine
10
118.204784
20
34.340642
30
0.0
11
117.854504
21
33.909575
31
0.0
0
LINE
8
Layer 1
62
4
5
3c9
100
AcDbEntity
100
AcDbLine
10
117.854504
20
33.909575
30
0.0
11
117.604303
21
33.320549
31
0.0
0
LINE
8
Layer 1
62
4
5
3ca
100
AcDbEntity
100
AcDbLine
10
117.604303
20
33.320549
30
0.0
11
117.404142
21
31.668627
31
0.0
0
LINE
8
Layer 1
62
4
5
3cb
100
AcDbEntity
100
AcDbLine
10
117.404142
20
31.668627
30
0.0
11
117.404142
21
26.073792
31
0.0
0
LINE
8
Layer 1
62
4
5
3cc
100
AcDbEntity
100
AcDbLine
10
117.404142
20
26.073792
30
0.0
11
115.667815
21
26.073792
31
0.0
0
LINE
8
Layer 1
62
4
5
3cd
100
AcDbEntity
100
AcDbLine
10
115.667815
20
26.073792
30
0.0
11
115.667815
21
26.073792
31
0.0
0
LINE
8
Layer 1
62
4
5
3ce
100
AcDbEntity
100
AcDbLine
10
107.449194
20
1.379347
30
0.0
11
107.449194
21
15.520775
31
0.0
0
LINE
8
Layer 1
62
4
5
3cf
100
AcDbEntity
100
AcDbLine
10
107.449194
20
15.520775
30
0.0
11
109.320570
21
15.520775
31
0.0
0
LINE
8
Layer 1
62
4
5
3d0
100
AcDbEntity
100
AcDbLine
10
109.320570
20
15.520775
30
0.0
11
109.320570
21
1.379347
31
0.0
0
LINE
8
Layer 1
62
4
5
3d1
100
AcDbEntity
100
AcDbLine
10
109.320570
20
1.379347
30
0.0
11
107.449194
21
1.379347
31
0.0
0
LINE
8
Layer 1
62
4
5
3d2
100
AcDbEntity
100
AcDbLine
10
107.449194
20
1.379347
30
0.0
11
107.449194
21
1.379347
31
0.0
0
LINE
8
Layer 1
62
4
5
3d3
100
AcDbEntity
100
AcDbLine
10
112.609949
20
1.379347
30
0.0
11
112.609949
21
15.520775
31
0.0
0
LINE
8
Layer 1
62
4
5
3d4
100
AcDbEntity
100
AcDbLine
10
112.609949
20
15.520775
30
0.0
11
117.481313
21
15.520775
31
0.0
0
LINE
8
Layer 1
62
4
5
3d5
100
AcDbEntity
100
AcDbLine
10
117.481313
20
15.520775
30
0.0
11
119.998990
21
15.318204
31
0.0
0
LINE
8
Layer 1
62
4
5
3d6
100
AcDbEntity
100
AcDbLine
10
119.998990
20
15.318204
30
0.0
11
121.125191
21
14.925117
31
0.0
0
LINE
8
Layer 1
62
4
5
3d7
100
AcDbEntity
100
AcDbLine
10
121.125191
20
14.925117
30
0.0
11
122.072936
21
14.305345
31
0.0
0
LINE
8
Layer 1
62
4
5
3d8
100
AcDbEntity
100
AcDbLine
10
122.072936
20
14.305345
30
0.0
11
123.049621
21
13.227375
31
0.0
0
LINE
8
Layer 1
62
4
5
3d9
100
AcDbEntity
100
AcDbLine
10
123.049621
20
13.227375
30
0.0
11
123.741742
21
11.884133
31
0.0
0
LINE
8
Layer 1
62
4
5
3da
100
AcDbEntity
100
AcDbLine
10
123.741742
20
11.884133
30
0.0
11
124.161354
21
10.311790
31
0.0
0
LINE
8
Layer 1
62
4
5
3db
100
AcDbEntity
100
AcDbLine
10
124.161354
20
10.311790
30
0.0
11
124.301225
21
8.527232
31
0.0
0
LINE
8
Layer 1
62
4
5
3dc
100
AcDbEntity
100
AcDbLine
10
124.301225
20
8.527232
30
0.0
11
124.207173
21
7.007944
31
0.0
0
LINE
8
Layer 1
62
4
5
3dd
100
AcDbEntity
100
AcDbLine
10
124.207173
20
7.007944
30
0.0
11
123.925020
21
5.671936
31
0.0
0
LINE
8
Layer 1
62
4
5
3de
100
AcDbEntity
100
AcDbLine
10
123.925020
20
5.671936
30
0.0
11
123.495760
21
4.533676
31
0.0
0
LINE
8
Layer 1
62
4
5
3df
100
AcDbEntity
100
AcDbLine
10
123.495760
20
4.533676
30
0.0
11
122.960392
21
3.607633
31
0.0
0
LINE
8
Layer 1
62
4
5
3e0
100
AcDbEntity
100
AcDbLine
10
122.960392
20
3.607633
30
0.0
11
122.343031
21
2.881752
31
0.0
0
LINE
8
Layer 1
62
4
5
3e1
100
AcDbEntity
100
AcDbLine
10
122.343031
20
2.881752
30
0.0
11
121.667792
21
2.324682
31
0.0
0
LINE
8
Layer 1
62
4
5
3e2
100
AcDbEntity
100
AcDbLine
10
121.667792
20
2.324682
30
0.0
11
120.898504
21
1.917126
31
0.0
0
LINE
8
Layer 1
62
4
5
3e3
100
AcDbEntity
100
AcDbLine
10
120.898504
20
1.917126
30
0.0
11
119.979697
21
1.620503
31
0.0
0
LINE
8
Layer 1
62
4
5
3e4
100
AcDbEntity
100
AcDbLine
10
119.979697
20
1.620503
30
0.0
11
117.712823
21
1.379347
31
0.0
0
LINE
8
Layer 1
62
4
5
3e5
100
AcDbEntity
100
AcDbLine
10
117.712823
20
1.379347
30
0.0
11
112.609949
21
1.379347
31
0.0
0
LINE
8
Layer 1
62
4
5
3e6
100
AcDbEntity
100
AcDbLine
10
112.609949
20
1.379347
30
0.0
11
112.609949
21
1.379347
31
0.0
0
LINE
8
Layer 1
62
4
5
3e7
100
AcDbEntity
100
AcDbLine
10
114.481325
20
3.048150
30
0.0
11
117.500606
21
3.048150
31
0.0
0
LINE
8
Layer 1
62
4
5
3e8
100
AcDbEntity
100
AcDbLine
10
117.500606
20
3.048150
30
0.0
11
118.747385
21
3.113262
31
0.0
0
LINE
8
Layer 1
62
4
5
3e9
100
AcDbEntity
100
AcDbLine
10
118.747385
20
3.113262
30
0.0
11
119.690309
21
3.308599
31
0.0
0
LINE
8
Layer 1
62
4
5
3ea
100
AcDbEntity
100
AcDbLine
10
119.690309
20
3.308599
30
0.0
11
120.408955
21
3.622104
31
0.0
0
LINE
8
Layer 1
62
4
5
3eb
100
AcDbEntity
100
AcDbLine
10
120.408955
20
3.622104
30
0.0
11
120.963617
21
4.041716
31
0.0
0
LINE
8
Layer 1
62
4
5
3ec
100
AcDbEntity
100
AcDbLine
10
120.963617
20
4.041716
30
0.0
11
121.554450
21
4.820652
31
0.0
0
LINE
8
Layer 1
62
4
5
3ed
100
AcDbEntity
100
AcDbLine
10
121.554450
20
4.820652
30
0.0
11
121.995765
21
5.826275
31
0.0
0
LINE
8
Layer 1
62
4
5
3ee
100
AcDbEntity
100
AcDbLine
10
121.995765
20
5.826275
30
0.0
11
122.277919
21
7.073056
31
0.0
0
LINE
8
Layer 1
62
4
5
3ef
100
AcDbEntity
100
AcDbLine
10
122.277919
20
7.073056
30
0.0
11
122.371970
21
8.556168
31
0.0
0
LINE
8
Layer 1
62
4
5
3f0
100
AcDbEntity
100
AcDbLine
10
122.371970
20
8.556168
30
0.0
11
122.188691
21
10.516772
31
0.0
0
LINE
8
Layer 1
62
4
5
3f1
100
AcDbEntity
100
AcDbLine
10
122.188691
20
10.516772
30
0.0
11
121.638853
21
11.961301
31
0.0
0
LINE
8
Layer 1
62
4
5
3f2
100
AcDbEntity
100
AcDbLine
10
121.638853
20
11.961301
30
0.0
11
120.835802
21
12.959691
31
0.0
0
LINE
8
Layer 1
62
4
5
3f3
100
AcDbEntity
100
AcDbLine
10
120.835802
20
12.959691
30
0.0
11
119.873587
21
13.562582
31
0.0
0
LINE
8
Layer 1
62
4
5
3f4
100
AcDbEntity
100
AcDbLine
10
119.873587
20
13.562582
30
0.0
11
118.892080
21
13.779622
31
0.0
0
LINE
8
Layer 1
62
4
5
3f5
100
AcDbEntity
100
AcDbLine
10
118.892080
20
13.779622
30
0.0
11
117.452374
21
13.851969
31
0.0
0
LINE
8
Layer 1
62
4
5
3f6
100
AcDbEntity
100
AcDbLine
10
117.452374
20
13.851969
30
0.0
11
114.481325
21
13.851969
31
0.0
0
LINE
8
Layer 1
62
4
5
3f7
100
AcDbEntity
100
AcDbLine
10
114.481325
20
13.851969
30
0.0
11
114.481325
21
3.048150
31
0.0
0
LINE
8
Layer 1
62
4
5
3f8
100
AcDbEntity
100
AcDbLine
10
114.481325
20
3.048150
30
0.0
11
114.481325
21
3.048150
31
0.0
  0
ENDSEC
  0
SECTION
  2
OBJECTS
  0
DICTIONARY
  5
C
330
0
100
AcDbDictionary
  3
ACAD_GROUP
350
D
  3
ACAD_MLINESTYLE
350
17
  0
DICTIONARY
  5
D
330
C
100
AcDbDictionary
  0
DICTIONARY
  5
1A
330
C
100
AcDbDictionary
  0
DICTIONARY
  5
17
330
C
100
AcDbDictionary
  3
STANDARD
350
18
  0
DICTIONARY
  5
19
330
C
100
AcDbDictionary
  0
ENDSEC
  0
EOF
